<?xml version="1.0" encoding="utf-8"?>
<!-- Generator: Adobe Illustrator 25.0.0, SVG Export Plug-In . SVG Version: 6.00 Build 0)  -->
<svg version="1.1" id="Layer_1" xmlns="http://www.w3.org/2000/svg" xmlns:xlink="http://www.w3.org/1999/xlink" x="0px" y="0px"
	 viewBox="0 0 1920 1080" style="enable-background:new 0 0 1920 1080;" xml:space="preserve">
<style type="text/css">
	.st0{fill:#FFFFFF;}
</style>
<g>
	<g>
		<g>
			<path class="st0" d="M797.58,563.85c-1.68-1.75-2.52-4.52-2.52-8.31V428.83c0-3.8,0.88-6.6,2.62-8.42
				c1.75-1.82,4.67-2.73,8.75-2.73h21.22c4.23,0,7.22,0.91,8.97,2.73c1.75,1.82,2.62,4.64,2.62,8.42v126.7
				c0,3.8-0.88,6.56-2.62,8.31c-1.75,1.75-4.74,2.62-8.97,2.62h-21.22C802.22,566.49,799.26,565.61,797.58,563.85z"/>
			<path class="st0" d="M860.71,563.85c-1.75-1.75-2.62-4.52-2.62-8.31v-87.31c0-2.62,0.47-4.41,1.42-5.36
				c0.95-0.95,2.96-1.42,6.02-1.42h22.54c1.75,0,3.1,0.26,4.04,0.77c0.95,0.51,1.49,1.42,1.64,2.73l1.1,6.56
				c4.08-4.08,9.45-7.33,16.08-9.74c6.63-2.41,14.04-3.61,22.21-3.61c11.81,0,21.37,3.32,28.66,9.96
				c7.3,6.65,10.94,16.45,10.94,29.43v57.99c0,3.8-0.84,6.56-2.52,8.31c-1.68,1.75-4.64,2.62-8.86,2.62h-21.22
				c-4.23,0-7.26-0.88-9.08-2.62c-1.82-1.75-2.73-4.52-2.73-8.31v-55.15c0-4.38-0.95-7.51-2.85-9.41c-1.89-1.89-4.9-2.85-8.97-2.85
				c-4.38,0-7.84,1.17-10.39,3.5c-2.55,2.33-3.83,5.55-3.83,9.63v54.27c0,3.8-0.84,6.56-2.52,8.31c-1.68,1.75-4.64,2.62-8.86,2.62
				h-21.22C865.45,566.49,862.46,565.61,860.71,563.85z"/>
			<path class="st0" d="M1002.51,555.54c-10.94-9.48-16.41-23.55-16.41-42.24c0-16.78,4.67-30.16,14-40.16
				c9.33-9.99,22.54-14.99,39.61-14.99c4.81,0,9.48,0.54,14,1.64c4.52,1.09,8.1,2.52,10.72,4.27v-35.22c0-3.8,0.88-6.6,2.62-8.42
				c1.75-1.82,4.74-2.73,8.97-2.73h20.35c4.23,0,7.22,0.91,8.97,2.73c1.75,1.82,2.62,4.64,2.62,8.42v125.39
				c-6.28,4.52-14.44,8.24-24.51,11.16c-10.06,2.92-20.72,4.38-31.95,4.38C1029.79,569.76,1013.45,565.02,1002.51,555.54z
				 M1064.66,537.59v-35.22c0-9.63-5.18-14.44-15.54-14.44c-6.42,0-11.2,2.29-14.33,6.89c-3.13,4.6-4.71,10.83-4.71,18.71
				c0,9.48,1.89,16.27,5.69,20.35c3.8,4.09,9.48,6.13,17.06,6.13C1057.8,539.99,1061.74,539.2,1064.66,537.59z"/>
			<path class="st0" d="M1136.31,559.79c-7.08-6.63-10.62-16.81-10.62-30.52V472.6c0-3.8,0.88-6.6,2.62-8.42
				c1.75-1.82,4.67-2.73,8.75-2.73h21.22c4.23,0,7.22,0.91,8.97,2.73c1.75,1.82,2.62,4.64,2.62,8.42v54.92
				c0,8.31,4.01,12.47,12.04,12.47c4.38,0,7.73-1.17,10.06-3.5c2.33-2.33,3.5-5.62,3.5-9.85V472.6c0-3.8,0.88-6.6,2.62-8.42
				c1.75-1.82,4.74-2.73,8.97-2.73h21.22c4.23,0,7.22,0.91,8.97,2.73c1.75,1.82,2.62,4.64,2.62,8.42v87.09
				c0,2.78-0.47,4.6-1.42,5.47c-0.95,0.88-2.96,1.31-6.02,1.31h-22.54c-1.75,0-3.1-0.21-4.04-0.66c-0.95-0.44-1.5-1.31-1.64-2.62
				l-1.1-6.79c-4.23,4.09-9.48,7.33-15.76,9.74c-6.28,2.4-13.42,3.61-21.45,3.61C1153.28,569.76,1143.4,566.44,1136.31,559.79z"/>
			<path class="st0" d="M1258.53,558.39c-2.78-1.75-4.16-3.29-4.16-4.6c0-0.73,0.37-1.82,1.1-3.29l9.19-16.41
				c0.88-1.75,1.97-2.62,3.29-2.62c0.88,0,2.12,0.44,3.72,1.31c4.08,2.19,9.31,4.2,15.64,6.02c6.35,1.82,12,2.73,16.96,2.73
				c4.67,0,8.02-0.47,10.06-1.42c2.05-0.95,3.06-2.52,3.06-4.71c0-2.03-1.42-3.75-4.27-5.14c-2.85-1.38-7.98-3.17-15.43-5.36
				l-4.81-1.31c-12.11-3.64-20.86-7.8-26.26-12.47c-5.4-4.67-8.1-11.3-8.1-19.91c0-10.65,4.6-18.82,13.79-24.51
				c9.19-5.69,21.52-8.54,36.99-8.54c9.63,0,18.02,0.88,25.16,2.63c7.14,1.75,14,4.38,20.57,7.88c2.62,1.45,3.94,3.06,3.94,4.81
				c0,1.03-0.44,2.34-1.31,3.94l-8.97,14.22c-1.02,1.61-2.05,2.41-3.06,2.41c-0.88,0-2.05-0.44-3.5-1.31
				c-3.5-1.89-7.59-3.43-12.25-4.6c-4.67-1.16-9.19-1.75-13.56-1.75c-10.06,0-15.1,2.19-15.1,6.56c0,2.05,1.64,3.76,4.92,5.14
				c3.29,1.38,8.35,2.89,15.21,4.48c1.61,0.44,3.83,1.03,6.67,1.75c2.85,0.73,5.21,1.45,7.12,2.19c7,2.48,12.39,5,16.19,7.54
				c3.8,2.55,6.49,5.55,8.1,8.97c1.61,3.43,2.41,7.77,2.41,13.02c0,6.28-1.89,11.93-5.69,16.96c-3.8,5.04-9.62,9.08-17.5,12.14
				s-17.58,4.6-29.1,4.6C1288.94,569.76,1271.95,565.95,1258.53,558.39z"/>
			<path class="st0" d="M1395.07,558.27c-7.44-7.66-11.16-18.34-11.16-32.06v-34.57h-8.97c-4.08,0-6.82-0.8-8.21-2.4
				c-1.38-1.61-2.08-4.38-2.08-8.31v-8.54c0-3.94,0.69-6.75,2.08-8.42c1.38-1.68,4.11-2.52,8.21-2.52h8.97v-5.47
				c0-3.5,0.8-7.04,2.41-10.62c1.61-3.57,3.94-7.91,7-13.02c1.45-2.48,2.8-4.08,4.04-4.81c1.24-0.73,3.46-1.09,6.67-1.09h12.91
				c4.08,0,6.96,0.88,8.64,2.63c1.68,1.75,2.52,4.52,2.52,8.31v24.07h17.51c4.08,0,6.82,0.84,8.21,2.52s2.08,4.48,2.08,8.42v8.54
				c0,3.94-0.7,6.72-2.08,8.31c-1.38,1.61-4.13,2.4-8.21,2.4h-17.51v33.7c0,4.53,0.88,7.84,2.62,9.96c1.75,2.12,4.6,3.17,8.54,3.17
				c2.48,0,4.48-0.3,6.02-0.88c1.54-0.58,3.39-1.61,5.58-3.06c1.17-0.73,2.26-1.09,3.29-1.09c1.45,0,2.7,0.88,3.72,2.62l9.19,15.76
				c1.02,1.75,1.54,3.13,1.54,4.16c0,1.31-0.87,2.55-2.62,3.72c-4.95,3.36-10.54,5.88-16.74,7.54c-6.2,1.68-13.53,2.52-21.99,2.52
				C1413.23,569.76,1402.52,565.93,1395.07,558.27z"/>
			<path class="st0" d="M1481.28,563.85c-1.75-1.75-2.62-4.52-2.62-8.31v-87.31c0-2.62,0.47-4.41,1.42-5.36
				c0.95-0.95,2.96-1.42,6.02-1.42h22.54c1.75,0,3.1,0.26,4.04,0.77c0.95,0.51,1.49,1.42,1.64,2.73l1.1,6.35
				c8.75-8.75,19.33-13.13,31.72-13.13c4.81,0,8.75,0.4,11.81,1.21c3.06,0.8,5.83,2.08,8.31,3.83c1.45,1.03,2.19,2.19,2.19,3.5
				c0,0.44-0.14,1.24-0.44,2.4l-7,19.91c-0.58,2.05-1.68,3.06-3.29,3.06c-0.73,0-1.61-0.3-2.62-0.87
				c-3.94-2.19-8.68-3.29-14.22-3.29c-5.55,0-10.1,1.54-13.68,4.6c-3.57,3.06-5.36,7.15-5.36,12.25v50.76c0,3.8-0.84,6.56-2.52,8.31
				c-1.68,1.75-4.64,2.62-8.86,2.62h-21.22C1486.02,566.49,1483.04,565.61,1481.28,563.85z"/>
			<path class="st0" d="M1583.48,446.22c-2.62-2.7-3.94-5.86-3.94-9.52v-5.25c0-3.8,1.31-7.04,3.94-9.73
				c2.62-2.7,6.42-4.04,11.38-4.04h15.75c5.11,0,8.97,1.35,11.6,4.04c2.62,2.7,3.94,5.95,3.94,9.73v5.25c0,3.65-1.31,6.82-3.94,9.52
				c-2.62,2.7-6.49,4.04-11.6,4.04h-15.75C1589.9,450.28,1586.1,448.94,1583.48,446.22z M1583.25,563.85
				c-1.75-1.75-2.62-4.52-2.62-8.31V472.6c0-3.8,0.88-6.6,2.62-8.42c1.75-1.82,4.74-2.73,8.97-2.73h21.01
				c4.23,0,7.26,0.91,9.08,2.73c1.82,1.82,2.73,4.64,2.73,8.42v82.94c0,3.8-0.91,6.56-2.73,8.31c-1.82,1.75-4.85,2.62-9.08,2.62
				h-21.01C1587.99,566.49,1585,565.61,1583.25,563.85z"/>
			<path class="st0" d="M1652.95,556.52c-8.24-8.82-12.37-21.26-12.37-37.31c0-12.25,2.8-22.97,8.42-32.16
				c5.62-9.19,13.56-16.31,23.85-21.33c10.29-5.04,22.14-7.54,35.56-7.54c11.08,0,20.89,1.21,29.43,3.61
				c8.54,2.4,16.38,5.88,23.52,10.39v87.54c0,2.78-0.51,4.6-1.54,5.47c-1.02,0.88-3.06,1.31-6.13,1.31h-22.32
				c-1.61,0-2.84-0.25-3.72-0.77c-0.88-0.51-1.61-1.35-2.19-2.52l-2.85-6.56c-4.23,4.53-9.29,7.84-15.21,9.96
				c-5.91,2.12-13.1,3.17-21.56,3.17C1672.17,569.76,1661.19,565.34,1652.95,556.52z M1715.64,535.84c3.2-2.77,4.81-6.7,4.81-11.81
				v-34.14c-2.78-1.31-6.28-1.97-10.5-1.97c-7.73,0-13.89,2.7-18.49,8.1c-4.6,5.4-6.89,12.98-6.89,22.76
				c0,14.15,5.91,21.22,17.72,21.22C1707.99,539.99,1712.43,538.6,1715.64,535.84z"/>
			<path class="st0" d="M1774.5,558.39c-2.78-1.75-4.16-3.29-4.16-4.6c0-0.73,0.37-1.82,1.1-3.29l9.19-16.41
				c0.88-1.75,1.97-2.62,3.29-2.62c0.88,0,2.12,0.44,3.72,1.31c4.08,2.19,9.31,4.2,15.64,6.02c6.35,1.82,12,2.73,16.96,2.73
				c4.67,0,8.02-0.47,10.06-1.42c2.05-0.95,3.06-2.52,3.06-4.71c0-2.03-1.42-3.75-4.27-5.14c-2.85-1.38-7.98-3.17-15.43-5.36
				l-4.81-1.31c-12.11-3.64-20.86-7.8-26.26-12.47c-5.4-4.67-8.1-11.3-8.1-19.91c0-10.65,4.6-18.82,13.79-24.51
				c9.19-5.69,21.52-8.54,36.99-8.54c9.63,0,18.02,0.88,25.16,2.63c7.14,1.75,14,4.38,20.57,7.88c2.62,1.45,3.94,3.06,3.94,4.81
				c0,1.03-0.44,2.34-1.31,3.94l-8.97,14.22c-1.02,1.61-2.05,2.41-3.06,2.41c-0.88,0-2.05-0.44-3.5-1.31
				c-3.5-1.89-7.59-3.43-12.25-4.6c-4.67-1.16-9.19-1.75-13.56-1.75c-10.06,0-15.1,2.19-15.1,6.56c0,2.05,1.64,3.76,4.92,5.14
				c3.29,1.38,8.35,2.89,15.21,4.48c1.61,0.44,3.83,1.03,6.67,1.75c2.85,0.73,5.21,1.45,7.12,2.19c7,2.48,12.39,5,16.19,7.54
				c3.8,2.55,6.49,5.55,8.1,8.97c1.61,3.43,2.41,7.77,2.41,13.02c0,6.28-1.89,11.93-5.69,16.96c-3.8,5.04-9.62,9.08-17.5,12.14
				s-17.58,4.6-29.1,4.6C1804.93,569.76,1787.92,565.95,1774.5,558.39z"/>
			<path class="st0" d="M797.58,734.59c-1.68-1.75-2.52-4.52-2.52-8.31v-126.7c0-3.8,0.88-6.6,2.62-8.42s4.67-2.73,8.75-2.73h21.22
				c4.23,0,7.22,0.91,8.97,2.73c1.75,1.82,2.62,4.64,2.62,8.42v105.91h56.46c4.08,0,6.86,0.84,8.31,2.52
				c1.45,1.68,2.19,4.48,2.19,8.42v10.06c0,3.8-0.73,6.53-2.19,8.21c-1.45,1.68-4.23,2.52-8.31,2.52h-89.27
				C802.22,737.23,799.26,736.36,797.58,734.59z"/>
			<path class="st0" d="M917.39,613.37c0-1.17,0.21-2.26,0.66-3.29l9.63-26.47c1.02-2.92,2.22-4.88,3.61-5.91
				c1.38-1.02,3.97-1.54,7.77-1.54h26.26c2.62,0,4.71,0.47,6.23,1.42c1.54,0.95,2.29,2.29,2.29,4.04c0,1.61-0.51,3.22-1.54,4.81
				l-14.22,25.16c-1.75,2.92-3.43,4.85-5.04,5.81c-1.61,0.95-4.53,1.42-8.75,1.42h-19.47C919.87,618.85,917.39,617.02,917.39,613.37
				z M920.34,734.59c-1.68-1.75-2.52-4.52-2.52-8.31v-82.94c0-3.8,0.88-6.6,2.62-8.42c1.75-1.82,4.67-2.73,8.75-2.73h21.22
				c4.23,0,7.22,0.91,8.97,2.73c1.75,1.82,2.62,4.64,2.62,8.42v82.94c0,3.8-0.88,6.56-2.62,8.31s-4.74,2.62-8.97,2.62H929.2
				C924.98,737.23,922.02,736.36,920.34,734.59z"/>
			<path class="st0" d="M1058.96,778.79c-1.75-1.75-2.62-4.52-2.62-8.31v-36.55c-2.78,2.05-6.42,3.64-10.94,4.81
				c-4.53,1.17-9.19,1.75-14,1.75c-17.22,0-30.41-4.64-39.61-13.89c-9.19-9.26-13.79-22.14-13.79-38.62
				c0-18.82,5.58-33.37,16.74-43.66c11.16-10.29,27.54-15.43,49.13-15.43c10.94,0,21.37,1.54,31.29,4.6
				c9.92,3.06,18.16,6.93,24.72,11.6v125.39c0,3.8-0.88,6.56-2.62,8.31c-1.75,1.75-4.74,2.62-8.97,2.62h-20.35
				C1063.7,781.42,1060.71,780.54,1058.96,778.79z M1052.4,707.03c2.77-2.62,4.16-6.42,4.16-11.38v-34.79
				c-2.78-1.31-6.65-1.97-11.6-1.97c-7.44,0-13.12,2.41-17.06,7.22c-3.94,4.81-5.91,12.04-5.91,21.66c0,15.47,6.27,23.2,18.81,23.2
				C1045.76,710.96,1049.63,709.64,1052.4,707.03z"/>
			<path class="st0" d="M1128.21,730.55c-7.08-6.63-10.62-16.81-10.62-30.52v-56.67c0-3.8,0.88-6.6,2.62-8.42s4.67-2.73,8.75-2.73
				h21.22c4.23,0,7.22,0.91,8.97,2.73s2.62,4.64,2.62,8.42v54.92c0,8.31,4.01,12.47,12.04,12.47c4.38,0,7.73-1.17,10.06-3.5
				c2.33-2.33,3.5-5.62,3.5-9.85v-54.06c0-3.8,0.88-6.6,2.62-8.42s4.74-2.73,8.97-2.73h21.22c4.23,0,7.22,0.91,8.97,2.73
				s2.62,4.64,2.62,8.42v87.09c0,2.78-0.47,4.6-1.42,5.47c-0.95,0.88-2.96,1.31-6.02,1.31h-22.54c-1.75,0-3.1-0.21-4.04-0.66
				c-0.95-0.44-1.5-1.31-1.64-2.62l-1.1-6.79c-4.23,4.09-9.48,7.33-15.76,9.74c-6.28,2.4-13.42,3.61-21.44,3.61
				C1145.18,740.51,1135.3,737.2,1128.21,730.55z"/>
			<path class="st0" d="M1254.58,616.98c-2.62-2.7-3.94-5.86-3.94-9.52v-5.25c0-3.8,1.31-7.04,3.94-9.73
				c2.62-2.7,6.42-4.04,11.38-4.04h15.75c5.11,0,8.97,1.35,11.6,4.04c2.62,2.7,3.94,5.95,3.94,9.73v5.25c0,3.65-1.31,6.82-3.94,9.52
				c-2.62,2.7-6.49,4.04-11.6,4.04h-15.75C1261,621.03,1257.22,619.68,1254.58,616.98z M1254.37,734.59
				c-1.75-1.75-2.62-4.52-2.62-8.31v-82.94c0-3.8,0.88-6.6,2.62-8.42s4.74-2.73,8.97-2.73h21c4.23,0,7.26,0.91,9.08,2.73
				s2.73,4.64,2.73,8.42v82.94c0,3.8-0.91,6.56-2.73,8.31s-4.85,2.62-9.08,2.62h-21C1259.11,737.23,1256.12,736.36,1254.37,734.59z"
				/>
			<path class="st0" d="M1328.11,726.29c-10.94-9.48-16.41-23.55-16.41-42.24c0-16.78,4.67-30.16,14-40.16s22.54-14.99,39.61-14.99
				c4.81,0,9.48,0.54,14,1.64c4.52,1.09,8.1,2.52,10.72,4.27v-35.22c0-3.8,0.88-6.6,2.62-8.42s4.74-2.73,8.97-2.73h20.35
				c4.23,0,7.22,0.91,8.97,2.73c1.75,1.82,2.62,4.64,2.62,8.42v125.39c-6.28,4.52-14.44,8.24-24.51,11.16
				c-10.06,2.92-20.72,4.38-31.95,4.38C1355.39,740.51,1339.06,735.76,1328.11,726.29z M1390.26,708.33v-35.22
				c0-9.63-5.18-14.44-15.54-14.44c-6.42,0-11.2,2.29-14.33,6.89c-3.13,4.6-4.71,10.83-4.71,18.71c0,9.48,1.89,16.27,5.69,20.35
				c3.8,4.09,9.48,6.13,17.06,6.13C1383.4,710.76,1387.33,709.94,1390.26,708.33z"/>
			<path class="st0" d="M1457.1,727.27c-8.24-8.82-12.37-21.26-12.37-37.31c0-12.25,2.8-22.97,8.42-32.16
				c5.62-9.19,13.56-16.31,23.85-21.33c10.29-5.04,22.14-7.54,35.56-7.54c11.08,0,20.89,1.21,29.43,3.61
				c8.54,2.4,16.38,5.88,23.52,10.39v87.54c0,2.78-0.51,4.6-1.54,5.47c-1.02,0.88-3.06,1.31-6.13,1.31h-22.32
				c-1.61,0-2.84-0.25-3.72-0.77c-0.88-0.51-1.61-1.35-2.19-2.52l-2.85-6.56c-4.23,4.53-9.29,7.84-15.21,9.96
				c-5.91,2.12-13.1,3.17-21.56,3.17C1476.33,740.51,1465.34,736.08,1457.1,727.27z M1519.79,706.59c3.2-2.77,4.81-6.7,4.81-11.81
				v-34.14c-2.78-1.31-6.28-1.97-10.5-1.97c-7.73,0-13.89,2.7-18.49,8.1c-4.6,5.4-6.89,12.98-6.89,22.76
				c0,14.15,5.91,21.22,17.72,21.22C1512.14,710.76,1516.59,709.36,1519.79,706.59z"/>
			<path class="st0" d="M1578.65,729.12c-2.78-1.75-4.16-3.29-4.16-4.6c0-0.73,0.37-1.82,1.1-3.29l9.19-16.41
				c0.88-1.75,1.97-2.62,3.29-2.62c0.88,0,2.12,0.44,3.72,1.31c4.08,2.19,9.31,4.2,15.64,6.02c6.35,1.82,12,2.73,16.96,2.73
				c4.67,0,8.02-0.47,10.06-1.42c2.05-0.95,3.06-2.52,3.06-4.71c0-2.03-1.42-3.75-4.27-5.14c-2.85-1.38-7.98-3.17-15.43-5.36
				l-4.81-1.31c-12.11-3.64-20.86-7.8-26.26-12.47s-8.1-11.3-8.1-19.91c0-10.65,4.6-18.82,13.79-24.51
				c9.19-5.69,21.52-8.54,36.99-8.54c9.63,0,18.02,0.88,25.16,2.62c7.14,1.75,14,4.38,20.57,7.88c2.62,1.45,3.94,3.06,3.94,4.81
				c0,1.03-0.44,2.34-1.31,3.94l-8.97,14.22c-1.02,1.61-2.05,2.4-3.06,2.4c-0.88,0-2.05-0.44-3.5-1.31
				c-3.5-1.89-7.59-3.43-12.25-4.6c-4.67-1.16-9.19-1.75-13.56-1.75c-10.06,0-15.1,2.19-15.1,6.56c0,2.05,1.64,3.76,4.92,5.14
				c3.29,1.38,8.35,2.89,15.21,4.48c1.61,0.44,3.83,1.03,6.67,1.75c2.85,0.73,5.21,1.45,7.11,2.19c7,2.48,12.39,5,16.19,7.54
				c3.8,2.55,6.49,5.55,8.1,8.97c1.61,3.43,2.41,7.77,2.41,13.02c0,6.28-1.89,11.93-5.69,16.96c-3.8,5.04-9.63,9.08-17.5,12.14
				c-7.88,3.06-17.58,4.6-29.1,4.6C1609.08,740.51,1592.07,736.71,1578.65,729.12z"/>
		</g>
	</g>
	<g>
		<path class="st0" d="M577.58,347.68c-25.48,0-47.83,13.39-60.42,33.5c-0.01-0.01-0.01-0.01-0.02-0.02
			c-3.77-4.47-7.7-8.79-11.8-12.98c-0.01-0.01-0.01-0.01-0.02-0.02c5.58-7.91,8.89-17.55,8.89-27.96c0-26.84-21.76-48.6-48.6-48.6
			c-16.2,0-30.5,7.96-39.33,20.14c-0.01-0.01-0.02-0.01-0.04-0.02c-34.73-16.33-73.49-25.45-114.41-25.45
			c-148.88,0-269.62,120.7-269.62,269.62s120.73,269.62,269.62,269.62c133.71,0,244.71-97.34,265.94-225.04c0-0.01,0-0.02,0-0.04
			c0.4,0.01,0.78,0.06,1.18,0.06c26.84,0,48.6-21.76,48.6-48.6c0-26.84-21.76-48.6-48.6-48.6c-0.89,0-1.76,0.08-2.64,0.13
			c0-0.02-0.01-0.04-0.01-0.06c-0.85-4.46-1.84-8.88-2.96-13.28c1.4,0.08,2.81,0.13,4.23,0.13c39.36,0,71.28-31.91,71.28-71.28
			S616.94,347.68,577.58,347.68z M255.08,667.94c0,6.85-1.57,11.87-4.74,15.02c-3.15,3.17-8.56,4.74-16.19,4.74h-38.36
			c-7.66,0-12.98-1.57-16.01-4.74c-3.03-3.15-4.55-8.17-4.55-15.02v-228.9c0-6.85,1.6-11.92,4.74-15.22
			c3.17-3.29,8.44-4.95,15.82-4.95h38.36c7.64,0,13.04,1.67,16.19,4.95c3.17,3.31,4.74,8.37,4.74,15.22L255.08,667.94L255.08,667.94
			z M476.21,667.38c0,6.78-1.32,11.68-3.94,14.66c-2.61,3-7.57,4.51-14.88,4.51H297.65c-7.59,0-12.86-1.57-15.87-4.69
			c-3-3.12-4.49-8.1-4.49-14.88V440.27c0-6.78,1.55-11.8,4.69-15.09c3.12-3.26,8.35-4.88,15.66-4.88h37.98
			c7.57,0,12.91,1.62,16.06,4.88c3.12,3.29,4.69,8.3,4.69,15.09v189.53h101.03c7.31,0,12.26,1.5,14.88,4.49
			c2.61,3,3.94,8.03,3.94,15.09V667.38z"/>
		<ellipse class="st0" cx="667.77" cy="471.9" rx="10.93" ry="10.93"/>
		<ellipse class="st0" cx="548.94" cy="305.84" rx="10.93" ry="10.93"/>
		<circle class="st0" cx="652.12" cy="263.89" r="9.38"/>
		<path class="st0" d="M691.56,330.94c5.18,0,9.38-4.2,9.38-9.38c0-5.18-4.2-9.38-9.38-9.38s-9.38,4.2-9.38,9.38
			C682.19,326.75,686.38,330.94,691.56,330.94z"/>
		<circle class="st0" cx="737.75" cy="295.85" r="16.13"/>
		<circle class="st0" cx="729.76" cy="442.65" r="16.13"/>
		<ellipse class="st0" cx="620.07" cy="314.2" rx="25.61" ry="25.61"/>
		<ellipse class="st0" cx="698.3" cy="374.21" rx="19.86" ry="19.86"/>
	</g>
</g>
</svg>
