<?xml version="1.0" encoding="utf-8"?>
<!-- Generator: Adobe Illustrator 25.0.0, SVG Export Plug-In . SVG Version: 6.00 Build 0)  -->
<svg version="1.1" id="Layer_1" xmlns="http://www.w3.org/2000/svg" xmlns:xlink="http://www.w3.org/1999/xlink" x="0px" y="0px"
	 viewBox="0 0 1920 1080" style="enable-background:new 0 0 1920 1080;" xml:space="preserve">
<style type="text/css">
	.st0{fill:#FFFFFF;}
	.st1{fill:none;}
	.st2{enable-background:new    ;}
</style>
<g>
	<g>
		<path class="st0" d="M1774.1,816.3H164.9c-18.5,0-33.4-15-33.4-33.4l0,0c0-18.5,15-33.4,33.4-33.4h299.8c4.6,0,8.3-3.7,8.3-8.3
			l0,0c0-4.6-3.7-8.3-8.3-8.3h-133c-16.3,0-29.4-13.2-29.4-29.4v-21.7c0-6.9,5.6-12.6,12.6-12.6l0,0c6.9,0,12.6,5.6,12.6,12.6v14
			c0,6.6,5.4,12,12,12h125.4c18.5,0,33.4,15,33.4,33.4l0,0c0,18.5-15,33.4-33.4,33.4H164.9c-4.6,0-8.3,3.7-8.3,8.3l0,0
			c0,4.6,3.7,8.3,8.3,8.3h1609.1c6.9,0,12.6,5.6,12.6,12.6l0,0C1786.6,810.7,1781,816.3,1774.1,816.3z"/>
	</g>
	<path class="st0" d="M422.2,428.1c-7.8-60.5-63.4-102.6-124-94c-57.1,8.1-100.8,61.3-92.5,123.8c2.7,20.3,12.2,37.4,24.4,53.2
		c14.7,19.2,23.3,40.4,22.9,64.9c-0.1,7.5,3.4,11.1,10.5,11.6v15.6l33.4,52.3h33.9l33.4-52.3v-15.6c7.8-0.6,10.5-4.2,10.6-13.2
		c0.1-13.8,2.1-27.5,8.6-39.7c5.9-11,12.9-21.5,20.2-31.7C419.6,480.4,425.7,455.4,422.2,428.1z M389.8,488
		c-5.4,8-10.9,15.8-16.3,23.8c-10.2,15.2-16,31.9-17.5,50.1c0,0.1,0,0.2,0,0.2c-0.4,4.2-2.1,5.9-6.5,5.8c-12-0.2-24-0.1-36-0.1
		c-11.8,0-23.6,0-35.5,0c-3.4,0-5.8-0.7-6-4.7c0-0.4,0-0.7-0.1-1.1c-1.8-24.3-12.4-44.8-26.8-63.9c-9.1-12-16.6-24.8-19.4-40
		c-10-54.2,31.9-105.1,86.9-105.4c44.7-0.2,81.2,29.7,89.3,73.8C406,448.6,402.4,469.3,389.8,488z"/>
	<path class="st0" d="M353.5,461.5c-9.5-2.2-19.3,2.7-22.5,12.2c-1.6,4.9-2,10.3-2.5,15.4c-0.3,2.5-1.1,3.2-3.6,3.2
		c-7.4-0.1-14.9-0.1-22.3,0c-2.1,0-2.9-0.7-3.1-2.8c-0.3-4.3-0.5-8.7-1.6-12.9c-2-8-7-13.6-15.4-15.3c-8.2-1.6-16.6,1.8-20.8,9.3
		c-8,14.4,2.4,28.8,15.4,29.7c4.1,0.3,8.2,0.2,12.3,0.1c2.1-0.1,2.9,0.7,3.1,2.8c1.1,14.1,2.3,28.3,3.4,42.4
		c0.2,2.7,0.4,5.4,0.6,8.1h8.4c-1.4-16.8-2.8-33.7-4.2-50.5c-0.2-2.3,0.5-2.9,2.7-2.8c3.5,0.1,7,0,10.6,0c3.5,0,7,0.1,10.6,0
		c2.3-0.1,2.9,0.8,2.7,2.9c-0.9,9.8-1.6,19.6-2.5,29.5c-0.6,7-1.2,13.9-1.7,20.9h8.2c0.9-11.1,1.8-22.2,2.8-33.3
		c0.5-5.6,1-11.2,1.3-16.8c0.1-2.3,0.8-3.3,3.3-3.2c3.6,0.2,7.2,0.1,10.9,0c9.9-0.2,18.2-7.8,19.2-17.5
		C369.8,473.1,363.2,463.8,353.5,461.5z M289.5,492.2c-2,0.2-3.9,0.1-5.9,0.1c0,0,0,0,0,0c-1.7,0-3.5,0.1-5.3,0
		c-5.8-0.3-10.5-4.7-11-10.3c-0.5-5.9,3.1-11.2,8.7-12.5c5.7-1.4,11.3,1.2,13.1,7c1.4,4.6,1.6,9.6,2.1,14.4
		C291.3,491.3,290.1,492.2,289.5,492.2z M349.7,492.2c-1.8,0.1-3.7,0-5.5,0v0c-1.7,0-3.3-0.1-5,0c-2,0.1-3-0.5-2.6-2.6
		c0.6-4.1,0.7-8.3,1.7-12.2c1.6-5.7,6.2-8.6,11.7-8.2c5.3,0.4,9.4,4.1,10.5,9.5C361.7,485.4,356.6,491.8,349.7,492.2z"/>
	<path class="st0" d="M486.9,446h-38.6c-2.8,0-5.1-2.3-5.1-5.1v-9.8c0-2.8,2.3-5.1,5.1-5.1h38.6c2.8,0,5.1,2.3,5.1,5.1v9.8
		C491.9,443.8,489.7,446,486.9,446z"/>
	<path class="st0" d="M442,322.4l-27.3,27.3c-2,2-5.2,2-7.2,0l-6.9-6.9c-2-2-2-5.2,0-7.2l27.3-27.3c2-2,5.2-2,7.2,0l6.9,6.9
		C444,317.2,444,320.4,442,322.4z"/>
	<path class="st0" d="M185.9,322.4l27.3,27.3c2,2,5.2,2,7.2,0l6.9-6.9c2-2,2-5.2,0-7.2L200,308.4c-2-2-5.2-2-7.2,0l-6.9,6.9
		C184,317.2,184,320.4,185.9,322.4z"/>
	<path class="st0" d="M442,558.9l-27.3-27.3c-2-2-5.2-2-7.2,0l-6.9,6.9c-2,2-2,5.2,0,7.2L428,573c2,2,5.2,2,7.2,0l6.9-6.9
		C444,564.1,444,560.9,442,558.9z"/>
	<path class="st0" d="M185.9,558.9l27.3-27.3c2-2,5.2-2,7.2,0l6.9,6.9c2,2,2,5.2,0,7.2L200,573c-2,2-5.2,2-7.2,0l-6.9-6.9
		C184,564.1,184,560.9,185.9,558.9z"/>
	<path class="st0" d="M323.9,266v38.6c0,2.8-2.3,5.1-5.1,5.1H309c-2.8,0-5.1-2.3-5.1-5.1V266c0-2.8,2.3-5.1,5.1-5.1h9.8
		C321.6,260.9,323.9,263.2,323.9,266z"/>
	<path class="st0" d="M179.6,446H141c-2.8,0-5.1-2.3-5.1-5.1v-9.8c0-2.8,2.3-5.1,5.1-5.1h38.6c2.8,0,5.1,2.3,5.1,5.1v9.8
		C184.7,443.8,182.4,446,179.6,446z"/>
	<g>
		<g>
			<path class="st0" d="M514.8,428.8h78.3c27.8,0,48.9,6.5,63.2,19.4c14.3,12.9,21.5,32,21.5,57.1c0,26.5-7.3,46.7-22,60.5
				c-14.7,13.8-36.2,20.8-64.4,20.8h-28.2v82.3h-48.4V428.8z M595.5,547.5c11.7,0,20.5-3.5,26.4-10.5c5.9-7,8.9-17.1,8.9-30.4
				c0-12.6-3.2-22.1-9.6-28.6s-15.9-9.8-28.4-9.8h-29.6v79.2H595.5z"/>
		</g>
	</g>
	<g>
		<path class="st0" d="M705.8,428.8h75.7c26,0,45.4,5.4,58.2,16.3c12.8,10.9,19.2,27.1,19.2,48.9c0,15.8-3.7,29.2-11.1,40.3
			c-7.4,11.1-17.8,18.8-31.3,23.2v0.7c4.5,3,8.1,6.2,10.9,9.6c2.8,3.4,5.1,7.4,6.9,12l35.3,89.2h-39.3l-28.9-76.1
			c-3.4-9.1-7.5-15.3-12.4-18.3c-4.9-3.1-13-4.6-24.2-4.6h-22.2v99.1h-36.7L705.8,428.8L705.8,428.8z M778.8,539.6
			c29.8,0,44.7-14.2,44.7-42.5c0-12.8-3.8-22.3-11.3-28.5c-7.5-6.2-19-9.3-34.5-9.3h-35.3v80.2H778.8L778.8,539.6z"/>
		<path class="st0" d="M909.6,428.8h36.7v240h-36.7V428.8z"/>
		<path class="st0" d="M1184.3,428.8v240H1149l-108.3-179.3v179.3h-36.7v-240h37.3l106.2,176.9V428.8H1184.3z"/>
		<path class="st0" d="M1287.2,457.3h-72v-28.5h180.2v28.5h-71.6v211.6h-36.7V457.3z"/>
	</g>
	<g>
		<g>
			<path class="st0" d="M1451.3,662c-13.7-6.5-24-15.7-30.9-27.6l23.5-26.8c6.3,7.5,14.2,13.6,23.9,18.2c9.6,4.6,19.2,6.9,28.6,6.9
				c11.2,0,20.2-3.3,27.1-9.8c6.8-6.5,10.2-15.1,10.2-25.9c0-11.4-4.2-20.3-12.4-26.8c-8.3-6.4-19.7-9.6-34.3-9.6h-20.2v-35h19.8
				c11.7,0,21.1-3.3,28.2-9.8s10.8-14.8,10.8-24.9c0-8.5-2.7-15-8.1-19.5c-5.4-4.6-13.2-6.9-23.5-6.9c-10.1,0-19.5,2.2-28.2,6.5
				c-8.7,4.4-16.5,10.5-23.2,18.5l-22.5-27.1c8.1-11.4,19.3-20.5,33.6-27.1s29.8-9.9,46.4-9.9c14.6,0,27.5,2.5,38.7,7.5
				c11.2,5,19.8,12.1,25.9,21.1s9.1,19.5,9.1,31.4c0,12.1-3.1,23-9.4,32.6c-6.3,9.6-15.5,17.3-27.6,23c15.2,5.5,26.6,13.2,34.1,23
				s11.3,21.9,11.3,36.3c0,14.2-3.5,26.6-10.4,37.4c-6.9,10.8-16.8,19.1-29.4,25c-12.7,5.9-27.3,8.9-43.9,8.9
				C1480.7,671.8,1465,668.5,1451.3,662z"/>
		</g>
	</g>
	<g>
		<path class="st0" d="M1616.4,428.2h77.8c31.2,0,54.7,9.7,70.6,29s23.7,48.1,23.7,86.4c0,29.8-3.5,53.8-10.6,72
			s-18.2,31.6-33.3,40.2c-15.2,8.6-35.1,12.9-59.8,12.9h-68.4V428.2z M1690.2,638.1c21.6,0,37.2-7.4,47-22.3
			c9.8-14.9,14.7-38.9,14.7-72.1c0-29.3-4.7-50.8-14.2-64.4s-24.4-20.4-44.8-20.4h-39.7v179.3L1690.2,638.1L1690.2,638.1z"/>
	</g>
	<rect x="514.8" y="705.9" class="st1" width="1271.8" height="73.7"/>
	<g class="st2">
		<path class="st0" d="M597.1,709.6v62.8h-6.5v-51.6l-19.2,51.6h-4.5l-19.1-51.6v51.6h-6.5v-62.8h8.2l19.7,54.1l19.7-54.1H597.1z"/>
		<path class="st0" d="M634,769.5c-2.8-2.5-4.2-5.8-4.2-9.8c0-4.4,1.7-7.9,5-10.4c3.3-2.5,8-3.7,14-3.7h10.1v-2.4
			c0-3.7-0.9-6.5-2.8-8.5c-1.9-1.9-4.7-2.9-8.3-2.9c-2.7,0-5.2,0.6-7.4,1.8c-2.2,1.2-4.1,2.9-5.4,5.1l-3.4-3.9
			c1.9-2.6,4.3-4.5,7.1-5.9c2.8-1.4,6-2.1,9.5-2.1c5.4,0,9.6,1.4,12.6,4.1c3,2.8,4.4,6.6,4.4,11.7V764c0,2.2,0.3,5,1,8.4h-5.4
			c-0.4-1.3-0.8-3.5-1.2-6.6h-0.2c-1.7,2.4-3.8,4.2-6.3,5.6s-5.3,2-8.3,2C640.4,773.3,636.8,772.1,634,769.5z M652,766.9
			c2-1,3.7-2.3,4.9-3.9c1.2-1.6,1.8-3.4,1.8-5.2v-7.4h-10.3c-4,0-7.1,0.8-9.3,2.4c-2.2,1.6-3.3,3.9-3.3,6.9c0,2.6,0.9,4.7,2.6,6.2
			c1.7,1.6,4,2.4,6.9,2.4C647.7,768.3,650,767.8,652,766.9z"/>
		<path class="st0" d="M704.7,769.7c-2.1-2.4-3.1-5.8-3.1-10.3v-26.9h-8.1v-4.9h8.1v-12.1l5.8-1.9h0.4v14h12.7v4.9h-12.7v26.1
			c0,3.4,0.6,5.8,1.7,7.3c1.1,1.5,2.9,2.3,5.4,2.3c2.4,0,4.4-0.4,6-1.1l0.5,4.8c-2,1-4.6,1.4-7.8,1.4
			C709.7,773.3,706.8,772.1,704.7,769.7z"/>
		<path class="st0" d="M788.5,752.5h-32.7c0.4,5,1.8,8.8,4.3,11.5c2.5,2.7,5.8,4,10.1,4c2.7,0,5.1-0.6,7.4-1.8
			c2.2-1.2,4-2.8,5.5-4.9l3.7,3.5c-1.7,2.7-4.1,4.8-7,6.2c-2.9,1.5-6.1,2.2-9.7,2.2c-6.4,0-11.4-2-15-6.1c-3.6-4.1-5.4-9.8-5.4-17.1
			c0-7.3,1.8-13,5.3-17.2c3.6-4.2,8.5-6.2,14.8-6.2c5.9,0,10.5,2,13.9,6c3.3,4,5,9.6,5,16.8V752.5z M782.7,747
			c0-4.7-1.2-8.4-3.6-11.1c-2.4-2.7-5.6-4.1-9.7-4.1c-4.1,0-7.3,1.4-9.6,4.1c-2.4,2.8-3.7,6.7-4,11.8h26.9V747z"/>
		<path class="st0" d="M819.4,738.5c0-5.1-0.1-8.7-0.3-10.9h5.7c0.2,2.3,0.4,5,0.4,7.9v1.1h0.2c1.1-3.2,2.9-5.6,5.3-7.3
			s5.2-2.6,8.5-2.6c1.1,0,1.9,0.1,2.6,0.3v5.2c-1-0.1-1.9-0.2-3-0.2c-2.5,0-4.7,0.7-6.7,2.2c-2,1.5-3.6,3.6-4.8,6.2
			c-1.2,2.6-1.8,5.5-1.8,8.7v23.3h-6.2V738.5z"/>
		<path class="st0" d="M871,717.6c-0.9-0.8-1.3-1.9-1.3-3.3c0-1.4,0.4-2.6,1.3-3.4c0.9-0.8,2-1.3,3.5-1.3s2.6,0.4,3.5,1.3
			c0.9,0.8,1.3,2,1.3,3.4c0,1.4-0.4,2.5-1.3,3.3c-0.9,0.8-2,1.3-3.5,1.3S871.9,718.4,871,717.6z M871.3,727.6h6.3v44.9h-6.3V727.6z"
			/>
		<path class="st0" d="M914.2,769.5c-2.8-2.5-4.2-5.8-4.2-9.8c0-4.4,1.7-7.9,5-10.4c3.3-2.5,8-3.7,14-3.7H939v-2.4
			c0-3.7-0.9-6.5-2.8-8.5c-1.9-1.9-4.7-2.9-8.3-2.9c-2.7,0-5.2,0.6-7.4,1.8c-2.2,1.2-4.1,2.9-5.4,5.1l-3.4-3.9
			c1.9-2.6,4.3-4.5,7.1-5.9c2.8-1.4,6-2.1,9.5-2.1c5.4,0,9.6,1.4,12.6,4.1c3,2.8,4.4,6.6,4.4,11.7V764c0,2.2,0.3,5,1,8.4h-5.4
			c-0.4-1.3-0.8-3.5-1.2-6.6h-0.2c-1.7,2.4-3.8,4.2-6.3,5.6s-5.3,2-8.3,2C920.6,773.3,917,772.1,914.2,769.5z M932.3,766.9
			c2-1,3.7-2.3,4.9-3.9c1.2-1.6,1.8-3.4,1.8-5.2v-7.4h-10.3c-4,0-7.1,0.8-9.3,2.4c-2.2,1.6-3.3,3.9-3.3,6.9c0,2.6,0.9,4.7,2.6,6.2
			c1.7,1.6,4,2.4,6.9,2.4C928,768.3,930.2,767.8,932.3,766.9z"/>
		<path class="st0" d="M979.5,762.1v-56.3h6.3V762c0,2.4,0.3,4.1,1,5c0.7,1,1.9,1.4,3.6,1.4c1.2,0,2.6-0.3,4.3-1l1.1,3.9
			c-2.2,1.3-4.6,2-7.3,2C982.6,773.3,979.5,769.6,979.5,762.1z"/>
		<path class="st0" d="M1026.9,717.6c-0.9-0.8-1.3-1.9-1.3-3.3c0-1.4,0.4-2.6,1.3-3.4c0.9-0.8,2-1.3,3.5-1.3c1.4,0,2.6,0.4,3.5,1.3
			c0.9,0.8,1.3,2,1.3,3.4c0,1.4-0.4,2.5-1.3,3.3c-0.9,0.8-2,1.3-3.5,1.3C1028.9,718.9,1027.7,718.4,1026.9,717.6z M1027.2,727.6h6.3
			v44.9h-6.3V727.6z"/>
		<path class="st0" d="M1064.4,768.8l26.6-36.2h-25.3v-5h32.6v3.9l-26.1,35.9h27v5h-34.7V768.8z"/>
		<path class="st0" d="M1130.8,769.5c-2.8-2.5-4.2-5.8-4.2-9.8c0-4.4,1.7-7.9,5-10.4c3.3-2.5,8-3.7,14-3.7h10.1v-2.4
			c0-3.7-0.9-6.5-2.8-8.5c-1.9-1.9-4.7-2.9-8.3-2.9c-2.7,0-5.2,0.6-7.4,1.8c-2.2,1.2-4.1,2.9-5.4,5.1l-3.4-3.9
			c1.9-2.6,4.3-4.5,7.1-5.9c2.8-1.4,6-2.1,9.5-2.1c5.4,0,9.6,1.4,12.6,4.1c3,2.8,4.4,6.6,4.4,11.7V764c0,2.2,0.3,5,1,8.4h-5.4
			c-0.4-1.3-0.8-3.5-1.2-6.6h-0.2c-1.7,2.4-3.8,4.2-6.3,5.6s-5.3,2-8.3,2C1137.2,773.3,1133.7,772.1,1130.8,769.5z M1148.9,766.9
			c2-1,3.7-2.3,4.9-3.9c1.2-1.6,1.8-3.4,1.8-5.2v-7.4h-10.3c-4,0-7.1,0.8-9.3,2.4c-2.2,1.6-3.3,3.9-3.3,6.9c0,2.6,0.9,4.7,2.6,6.2
			c1.7,1.6,4,2.4,6.9,2.4C1144.6,768.3,1146.8,767.8,1148.9,766.9z"/>
		<path class="st0" d="M1244.7,769.7c-2.1-2.4-3.1-5.8-3.1-10.3v-26.9h-8.1v-4.9h8.1v-12.1l5.8-1.9h0.4v14h12.7v4.9h-12.7v26.1
			c0,3.4,0.6,5.8,1.7,7.3c1.1,1.5,2.9,2.3,5.4,2.3c2.4,0,4.4-0.4,6-1.1l0.5,4.8c-2,1-4.6,1.4-7.8,1.4
			C1249.8,773.3,1246.8,772.1,1244.7,769.7z"/>
		<path class="st0" d="M1296.1,768.4c-2.7-3.3-4-8.2-4-14.7v-26.1h6.2V754c0,9.5,3.5,14.3,10.6,14.3c2.7,0,5.1-0.7,7.2-2.1
			c2.1-1.4,3.8-3.3,5-5.7c1.2-2.5,1.8-5.2,1.8-8.3v-24.6h6.2v35.9c0,2.8,0.3,5.7,0.8,9h-5.6c-0.5-2.5-0.8-5.3-0.9-8.4h-0.4
			c-1.3,2.9-3.4,5.2-6.1,6.9s-5.8,2.5-9.2,2.5C1302.7,773.3,1298.8,771.7,1296.1,768.4z"/>
		<path class="st0" d="M1365.5,771.4c-2.6-1.3-4.5-3.1-5.6-5.2l4.1-2.9c1.1,1.7,2.5,2.9,4.3,3.8c1.8,0.9,3.8,1.3,6.1,1.3
			c2.7,0,4.9-0.8,6.6-2.4c1.7-1.6,2.6-3.6,2.6-6.1c0-2-0.7-3.6-2.1-5c-1.4-1.3-3.8-2.7-7.3-4c-5-1.9-8.5-3.8-10.5-5.7
			c-2-2-3-4.4-3-7.4c0-3.4,1.3-6.1,3.9-8.1c2.6-2.1,6.1-3.1,10.5-3.1c2.8,0,5.4,0.6,7.8,1.9c2.4,1.3,4.1,3,5.2,5.1l-3.9,2.9
			c-2-3.3-5.1-4.9-9.2-4.9c-2.4,0-4.4,0.6-5.9,1.7c-1.5,1.1-2.3,2.6-2.3,4.4c0,1.7,0.7,3.2,2.2,4.4c1.5,1.2,4.3,2.6,8.3,4.1
			c4.4,1.7,7.6,3.6,9.5,5.7c1.9,2.1,2.9,4.7,2.9,7.8c0,4.1-1.4,7.3-4.3,9.8c-2.9,2.5-6.7,3.7-11.5,3.7
			C1371,773.3,1368.1,772.7,1365.5,771.4z"/>
		<path class="st0" d="M1464.5,717.6c-0.9-0.8-1.3-1.9-1.3-3.3c0-1.4,0.4-2.6,1.3-3.4c0.9-0.8,2-1.3,3.5-1.3c1.4,0,2.6,0.4,3.5,1.3
			c0.9,0.8,1.3,2,1.3,3.4c0,1.4-0.4,2.5-1.3,3.3c-0.9,0.8-2,1.3-3.5,1.3C1466.6,718.9,1465.4,718.4,1464.5,717.6z M1464.9,727.6h6.3
			v44.9h-6.3V727.6z"/>
		<path class="st0" d="M1507.9,766.9c-3.4-4.3-5-10.2-5-17.7c0-6.9,1.7-12.4,5.1-16.5s8-6.1,13.8-6.1c2.9,0,5.5,0.6,7.8,1.9
			c2.3,1.3,4.3,3.1,5.9,5.6h0.2v-28.3h6.1v55.5c0,5.3,0.1,9,0.3,11.1h-5.6c-0.2-2.5-0.3-5-0.3-7.5h-0.2c-1.4,2.6-3.4,4.6-6,6.1
			c-2.6,1.5-5.4,2.3-8.5,2.3C1515.9,773.3,1511.3,771.2,1507.9,766.9z M1532,764.5c2.5-2.5,3.7-5.8,3.7-10v-7.8
			c0-4.6-1.2-8.3-3.6-11c-2.4-2.7-5.6-4.1-9.6-4.1c-4.1,0-7.4,1.6-9.7,4.7c-2.3,3.1-3.5,7.5-3.5,13.1c0,5.9,1.2,10.5,3.5,13.8
			c2.3,3.4,5.5,5,9.6,5C1526.3,768.2,1529.5,767,1532,764.5z"/>
		<path class="st0" d="M1611.2,752.5h-32.7c0.4,5,1.8,8.8,4.3,11.5c2.5,2.7,5.8,4,10.1,4c2.7,0,5.1-0.6,7.4-1.8
			c2.2-1.2,4-2.8,5.5-4.9l3.7,3.5c-1.7,2.7-4.1,4.8-7,6.2c-2.9,1.5-6.1,2.2-9.7,2.2c-6.4,0-11.4-2-15-6.1c-3.6-4.1-5.4-9.8-5.4-17.1
			c0-7.3,1.8-13,5.3-17.2c3.6-4.2,8.5-6.2,14.8-6.2c5.9,0,10.5,2,13.9,6c3.3,4,5,9.6,5,16.8V752.5z M1605.5,747
			c0-4.7-1.2-8.4-3.6-11.1c-2.4-2.7-5.6-4.1-9.7-4.1c-4.1,0-7.3,1.4-9.6,4.1c-2.4,2.8-3.7,6.7-4,11.8h26.9V747z"/>
		<path class="st0" d="M1643.8,769.5c-2.8-2.5-4.2-5.8-4.2-9.8c0-4.4,1.7-7.9,5-10.4c3.3-2.5,8-3.7,14-3.7h10.1v-2.4
			c0-3.7-0.9-6.5-2.8-8.5c-1.9-1.9-4.7-2.9-8.3-2.9c-2.7,0-5.2,0.6-7.4,1.8c-2.2,1.2-4.1,2.9-5.4,5.1l-3.4-3.9
			c1.9-2.6,4.3-4.5,7.1-5.9c2.8-1.4,6-2.1,9.5-2.1c5.4,0,9.6,1.4,12.6,4.1c3,2.8,4.4,6.6,4.4,11.7V764c0,2.2,0.3,5,1,8.4h-5.4
			c-0.4-1.3-0.8-3.5-1.2-6.6h-0.2c-1.7,2.4-3.8,4.2-6.3,5.6s-5.3,2-8.3,2C1650.2,773.3,1646.6,772.1,1643.8,769.5z M1661.8,766.9
			c2-1,3.7-2.3,4.9-3.9c1.2-1.6,1.8-3.4,1.8-5.2v-7.4h-10.3c-4,0-7.1,0.8-9.3,2.4c-2.2,1.6-3.3,3.9-3.3,6.9c0,2.6,0.9,4.7,2.6,6.2
			c1.7,1.6,4,2.4,6.9,2.4C1657.6,768.3,1659.8,767.8,1661.8,766.9z"/>
		<path class="st0" d="M1711.3,771.4c-2.6-1.3-4.5-3.1-5.6-5.2l4.1-2.9c1.1,1.7,2.5,2.9,4.3,3.8c1.8,0.9,3.8,1.3,6.1,1.3
			c2.7,0,4.9-0.8,6.6-2.4c1.7-1.6,2.6-3.6,2.6-6.1c0-2-0.7-3.6-2.1-5c-1.4-1.3-3.8-2.7-7.3-4c-5-1.9-8.5-3.8-10.5-5.7
			c-2-2-3-4.4-3-7.4c0-3.4,1.3-6.1,3.9-8.1c2.6-2.1,6.1-3.1,10.5-3.1c2.8,0,5.4,0.6,7.8,1.9c2.4,1.3,4.1,3,5.2,5.1l-3.9,2.9
			c-2-3.3-5.1-4.9-9.2-4.9c-2.4,0-4.4,0.6-5.9,1.7c-1.5,1.1-2.3,2.6-2.3,4.4c0,1.7,0.7,3.2,2.2,4.4c1.5,1.2,4.3,2.6,8.3,4.1
			c4.4,1.7,7.6,3.6,9.5,5.7c1.9,2.1,2.9,4.7,2.9,7.8c0,4.1-1.4,7.3-4.3,9.8c-2.9,2.5-6.7,3.7-11.5,3.7
			C1716.8,773.3,1713.9,772.7,1711.3,771.4z"/>
	</g>
</g>
</svg>
