<?xml version="1.0" encoding="utf-8"?>
<!-- Generator: Adobe Illustrator 25.0.0, SVG Export Plug-In . SVG Version: 6.00 Build 0)  -->
<svg version="1.1" id="Layer_1" xmlns="http://www.w3.org/2000/svg" xmlns:xlink="http://www.w3.org/1999/xlink" x="0px" y="0px"
	 viewBox="0 0 1920 1080" style="enable-background:new 0 0 1920 1080;" xml:space="preserve">
<style type="text/css">
	.st0{fill:#FFFFFF;stroke:#000000;stroke-miterlimit:10;}
	.st1{fill:#FFFFFF;stroke:#FFFFFF;stroke-width:14;stroke-miterlimit:10;}
	.st2{fill:#FFFFFF;}
</style>
<g>
	<path class="st0" d="M572.24,218.77"/>
	<g>
		<path class="st1" d="M275.12,203.61"/>
		<path class="st2" d="M350.27,779.77h-63.39c4.46-1.76,19.88-8.1,39.37-19.32C334.07,766.88,342.06,773.33,350.27,779.77z"/>
		<path class="st2" d="M563.46,496.65l-11.35-5.29l-34.85-16.25l-20.51-9.57l-51.95-24.23h-0.01l-116.21-54.19
			c152.84,157.04,117.29,263,58.78,324.97c16.4,15.16,32.05,27.94,45.01,37.87C581.53,652.59,568.58,525.28,563.46,496.65z
			 M457.25,673.76c50.62-80.1,13.31-179.6-7.93-223.44l49.96,23.29C544.81,624.5,458.32,673.17,457.25,673.76z M509.24,639.77
			c31.61-64.64,20.28-125.83,10.75-156.5l32.44,15.13C557.36,623.45,509.24,639.77,509.24,639.77z"/>
		<path class="st2" d="M493.82,202.74l-102.33,0.01l-29.06,0.01h-0.01l-89.71,0.01h-16.47c0,0-363,201,104,577h102
			c0,0-0.11-0.07-0.32-0.2c-0.07-0.05-0.15-0.1-0.25-0.15c-11.58-7.42-195.06-127.13-198.83-275.84v-0.04
			c-2.33-91.52,63.43-194.03,279.2-288.11h0.01c9.75-4.25,19.81-8.48,30.19-12.7L493.82,202.74z M263.67,209.02h82.35
			c-68.03,27.95-189.78,102.5-190.8,278.47C155.22,487.49,82.84,337.46,263.67,209.02z M464.33,211.99
			c-93.16,32.22-298.69,131.22-249.53,366.78c0,0-115.96-238.42,162.9-369.75h95.44C470.33,209.94,467.39,210.93,464.33,211.99z"/>
		<rect x="262.97" y="786.02" class="st2" width="223.02" height="12"/>
		<rect x="193.82" y="804.27" class="st2" width="361.66" height="71"/>
	</g>
	<g>
		<path class="st2" d="M673.71,406.45c-3.87-3.56-8.96-5.34-15.28-5.34h-31.95v71.01h9.62v-30.02h22.33
			c7.16,0,12.46-2.05,15.91-6.16c3.45-4.11,5.17-8.93,5.17-14.48C679.51,415.01,677.58,410.01,673.71,406.45z M665.76,431.22
			c-2.69,1.83-6.2,2.75-10.52,2.75H636.1v-24.6h19.14c3.71,0,6.63,0.5,8.75,1.5c3.87,1.86,5.8,5.41,5.8,10.63
			C669.79,426.14,668.45,429.39,665.76,431.22z"/>
		<path class="st2" d="M713.88,419.23c-0.39-0.03-0.66-0.05-0.82-0.05c-3.45,0-6.5,1.25-9.14,3.75c-2.64,2.49-4.3,4.61-4.98,6.35
			v-8.94h-8.26v51.77h8.7v-29.78c0-3.67,1.17-6.92,3.53-9.74c2.35-2.82,5.72-4.23,10.1-4.23c0.51,0,0.99,0.02,1.43,0.05
			c0.43,0.04,0.91,0.1,1.42,0.2v-9.19C714.93,419.32,714.27,419.26,713.88,419.23z"/>
		<path class="st2" d="M755.21,461.91c-2.71,3-6.33,4.5-10.88,4.5c-4.86,0-8.46-1.59-10.78-4.76c-2.32-3.18-3.56-7.39-3.72-12.64
			h37.95c0-5.23-0.26-9.03-0.78-11.41c-0.58-3.48-1.74-6.53-3.48-9.14c-1.8-2.74-4.43-4.97-7.88-6.69c-3.44-1.73-7-2.59-10.68-2.59
			c-7.28,0-13.18,2.59-17.69,7.78s-6.77,11.94-6.77,20.26c0,8.44,2.24,15.01,6.72,19.7c4.48,4.68,9.94,7.03,16.39,7.03
			c2.64,0,5.01-0.26,7.1-0.77c3.9-0.91,7.17-2.65,9.82-5.23c1.58-1.48,3-3.39,4.28-5.72c1.27-2.34,2.02-4.46,2.24-6.36h-8.55
			C757.85,458.16,756.76,460.17,755.21,461.91z M734.37,431.1c2.71-2.89,6.06-4.33,10.06-4.33c5.57,0,9.55,2.09,11.94,6.28
			c1.29,2.26,2.11,5.27,2.47,9.04h-28.77C730.23,437.65,731.67,433.98,734.37,431.1z"/>
		<path class="st2" d="M846.09,426.72c-2.51-5.03-7.25-7.54-14.21-7.54c-3.26,0-6.19,0.67-8.8,2.01c-2.61,1.33-4.88,3.39-6.82,6.16
			c-1.16-2.26-2.45-3.96-3.86-5.12c-2.52-2.04-5.84-3.05-9.96-3.05c-3.64,0-6.9,0.98-9.77,2.95c-1.67,1.16-3.54,3.01-5.6,5.56v-7.35
			h-8.61v51.77h8.7v-27.46c0-6.67,1.35-11.27,4.04-13.82s5.68-3.82,8.97-3.82c3.61,0,6.07,1.21,7.39,3.63
			c0.84,1.61,1.26,4.17,1.26,7.68v33.79h8.84v-30.11c0-5.35,1.24-9.17,3.7-11.46c2.47-2.29,5.41-3.43,8.83-3.43
			c2.48,0,4.58,0.64,6.3,1.93c1.73,1.29,2.59,3.66,2.59,7.11v35.96h9.04v-34.46C848.12,433.07,847.44,429.43,846.09,426.72z"/>
		<path class="st2" d="M860.93,401.1v9.86h8.85v-9.86H860.93z M860.93,420.58v51.53h8.85v-51.53H860.93z"/>
		<path class="st2" d="M920.73,425.51c-4.61-4.45-10.25-6.67-16.92-6.67c-7.45,0-13.38,2.58-17.79,7.74
			c-4.42,5.15-6.62,12.08-6.62,20.78c0,8.12,2.09,14.59,6.28,19.41s9.84,7.23,16.97,7.23c8.54,0,14.84-2.73,18.9-8.17
			c4.06-5.45,6.09-12.34,6.09-20.69C927.64,436.51,925.33,429.96,920.73,425.51z M915.34,459.95c-2.15,4.37-6.1,6.55-11.87,6.55
			c-5.25,0-9.09-1.83-11.51-5.51c-2.41-3.67-3.62-8.26-3.62-13.77c0-5.74,1.21-10.64,3.62-14.7c2.42-4.06,6.29-6.09,11.61-6.09
			c5.99,0,10.21,2.39,12.66,7.15c1.55,3.03,2.32,6.97,2.32,11.8C918.55,450.73,917.48,455.59,915.34,459.95z"/>
		<path class="st2" d="M972.45,446.64c-2.13-1.42-6.32-2.89-12.57-4.4l-5.75-1.4c-2.51-0.62-4.42-1.32-5.71-2.13
			c-2.22-1.35-3.33-3.16-3.33-5.42c0-2.06,0.85-3.72,2.54-4.97c1.69-1.26,4.18-1.89,7.47-1.89c4.93,0,8.39,1.15,10.39,3.43
			c1.22,1.61,1.92,3.4,2.08,5.37h8.22c0.06-3.35-0.99-6.48-3.15-9.38c-3.45-4.58-9.07-6.86-16.87-6.86c-5.96,0-10.7,1.51-14.23,4.54
			c-3.53,3.03-5.3,6.99-5.3,11.89c0,4.16,1.87,7.41,5.61,9.77c2.1,1.35,5.35,2.58,9.77,3.67l6.91,1.74c3.7,0.94,6.19,1.76,7.44,2.47
			c1.97,1.16,2.95,2.85,2.95,5.07c0,2.93-1.22,5.1-3.67,6.5c-2.45,1.41-5.29,2.11-8.51,2.11c-5.41,0-9.22-1.41-11.41-4.21
			c-1.19-1.55-1.92-3.77-2.17-6.67h-8.37c0.23,5.16,1.94,9.48,5.15,12.98s8.66,5.24,16.36,5.24c7.16,0,12.48-1.67,15.98-5.02
			s5.25-7.33,5.25-11.94C977.53,452.36,975.83,448.86,972.45,446.64z"/>
	</g>
	<g>
		<path class="st2" d="M1601.01,857.45c1.81-1.61,4.29-3.3,7.45-5.08l6.62-3.74c5.83-3.32,9.88-6.15,12.13-8.48
			c3.9-4.01,5.85-8.84,5.85-14.49c0-5.36-1.83-10.22-5.48-14.59c-3.66-4.37-9.45-6.56-17.38-6.56c-9.54,0-16.2,3.42-19.97,10.25
			c-2.12,3.88-3.24,8.89-3.33,15.04h8.84c0.13-4.37,0.81-7.79,2.03-10.25c2.29-4.6,6.42-6.9,12.38-6.9c4.03,0,7.25,1.2,9.67,3.62
			c2.41,2.41,3.62,5.67,3.62,9.78c0,3.52-1.32,6.64-3.96,9.37c-1.68,1.74-4.59,3.84-8.75,6.31l-9.28,5.47
			c-6.22,3.68-10.4,7.77-12.55,12.27c-2.14,4.5-3.37,9.79-3.69,15.87h47.51v-8.38h-37.8
			C1595.76,863.48,1597.79,860.31,1601.01,857.45z"/>
		<path class="st2" d="M1683.38,816.05c-3.99-7.53-10.47-11.29-19.43-11.29c-9.96,0-16.84,5.36-20.64,16.07
			c-2.03,5.75-3.05,12.63-3.05,20.65c0,10.35,1.7,18.6,5.08,24.74c4.06,7.36,10.25,11.04,18.56,11.04c9.22,0,15.86-4.5,19.92-13.5
			c2.8-6.28,4.2-14.21,4.2-23.81C1688.02,829.83,1686.48,821.86,1683.38,816.05z M1674.63,863.07c-2.67,4.07-6.26,6.11-10.78,6.11
			c-5.6,0-9.57-3.34-11.89-10.01c-1.51-4.37-2.27-10.15-2.27-17.35c0-9.56,1.18-16.79,3.55-21.71c2.37-4.91,6.12-7.37,11.24-7.37
			c5.58,0,9.33,2.59,11.27,7.77c1.93,5.17,2.9,11.77,2.9,19.79C1678.65,851.4,1677.31,858.99,1674.63,863.07z"/>
		<path class="st2" d="M1711.13,857.45c1.8-1.61,4.29-3.3,7.44-5.08l6.63-3.74c5.83-3.32,9.87-6.15,12.13-8.48
			c3.9-4.01,5.85-8.84,5.85-14.49c0-5.36-1.83-10.22-5.49-14.59s-9.45-6.56-17.37-6.56c-9.55,0-16.2,3.42-19.97,10.25
			c-2.13,3.88-3.24,8.89-3.34,15.04h8.85c0.13-4.37,0.81-7.79,2.03-10.25c2.29-4.6,6.41-6.9,12.38-6.9c4.02,0,7.25,1.2,9.66,3.62
			c2.42,2.41,3.63,5.67,3.63,9.78c0,3.52-1.32,6.64-3.96,9.37c-1.68,1.74-4.6,3.84-8.75,6.31l-9.28,5.47
			c-6.22,3.68-10.41,7.77-12.55,12.27s-3.38,9.79-3.7,15.87h47.52v-8.38h-37.8C1705.88,863.48,1707.91,860.31,1711.13,857.45z"/>
		<path class="st2" d="M1793.5,816.05c-4-7.53-10.47-11.29-19.43-11.29c-9.96,0-16.84,5.36-20.64,16.07
			c-2.03,5.75-3.05,12.63-3.05,20.65c0,10.35,1.69,18.6,5.08,24.74c4.06,7.36,10.25,11.04,18.56,11.04c9.22,0,15.86-4.5,19.92-13.5
			c2.8-6.28,4.2-14.21,4.2-23.81C1798.14,829.83,1796.59,821.86,1793.5,816.05z M1784.75,863.07c-2.67,4.07-6.27,6.11-10.78,6.11
			c-5.61,0-9.57-3.34-11.89-10.01c-1.52-4.37-2.27-10.15-2.27-17.35c0-9.56,1.18-16.79,3.55-21.71c2.37-4.91,6.12-7.37,11.24-7.37
			c5.57,0,9.33,2.59,11.26,7.77c1.94,5.17,2.9,11.77,2.9,19.79C1788.76,851.4,1787.43,858.99,1784.75,863.07z"/>
	</g>
	<polygon class="st2" points="651.07,767.6 723.64,767.6 723.64,780 626.72,780 626.72,643.47 651.07,643.47 	"/>
	<polygon class="st2" points="684.61,633.73 624.79,497.38 652.66,497.38 701.57,608.88 751,497.38 766.13,497.38 705.93,633.73 	
		"/>
	<path class="st2" d="M801.96,690.23c-6.42-6.05-16.2-9.12-29.07-9.12c-8.66,0-16.24,1.68-22.56,4.98
		c-6.35,3.33-11.88,8.55-16.45,15.53l-2.07,3.15l10.13,6.4l1.85-2.97c1.16-1.87,2.6-3.73,4.26-5.51c1.63-1.74,3.56-3.35,5.74-4.78
		c2.13-1.4,4.57-2.53,7.25-3.35c2.67-0.81,5.65-1.23,8.84-1.23c5.69,0,9.9,1.44,12.5,4.29c2.52,2.75,4.12,6.89,4.76,12.32
		c-0.72,0.73-1.78,1.35-3.19,1.86c-2.54,0.91-5.52,1.7-8.87,2.33c-3.43,0.66-7.19,1.27-11.15,1.81c-4.1,0.56-8.15,1.36-12.02,2.36
		c-5.37,1.23-9.92,3.5-13.54,6.76c-3.56,3.22-6.28,7.03-8.08,11.3c-1.77,4.22-2.7,8.7-2.77,13.33c-0.06,4.69,0.85,9.23,2.7,13.48
		c1.86,4.28,4.64,8.07,8.27,11.28c3.66,3.25,8.26,5.52,13.69,6.76c5.4,1.15,10.34,1.73,14.69,1.73c6.54,0,12.2-0.95,16.84-2.82
		c2.84-1.14,5.24-2.28,7.26-3.44l1.84,3.32h18.98v-59.08C811.79,706.69,808.48,696.37,801.96,690.23z M767.28,770.9
		c-3.17-0.1-5.78-0.98-7.97-2.68c-2.36-1.82-4.17-4.03-5.53-6.75c-1.37-2.73-2.2-5.82-2.45-9.17c-0.26-3.35,0.1-6.61,1.08-9.69
		c0.95-3.01,2.55-5.76,4.77-8.17c2.15-2.33,5.02-4.04,8.49-5.07c6.05-1.72,11.24-3.27,15.42-4.62c2.25-0.72,4.37-1.56,6.35-2.49
		v42.45c-2.56,2.38-5.36,3.97-8.32,4.74C775.42,770.41,771.43,770.9,767.28,770.9z"/>
	<path class="st2" d="M851.94,561.06c-3.16-6.42-7.3-11.84-12.31-16.12c-4.99-4.25-10.71-7.47-17-9.56
		c-12.34-4.09-25.15-4.16-37.71,0c-6.3,2.09-12.02,5.31-17,9.56c-5.01,4.28-9.16,9.7-12.31,16.12c-3.19,6.48-4.81,14.14-4.81,22.77
		c0,8.37,1.59,15.9,4.71,22.37c3.09,6.41,7.19,11.9,12.19,16.29c4.97,4.38,10.68,7.75,16.95,10.02c6.25,2.27,12.65,3.42,19.04,3.42
		c6.37,0,12.8-1.15,19.11-3.41c6.33-2.28,12.07-5.65,17.04-10.03c5-4.39,9.11-9.88,12.2-16.29c3.12-6.48,4.71-14.01,4.71-22.37
		C856.75,575.21,855.13,567.55,851.94,561.06z M784.65,611.89c-2.35-4.08-4.18-8.79-5.45-13.99c-1.27-5.23-1.86-10.55-1.75-15.91
		c0-4.1,0.56-8.53,1.67-13.18c1.09-4.58,2.77-8.88,5.01-12.78c2.16-3.78,4.94-6.97,8.25-9.48c3.14-2.38,6.83-3.53,11.31-3.53
		c4.71,0,8.56,1.16,11.76,3.54c3.35,2.5,6.12,5.68,8.22,9.43c2.17,3.89,3.8,8.19,4.84,12.78c1.05,4.67,1.59,9.12,1.59,13.22
		c0,5.3-0.65,10.65-1.93,15.91c-1.26,5.18-3.14,9.87-5.59,13.93c-2.4,3.98-5.27,7.21-8.53,9.61c-3.08,2.27-6.47,3.37-10.36,3.37
		c-4.03,0-7.51-1.1-10.66-3.38C789.74,619.05,786.92,615.84,784.65,611.89z"/>
	<path class="st2" d="M882.96,759.75l9.79,9.77l-2.52,2.62c-3.6,3.74-7.79,6.31-12.43,7.64c-4.36,1.24-8.93,1.87-13.59,1.87
		c-4.35,0-8.72-0.7-12.99-2.09c-4.47-1.45-8.48-3.97-11.93-7.49c-3.43-3.48-6.21-8.19-8.27-14.01c-2.02-5.69-3.05-12.88-3.05-21.35
		V648.8h22.75v32.13h20.71v14.61h-20.71v41.17c0,11.92,1.18,20.72,3.51,26.16c1.96,4.6,5.59,6.75,11.4,6.75
		c5.97,0,10.85-2.31,14.91-7.05L882.96,759.75z"/>
	<rect x="902.49" y="680.93" class="st2" width="22.75" height="99.07"/>
	<path class="st2" d="M923.68,647.11c2.68,2.78,4.04,6.23,4.04,10.28c0,3.92-1.36,7.31-4.04,10.09c-2.68,2.78-5.95,4.19-9.73,4.19
		c-3.9,0-7.24-1.41-9.91-4.19c-2.67-2.78-4.03-6.17-4.03-10.09c0-4.04,1.35-7.5,4.03-10.28c2.68-2.78,6.01-4.19,9.91-4.19
		c3.78,0,7.05,1.41,9.73,4.18V647.11z"/>
	<path class="st2" d="M931.83,631.53c-6.59,2.8-13.38,4.22-20.17,4.22c-6.19,0-12.3-1.2-18.17-3.55
		c-5.88-2.36-11.17-5.79-15.73-10.19c-4.57-4.41-8.29-9.86-11.06-16.21c-2.8-6.38-4.21-13.65-4.21-21.61
		c0-7.97,1.48-15.28,4.4-21.74c2.9-6.41,6.82-11.93,11.63-16.4c4.8-4.45,10.32-7.9,16.43-10.25c6.09-2.34,12.42-3.53,18.83-3.53
		h1.86c0.76,0,1.52,0.07,2.25,0.2c5.85,0.29,11.06,1.43,15.5,3.4c4.44,1.98,8.74,4.84,12.78,8.5l2.64,2.39l-2.31,2.73
		c-1.16,1.38-1.54,1.8-1.75,2.02l-3.71,3.84l-2.46-2.18c-3.02-2.69-6.26-4.81-9.63-6.31c-3.26-1.45-6.88-2.19-10.75-2.19
		c-3.56,0.11-7.23,1.19-10.79,3.23c-3.67,2.1-7.03,5-9.99,8.62c-2.97,3.64-5.39,7.98-7.18,12.89c-1.79,4.89-2.7,10.11-2.7,15.52
		c0.11,5.23,1.04,10.28,2.78,14.94c1.73,4.68,4.03,8.77,6.83,12.17c2.77,3.38,5.95,6.09,9.46,8.08c3.35,1.9,6.72,2.86,10,2.86
		c1.52,0,2.05-0.1,2.14-0.11l0.2-0.04c5.23-0.77,9.45-2.25,12.53-4.38c3.34-2.31,6.31-4.81,8.85-7.44l2.41-2.5l8.31,8.17l-2.28,2.63
		C944.19,624.59,938.49,628.7,931.83,631.53z"/>
	<path class="st2" d="M1028.82,702.83c2.1,5.75,2.92,12.98,2.44,21.5v55.67h-24.7v-56.51c0.11-5.88-0.46-10.83-1.69-14.77
		c-1.21-3.88-2.78-7.02-4.66-9.34c-1.84-2.26-3.9-3.95-6.12-5c-2.28-1.08-4.58-1.74-6.84-1.97c-1.96,0.02-4.11,0.27-6.4,0.76
		c-2.4,0.5-4.77,1.22-7.07,2.13c-2.24,0.89-4.38,2.01-6.33,3.32c-1.48,1-2.75,2.09-3.81,3.26v78.12h-24.17v-99.99h18.9l2.83,8.28
		c1.06-0.77,2.2-1.49,3.4-2.16c2.81-1.55,5.77-2.89,8.82-3.99c3.08-1.11,6.26-1.93,9.46-2.45c3.18-0.52,6.19-0.78,8.95-0.78
		c4.9,0,9.81,0.73,14.6,2.16c4.96,1.5,9.43,4.04,13.29,7.56C1023.62,692.2,1026.68,696.98,1028.82,702.83z"/>
	<path class="st2" d="M1045.42,575.2c-0.13-1.79-0.33-3.39-0.59-4.76c-1.27-6.58-3.52-12.29-6.68-16.97
		c-3.13-4.64-6.86-8.48-11.1-11.41c-4.2-2.9-8.82-5.05-13.72-6.37c-4.81-1.29-9.67-1.95-14.42-1.95c-5.82,0-11.65,1.13-17.34,3.36
		c-5.72,2.24-10.9,5.58-15.39,9.91c-4.52,4.36-8.19,9.76-10.9,16.05c-2.73,6.32-4.12,13.67-4.12,21.87c0,8.3,1.35,15.71,4.02,22.02
		c2.66,6.33,6.29,11.66,10.77,15.84c4.47,4.17,9.67,7.32,15.46,9.37c5.71,2.02,11.66,3.04,17.68,3.04c7.76,0,15.44-1.68,22.81-4.98
		c7.44-3.34,13.9-8.41,19.19-15.07l2.4-3.03l-9.53-6.93l-2,3.02c-1.11,1.68-2.62,3.35-4.49,4.96c-1.92,1.66-4.04,3.13-6.29,4.35
		c-2.25,1.23-4.62,2.21-7.04,2.94c-2.32,0.7-4.59,1.05-6.73,1.05c-3.72,0-7.34-0.82-10.76-2.43c-3.5-1.65-6.67-3.93-9.42-6.79
		c-2.75-2.85-5.04-6.35-6.81-10.4c-1.28-2.94-2.16-6.12-2.62-9.48h66.87l0.38-3.18c0.12-1.03,0.24-2.31,0.36-3.82
		c0.13-1.59,0.19-3.27,0.19-4.98C1045.6,578.73,1045.54,576.97,1045.42,575.2z M1020.41,566.42c1.01,3.84,1.43,8.22,1.25,13.04
		h-44.37c-0.11-4.72,0.32-9.01,1.29-12.79c1.18-4.64,2.88-8.6,5.05-11.78c2.1-3.09,4.58-5.48,7.36-7.1c2.73-1.6,5.44-2.38,8.28-2.38
		c2.86,0,5.62,0.76,8.43,2.32c2.83,1.58,5.36,3.91,7.51,6.94C1017.42,557.78,1019.17,561.74,1020.41,566.42z"/>
	<path class="st2" d="M1110.93,611.76c0.13-1.07,0.04-2.15-0.26-3.31c-0.22-0.85-0.75-1.63-1.6-2.37l-0.11-0.1
		c-2.3-2.16-4.97-3.92-7.95-5.22c-3.22-1.41-6.63-2.7-10.12-3.83l-10.8-3.49c-3.82-1.23-7.35-2.78-10.49-4.61
		c-5.67-3.28-9.78-7.47-12.21-12.45c-2.41-4.93-3.43-10.03-3.02-15.16c0.4-5.11,2.14-9.92,5.15-14.3c3.02-4.38,7.05-7.73,11.99-9.94
		c2.88-1.23,6.02-2.14,9.39-2.73c3.3-0.58,6.8-0.88,10.41-0.88c6.66,0,13.23,0.95,19.54,2.8c6.57,1.94,11.84,4.94,15.68,8.92
		l2.35,2.43l-7.62,8.78l-2.58-2.14c-3.71-3.08-7.93-5.22-12.53-6.37c-4.84-1.22-9.77-1.83-14.66-1.83c-4.3,0-7.96,0.91-10.87,2.71
		c-2.79,1.71-4.53,3.64-5.31,5.91c-0.71,2.05-0.44,4.23,0.84,6.67c1.36,2.58,4.51,4.91,9.37,6.9c2.97,1.18,5.76,2.21,8.26,3.03
		c2.55,0.85,5.02,1.6,7.37,2.25c2.48,0.69,4.88,1.42,7.14,2.16c2.35,0.77,4.68,1.68,6.92,2.71l0.09,0.05
		c6.3,3.13,10.87,7.29,13.58,12.34c2.68,5.01,3.87,10.19,3.53,15.41c-0.33,5.14-1.92,10.01-4.71,14.49
		c-2.82,4.54-6.59,7.98-11.18,10.22c-3.42,1.71-7.22,2.98-11.29,3.77c-3.98,0.78-8.06,1.17-12.15,1.17c-7.3,0-14.61-1.24-21.72-3.67
		c-7.26-2.49-13.28-6.11-17.89-10.76l-2.09-2.11l6.64-10.33l3,2.67c1.41,1.25,3.29,2.47,5.6,3.61c2.43,1.21,5.11,2.29,7.95,3.21
		c2.82,0.92,5.86,1.65,9.05,2.17c6.83,1.12,13.41,1.08,19-0.47c2.72-0.76,4.87-1.98,6.57-3.74c0.17-0.18,0.53-0.63,0.99-1.65
		C1110.55,613.88,1110.8,612.9,1110.93,611.76z"/>
	<path class="st2" d="M1143.8,707.33c-3.16-6.42-7.3-11.84-12.31-16.12c-4.99-4.25-10.7-7.47-17-9.56
		c-12.34-4.09-25.15-4.16-37.71,0c-6.29,2.09-12.01,5.31-17,9.56c-5.01,4.28-9.15,9.7-12.31,16.12c-3.19,6.49-4.81,14.15-4.81,22.77
		c0,8.37,1.59,15.9,4.71,22.37c3.09,6.41,7.2,11.9,12.19,16.29c4.98,4.38,10.68,7.75,16.96,10.03c6.24,2.26,12.65,3.41,19.03,3.41
		c6.37,0,12.8-1.15,19.11-3.41c6.34-2.28,12.07-5.65,17.05-10.03c4.99-4.39,9.1-9.87,12.19-16.29c3.12-6.48,4.71-14.01,4.71-22.37
		C1148.61,721.48,1146.99,713.82,1143.8,707.33z M1076.52,758.16c-2.36-4.08-4.19-8.79-5.46-13.99c-1.27-5.23-1.86-10.55-1.75-15.91
		c0-4.1,0.56-8.53,1.67-13.18c1.09-4.58,2.77-8.88,5.01-12.78c2.16-3.78,4.94-6.97,8.26-9.48c3.13-2.37,6.83-3.53,11.3-3.53
		c4.72,0,8.56,1.16,11.76,3.54c3.35,2.5,6.12,5.68,8.22,9.43c2.17,3.89,3.8,8.19,4.84,12.78c1.06,4.67,1.59,9.12,1.59,13.22
		c0,5.3-0.65,10.65-1.93,15.91c-1.26,5.18-3.14,9.87-5.59,13.93c-2.4,3.98-5.27,7.21-8.53,9.62c-3.08,2.26-6.47,3.36-10.36,3.36
		c-4.03,0-7.51-1.1-10.65-3.38C1081.6,765.32,1078.79,762.11,1076.52,758.16z"/>
	<path class="st2" d="M1227.64,690.23c-6.42-6.05-16.2-9.12-29.08-9.12c-8.65,0-16.24,1.68-22.55,4.98
		c-6.35,3.33-11.88,8.55-16.45,15.53l-2.07,3.15l10.13,6.4l1.84-2.97c1.17-1.87,2.61-3.73,4.27-5.51c1.63-1.74,3.56-3.35,5.73-4.78
		c2.13-1.4,4.58-2.53,7.26-3.35c2.67-0.81,5.64-1.23,8.83-1.23c5.7,0,9.91,1.44,12.51,4.29c2.52,2.75,4.12,6.89,4.75,12.32
		c-0.71,0.73-1.78,1.35-3.19,1.86c-2.53,0.91-5.51,1.7-8.86,2.33c-3.44,0.66-7.19,1.27-11.15,1.81c-4.1,0.56-8.15,1.36-12.03,2.36
		c-5.37,1.23-9.92,3.5-13.53,6.76c-3.57,3.22-6.28,7.03-8.08,11.3c-1.77,4.22-2.7,8.7-2.77,13.33c-0.06,4.69,0.84,9.23,2.7,13.48
		c1.86,4.28,4.64,8.07,8.26,11.28c3.67,3.25,8.26,5.52,13.7,6.76c5.4,1.15,10.34,1.73,14.68,1.73c6.54,0,12.21-0.95,16.85-2.82
		c2.83-1.14,5.24-2.28,7.25-3.44l1.85,3.32h18.97v-59.08C1237.46,706.69,1234.16,696.37,1227.64,690.23z M1192.95,770.9
		c-3.16-0.1-5.77-0.98-7.96-2.68c-2.37-1.82-4.18-4.03-5.54-6.75c-1.37-2.73-2.19-5.82-2.44-9.17c-0.26-3.35,0.1-6.61,1.07-9.69
		c0.95-3.01,2.56-5.76,4.78-8.17c2.15-2.33,5.01-4.04,8.49-5.07c6.05-1.72,11.24-3.27,15.42-4.62c2.25-0.72,4.37-1.56,6.35-2.49
		v42.45c-2.57,2.38-5.36,3.97-8.33,4.74C1201.09,770.41,1197.11,770.9,1192.95,770.9z"/>
	<path class="st2" d="M1268.06,636.12c-7.23,2.43-14.77,3.67-22.41,3.67c-7.53,0-15.01-1.24-22.23-3.67
		c-7.31-2.46-13.92-6.24-19.67-11.23c-5.78-5.02-10.49-11.35-13.99-18.82c-3.53-7.5-5.31-16.28-5.31-26.1v-82.22h24.34v82.22
		c0,7.29,1.21,13.81,3.6,19.37c2.38,5.57,5.59,10.3,9.52,14.04c3.94,3.76,8.49,6.63,13.52,8.53c10.12,3.84,21.21,3.92,31.35-0.16
		c5-2,9.54-5.1,13.48-9.18c3.95-4.11,7.21-9.39,9.67-15.69c2.47-6.33,3.73-13.94,3.73-22.6v-76.53h13.55v82.22
		c0,9.81-1.79,18.59-5.31,26.1c-3.51,7.48-8.26,13.82-14.11,18.84C1282,629.89,1275.36,633.66,1268.06,636.12z"/>
	<path class="st2" d="M1396.04,702.85c1.9,5.78,2.62,13.01,2.14,21.48v55.67h-24.88v-56.84c0.22-5.86-0.16-10.82-1.13-14.74
		c-0.95-3.82-2.25-6.93-3.87-9.24c-1.55-2.21-3.31-3.85-5.22-4.87c-1.96-1.04-4.06-1.68-6.26-1.9c-4.22,0.03-8.32,1.05-12.19,3.03
		c-3.36,1.72-6.1,4-8.32,6.94c1.91,5.81,2.65,13.18,2.22,21.94v55.68h-24.7v-56.84c0.22-5.86-0.16-10.82-1.13-14.74
		c-0.95-3.82-2.25-6.92-3.87-9.24c-1.55-2.21-3.31-3.85-5.22-4.87c-1.96-1.04-4.06-1.68-6.26-1.9c-3.9,0.03-7.73,0.93-11.38,2.7
		c-3.31,1.59-6.16,3.79-8.51,6.56v78.33h-24.17v-99.07h19.02l2.63,7.22c3.08-2.45,6.45-4.47,10.07-6.03
		c5.25-2.25,10.82-3.39,16.56-3.39c6.21,0,12.22,1.2,17.87,3.57c4.52,1.9,8.36,4.93,11.46,9.05c1.09-1.17,2.25-2.25,3.5-3.24
		c2.5-2,5.26-3.72,8.2-5.11c2.92-1.38,6.01-2.45,9.2-3.18c3.19-0.73,6.3-1.09,9.25-1.09c4.8,0,9.55,0.73,14.11,2.17
		c4.77,1.52,8.99,4.09,12.56,7.65C1391.3,692.13,1394.1,696.94,1396.04,702.85z"/>
	<path class="st2" d="M1409.72,556.56c2.11,5.75,2.93,12.98,2.44,21.5v55.67h-24.7v-56.51c0.11-5.88-0.46-10.83-1.68-14.77
		c-1.22-3.88-2.78-7.02-4.66-9.34c-1.84-2.26-3.9-3.95-6.12-5c-2.29-1.08-4.59-1.74-6.85-1.97c-1.95,0.02-4.11,0.27-6.4,0.76
		c-2.39,0.5-4.77,1.22-7.07,2.13c-2.24,0.89-4.37,2-6.33,3.32c-1.47,1-2.75,2.09-3.8,3.26v78.12h-24.17v-99.99h18.89l2.84,8.28
		c1.06-0.77,2.19-1.49,3.4-2.16c2.8-1.55,5.77-2.89,8.82-3.99c3.07-1.11,6.25-1.93,9.45-2.45c3.19-0.52,6.2-0.78,8.95-0.78
		c4.91,0,9.82,0.73,14.6,2.16c4.97,1.49,9.44,4.04,13.29,7.56C1404.52,545.93,1407.58,550.71,1409.72,556.56z"/>
	<rect x="1428.88" y="534.66" class="st2" width="22.75" height="99.07"/>
	<path class="st2" d="M1430.44,521.21c-2.68-2.78-4.04-6.17-4.04-10.1c0-4.04,1.36-7.49,4.04-10.27c2.67-2.78,6.01-4.19,9.91-4.19
		c3.77,0,7.05,1.41,9.73,4.18v0.01c2.67,2.78,4.03,6.23,4.03,10.27c0,3.93-1.36,7.32-4.03,10.1c-2.68,2.78-5.95,4.18-9.73,4.18
		C1436.44,525.39,1433.11,523.99,1430.44,521.21z"/>
	<polygon class="st2" points="1458.49,671.33 1445.65,671.33 1462.68,646.55 1483.35,646.55 	"/>
	<path class="st2" d="M1508.44,721.47c-0.13-1.79-0.33-3.39-0.59-4.76c-1.27-6.58-3.52-12.29-6.67-16.97
		c-3.13-4.64-6.87-8.47-11.11-11.41c-4.2-2.9-8.82-5.04-13.72-6.37c-4.81-1.29-9.66-1.95-14.41-1.95c-5.83,0-11.66,1.13-17.35,3.36
		c-5.72,2.24-10.9,5.58-15.39,9.91c-4.52,4.36-8.19,9.76-10.9,16.05c-2.73,6.32-4.11,13.67-4.11,21.87c0,8.3,1.35,15.71,4.01,22.02
		c2.67,6.33,6.29,11.66,10.77,15.84c4.47,4.17,9.67,7.32,15.46,9.37c5.71,2.02,11.66,3.04,17.68,3.04c7.76,0,15.44-1.68,22.81-4.98
		c7.44-3.34,13.9-8.41,19.19-15.07l2.4-3.03l-9.53-6.93l-2,3.02c-1.11,1.68-2.62,3.35-4.49,4.96c-1.92,1.67-4.04,3.13-6.29,4.35
		c-2.25,1.23-4.62,2.21-7.04,2.94c-2.32,0.7-4.59,1.05-6.73,1.05c-3.72,0-7.34-0.82-10.76-2.43c-3.5-1.65-6.67-3.93-9.42-6.79
		c-2.75-2.85-5.04-6.35-6.81-10.4c-1.28-2.94-2.16-6.12-2.62-9.48h66.87l0.38-3.18c0.12-1.03,0.24-2.31,0.36-3.82
		c0.13-1.59,0.19-3.26,0.19-4.98C1508.62,725,1508.56,723.24,1508.44,721.47z M1483.43,712.69c1.01,3.84,1.43,8.22,1.25,13.04
		h-44.37c-0.11-4.72,0.32-9.01,1.29-12.79c1.18-4.63,2.88-8.6,5.05-11.78c2.1-3.09,4.58-5.48,7.36-7.1c2.74-1.6,5.44-2.38,8.28-2.38
		c2.86,0,5.62,0.76,8.44,2.32c2.82,1.58,5.35,3.91,7.5,6.94C1480.44,704.06,1482.19,708.01,1483.43,712.69z"/>
	<path class="st2" d="M1535.79,497.38v41.59c-2.15-1.21-4.47-2.23-6.95-3.04c-4.81-1.58-9.99-2.37-15.39-2.37
		c-5.89,0-11.89,1.01-17.82,3.02c-6.01,2.04-11.53,5.23-16.39,9.49c-4.91,4.3-8.94,9.87-11.97,16.56
		c-3.04,6.7-4.58,14.76-4.58,23.95c0,8.34,1.45,15.75,4.32,22.03c2.85,6.25,6.63,11.5,11.23,15.61c4.57,4.09,9.85,7.19,15.68,9.23
		c5.76,2.01,11.62,3.03,17.4,3.03c5.92,0,11.64-0.99,17.01-2.96c3.83-1.4,7.33-3.32,10.47-5.73l2.41,5.94h19.28V497.38H1535.79
		L1535.79,497.38z M1497.69,613.76c-2.74-2.84-5.02-6.44-6.78-10.71c-1.76-4.26-2.71-9.39-2.82-15.25
		c-0.11-7.92,0.82-14.56,2.77-19.73c1.93-5.11,4.45-9.25,7.49-12.3c3.04-3.04,6.42-5.23,10.04-6.52c3.74-1.33,7.47-2,11.07-2
		c4.03,0,7.66,0.62,10.79,1.87c2.39,0.95,4.25,2.05,5.54,3.28v62.78c-2.25,2.17-4.83,3.86-7.69,5.02c-6.7,2.71-14.03,2.74-21.09-0.1
		C1503.53,618.7,1500.4,616.57,1497.69,613.76z"/>
	<path class="st2" d="M1577.83,680.97l3.55,0.52l-0.59,3.67c-0.36,2.25-0.79,4.52-1.28,6.73c-0.47,2.12-0.93,4.34-1.4,6.64
		l-1.05,5.17l-4.27-2.87c-0.81-0.54-2.87-1.44-7.66-1.44c-2.13,0-4.42,0.23-6.81,0.68c-2.34,0.44-4.63,1.14-6.81,2.07
		c-2.12,0.92-4.09,2.09-5.85,3.48c-1.37,1.09-2.43,2.31-3.23,3.73v70.83h-24.35v-98.83l17.83-0.27l5.75,11.5
		c1.98-2.19,4.24-4.21,6.77-6.04c5.65-4.09,12.99-6.16,21.83-6.16C1572.66,680.38,1575.2,680.58,1577.83,680.97z"/>
	<rect x="1590.3" y="680.93" class="st2" width="22.75" height="99.07"/>
	<path class="st2" d="M1611.5,647.11c2.67,2.78,4.03,6.23,4.03,10.28c0,3.92-1.36,7.31-4.03,10.09c-2.68,2.78-5.95,4.19-9.74,4.19
		c-3.9,0-7.23-1.41-9.91-4.19c-2.67-2.78-4.03-6.17-4.03-10.09c0-4.04,1.36-7.5,4.03-10.28c2.68-2.78,6.02-4.19,9.91-4.19
		c3.78,0,7.06,1.41,9.73,4.18L1611.5,647.11z"/>
	<path class="st2" d="M1642.17,543.96c-6.42-6.05-16.2-9.12-29.07-9.12c-8.66,0-16.25,1.68-22.56,4.98
		c-6.35,3.33-11.88,8.55-16.45,15.53l-2.07,3.15l10.13,6.39l1.85-2.96c1.17-1.88,2.6-3.73,4.26-5.51c1.63-1.74,3.56-3.35,5.74-4.78
		c2.13-1.4,4.57-2.53,7.25-3.35c2.67-0.81,5.65-1.23,8.84-1.23c5.69,0,9.9,1.44,12.5,4.29c2.52,2.75,4.12,6.89,4.76,12.32
		c-0.72,0.73-1.78,1.35-3.19,1.85c-2.54,0.92-5.52,1.71-8.87,2.34c-3.44,0.66-7.19,1.26-11.15,1.81c-4.1,0.56-8.15,1.36-12.02,2.36
		c-5.37,1.23-9.93,3.5-13.54,6.76c-3.56,3.22-6.28,7.02-8.08,11.3c-1.76,4.21-2.7,8.7-2.77,13.33c-0.06,4.69,0.85,9.23,2.7,13.48
		c1.86,4.28,4.64,8.07,8.27,11.27c3.66,3.26,8.26,5.53,13.69,6.77c5.4,1.15,10.34,1.73,14.69,1.73c6.54,0,12.2-0.95,16.84-2.82
		c2.84-1.14,5.24-2.28,7.26-3.44l1.84,3.32H1652v-59.08C1652,560.42,1648.69,550.1,1642.17,543.96z M1607.49,624.63
		c-3.17-0.11-5.78-0.98-7.97-2.68c-2.36-1.82-4.17-4.03-5.53-6.75c-1.37-2.73-2.2-5.82-2.45-9.17c-0.26-3.36,0.1-6.62,1.08-9.69
		c0.95-3.01,2.55-5.76,4.77-8.17c2.15-2.33,5.02-4.04,8.49-5.07c6.05-1.72,11.23-3.27,15.42-4.62c2.25-0.72,4.37-1.56,6.35-2.49
		v42.45c-2.56,2.38-5.36,3.97-8.32,4.74C1615.63,624.14,1611.64,624.63,1607.49,624.63z"/>
	<path class="st2" d="M1702.59,754.78l8.31,8.17l-2.28,2.63c-4.58,5.28-10.28,9.39-16.94,12.22c-6.59,2.8-13.38,4.22-20.18,4.22
		c-6.18,0-12.3-1.2-18.16-3.55c-5.89-2.36-11.18-5.79-15.73-10.19c-4.57-4.41-8.29-9.86-11.07-16.21c-2.79-6.38-4.2-13.65-4.2-21.61
		c0-7.97,1.48-15.28,4.4-21.74c2.9-6.41,6.82-11.93,11.63-16.4c4.8-4.45,10.32-7.9,16.43-10.25c6.09-2.34,12.42-3.53,18.83-3.53
		h1.86c0.76,0,1.52,0.07,2.25,0.2c5.85,0.29,11.06,1.43,15.5,3.4c4.44,1.98,8.74,4.84,12.78,8.5l2.64,2.39l-2.31,2.73
		c-1.16,1.38-1.55,1.8-1.75,2.02l-3.71,3.84l-2.46-2.18c-3.02-2.69-6.26-4.81-9.63-6.31c-3.26-1.45-6.88-2.18-10.75-2.18
		c-3.56,0.1-7.23,1.19-10.79,3.22c-3.67,2.1-7.04,5-9.99,8.62c-2.97,3.64-5.39,7.98-7.19,12.9c-1.78,4.88-2.69,10.1-2.69,15.51
		c0.11,5.23,1.04,10.28,2.78,14.94c1.73,4.68,4.03,8.77,6.83,12.17c2.77,3.38,5.95,6.09,9.45,8.08c3.36,1.9,6.73,2.86,10.01,2.86
		c1.52,0,2.05-0.1,2.14-0.11l0.2-0.04c5.23-0.77,9.45-2.25,12.53-4.38c3.33-2.31,6.31-4.81,8.85-7.44L1702.59,754.78z"/>
	<path class="st2" d="M1724.22,611.76c0.13-1.07,0.04-2.15-0.25-3.31c-0.23-0.85-0.75-1.63-1.61-2.37l-0.11-0.1
		c-2.29-2.16-4.97-3.92-7.94-5.22c-3.23-1.41-6.63-2.7-10.13-3.83l-10.8-3.49c-3.82-1.23-7.35-2.78-10.49-4.61
		c-5.66-3.28-9.77-7.47-12.21-12.45c-2.41-4.93-3.43-10.03-3.02-15.16c0.41-5.11,2.14-9.92,5.16-14.3
		c3.01-4.38,7.05-7.73,11.98-9.94c2.89-1.23,6.02-2.14,9.39-2.73c3.3-0.58,6.81-0.88,10.41-0.88c6.66,0,13.24,0.95,19.54,2.8
		c6.57,1.94,11.85,4.94,15.68,8.92l2.35,2.43l-7.62,8.78l-2.57-2.14c-3.72-3.08-7.93-5.22-12.53-6.37
		c-4.85-1.22-9.78-1.83-14.67-1.83c-4.3,0-7.95,0.91-10.87,2.71c-2.79,1.71-4.52,3.64-5.31,5.91c-0.71,2.05-0.44,4.23,0.84,6.67
		c1.36,2.58,4.51,4.91,9.37,6.9c2.97,1.18,5.76,2.21,8.27,3.03c2.54,0.85,5.02,1.6,7.37,2.25c2.48,0.69,4.88,1.42,7.14,2.16
		c2.35,0.77,4.67,1.68,6.91,2.71l0.09,0.05c6.31,3.13,10.88,7.29,13.59,12.34c2.68,5.01,3.86,10.19,3.53,15.41
		c-0.34,5.14-1.92,10.01-4.72,14.49c-2.82,4.54-6.58,7.98-11.18,10.22c-3.41,1.71-7.22,2.98-11.29,3.77
		c-3.97,0.78-8.06,1.17-12.15,1.17c-7.3,0-14.6-1.24-21.72-3.67c-7.26-2.49-13.28-6.11-17.89-10.76l-2.08-2.11l6.63-10.33l3,2.67
		c1.41,1.25,3.3,2.47,5.6,3.61c2.44,1.21,5.11,2.29,7.95,3.21c2.82,0.92,5.87,1.65,9.06,2.17c6.83,1.12,13.4,1.08,18.99-0.47
		c2.72-0.76,4.88-1.98,6.57-3.74c0.17-0.18,0.53-0.63,0.99-1.65C1723.84,613.88,1724.09,612.9,1724.22,611.76z"/>
	<path class="st2" d="M1788.37,690.23c-6.42-6.05-16.2-9.12-29.08-9.12c-8.65,0-16.24,1.68-22.55,4.98
		c-6.35,3.33-11.88,8.55-16.45,15.53l-2.07,3.15l10.13,6.4l1.85-2.97c1.16-1.87,2.6-3.73,4.26-5.51c1.63-1.74,3.56-3.35,5.73-4.78
		c2.14-1.4,4.58-2.53,7.26-3.35c2.67-0.81,5.64-1.23,8.83-1.23c5.7,0,9.91,1.44,12.51,4.29c2.52,2.75,4.12,6.89,4.75,12.32
		c-0.71,0.73-1.78,1.35-3.18,1.86c-2.54,0.91-5.52,1.7-8.87,2.33c-3.44,0.66-7.19,1.27-11.15,1.81c-4.1,0.56-8.15,1.36-12.02,2.36
		c-5.37,1.23-9.93,3.5-13.54,6.76c-3.57,3.22-6.28,7.03-8.08,11.3c-1.77,4.22-2.7,8.7-2.77,13.33c-0.06,4.69,0.85,9.23,2.7,13.48
		c1.86,4.28,4.64,8.07,8.26,11.28c3.67,3.25,8.26,5.52,13.7,6.76c5.4,1.15,10.34,1.73,14.69,1.73c6.53,0,12.2-0.95,16.84-2.82
		c2.84-1.14,5.24-2.28,7.25-3.44l1.85,3.32h18.97v-59.08C1798.19,706.69,1794.89,696.37,1788.37,690.23z M1753.68,770.9
		c-3.16-0.1-5.77-0.98-7.96-2.68c-2.37-1.82-4.18-4.03-5.53-6.75c-1.37-2.73-2.2-5.82-2.45-9.17c-0.26-3.35,0.1-6.61,1.07-9.69
		c0.95-3.01,2.56-5.76,4.78-8.17c2.15-2.33,5.02-4.04,8.49-5.07c6.05-1.72,11.24-3.27,15.42-4.62c2.25-0.72,4.37-1.56,6.35-2.49
		v42.45c-2.56,2.38-5.36,3.97-8.33,4.74C1761.83,770.41,1757.84,770.9,1753.68,770.9z"/>
	<rect x="999.19" y="445.07" class="st2" width="798.95" height="3.01"/>
	<rect x="626.48" y="839.13" class="st2" width="937.06" height="3.76"/>
</g>
</svg>
