<?xml version="1.0" encoding="utf-8"?>
<!-- Generator: Adobe Illustrator 25.0.0, SVG Export Plug-In . SVG Version: 6.00 Build 0)  -->
<svg version="1.1" id="Layer_1" xmlns="http://www.w3.org/2000/svg" xmlns:xlink="http://www.w3.org/1999/xlink" x="0px" y="0px"
	 viewBox="0 0 1920 1080" style="enable-background:new 0 0 1920 1080;" xml:space="preserve">
<style type="text/css">
	.st0{fill:#FFFFFF;}
	.st1{fill:#FF0000;}
</style>
<g>
	<g>
		<path class="st0" d="M460.7,906.71c-14.62-8.92-25.7-21.19-33.23-36.82c-7.54-15.62-11.31-33.28-11.31-52.95
			c0-22.61,4.37-42.01,13.1-58.19c8.73-16.18,21.1-28.41,37.09-36.68c16-8.27,34.65-12.41,55.99-12.41
			c20.04,0,42.56,2.85,67.57,8.55l-3.03,51.3h-27.85l-7.45-35.3c-1.84-1.84-5.34-3.54-10.48-5.1c-5.15-1.56-11.86-2.34-20.13-2.34
			c-18.02,0-32.18,7.31-42.47,21.92c-10.3,14.62-15.44,35.71-15.44,63.29c0,27.03,4.41,48.86,13.24,65.5
			c8.82,16.64,22.24,24.96,40.26,24.96c7.35,0,14.25-0.92,20.68-2.76c6.43-1.84,11.31-4.23,14.62-7.17v-59.29l-29.23-2.76v-18.48
			h83.84v18.48l-14.62,2.48v73.08c-3.86,0.19-10.85,1.75-20.96,4.69c-11.77,3.13-21.84,5.47-30.2,7.03
			c-8.37,1.56-17.61,2.34-27.72,2.34C492.73,920.08,475.32,915.63,460.7,906.71z"/>
		<path class="st0" d="M624.09,900.78l18.2-2.21V789.91l-17.65-4.96v-19.03l42.75-5.79h0.83l6.9,5.52v6.07l-0.83,22.34h0.83
			c1.28-3.68,4.32-8.23,9.1-13.65c4.78-5.42,10.8-10.2,18.06-14.34s15.12-6.21,23.58-6.21c4.04,0,7.54,0.55,10.48,1.66v41.37
			c-5.52-3.86-12.23-5.79-20.13-5.79c-13.42,0-25.09,3.59-35.02,10.76v90.46l31.99,2.48v16.27H624.1L624.09,900.78L624.09,900.78z"
			/>
		<path class="st0" d="M865.14,915.95c-2.76-2.57-4.14-6.43-4.14-11.58v-7.45c-4.96,6.07-11.95,11.44-20.96,16.13
			s-18.02,7.03-27.03,7.03c-17.65,0-30.25-4.55-37.78-13.65c-7.54-9.1-11.31-24.13-11.31-45.09v-77.77l-13.79-3.86v-15.72
			l46.88-3.59h0.28l5.52,3.86v97.08c0,13.42,1.66,22.8,4.96,28.13c3.31,5.33,9.47,8,18.48,8c10.85,0,20.96-4.23,30.34-12.69V783.57
			l-18.48-4.14v-15.44l49.92-3.59h0.55l6.62,3.86v135.69h15.44l-0.27,15.72c-0.74,0.19-4.14,0.92-10.2,2.21
			c-6.07,1.28-13.33,1.93-21.79,1.93C872.3,919.81,867.9,918.52,865.14,915.95z"/>
		<path class="st0" d="M1073.21,877.89c-6.34,12.87-15.63,23.12-27.86,30.75c-12.23,7.63-26.8,11.44-43.71,11.44
			c-3.68,0-7.49-0.32-11.45-0.97s-7.13-1.43-9.51-2.34l0.83,22.89v25.1l25.65,3.31v15.72h-81.91v-15.72l17.93-3.31V789.91
			l-17.93-4.96v-19.03l45.5-5.79h0.55l6.9,5.52v15.44c4.59-5.7,10.85-10.66,18.75-14.89c7.9-4.23,16.55-6.34,25.92-6.34
			c17.47,0,31.81,6.21,43.02,18.62s16.82,31.4,16.82,56.95C1082.72,850.86,1079.55,865.02,1073.21,877.89z M992.81,786.33
			c-4.96,2.39-8.73,5.06-11.31,8v102.32c1.28,1.84,3.9,3.4,7.86,4.69c3.95,1.29,8.32,1.93,13.1,1.93c11.95,0,21.46-5.19,28.54-15.58
			c7.08-10.39,10.62-26.7,10.62-48.95c0-18.75-3.03-32.77-9.1-42.06c-6.07-9.28-14.06-13.93-23.99-13.93
			C1003.03,782.74,997.79,783.94,992.81,786.33z"/>
		<path class="st0" d="M1115.68,796.53c6.89-12.13,16.13-21.28,27.72-27.44c11.58-6.16,24.17-9.24,37.78-9.24
			c23.17,0,41.05,7.13,53.64,21.37c12.59,14.25,18.89,33.6,18.89,58.05c0,17.47-3.45,32.31-10.34,44.54
			c-6.89,12.23-16.09,21.33-27.58,27.3c-11.49,5.97-24.13,8.96-37.92,8.96c-22.99,0-40.82-7.12-53.5-21.37
			c-12.69-14.25-19.03-33.6-19.03-58.05C1105.33,823.38,1108.79,808.67,1115.68,796.53z M1211.23,842.04
			c0-20.96-2.48-36.91-7.45-47.85c-4.96-10.94-13.06-16.41-24.27-16.41c-21.33,0-31.99,20.04-31.99,60.12
			c0,20.96,2.62,36.91,7.86,47.85s13.47,16.41,24.68,16.41C1200.84,902.16,1211.23,882.12,1211.23,842.04z"/>
		<path class="st0" d="M1364.57,732.82l-21.23-3.59v-17.1h88.25v17.1l-26.48,3.59v164.64l59.02-2.48l17.37-51.57l22.34,3.03
			l-8.55,70.6h-152.51v-16.55l21.79-2.76V732.82z"/>
	</g>
	<g>
		<path class="st0" d="M815.52,377.09c1.55,2.26,3.16,4.15,4.83,5.64c2.04,1.83,4.15,3.06,6.29,3.64c2.97,0.8,8.02,1.76,15.17,1.76
			c7.74,0,18.39-1.13,31.01-5.4c4.37-1.47,8.99-3.32,13.8-5.64c3.04-1.46,6.15-3.09,9.34-4.95c0.4-0.23,0.79-0.46,1.19-0.7h-84.98
			C813.26,373.53,814.38,375.41,815.52,377.09z"/>
		<path class="st0" d="M653.7,522.46c-19.41-36.59-29.25-85.51-29.25-145.37c0-60.85,11.39-107.88,33.87-139.77
			c22.34-31.74,52.23-47.16,91.36-47.16c18.03,0,32.79,1.7,43.86,5.06c11.5,3.5,17.27,6.73,20.18,9.09l17.4,82.45h72.84l0.45-7.64
			l-4.83-14.02l-4.82-13.99l-3.06-8.86l-4.08-11.83l8.37-0.15l4.14-0.08c0.02,0,0.56-0.01,1.51-0.08c1.26-0.1,3.27-0.3,5.7-0.71
			l0.69-11.48c-1.8-1.67-3.59-3.51-5.34-5.49c-1.82-2.04-3.59-4.23-5.26-6.59c-3.82-5.33-7.12-11.46-9.31-18.38
			c-2.15-6.8-3.05-13.75-2.7-20.83c0.08-1.87,0.26-3.77,0.53-5.67c0.26-1.84,0.6-3.69,1.03-5.54c-49-10.07-94.06-15.17-134.18-15.17
			c-48.87,0-92.32,9.64-129.1,28.68c-37.01,19.14-66.01,47.81-86.2,85.22c-20.1,37.22-30.28,82.37-30.28,134.18
			c0,45.13,8.78,86.21,26.11,122.11c17.43,36.14,43.41,64.92,77.23,85.57c23.65,14.43,50.71,23.88,80.81,28.24
			c1.45-1.57,2.97-3.25,4.58-5.05c1.47-1.64,2.99-3.36,4.56-5.16c7.33-8.35,15.5-18.19,22.6-27.94c1.29-1.75,2.53-3.5,3.73-5.24
			c1.23-1.8,2.42-3.57,3.55-5.33C696.34,572.88,671.2,555.46,653.7,522.46z"/>
		<path class="st0" d="M914.82,530.98c-1.64,0.21-3.3,0.41-4.97,0.58c-1.86,0.2-3.75,0.38-5.64,0.53
			c-4.93,0.41-9.98,0.63-15.03,0.63c-13.28,0-25.01-1.63-34.85-4.83l-0.24-0.08c-2.68,11.08-6.15,15.41-8.84,17.76
			c-2.99,2.63-9.29,6.99-20.12,14.43c-0.16,0.11-0.32,0.23-0.49,0.34c-6.7,4.61-14.43,9.91-21.96,15.29
			c-4.35,3.1-8.63,6.23-12.6,9.25c-15.69,11.91-18.89,16.36-19.49,17.43c-1.11,4.5-2.37,8.48-3.79,11.88
			c-0.78,1.89-1.6,3.61-2.48,5.15c-0.16,0.27-0.32,0.54-0.47,0.8c-1.28,2.1-2.65,3.87-4.14,5.31l-0.18,0.67
			c12.6-0.87,24.56-2.36,35.76-4.45c18.96-3.53,42.06-8.91,68.65-15.98l0.12-0.05c22.33-6.48,37.83-9.98,46.06-10.38l5.37-0.25
			v-60.16c-0.38-2.16-0.62-3.48-0.67-3.76L914.82,530.98z"/>
		<path class="st0" d="M806.33,423.84c1.29-1.66,2.55-3.43,3.79-5.31c0.4-0.6,0.79-1.22,1.17-1.84c-5.02-3.15-11.21-8.2-16.95-16.05
			c-3.87-5.31-7.08-11.3-9.6-17.91c-0.7-1.83-1.34-3.71-1.93-5.64c-0.58-1.84-1.1-3.73-1.56-5.64h-33.49v52.54l54.23,5.11
			C803.42,427.5,804.89,425.74,806.33,423.84z"/>
		<path class="st0" d="M901.09,239.24c-0.53,0.03-0.81,0.03-0.81,0.03l0.7,2.01L901.09,239.24z"/>
		<path class="st0" d="M1366.73,441.92l-39.51,117.29l-117.19,4.92c0.26,1.8,0.53,3.67,0.79,5.62c0.12,0.94,0.26,1.9,0.38,2.87
			c0.12,0.91,0.24,1.83,0.36,2.74c1.82,14.37,3.07,27.48,3.51,32.29l1.4-0.14l0.45,1.38l1.82,5.55l0.03,0.09l1.84,5.64h186.14
			l20.58-170.04L1366.73,441.92z"/>
		<path class="st0" d="M1263.43,145.85h-160.22c0.33,1.9,0.59,3.78,0.78,5.64c0.19,1.91,0.32,3.78,0.37,5.65
			c0.09,3.67-0.09,7.24-0.55,10.69c-1.16,8.67-4.11,16.33-8.74,22.77c-0.2,0.29-0.42,0.59-0.63,0.87c-1,1.32-2.07,2.57-3.2,3.77
			c0.29,0.19,0.59,0.38,0.9,0.6c2.38,1.63,5.25,3.92,8.52,7.16h0.02v0.02c1.76,1.76,3.65,3.79,5.65,6.16
			c1.81,2.13,3.69,4.55,5.64,7.26c4.37,6.05,9.1,13.58,14.07,22.98c12.06,22.83,23.33,52.6,33.49,88.46
			c12.6,44.46,23.56,98.61,32.61,160.95l0.07,0.47l0.02,0.46c0.01,0.42,0.05,0.9,0.08,1.43c0.38,6.02,1.9,18.57,5.65,27.42
			c0.6,1.4,1.25,2.72,1.96,3.89c1.03,1.69,2.26,4.26,3.68,8.94V203.15l59.83-8.11V145.85z"/>
		<path class="st0" d="M1164.3,608.9c-1.49-15.87-5.14-34.78-13.51-50.29c-5.25-4.2-20.84-17.92-26.97-37.43
			c-0.65-2.08-3.06-6.86-11.82-14.25c-1.65-1.39-3.51-2.87-5.64-4.44c-1.7-1.26-3.58-2.59-5.65-3.96v67.4l-49.24,6.23v48.02h113.61
			c-0.08-1.81-0.18-3.69-0.32-5.64C1164.64,612.71,1164.48,610.83,1164.3,608.9z"/>
	</g>
	<g>
		<path class="st1" d="M900.28,239.28l0.7,2.01l0.11-2.04C900.57,239.28,900.28,239.28,900.28,239.28z"/>
	</g>
	<g>
		<path class="st0" d="M1218.4,642.62l-7.34-22.43l-0.95-2.9l-20.97,2.07l9.13-4.81l7.91-4.17c0,0-0.05-0.52-0.14-1.48
			c-0.4-4.4-1.68-18.08-3.61-33.15c-0.24-1.85-0.49-3.73-0.76-5.61c-1.08-7.98-2.34-16.08-3.73-23.16
			c-1.7-8.67-3.6-15.83-5.65-19.44c-0.06-0.11-0.11-0.23-0.18-0.33c-8.06-13.36-8.99-37.09-8.99-37.09
			c-21.7-149.59-50.06-222.15-71.16-257.14c-1.94-3.23-3.83-6.13-5.64-8.75c-1.96-2.86-3.86-5.37-5.65-7.59
			c-11.08-13.68-18.29-15.76-18.29-15.76c-8.84,3.93-15.83,5.1-21.03,5.1c-7.8,0-11.59-2.65-11.59-2.65
			c8.73-0.77,15.92-2.61,21.8-5.25c2.88-1.29,5.43-2.78,7.71-4.43c2.04-1.48,3.86-3.08,5.46-4.8c8.24-8.81,10.86-20.42,10.5-31.72
			c-0.06-1.9-0.19-3.78-0.41-5.65c-0.21-1.86-0.5-3.7-0.85-5.51c-0.01-0.05-0.02-0.09-0.03-0.14
			c-4.59-23.46-44.19-49.62-44.19-49.62c10.8,21.83,15.21,37.89,16.14,49.62c0.17,2.01,0.23,3.88,0.19,5.64
			c-0.02,2.03-0.17,3.91-0.42,5.65c-0.36,2.71-0.96,5.06-1.69,7.09c-1.55,4.25-3.69,7.12-5.64,9.02c-2.65,2.59-4.97,3.38-4.97,3.38
			s-0.24-0.19-0.68-0.52c-3.07-2.29-16.23-11.46-30.35-11.46c-16.12,0-34.78,18.43-59.43,18.89c-24.65,0.45-21.19,14.28-21.19,14.28
			c-15.98-6.37-25.36-17.52-30.86-28.44c-1.67-3.29-2.97-6.54-4-9.64c-3.85-11.56-3.85-20.9-3.85-20.9
			c-3.53,6.5-5.85,12.66-7.18,18.45c-0.43,1.9-0.77,3.75-0.99,5.57c-0.25,1.94-0.4,3.84-0.42,5.69c-0.16,7.63,1.39,14.51,3.95,20.62
			c1.42,3.41,3.16,6.56,5.09,9.48c1.64,2.48,3.41,4.79,5.25,6.92c10.8,12.53,23.79,18.97,23.79,18.97l11.98-13.58
			c-4.27,20.48-26.49,26.16-37.72,27.73c-2.63,0.37-4.65,0.51-5.7,0.56c-0.53,0.03-0.81,0.03-0.81,0.03l0.7,2.01l4.83,14.02
			l10.6,30.73c3.22-0.28,6.46-0.42,9.71-0.42c44.02,0,89.82,25.09,97.33,47.18c8.06,23.72,44.99,39.39,44.99,39.39
			c-7.98-1-33.63-5.07-59.2-38.93c-17.16-22.74-28.04-26.46-33.35-26.46c-2.6,0-3.85,0.89-3.85,0.89
			c-19.31,29.74-39.3,50.08-58.29,63.75c-2.82,2.02-5.62,3.91-8.4,5.64c-3.29,2.08-6.54,3.95-9.73,5.64
			c-20.82,11.04-39.59,14.5-53.8,14.5c-7.11,0-13.06-0.87-17.56-2.09c-6.5-1.76-11.73-6.48-15.9-12.41
			c-1.25-1.78-2.42-3.68-3.49-5.64c-1-1.84-1.92-3.74-2.77-5.64c-6.23-14.01-8.4-28.82-8.4-28.82c19.5-21.5,15.05-45.45-0.77-51.44
			c-15.83-5.99-17.82-20.42-17.82-20.42l-1.39,36.24l-5.52-5.69c-8.6,35.33,11.98,42.24,11.98,42.24
			c2.91-21.19,9.05-29.64,9.05-29.64c-3.75,24.75-2.4,43.44,1.4,57.53c0.52,1.98,1.1,3.85,1.72,5.64c0.69,1.99,1.42,3.87,2.2,5.64
			c10.75,24.7,29.24,30,29.24,30c-1.12,2.35-2.31,4.61-3.58,6.75c-1.1,1.86-2.22,3.65-3.39,5.35c-1.28,1.87-2.57,3.65-3.87,5.31
			c-8.58,11-17.04,17.38-17.04,17.38s-17.43,67.57-36.48,89.37c-19.03,21.81-14.43,31.33-14.43,31.33
			c-1.21,2.46-2.62,5.02-4.17,7.63c-1.1,1.85-2.27,3.74-3.51,5.63c-1.19,1.83-2.44,3.67-3.74,5.52c-6.67,9.6-14.56,19.4-21.96,28.06
			c-1.57,1.83-3.1,3.6-4.61,5.31c-1.59,1.82-3.14,3.57-4.64,5.23c-9.24,10.3-16.12,17.26-16.12,17.26l59.19,0.23l4.46-16.45
			l0.38-1.4l-28.21-1.08c0,0,9.04-1.68,23.81-2.99c1.16-0.1,2.37-0.2,3.6-0.3c2.43-0.24,4.72-2.31,6.77-5.86
			c2.13-3.66,4.02-8.89,5.54-15.22c0.87-3.61,6.95-9.57,15.39-16.42c3.44-2.78,7.27-5.71,11.29-8.69
			c10.12-7.5,21.46-15.3,30.96-21.82c1.98-1.35,3.86-2.65,5.64-3.88c6.73-4.64,11.93-8.3,14.12-10.23
			c4.72-4.14,7.11-16.16,8.33-27.14c1.22-10.97,1.26-20.92,1.26-20.92c0.03,0,2.05,0.15,8.29,28.56c9.79,3.18,20.89,4.38,32.04,4.38
			c5.04,0,10.08-0.25,15.03-0.67c1.9-0.16,3.78-0.34,5.64-0.55c1.91-0.2,3.79-0.44,5.64-0.69c22.98-3.12,41.43-8.98,42.21-9.22
			c-8.93,8.76-33.92,17.04-33.92,17.04s7.21,41.61,14.51,70.8c7.29,29.17,0,42.77,0,42.77l34.55-0.46l-2.99-17.27l-16.12-1.39
			l15.43-4.14l-4.14-47.21c16.81-6.92,20.73-36.86,20.73-36.86c3.45,35.01-2.08,90.99-2.08,90.99l-13.82,43.08h59.67l-1.04-32.38
			l-30.07,0.69l28.34-13.24c-6.57-52.17,23.14-141.43,23.14-141.43c15.86-4.43,36.21-23.02,50.92-38.37c2-2.08,3.88-4.09,5.65-6.01
			c2.08-2.27,3.97-4.39,5.64-6.29c5-5.68,8.05-9.46,8.05-9.46c-1.02,5.85-4.05,11.97-8.05,17.87c-1.73,2.56-3.64,5.09-5.64,7.53
			c-1.82,2.22-3.73,4.38-5.65,6.45c-10.85,11.65-22.13,20.21-22.13,20.21s10.4,4.95,22.13,12.32c1.85,1.16,3.75,2.39,5.65,3.68
			s3.79,2.62,5.64,4.01c9.53,7.07,18.02,15.23,20.49,23.08c6.45,20.5,25.33,34.08,25.33,34.08c9.92,17.42,14.03,38.79,15.64,56.35
			c0.18,1.93,0.33,3.82,0.44,5.64c0.12,1.95,0.23,3.84,0.29,5.64c0.53,13.29-0.25,22.43-0.25,22.43L1218.4,642.62L1218.4,642.62z"/>
	</g>
</g>
</svg>
