<?xml version="1.0" encoding="utf-8"?>
<!-- Generator: Adobe Illustrator 25.0.0, SVG Export Plug-In . SVG Version: 6.00 Build 0)  -->
<svg version="1.1" id="Layer_1" xmlns="http://www.w3.org/2000/svg" xmlns:xlink="http://www.w3.org/1999/xlink" x="0px" y="0px"
	 viewBox="0 0 1920 1080" style="enable-background:new 0 0 1920 1080;" xml:space="preserve">
<style type="text/css">
	.st0{fill:#FFFFFF;}
</style>
<g>
	<g>
		<path class="st0" d="M619.84,690.35c0,20.9-7.54,38.91-22.62,54.01c-15.08,15.09-33.05,22.64-53.93,22.64h-160.9V129.45H543.3
			c20.88,0,38.84,7.53,53.93,22.58c15.07,15.06,22.62,33,22.62,53.84v184.15c0,11.58-1.31,21.14-3.92,28.66
			c-2.61,7.53-5.8,13.47-9.56,17.82c-3.78,4.35-7.69,7.38-11.74,9.12c-4.07,1.74-7.83,2.6-11.31,2.6c3.48,0.58,7.24,1.75,11.31,3.49
			c4.05,1.74,7.96,4.8,11.74,9.15c3.76,4.35,6.96,10.15,9.56,17.41c2.61,7.26,3.92,16.7,3.92,28.31L619.84,690.35L619.84,690.35z
			 M465.02,209.46v198.31h52.19c5.79,0,10.57-1.88,14.35-5.63c3.76-3.75,5.66-8.5,5.66-14.29V229.39c0-5.78-1.89-10.55-5.66-14.29
			c-3.78-3.75-8.56-5.63-14.35-5.63h-52.19V209.46z M465.02,487.79v199.18h52.19c5.79,0,10.57-1.88,14.35-5.66
			c3.76-3.76,5.66-8.55,5.66-14.35V507.79c0-5.79-1.89-10.57-5.66-14.35c-3.78-3.76-8.56-5.66-14.35-5.66L465.02,487.79
			L465.02,487.79z"/>
		<path class="st0" d="M704.2,129.45h191.35v82.63H786.83v195.7h108.72v80.02H786.83v196.57h108.72V767H704.2V129.45z"/>
		<path class="st0" d="M1204.31,690.35c0,20.9-7.54,38.91-22.62,54.01c-15.08,15.09-33.05,22.64-53.93,22.64H966.85V129.45h160.91
			c20.88,0,38.84,7.53,53.93,22.58c15.07,15.06,22.62,33,22.62,53.84v184.15c0,11.58-1.31,21.14-3.92,28.66
			c-2.61,7.53-5.8,13.47-9.56,17.82c-3.78,4.35-7.69,7.38-11.74,9.12c-4.07,1.74-7.83,2.6-11.31,2.6c3.48,0.58,7.24,1.75,11.31,3.49
			c4.05,1.74,7.96,4.8,11.74,9.15c3.76,4.35,6.96,10.15,9.56,17.41c2.61,7.26,3.92,16.7,3.92,28.31V690.35z M1049.49,209.46v198.31
			h52.19c5.79,0,10.57-1.88,14.35-5.63c3.76-3.75,5.66-8.5,5.66-14.29V229.39c0-5.78-1.89-10.55-5.66-14.29
			c-3.78-3.75-8.56-5.63-14.35-5.63h-52.19V209.46z M1049.49,487.79v199.18h52.19c5.79,0,10.57-1.88,14.35-5.66
			c3.76-3.76,5.66-8.55,5.66-14.35V507.79c0-5.79-1.89-10.57-5.66-14.35c-3.78-3.76-8.56-5.66-14.35-5.66L1049.49,487.79
			L1049.49,487.79z"/>
		<path class="st0" d="M1390.44,372.98l68.71-243.53h81.76l-110.46,362.7v274.85h-82.63V492.14l-109.59-362.7h80.89L1390.44,372.98z
			"/>
	</g>
	<g>
		<path class="st0" d="M413.19,916.05h-13.71l-3.97,34.49h-16.42l17.14-133.07h20.75l17.32,133.07h-16.78L413.19,916.05z
			 M401.46,899.36h9.74l-4.87-41.03L401.46,899.36z"/>
		<path class="st0" d="M609.68,891.74v58.82h-17.14V817.48h33.92c4.33,0,8.05,1.57,11.19,4.72c3.12,3.15,4.69,6.9,4.69,11.25v42.3
			c0,4.36-1.56,8.11-4.69,11.25c-3.13,3.15-6.86,4.72-11.19,4.72h-16.78V891.74z M609.68,834.18v40.85h11.37
			c1.2,0,2.19-0.39,2.98-1.18c0.78-0.79,1.17-1.79,1.17-3v-32.5c0-1.21-0.39-2.2-1.17-3c-0.78-0.79-1.78-1.18-2.98-1.18
			L609.68,834.18L609.68,834.18z"/>
		<path class="st0" d="M819.16,950.55c-4.33,0-8.06-1.57-11.19-4.72c-3.13-3.14-4.69-6.9-4.69-11.25V833.46
			c0-4.36,1.56-8.11,4.69-11.25c3.12-3.15,6.85-4.72,11.19-4.72h18.04c4.33,0,8.05,1.57,11.19,4.72c3.12,3.15,4.69,6.9,4.69,11.25
			v101.12c0,4.36-1.56,8.11-4.69,11.25c-3.13,3.15-6.86,4.72-11.19,4.72C837.2,950.55,819.16,950.55,819.16,950.55z M820.42,929.68
			c0,1.21,0.39,2.21,1.17,3c0.78,0.79,1.78,1.18,2.98,1.18h7.22c1.2,0,2.19-0.39,2.98-1.18c0.78-0.79,1.17-1.78,1.17-3v-91.31
			c0-1.21-0.39-2.2-1.17-3c-0.78-0.79-1.78-1.18-2.98-1.18h-7.22c-1.2,0-2.19,0.39-2.98,1.18c-0.78,0.79-1.17,1.79-1.17,3V929.68z"
			/>
		<path class="st0" d="M1049.39,892.28h0.18l-0.73-27.41v-47.38h16.24v133.06h-15.34l-17.86-74.79h-0.18l0.73,27.41v47.38h-16.24
			V817.48h15.34L1049.39,892.28z"/>
		<path class="st0" d="M1223.33,817.49h45.29v17.25h-14.07v115.81h-17.14V834.73h-14.07v-17.24H1223.33z"/>
		<path class="st0" d="M1426.85,817.49h39.7v17.25h-22.56v40.84h22.56v16.7h-22.56v41.03h22.56v17.25h-39.7V817.49z"/>
	</g>
</g>
</svg>
