<?xml version="1.0" encoding="utf-8"?>
<!-- Generator: Adobe Illustrator 25.0.0, SVG Export Plug-In . SVG Version: 6.00 Build 0)  -->
<svg version="1.1" id="Layer_1" xmlns="http://www.w3.org/2000/svg" xmlns:xlink="http://www.w3.org/1999/xlink" x="0px" y="0px"
	 viewBox="0 0 355.1 311.7" style="enable-background:new 0 0 355.1 311.7;" xml:space="preserve">
<style type="text/css">
	.st0{fill:#FFFFFF;}
	.st1{fill:#231F20;}
	.st2{fill:#D1D3D4;}
	.st3{fill:#00ADEE;}
</style>
<g id="_287_startup_flatline">
	<path class="st0" d="M188.1,251.3l-12.3,10.2c0,0,26,46.3,29.8,39.4c1.8-3.3-2.4-26.4-2.4-26.4"/>
	<path class="st1" d="M204.5,302.3c-6.4,0-27-36.3-29.3-40.5c-0.2-0.3-0.1-0.6,0.1-0.8l12.3-10.2c0.3-0.2,0.7-0.2,0.9,0.1
		s0.2,0.7-0.1,0.9l-11.9,9.9c8.7,15.4,23.7,39.3,27.9,39.3c0.2,0,0.4-0.1,0.5-0.4c1.3-2.3-0.8-16.7-2.5-25.9
		c-0.1-0.4,0.2-0.7,0.5-0.8c0.4-0.1,0.7,0.2,0.8,0.5c0.4,2.4,4.2,23.3,2.3,26.8C205.9,301.9,205.2,302.3,204.5,302.3L204.5,302.3z"
		/>
	<path class="st0" d="M325,185.5l-20.8-8.7l27.9-67.1c2.6-6.5,14.4-16.6,18.5-14.9s5.1,17.1,2.4,23.6L325,185.5z"/>
	<path class="st1" d="M325,186.1c-0.1,0-0.2,0-0.3,0l-20.8-8.7c-0.2-0.1-0.3-0.2-0.4-0.4s-0.1-0.3,0-0.5l27.9-67.1
		c2.6-6.2,14.5-17.3,19.3-15.3s5.4,18.2,2.8,24.5l-27.9,67.1C325.5,186,325.3,186.1,325,186.1z M305.1,176.5l19.7,8.2l27.7-66.5
		c2.6-6.4,1.3-21.3-2-22.7s-14.9,8.1-17.6,14.5L305.1,176.5z"/>
	
		<rect x="312.4" y="174.6" transform="matrix(0.3841 -0.9233 0.9233 0.3841 24.6561 402.7437)" class="st0" width="3.6" height="16.6"/>
	<path class="st1" d="M321.2,188.4c-0.1,0-0.2,0-0.3,0l-15.3-6.4c-0.3-0.1-0.5-0.5-0.4-0.9l0,0l1.4-3.3c0.1-0.2,0.2-0.3,0.4-0.4
		c0.2-0.1,0.3-0.1,0.5,0l15.3,6.4c0.3,0.1,0.5,0.5,0.4,0.9l0,0l-1.4,3.3c-0.1,0.2-0.2,0.3-0.4,0.4
		C321.3,188.4,321.2,188.4,321.2,188.4z M306.7,181l14.1,5.9l0.9-2.1l-14-5.9L306.7,181z"/>
	
		<rect x="305.8" y="133.6" transform="matrix(0.3841 -0.9233 0.9233 0.3841 69.2459 393.6447)" class="st2" width="47.8" height="22.6"/>
	<path class="st1" d="M330.9,172c-0.1,0-0.2,0-0.3,0l-20.8-8.7c-0.2-0.1-0.3-0.2-0.4-0.4s-0.1-0.3,0-0.5l18.4-44.1
		c0.1-0.2,0.2-0.3,0.4-0.4c0.2-0.1,0.3-0.1,0.5,0l20.8,8.7c0.3,0.1,0.5,0.5,0.4,0.9l-18.4,44.1C331.4,171.9,331.2,172,330.9,172z
		 M311,162.3l19.6,8.2l17.9-42.9l-19.6-8.2L311,162.3z"/>
	<polygon class="st0" points="295.6,174.4 305.3,174.3 309.4,164.3 298,168.7 	"/>
	<path class="st1" d="M295.6,175c-0.2,0-0.4-0.1-0.6-0.3c-0.1-0.2-0.1-0.4,0-0.6l2.3-5.6c0.1-0.2,0.2-0.3,0.4-0.4l11.4-4.4
		c0.2-0.1,0.5,0,0.7,0.2s0.2,0.5,0.1,0.7l-4.2,10c-0.1,0.2-0.3,0.4-0.6,0.4L295.6,175L295.6,175z M298.5,169.2l-1.9,4.5h8.2l3.4-8.1
		L298.5,169.2z"/>
	<polygon class="st0" points="332.8,189.8 326.1,183 330.2,173 335.2,184.2 	"/>
	<path class="st1" d="M332.8,190.5c-0.2,0-0.3-0.1-0.5-0.2l-6.7-6.9c-0.2-0.2-0.2-0.5-0.1-0.7l4.2-10c0.1-0.2,0.3-0.4,0.6-0.4l0,0
		c0.3,0,0.5,0.1,0.6,0.4l4.9,11.2c0.1,0.2,0.1,0.4,0,0.5l-2.3,5.6c-0.1,0.2-0.3,0.4-0.5,0.4L332.8,190.5z M326.9,182.8l5.7,5.8
		l1.9-4.5l-4.2-9.5L326.9,182.8z"/>
	<polygon class="st0" points="119.9,36.1 245.9,39.9 337.3,126.6 320.6,166.7 103.2,76.2 	"/>
	<path class="st1" d="M320.6,167.4c-0.1,0-0.2,0-0.3,0L102.9,76.9c-0.2-0.1-0.3-0.2-0.4-0.4c-0.1-0.2-0.1-0.3,0-0.5l16.7-40.1
		c0.1-0.2,0.4-0.4,0.6-0.4l126,3.8c0.2,0,0.3,0.1,0.4,0.2l91.5,86.6c0.2,0.2,0.3,0.5,0.1,0.7L321.3,167c-0.1,0.2-0.2,0.3-0.4,0.4
		C320.8,167.3,320.7,167.4,320.6,167.4z M104,75.8l216.3,90l16.2-39l-91-86.3l-125.2-3.7L104,75.8z"/>
	<path class="st2" d="M228.8,28.2l37.4,15.6c12.1,5,17.8,18.9,12.8,31.1l-19.5,46.9c-5,12.1-18.9,17.8-31.1,12.8L191,118.9
		c-12.1-5-17.8-18.9-12.8-31.1L197.7,41C202.8,28.9,216.7,23.2,228.8,28.2z"/>
	<path class="st1" d="M237.5,137c-3.2,0-6.4-0.6-9.4-1.9l-37.4-15.6c-12.4-5.2-18.3-19.5-13.2-31.9L197,40.7
		c5.2-12.4,19.5-18.3,31.9-13.2l37.4,15.6c12.4,5.2,18.3,19.5,13.2,31.9l-19.4,47C256.3,131.1,247.4,137,237.5,137L237.5,137z
		 M219.6,27c-3,0-6,0.6-8.8,1.8c-5.7,2.3-10.2,6.8-12.5,12.5l-19.5,46.9c-4.9,11.8,0.7,25.3,12.4,30.2l37.4,15.6l0,0
		c11.8,4.9,25.3-0.7,30.2-12.5l19.5-46.9c4.9-11.8-0.6-25.3-12.4-30.2l-37.4-15.5C225.7,27.6,222.7,27,219.6,27z"/>
	<path class="st0" d="M106.8,94.6L85.9,86l27.9-67.1c2.6-6.5,14.4-16.6,18.5-14.9c4,1.7,5.1,17.1,2.4,23.6L106.8,94.6z"/>
	<path class="st1" d="M106.8,95.3c-0.1,0-0.2,0-0.3,0l-20.8-8.8c-0.3-0.1-0.5-0.5-0.4-0.9l27.9-67.1c1.3-3.1,4.8-7.4,8.9-10.8
		c2.1-1.8,7.4-5.7,10.4-4.5s3.9,7.8,4.1,10.5c0.5,5.3,0,10.8-1.3,13.9l-27.9,67.1C107.3,95.1,107.1,95.3,106.8,95.3z M86.8,85.6
		l19.6,8.2l27.7-66.5c1.2-3,1.7-8.2,1.3-13.3s-1.8-8.8-3.3-9.5s-5.1,1-9,4.3s-7.3,7.3-8.5,10.3L86.8,85.6z"/>
	
		<rect x="94.1" y="83.8" transform="matrix(0.3841 -0.9233 0.9233 0.3841 -25.9563 145.2945)" class="st0" width="3.6" height="16.6"/>
	<path class="st1" d="M102.9,97.6c-0.1,0-0.2,0-0.3,0l-15.3-6.4c-0.3-0.1-0.5-0.5-0.4-0.9l1.3-3.3c0.1-0.2,0.2-0.3,0.4-0.4
		c0.2-0.1,0.3-0.1,0.5,0l15.3,6.4c0.2,0.1,0.3,0.2,0.4,0.4c0.1,0.2,0.1,0.3,0,0.5l-1.4,3.3C103.3,97.4,103.2,97.5,102.9,97.6
		L102.9,97.6z M88.4,90.2l14.1,5.9l0.9-2.1l-14.1-5.9L88.4,90.2z"/>
	
		<rect x="87.5" y="42.8" transform="matrix(0.3841 -0.9233 0.9233 0.3841 18.6371 136.2132)" class="st2" width="47.8" height="22.6"/>
	<path class="st1" d="M112.7,81.2c-0.1,0-0.2,0-0.3,0l-20.8-8.7c-0.2-0.1-0.3-0.2-0.4-0.4c-0.1-0.2-0.1-0.3,0-0.5l18.4-44.1
		c0.1-0.2,0.2-0.3,0.4-0.4c0.2-0.1,0.3-0.1,0.5,0l20.8,8.7c0.3,0.1,0.5,0.5,0.4,0.8l0,0l-18.4,44.1C113.2,81,112.9,81.2,112.7,81.2z
		 M92.7,71.5l19.6,8.2l17.9-42.9l-19.7-8.2L92.7,71.5z"/>
	<polygon class="st0" points="77.4,83.5 87,83.5 91.1,73.5 79.7,77.9 	"/>
	<path class="st1" d="M77.4,84.2c-0.4,0-0.7-0.3-0.7-0.7c0-0.1,0-0.2,0-0.2l2.3-5.6c0.1-0.2,0.2-0.3,0.4-0.4l11.4-4.4
		c0.2-0.1,0.5,0,0.7,0.2s0.2,0.5,0.1,0.7l-4.1,10c-0.1,0.2-0.3,0.4-0.6,0.4H77.4L77.4,84.2z M80.2,78.4l-1.9,4.5h8.2l3.4-8.2
		L80.2,78.4z"/>
	<polygon class="st0" points="114.6,99 107.8,92.1 112,82.2 116.9,93.4 	"/>
	<path class="st1" d="M114.6,99.7c-0.2,0-0.3-0.1-0.5-0.2l-6.7-6.9c-0.2-0.2-0.2-0.5-0.1-0.7l4.2-10c0.1-0.2,0.3-0.4,0.6-0.4l0,0
		c0.3,0,0.5,0.1,0.6,0.4l5,11.2c0.1,0.2,0.1,0.4,0,0.5l-2.4,5.6C115.1,99.5,114.9,99.6,114.6,99.7L114.6,99.7z M108.6,92l5.7,5.9
		l1.9-4.5l-4.2-9.5L108.6,92z"/>
	<path class="st2" d="M189.3,46.4L189.3,46.4l-55.6-2.5c-0.4,0-0.6-0.3-0.6-0.7l0,0c0-0.4,0.3-0.6,0.7-0.6l55.6,2.5
		c0.4,0,0.7,0.3,0.7,0.7C190,46.1,189.7,46.4,189.3,46.4L189.3,46.4z"/>
	<path class="st2" d="M329.9,128.4c-0.2,0-0.3-0.1-0.4-0.2l-47.3-43.9c-0.3-0.3-0.3-0.7,0-0.9c0.3-0.3,0.7-0.3,0.9,0l47.3,43.9
		c0.3,0.3,0.3,0.7,0,0.9l0,0C330.3,128.3,330.1,128.3,329.9,128.4z"/>
	<path class="st3" d="M273.1,74.5c0,0,72.9,59.9,42.6,64.3c-25.3,3.7-48.3-9.8-48.3-9.8l7.2-15.9c0,0,23.3,10.8,22.5,6.1
		c-0.8-4.7-32.5-23.7-32.5-23.7L273.1,74.5z"/>
	<path class="st3" d="M208.2,50.3c0,0-73.4-8.1-75.3,3.1s29.7,35.9,30.5,34.4s17.5-11.4,17.5-11.4l-14.6-11.7l35.1,7.9L208.2,50.3z"
		/>
	<path class="st0" d="M271,34.2c2.1-4,0.6-8.9-1.8-12.7C263,11.9,251.9,6.7,240.5,8c-5.1,0.7-10.3,2.9-13,7.4
		c2.8-0.6,5.6-0.7,8.4-0.3c-6.3,2.7-11.1,8-13.2,14.5c-0.3,0.6-0.3,1.4-0.1,2c0.5,1.1,2.1,1.2,3.3,0.8s2.5-0.9,3.6-0.3
		c-3.6,1.5-6.5,4.3-8,7.8c-0.8,1.6-1,3.3-0.6,5c0.4,1.2,1.1,2.2,2,3.1c2.3,1.9,5,3.2,7.9,4c5.1,1.7,10.5,3.2,15.8,2.5
		c6.5-0.8,11.8-4.7,16.5-8.9c2.2-2,4.3-2,6.6-3.5c1.4-0.9,2.3-2.3,2.4-4C272,36.8,271.5,35.5,271,34.2z"/>
	<path class="st1" d="M244,55.3c-4.5-0.2-9-1.1-13.3-2.6c-3-0.8-5.8-2.2-8.2-4.2c-1-0.9-1.7-2.1-2.1-3.4c-0.4-1.8-0.2-3.8,0.6-5.5
		c1.2-2.8,3.3-5.2,5.8-6.8h-0.2l-0.4,0.1c-1.5,0.4-3.4,0.4-4.1-1.2c-0.3-0.8-0.3-1.7,0.1-2.5c1.9-5.9,6-10.8,11.4-13.8
		c-2-0.1-3.9,0.1-5.9,0.5c-0.4,0.1-0.7-0.2-0.8-0.5c0-0.2,0-0.3,0.1-0.5c2.4-4.1,7.4-6.9,13.5-7.7c11.6-1.4,23,4,29.3,13.9
		c1.4,2.3,4.4,8,1.9,13.1c0.6,1.2,1,2.5,1.2,3.9c-0.2,1.8-1.2,3.5-2.7,4.5c-0.9,0.6-1.9,1-2.9,1.4c-1.3,0.4-2.5,1.1-3.6,2
		c-4.2,3.8-9.9,8.2-16.9,9.1C245.9,55.2,245,55.3,244,55.3z M228.5,31.2c0.5,0,1,0.1,1.5,0.4c0.2,0.1,0.4,0.4,0.3,0.6
		c0,0.3-0.2,0.5-0.4,0.6c-3.4,1.4-6.2,4.1-7.6,7.4c-0.7,1.4-0.9,3-0.6,4.6c0.3,1.1,1,2,1.8,2.8c2.2,1.8,4.9,3.2,7.7,3.9
		c5,1.6,10.3,3.1,15.6,2.4c6.6-0.8,11.9-4.9,16.1-8.7c1.2-1,2.5-1.8,4-2.3c0.9-0.3,1.8-0.8,2.6-1.3c1.2-0.8,2-2.1,2.1-3.5
		c-0.3-1.2-0.7-2.4-1.2-3.5c-0.1-0.2-0.1-0.4,0-0.6c2.4-4.5-0.4-10-1.7-12.1c-6.1-9.3-17-14.4-28.1-13.2c-5.1,0.6-9.2,2.7-11.6,5.8
		c2.4-0.3,4.7-0.3,7.1,0c0.3,0,0.5,0.3,0.6,0.6c0,0.3-0.1,0.6-0.4,0.7c-6.1,2.6-10.8,7.8-12.9,14.1c-0.2,0.5-0.3,1-0.1,1.6
		c0.3,0.7,1.6,0.8,2.6,0.5l0.4-0.1C227,31.4,227.7,31.2,228.5,31.2z"/>
	<path class="st1" d="M227.5,149.5c0,0,23.8,52.7,19.8,63c-4.1,10.3-44.1,62.1-44.1,62.1l-21.2-18c0,0,37.4-49.3,35.9-52.7
		s-20.1-39.1-20.1-39.1L97.1,274.5l-10.2-26.4L168.5,131L227.5,149.5z"/>
	<path class="st1" d="M203.2,275.2c-0.2,0-0.3-0.1-0.4-0.1l-21.3-18c-0.3-0.2-0.3-0.6-0.1-0.9c14.1-18.6,36.3-49.2,35.8-52.1
		c-1.3-3-16.8-32.8-19.6-38.2L97.6,275c-0.2,0.3-0.7,0.3-0.9,0.1c-0.1-0.1-0.1-0.2-0.2-0.3l-10.2-26.4c-0.1-0.2,0-0.4,0.1-0.6
		L168,130.6c0.2-0.2,0.5-0.3,0.7-0.3l59,18.5c0.2,0.1,0.3,0.2,0.4,0.4c1,2.2,23.9,53.1,19.8,63.6c-4.1,10.5-42.5,60.1-44.1,62.3
		C203.6,275.2,203.5,275.3,203.2,275.2L203.2,275.2z M182.8,256.5l20.3,17.1c4.3-5.6,39.8-51.8,43.5-61.4S228.8,154,226.9,150
		l-58.2-18.2L87.6,248.2l9.6,25l100-108.9c0.1-0.2,0.4-0.2,0.6-0.2c0.2,0,0.4,0.2,0.5,0.3c0.8,1.5,18.5,35.8,20.1,39.2
		C219.9,207,192.1,244.3,182.8,256.5L182.8,256.5z"/>
	<path class="st0" d="M227.5,149.5l-59-18.5l55.3-72.1c0,0,27.5,13.2,30.9,18.6C258.1,82.8,227.5,149.5,227.5,149.5z"/>
	<path class="st1" d="M227.5,150.1c-0.1,0-0.1,0-0.2,0l-59-18.5c-0.2-0.1-0.4-0.2-0.4-0.4c-0.1-0.2,0-0.4,0.1-0.6l55.2-72.2
		c0.2-0.2,0.5-0.3,0.8-0.2c1.1,0.5,27.7,13.4,31.2,18.9s-24,65.8-27.2,72.7C227.9,149.9,227.7,150.1,227.5,150.1z M169.6,130.7
		l57.5,18c11.8-25.7,29.3-67.2,27-70.9c-3-4.7-26.4-16.3-30.1-18.1L169.6,130.7z"/>
	<path class="st3" d="M238.6,58.1c-1.1,0-6.4,12.2-7,13.2c-5.3,9.8-10.2,20-15.7,29.6c-10.9,18.9-34.7,30.3-53.2,40.1
		c-2.5,1.3-5.2,2.6-7.9,2.1c-1.9-0.5-3.7-1.6-5.1-3c-6.3-5.6-11.4-12.5-14.9-20.2c-0.6-1-0.8-2.1-0.7-3.3c0.3-1.9,1.7-3.4,3.6-3.8
		c9.8-1.7,24.2-2.8,32.1-7.9c13.2-8.4,28.4-33.1,38.4-54.7C220.4,53.3,231.1,56.4,238.6,58.1z"/>
	<path class="st3" d="M273.1,74.5c0.3,0.2-11.9,29.2-12.4,30.6c-4.5,10.6-20.4,30.2-30,36.3c6.1-10.9,7.9-28.2,8.3-40.5
		c0.2-6,5.1-16.5,7.4-22c0.2-0.5,2.1-17.8,1.9-18C248.4,60.9,265.4,68.3,273.1,74.5z"/>
	<path class="st0" d="M252.2,62.4L248.8,74c0,0-3.1,4.9-10.3,0.8c-7.3-4.1-6.9-9.8-6.9-9.8l7.1-21.5c0,0,5.8-1.9,7.7-14.9
		c0,0,11,7.1,23,8.9c0,0-3.9,14.2-6.5,20S252.2,62.4,252.2,62.4z"/>
	<path class="st1" d="M243.8,77.1c-2-0.1-4-0.7-5.7-1.7c-7.5-4.2-7.2-10.2-7.2-10.4v-0.2l7.1-21.5c0.1-0.2,0.2-0.3,0.4-0.4
		c0,0,5.5-2.1,7.3-14.4c0.1-0.4,0.4-0.6,0.8-0.5c0.1,0,0.2,0,0.3,0.1s11,7.1,22.7,8.8c0.2,0,0.4,0.1,0.4,0.3
		c0.1,0.2,0.1,0.3,0.1,0.5c-0.2,0.6-4,14.4-6.6,20.1c-2.4,5.3-8.9,5.4-10.8,5.3l-3.3,11.1c0,0.1,0,0.1-0.1,0.2
		C248,76.1,246,77.1,243.8,77.1z M232.3,65.1c0,0.7,0.1,5.5,6.6,9.1c6.2,3.5,9,0.1,9.4-0.5l3.4-11.5c0.1-0.3,0.4-0.5,0.7-0.5
		c0.1,0,7.6,0.8,10-4.5c2.3-4.9,5.5-16.2,6.3-19.2c-9.8-1.6-18.9-6.7-21.7-8.4c-1.8,10.8-6.4,13.7-7.7,14.3L232.3,65.1z M248.8,74
		L248.8,74z"/>
	<path class="st0" d="M242.6,44c0-1.1-0.3-2.3-0.9-3.2c-0.7-0.8-1.5-1.6-2.3-2.1c-0.5-0.4-1-0.6-1.6-0.8c-0.4,0-0.8,0-1.2,0.1
		c-1,0.2-1.8,0.7-2.4,1.4c-0.4,0.7-0.7,1.4-0.7,2.2c-0.1,0.8-0.1,1.7,0,2.5c0.4,3.5,3.7,6,7.2,5.5h0.1"/>
	<path class="st1" d="M239.7,50.4c-3.6,0-6.6-2.6-7-6.2c-0.1-0.9-0.1-1.8,0.1-2.6c0.1-0.9,0.4-1.7,0.8-2.5c0.7-0.9,1.7-1.5,2.8-1.8
		c0.5-0.1,1-0.2,1.5-0.1c0.7,0.1,1.3,0.4,1.8,0.9c1,0.6,1.8,1.4,2.5,2.3c0.7,1.1,1.1,2.3,1.1,3.6c0,0.4-0.3,0.6-0.7,0.6
		s-0.6-0.3-0.6-0.7c0-1-0.3-2-0.8-2.8c-0.6-0.8-1.3-1.5-2.2-2c-0.4-0.3-0.8-0.5-1.3-0.6c-0.3,0-0.7,0-1,0.1
		c-0.8,0.1-1.5,0.6-2.1,1.2c-0.3,0.6-0.5,1.3-0.6,1.9c-0.1,0.8-0.2,1.6-0.1,2.4c0.4,3.2,3.3,5.4,6.5,5l0,0c0.4,0,0.7,0.2,0.7,0.6
		c0,0.4-0.2,0.7-0.6,0.8C240.3,50.4,240,50.4,239.7,50.4z"/>
	<path class="st0" d="M257.2,43c0,0,2.6,7.2,1.3,8c-1.3,0.8-3.8-0.6-3.8-0.6"/>
	<path class="st1" d="M257.5,51.9c-1.1-0.1-2.1-0.4-3.1-0.9c-0.3-0.2-0.4-0.6-0.3-0.9l0,0c0.2-0.3,0.6-0.4,0.9-0.3l0,0
		c0.7,0.4,2.4,1,3.1,0.6c0.3-0.5-0.4-4-1.6-7.2c-0.1-0.3,0-0.7,0.4-0.8l0,0c0.3-0.1,0.7,0.1,0.8,0.4c1.3,3.5,2.5,7.9,1.1,8.8
		C258.5,51.8,258,51.9,257.5,51.9z"/>
	<path class="st1" d="M252.2,62.4c0,0-6-1.9-8.3-4.4c0,0,0.1,7.6,6.1,11.4L252.2,62.4z"/>
	<path class="st1" d="M250.1,70c-0.1,0-0.2,0-0.4-0.1c-6.2-4-6.4-11.6-6.4-11.9c0-0.3,0.2-0.5,0.4-0.6c0.3-0.1,0.6,0,0.7,0.2
		c2.1,2.4,7.9,4.2,8,4.2c0.3,0.1,0.5,0.5,0.4,0.8l0,0l-2.2,7c-0.1,0.2-0.2,0.3-0.4,0.4C250.2,70.1,250.1,70,250.1,70z M244.8,59.6
		c0.5,3.4,2.2,6.5,4.9,8.7l1.7-5.5C249.1,62,246.9,60.9,244.8,59.6L244.8,59.6z"/>
	<path class="st0" d="M249.8,38.2c0,0,3.2-2.2,4.6,1.8"/>
	<path class="st1" d="M254.4,40.6c-0.3,0-0.5-0.2-0.6-0.4c-0.2-0.8-0.7-1.5-1.5-1.9c-0.7-0.1-1.4,0-2,0.4c-0.3,0.2-0.7,0.1-0.9-0.2
		l0,0c-0.2-0.3-0.1-0.7,0.1-0.9l0,0c0.9-0.7,2.1-0.9,3.2-0.6c1.2,0.5,2.1,1.5,2.4,2.7c0.1,0.3-0.1,0.7-0.4,0.8
		C254.6,40.6,254.5,40.6,254.4,40.6L254.4,40.6z"/>
	<path class="st0" d="M260.2,43.2c0,0,2.8-3.4,4.6,0.6"/>
	<path class="st1" d="M264.7,44.5c-0.3,0-0.5-0.2-0.6-0.4c-0.3-0.7-0.8-1.5-1.5-1.6s-1.7,0.8-2,1.1c-0.2,0.3-0.6,0.4-0.9,0.2
		s-0.4-0.6-0.2-0.9l0.1-0.1c0.7-1,1.9-1.6,3.2-1.6c1,0.1,1.9,0.9,2.5,2.3c0.1,0.3,0,0.7-0.3,0.9C264.9,44.4,264.8,44.5,264.7,44.5z"
		/>
	<path class="st0" d="M261.1,53.8c0,0-13.2,7.7-13.2-6"/>
	<path class="st1" d="M253.9,56.6c-1.2,0-2.3-0.3-3.3-0.8c-2.2-1.3-3.4-4-3.4-8c0-0.4,0.3-0.7,0.6-0.7l0,0l0,0
		c0.4,0,0.7,0.3,0.7,0.7c0,3.6,0.9,5.9,2.7,6.9c3.5,2,9.4-1.4,9.5-1.5c0.3-0.2,0.7-0.1,0.9,0.2c0.2,0.3,0.1,0.7-0.2,0.9
		C259.1,55.7,256.5,56.4,253.9,56.6z"/>
	<path class="st1" d="M239.6,77.7l-6.2,1.8l2.1,4c0,0-15.8,20.2-25.7,21.1c-5.7,0.4-11.4-1-16.4-4l-10.5,4.9c0,0,9.6,8.2,10.2,8.9
		c0.6,0.6,16.5,5.3,27.3-6.6c6.4-7,12.1-14.6,17.1-22.6l3.7-1.6L239.6,77.7z"/>
	<path class="st1" d="M213.1,99.7c-0.3,0-0.6-0.2-0.6-0.6l-2.9-19.5c0-0.3,0.1-0.6,0.4-0.7l9.9-3.2l-6.9-6.3
		c-0.2-0.2-0.2-0.4-0.2-0.6c0.1-0.2,0.2-0.4,0.4-0.5l14.8-5.1c0.3-0.1,0.7,0.1,0.8,0.4c0.1,0.3-0.1,0.7-0.4,0.8l-13.8,4.8l6.9,6.3
		c0.2,0.2,0.3,0.4,0.2,0.6c0,0.2-0.2,0.4-0.4,0.5L211,80l2.8,19C213.8,99.4,213.6,99.7,213.1,99.7L213.1,99.7z"/>
	<path class="st1" d="M177.2,120.9h-0.1c-0.1,0-13.7-2.7-21-4.4c-0.3-0.1-0.6-0.4-0.5-0.8l0,0c0.1-0.4,0.4-0.6,0.8-0.5l0,0
		c7.3,1.7,20.9,4.4,21,4.4c0.4,0.1,0.6,0.4,0.5,0.8l0,0C177.8,120.7,177.6,120.9,177.2,120.9z"/>
	<path class="st1" d="M245.4,101.3c-0.4,0-0.7-0.3-0.7-0.7c0-0.2,0.1-0.4,0.2-0.5l14.8-13.6l-6.6-5.8c-0.2-0.1-0.2-0.3-0.2-0.6
		c0-0.2,0.1-0.4,0.3-0.5l9.3-5.4l-6.1-4.9c-0.3-0.2-0.3-0.6-0.1-0.9c0.2-0.3,0.6-0.3,0.9-0.1l6.8,5.5c0.2,0.1,0.3,0.4,0.2,0.6
		c0,0.2-0.1,0.4-0.3,0.5l-9.3,5.4l6.5,5.7c0.2,0.1,0.3,0.3,0.3,0.4c0,0.2-0.1,0.4-0.2,0.5l-15.4,14
		C245.7,101.2,245.5,101.2,245.4,101.3z"/>
	<path class="st2" d="M210.1,138.1c-0.1,0-0.2,0-0.3-0.1c-0.3-0.2-0.4-0.6-0.3-0.9c0.1-0.3,14.6-26.4,21.7-40.5
		c0.1-0.3,0.5-0.5,0.9-0.4c0.3,0.1,0.5,0.5,0.4,0.9v0.1c-7.1,14.1-21.5,40.2-21.7,40.5C210.5,138,210.3,138.1,210.1,138.1z"/>
	<path class="st0" d="M86.9,248.1l-11.7,14.5c0,0,8.2,38.2,13.3,34c5.2-4.2,8.5-22.1,8.5-22.1L86.9,248.1z"/>
	<path class="st1" d="M87.7,297.6c-0.2,0-0.4,0-0.6-0.1c-5.3-1.8-11.8-31.4-12.5-34.7c0-0.2,0-0.4,0.1-0.6l11.7-14.5
		c0.1-0.2,0.4-0.3,0.6-0.2c0.2,0,0.4,0.2,0.5,0.4l10.2,26.4c0,0.1,0,0.2,0,0.4c-0.1,0.7-3.5,18.1-8.7,22.5
		C88.6,297.4,88.2,297.6,87.7,297.6z M75.8,262.8c2.6,12.4,8.1,32.3,11.6,33.5c0.2,0.1,0.5,0,0.6-0.1c4.7-3.9,7.9-19.7,8.3-21.5
		l-9.7-25.1L75.8,262.8z"/>
	<path class="st1" d="M215.5,47.4c0,0-10,33.9-19.2,42.8c-9.2,9-29,19.9-26.6,14.7c2.4-5.2,13.9-9.4,22.1-24.3
		c8.1-14.9,13.4-35.6,13.4-35.6s-0.7-3.7,4.7-2.4C215.3,43.9,215.5,47.4,215.5,47.4z"/>
	<path class="st1" d="M247.8,124.7c6.4-6.4,12-13.6,16.5-21.4c5.8-10.1,10.2-24.1,11.7-29.5c0.4-1.3-0.2-2.7-1.5-3.3l-1.8-0.9
		c-1.4-0.7-3.1-0.1-3.8,1.2c-0.1,0.2-0.2,0.3-0.2,0.5C266.4,80.5,258.6,106.7,247.8,124.7z"/>
	<path class="st0" d="M175.9,77.9c0.9,1,9.6,6.6,9.6,6.6s3.8-5.4,7.6-6.2l-2.4,4.3l12.1,0.2c0,0,0,11.4-10.6,13.8
		c-10.6,2.3-28.8-8.7-28.8-8.7"/>
	<path class="st1" d="M189,97.5c-10.8,0-25.2-8.7-25.9-9.1c-0.3-0.2-0.4-0.6-0.2-0.9l0,0c0.2-0.3,0.6-0.4,0.9-0.2l0,0
		c0.2,0.1,18,10.9,28.4,8.6c8.7-1.9,9.9-10.1,10.1-12.5l-11.4-0.2c-0.2,0-0.4-0.1-0.6-0.3c-0.1-0.2-0.1-0.5,0-0.7l1.5-2.6
		c-2.2,1.4-4.1,3.2-5.7,5.3c-0.2,0.3-0.6,0.4-0.9,0.2l0,0c-0.9-0.6-8.8-5.7-9.8-6.7c-0.2-0.3-0.2-0.7,0.1-0.9l0,0
		c0.2-0.3,0.6-0.3,0.9,0l0,0c0.6,0.7,5.6,4,9,6.2c1.1-1.4,4.3-5.3,7.7-5.9c0.3-0.1,0.5,0.1,0.7,0.3c0.1,0.2,0.1,0.5,0,0.7l-1.8,3.3
		l11,0.2c0.4,0,0.6,0.3,0.6,0.6l0,0c0,0.1,0,12-11.2,14.5C191.2,97.4,190.1,97.5,189,97.5z"/>
	<path class="st0" d="M274.1,115.1l-7.9-4.8l-1.9-7.1l-3.7,4.2c0,0-5.3-4.4-8.6-2.8c-2.6,1.3-4,8.1-1.3,11.5
		c2.6,3.4,17.8,11.5,17.8,11.5"/>
	<path class="st1" d="M268.6,128.3c-0.1,0-0.2,0-0.3-0.1c-0.6-0.3-15.4-8.1-18-11.6c-1.8-2.4-1.8-5.9-1.2-8.2
		c0.3-1.7,1.3-3.3,2.8-4.2c3.1-1.5,7.3,1.3,8.8,2.5l3.3-3.7c0.2-0.3,0.7-0.3,0.9-0.1c0.1,0.1,0.2,0.2,0.2,0.3l1.8,6.8l7.7,4.7
		c0.3,0.2,0.4,0.6,0.2,0.9l0,0c-0.2,0.3-0.6,0.4-0.9,0.2l0,0L266,111c-0.1-0.1-0.3-0.2-0.3-0.4l-1.5-5.9l-2.8,3.2
		c-0.3,0.2-0.7,0.2-0.9,0c-1.3-1.1-5.4-3.8-7.9-2.6c-1.1,0.8-1.9,2-2.1,3.4c-0.7,2.4-0.3,5,1,7.1c2.5,3.3,17.5,11.2,17.6,11.3
		c0.3,0.2,0.4,0.6,0.3,0.9l0,0C269.1,128.1,268.9,128.3,268.6,128.3z"/>
	<path class="st2" d="M0.7,229.2c-0.1,0-0.3,0-0.4-0.1c-0.3-0.2-0.4-0.6-0.2-0.9L82.2,98.4c0.2-0.3,0.6-0.4,0.9-0.2
		c0.3,0.2,0.4,0.6,0.2,0.9l-82,129.8C1.1,229.1,0.9,229.2,0.7,229.2z"/>
	<path class="st2" d="M53.7,221.4c-0.1,0-0.2,0-0.2,0c-0.3-0.1-0.5-0.5-0.4-0.9l0,0L97.4,105c0.1-0.3,0.5-0.5,0.9-0.4l0,0
		c0.4,0.1,0.5,0.5,0.4,0.9L54.4,221C54.3,221.3,54,221.4,53.7,221.4z"/>
	<path class="st2" d="M229.9,311c-0.1,0-0.2,0-0.3-0.1c-0.3-0.2-0.4-0.6-0.2-0.9l72-119c0.2-0.3,0.6-0.4,0.9-0.2l0,0
		c0.3,0.2,0.4,0.6,0.2,0.9l-72.1,118.9C230.4,310.8,230.2,311,229.9,311z"/>
	<path class="st2" d="M283.9,306.5h-0.2c-0.4-0.1-0.6-0.5-0.4-0.9c3.4-11.2,33.6-109.9,34.1-111c0.2-0.3,0.6-0.5,0.9-0.3
		s0.5,0.6,0.3,0.9c-0.7,1.7-22.5,73.2-34.1,110.7C284.5,306.3,284.2,306.5,283.9,306.5z"/>
	<path class="st2" d="M267.1,300.4c-0.1,0-0.2,0-0.3,0c-0.3-0.1-0.5-0.5-0.4-0.9l25.5-63.3c0.1-0.3,0.5-0.5,0.9-0.4s0.5,0.5,0.4,0.9
		l0,0L267.8,300C267.7,300.3,267.4,300.4,267.1,300.4z"/>
	<path class="st2" d="M38.1,199.8c-0.1,0-0.2,0-0.3-0.1c-0.3-0.2-0.4-0.6-0.3-0.9l0,0L69,142.3c0.2-0.3,0.6-0.4,0.9-0.3l0,0
		c0.3,0.2,0.4,0.6,0.3,0.9l-31.6,56.5C38.6,199.6,38.4,199.7,38.1,199.8z"/>
	<path class="st2" d="M32.2,242.3c-0.1,0-0.2,0-0.3,0c-0.3-0.1-0.5-0.5-0.4-0.9l0,0l8.2-19.8c0.2-0.3,0.5-0.5,0.9-0.4
		c0.3,0.2,0.5,0.6,0.4,0.9L32.9,242C32.7,242.2,32.5,242.3,32.2,242.3z"/>
	<path class="st2" d="M244.3,311.7c-0.1,0-0.2,0-0.3-0.1c-0.3-0.2-0.4-0.6-0.3-0.9l0,0l13.6-24.6c0.2-0.3,0.6-0.4,0.9-0.3
		c0.3,0.2,0.4,0.6,0.3,0.9l-13.6,24.6C244.8,311.5,244.6,311.7,244.3,311.7z"/>
</g>
</svg>
