<?xml version="1.0" encoding="utf-8"?>
<!-- Generator: Adobe Illustrator 25.0.0, SVG Export Plug-In . SVG Version: 6.00 Build 0)  -->
<svg version="1.1" id="Layer_1" xmlns="http://www.w3.org/2000/svg" xmlns:xlink="http://www.w3.org/1999/xlink" x="0px" y="0px"
	 viewBox="0 0 1187.2 311.7" style="enable-background:new 0 0 1187.2 311.7;" xml:space="preserve">
<style type="text/css">
	.st0{fill:#D1D3D4;}
	.st1{fill:#FFFFFF;}
	.st2{fill:#231F20;}
	.st3{fill:#00ADEE;}
	.st4{fill:none;}
</style>
<g id="_77_marketing">
	<path class="st0" d="M1123,240.1H858.7c-0.3,0-0.5-0.2-0.5-0.5s0.2-0.5,0.5-0.5H1123c0.3,0,0.5,0.2,0.5,0.5
		C1123.4,239.9,1123.2,240.1,1123,240.1z"/>
	<path class="st1" d="M859.7,50.6h254.6c6.4,0,11.5,5.2,11.5,11.5v129.6c0,6.4-5.2,11.5-11.5,11.5H859.7c-6.4,0-11.5-5.2-11.5-11.5
		V62.1C848.2,55.7,853.3,50.6,859.7,50.6z"/>
	<path class="st2" d="M1114.3,203.8H859.7c-6.6,0-12-5.4-12-12V62.1c0-6.6,5.4-12,12-12h254.6c6.6,0,12,5.4,12,12v129.6
		C1126.3,198.4,1121,203.8,1114.3,203.8z M859.7,51c-6.1,0-11.1,5-11.1,11.1v129.6c0,6.1,5,11,11.1,11h254.6c6.1,0,11-4.9,11-11
		V62.1c0-6.1-4.9-11-11-11.1H859.7z"/>
	<rect x="848.2" y="67.9" class="st1" width="277.7" height="118"/>
	<path class="st2" d="M1125.9,186.4H848.2c-0.3,0-0.5-0.2-0.5-0.5l0,0v-118c0-0.3,0.2-0.5,0.5-0.5l0,0h277.7c0.3,0,0.5,0.2,0.5,0.5
		l0,0v118C1126.3,186.2,1126.1,186.4,1125.9,186.4L1125.9,186.4z M848.6,185.5h276.7v-117H848.6V185.5z"/>
	<polygon class="st1" points="1035.6,236.7 938.5,236.7 949.5,203.3 1024.6,203.3 	"/>
	<path class="st2" d="M1035.6,237.2h-97.1c-0.2,0-0.3-0.1-0.4-0.2c-0.1-0.1-0.1-0.3-0.1-0.4l11-33.5c0.1-0.2,0.2-0.3,0.4-0.3h75.1
		c0.2,0,0.4,0.1,0.4,0.3l11,33.5c0,0.1,0,0.3-0.1,0.4C1035.9,237.2,1035.7,237.3,1035.6,237.2z M939.2,236.3h95.8l-10.7-32.5h-74.5
		L939.2,236.3z"/>
	<path class="st1" d="M930.5,236.7h113.1c2.6,0,4.7,2.1,4.7,4.7l0,0c0,2.6-2.1,4.7-4.7,4.7H930.5c-2.6,0-4.7-2.1-4.7-4.7l0,0
		C925.7,238.9,927.9,236.7,930.5,236.7z"/>
	<path class="st2" d="M1043.6,246.6H930.5c-2.9,0-5.2-2.3-5.2-5.2s2.3-5.2,5.2-5.2h113.1c2.9,0,5.2,2.3,5.2,5.2
		C1048.8,244.3,1046.5,246.6,1043.6,246.6z M930.5,237.2c-2.3,0-4.2,1.9-4.2,4.2s1.9,4.2,4.2,4.2h113.1c2.3,0,4.2-1.9,4.2-4.2
		s-1.9-4.2-4.2-4.2H930.5z"/>
	<path class="st2" d="M941.7,227.9c1.6-0.8,85.6-16.2,85.6-16.2l-2.8-8.4h-75.2L941.7,227.9z"/>
	<path class="st2" d="M941.7,228.3c-0.1,0-0.2,0-0.3-0.1s-0.2-0.3-0.1-0.5l7.7-24.6c0.1-0.2,0.2-0.3,0.4-0.3h75.1
		c0.2,0,0.4,0.1,0.4,0.3l2.8,8.4c0.1,0.1,0.1,0.3,0,0.4c-0.1,0.1-0.2,0.2-0.3,0.2c-28.8,5.3-83.8,15.4-85.5,16.2
		C941.9,228.3,941.8,228.3,941.7,228.3z M949.8,203.7l-7.3,23.5c8.6-2,74.2-14,84.3-15.9l-2.5-7.6H949.8z"/>
	<path class="st3" d="M1027.3,91.1c0,0-54.8-13.4-71.8,0s-34.3,28.4-34.3,28.4l13.6,26.5l21-17.3l-9.2,45.8l72.1,1l4.1-41.6
		c0,0,7.4,24.7,15.5,25.7c8,1,21.9-9.9,14.3-27.5S1027.3,91.1,1027.3,91.1z"/>
	<path class="st1" d="M1070.3,120.7c0.7,1.4,1,3,0.9,4.6c-0.2,1.5-0.7,2.9-1.4,4.3c-3.5,7.7-7.1,15.4-11,23
		c-2.3,4.4-6.3,9.5-11.8,10c-4.7,0.4-12.7-4-13.8-8.8c-1.5-6.4,7-14,10.5-18.7c4.8-6.3,9.5-13,15-18.7c3-3.1,4-3.4,7.4-0.5
		C1068,117.2,1069.3,118.8,1070.3,120.7z"/>
	<path class="st2" d="M1046.4,163c-5.8,0-12.5-5.1-13.4-9.2c-1.2-5.3,3.9-11.2,7.9-15.9c1-1.2,2-2.3,2.7-3.3
		c0.9-1.2,1.9-2.5,2.8-3.8c3.7-5.2,7.8-10.2,12.2-15c3.2-3.2,4.4-3.7,8.1-0.5c1.7,1.4,3.1,3.1,4.1,5c0.8,1.5,1.1,3.2,1,4.8
		c-0.2,1.5-0.7,3.1-1.4,4.4c-3.5,7.6-7.1,15.5-11,23c-1.9,3.6-6,9.7-12.2,10.3C1046.9,163,1046.6,163.1,1046.4,163z M1062.7,114.3
		c-1,0-1.9,0.8-3.4,2.3c-4.4,4.7-8.4,9.7-12.1,14.9l-2.8,3.8c-0.8,1-1.7,2.1-2.8,3.3c-3.9,4.5-8.8,10.2-7.7,15
		c1,4.5,8.8,8.9,13.3,8.4c5.7-0.5,9.6-6.4,11.4-9.8c3.9-7.5,7.5-15.3,11-23c0.7-1.3,1.1-2.7,1.3-4.1c0.1-1.5-0.2-3-0.9-4.4l0,0
		c-1-1.8-2.3-3.4-3.9-4.7C1064.6,114.9,1063.6,114.3,1062.7,114.3z"/>
	<path class="st1" d="M1044.4,106.8l14.3,27.6c1.3,2.5,3.9,3.4,6.2,2.2l6.7-3.7c2.4-1.3,3.3-4.6,2.1-7.3l-9.2-21.1l4.9-6.1
		C1069.4,98.3,1046.3,105.4,1044.4,106.8z"/>
	<path class="st2" d="M1062.8,137.6c-0.5,0-0.9-0.1-1.4-0.2c-1.4-0.5-2.6-1.5-3.2-2.8L1044,107c-0.1-0.2,0-0.5,0.1-0.6
		c1.8-1.4,22.8-7.8,25.2-8.5c0.2-0.1,0.4,0,0.5,0.2s0.1,0.4,0,0.6l-4.7,5.9l9.1,20.9c1.3,3,0.2,6.5-2.3,7.9l-6.8,3.7
		C1064.4,137.4,1063.6,137.6,1062.8,137.6z M1045.1,107l14,27.2c0.5,1.1,1.5,1.9,2.6,2.3c1,0.3,2,0.2,2.9-0.3l6.8-3.7
		c2.1-1.2,3-4.2,1.9-6.7l-9.2-21.1c-0.1-0.2,0-0.3,0.1-0.5l4-4.9C1061.3,101.4,1047.7,105.7,1045.1,107L1045.1,107z"/>
	<path class="st2" d="M1034.6,81.5l-6.5,2.1c0,0-2.8,17.9,9.5,24.3l6.3-2.2L1034.6,81.5z"/>
	<path class="st2" d="M1037.6,108.4c-0.1,0-0.1,0-0.2-0.1c-12.4-6.5-9.8-24.6-9.7-24.8c0-0.2,0.1-0.3,0.3-0.4l6.5-2.1
		c0.2-0.1,0.5,0,0.6,0.3l9.3,24.2c0.1,0.2,0,0.5-0.3,0.6l0,0l-6.3,2.2C1037.7,108.4,1037.7,108.4,1037.6,108.4z M1028.5,83.9
		c-0.3,2.3-1.6,17.6,9.1,23.5l5.6-2l-9-23.4L1028.5,83.9z"/>
	<path class="st1" d="M1106.5,43.2c0,0-9.4,13-28.7,21.7c-16.7,7.5-44.6,14.8-44.6,14.8s-6.2,18,9,28.5c0,0,25.8-7,37.6-9
		c15.1-2.6,45.3,4.6,45.3,4.6L1106.5,43.2z"/>
	<path class="st2" d="M1042.3,108.7c-0.1,0-0.2,0-0.3-0.1c-15.3-10.6-9.2-28.8-9.2-29c0.1-0.1,0.2-0.3,0.3-0.3
		c0.3-0.1,28-7.4,44.5-14.8c18.9-8.5,28.4-21.4,28.5-21.5s0.3-0.2,0.5-0.2s0.3,0.2,0.4,0.3l18.6,60.5c0.1,0.2,0,0.3-0.1,0.5
		c-0.1,0.1-0.3,0.2-0.5,0.1c-0.3-0.1-30.2-7.1-45.1-4.5C1068.2,101.7,1042.6,108.6,1042.3,108.7L1042.3,108.7z M1033.7,80.1
		c-0.6,2.1-4.9,18,8.7,27.5c2.5-0.7,26.3-7,37.4-8.9c13.7-2.3,39.8,3.3,44.7,4.4l-18.1-58.8c-7.7,9.1-17.4,16.3-28.3,21.1
		C1062.4,72.4,1036.5,79.3,1033.7,80.1z"/>
	<path class="st2" d="M1126.9,103.5c-5.2,1.5-12.1-5.1-17.2-15.8c-1.7-3.7-3.2-7.5-4.3-11.4c-1.1-3.8-1.9-7.7-2.4-11.6
		c-1.5-11.9,0.7-21.3,5.9-22.9c6.9-2,16.5,10.1,21.5,27.2S1133.8,101.5,1126.9,103.5z"/>
	<path class="st2" d="M1125.4,104.2c-5.1,0-11.2-6.1-16.1-16.3c-1.8-3.7-3.2-7.5-4.4-11.4c-1.1-3.8-1.9-7.7-2.5-11.7
		c-1.6-12.6,0.9-21.8,6.3-23.4c7.3-2.1,17,10,22.1,27.5c5.1,17.2,3.3,33-3.8,35.1l0,0C1126.5,104.1,1125.9,104.2,1125.4,104.2z
		 M1126.9,103.5L1126.9,103.5z M1110.4,42.1c-0.5,0-1,0.1-1.5,0.2c-4.9,1.4-7.1,10.4-5.6,22.4c0.5,3.9,1.3,7.8,2.4,11.5
		c1.1,3.9,2.6,7.7,4.3,11.3c5.2,10.7,11.9,17,16.7,15.6l0,0c6.7-2,8.1-17.2,3.2-33.9C1125.4,53.6,1117,42.1,1110.4,42.1z"/>
	<path class="st1" d="M1033.3,79.7c0,0-6.2,18,9,28.5c0,0,17.4-4.7,30.1-7.5c-2.6-2.6-5.8-7.4-7.3-15.8c-1-4.8-1.3-9.7-0.9-14.6
		C1049.1,75.6,1033.3,79.7,1033.3,79.7z"/>
	<path class="st2" d="M1042.3,108.7c-0.1,0-0.2,0-0.3-0.1c-15.3-10.6-9.2-28.8-9.2-29c0.1-0.1,0.2-0.3,0.3-0.3
		c0.2,0,15.9-4.2,30.7-9.4c0.2-0.1,0.3,0,0.4,0.1s0.2,0.3,0.2,0.4c-0.4,4.8-0.1,9.7,0.9,14.5c1.6,8.4,4.8,13.1,7.3,15.6
		c0.1,0.1,0.2,0.3,0.1,0.5c0,0.2-0.2,0.3-0.3,0.3C1059.8,103.9,1042.5,108.6,1042.3,108.7L1042.3,108.7z M1033.7,80.1
		c-0.6,2.1-4.9,18,8.7,27.5c2-0.5,17.3-4.6,29.1-7.3c-2.4-2.7-5.4-7.4-6.9-15.4c-0.9-4.6-1.3-9.3-1-14
		C1049.9,75.7,1035.7,79.6,1033.7,80.1z"/>
	<path class="st1" d="M1118.9,84.2l-9.2,3.6c-1.7-3.7-3.2-7.5-4.3-11.4c-1.1-3.8-1.9-7.7-2.4-11.6l9.9-1.4L1118.9,84.2z"/>
	<path class="st2" d="M1109.7,88.2c-0.2,0-0.3-0.1-0.4-0.3c-1.8-3.7-3.2-7.5-4.4-11.4c-1.1-3.8-1.9-7.7-2.5-11.7
		c0-0.3,0.2-0.5,0.4-0.5l9.9-1.4c0.2,0,0.5,0.1,0.5,0.3l6,20.8c0.1,0.2-0.1,0.5-0.3,0.6L1109.7,88.2
		C1109.8,88.2,1109.7,88.2,1109.7,88.2z M1103.4,65.2c0.5,3.7,1.3,7.4,2.4,11c1.1,3.7,2.5,7.4,4.1,10.9l8.4-3.2l-5.8-20L1103.4,65.2
		z"/>
	
		<ellipse transform="matrix(0.9603 -0.2788 0.2788 0.9603 23.6688 314.0395)" class="st1" cx="1115.8" cy="73.8" rx="3.2" ry="10.8"/>
	<path class="st2" d="M1118.6,84.7c-0.9,0-2-0.9-3.2-2.7c-1.4-2.2-2.4-4.7-3.1-7.2c-1.5-5.3-1.9-11.2,0.4-11.8
		c1-0.3,2.3,0.6,3.6,2.6c1.3,2.3,2.4,4.7,3.1,7.2c1.5,5.3,1.9,11.2-0.3,11.8C1118.9,84.7,1118.7,84.7,1118.6,84.7z M1113.1,63.9
		L1113.1,63.9c-1.2,0.3-1.6,4.5,0.2,10.7c0.7,2.4,1.7,4.8,3,7c1.2,1.8,2.1,2.3,2.5,2.2c1.1-0.3,1.5-4.5-0.3-10.7l0,0
		c-0.7-2.4-1.7-4.8-3-7C1114.4,64.4,1113.6,63.9,1113.1,63.9L1113.1,63.9z"/>
	<path class="st1" d="M1062.4,110.5c-1.1,0-2.1,0.4-3,1c-0.8,0.7-0.9,2.2,0,2.8c0.3,0.2,0.6,0.2,1,0.2c1.4,0.1,2.8,0.1,4.2-0.2
		c-1.2,0.6-2.2,1.4-3,2.5c-0.2,0.2-0.3,0.5-0.3,0.7c0.1,0.5,0.7,0.7,1.2,0.7c1.3,0.1,2.6-0.2,3.8-0.7c-0.8,0.2-1.5,0.5-2.2,1
		c-1.7,1.5-0.1,2.8,1.3,2.6c2.5-0.3,7.5,2.5,7.5,2.5s1.3-2.7,1.2-4c-0.2-1.4-0.5-2.8-1-4.2c-0.8-2.7-1.7-5.7-3.6-7.8
		c-2.8-3.1-11.5-3.1-11.6,2.3C1059.4,110.4,1060.9,110.6,1062.4,110.5z"/>
	<path class="st2" d="M1072.9,124.2c-0.1,0-0.2,0-0.2-0.1c0,0-4.9-2.6-7.2-2.4c-1,0.2-1.9-0.3-2.4-1.1c-0.3-0.6-0.1-1.3,0.3-1.8
		c-0.3,0-0.6,0-0.8,0c-0.9,0-1.6-0.5-1.7-1.1c0-0.4,0.1-0.8,0.4-1.1c0.4-0.5,0.8-1,1.3-1.5c-0.7,0.1-1.5,0.1-2.2,0
		c-0.4,0-0.8-0.1-1.2-0.3c-0.5-0.3-0.9-0.8-0.9-1.4c-0.1-0.8,0.2-1.6,0.8-2.1c0.1-0.1,0.3-0.2,0.4-0.3c-0.6-0.1-1.2-0.2-1.7-0.4
		c-0.2-0.1-0.3-0.3-0.3-0.4c0-2,1.3-3.7,3.2-4.3c3-1.2,7.3-0.3,9.2,1.7s2.9,5.3,3.7,8l0.2,0.6c0.4,1.2,0.7,2.4,0.8,3.7
		c0.1,1.4-1.1,4-1.3,4.3C1073.1,124,1073,124.1,1072.9,124.2L1072.9,124.2z M1065.8,120.7c2.2,0,5.7,1.7,6.9,2.3
		c0.5-1,0.8-2.2,0.9-3.3c-0.1-1.2-0.4-2.4-0.8-3.5l-0.2-0.6c-0.8-2.6-1.7-5.6-3.5-7.6c-1.6-1.8-5.5-2.5-8.1-1.5
		c-1.4,0.4-2.4,1.6-2.6,3.1c1.3,0.4,2.6,0.5,3.9,0.4c0.3,0,0.4,0.3,0.4,0.6c0,0.2-0.1,0.3-0.3,0.4c-1,0-2,0.3-2.8,0.9
		c-0.4,0.3-0.5,0.8-0.5,1.3c0,0.3,0.2,0.5,0.4,0.7c0.2,0.1,0.5,0.2,0.8,0.2c1.4,0.1,2.7,0.1,4.1-0.2c0.3-0.1,0.5,0.1,0.6,0.3
		s-0.1,0.5-0.3,0.6c-1.1,0.5-2.1,1.3-2.8,2.3c-0.1,0.1-0.2,0.3-0.2,0.4s0.4,0.3,0.8,0.3c0.8,0,1.6-0.1,2.4-0.3
		c0.4-0.2,0.8-0.3,1.2-0.4c0.2-0.1,0.5,0.1,0.6,0.3c0.1,0.2,0,0.5-0.3,0.6c-0.4,0.2-0.8,0.3-1.2,0.4c-0.3,0.1-0.6,0.3-0.9,0.5
		c-0.3,0.3-0.7,0.8-0.5,1.2c0.3,0.5,0.9,0.7,1.5,0.6C1065.4,120.7,1065.6,120.7,1065.8,120.7z"/>
	<polygon class="st2" points="1006.5,104.1 989.3,147 984,97.8 	"/>
	<path class="st2" d="M989.3,147.5L989.3,147.5c-0.3,0-0.4-0.2-0.5-0.4l-5.3-49.2c0-0.2,0-0.3,0.2-0.4c0.1-0.1,0.3-0.1,0.4-0.1
		l22.5,6.3c0.1,0,0.2,0.1,0.3,0.2s0.1,0.3,0,0.4l-17.3,42.9C989.6,147.3,989.5,147.5,989.3,147.5z M984.5,98.4l5,46.7l16.4-40.7
		L984.5,98.4z"/>
	<path class="st1" d="M988,46.6c2.2-0.3,4.4,0.8,5.4,2.8c0.1-1.8,1.2-3.5,2.8-4.3s3.4-1.2,5.2-1.2c2.5-0.3,5-0.1,7.4,0.5
		c6.2,1.8,10.1,8.2,11.9,14.4c1,3.3,1.8,7.9-0.3,11c-1.9,2.9-7.3,4.8-10.4,6.2c-4.4,1.9-9.2,3.4-14,3c-12.8-0.9-19.3-14-15.3-25.5
		c0.9-2.7,2.7-5.3,5.3-6.4C986.7,46.9,987.4,46.7,988,46.6z"/>
	<path class="st2" d="M997.5,79.6c-0.5,0-1,0-1.4,0c-5.5-0.3-10.6-3.3-13.6-7.9c-3.5-5.4-4.2-12.1-2.1-18.2c1.1-3.3,3.1-5.7,5.5-6.7
		c0.7-0.3,1.4-0.5,2.1-0.5l0,0c1.9-0.2,3.9,0.5,5.2,1.9c0.5-1.5,1.5-2.7,2.9-3.4c1.7-0.8,3.5-1.2,5.4-1.3c2.6-0.3,5.1-0.1,7.6,0.5
		c5.5,1.6,9.9,7,12.2,14.7c1,3.4,1.8,8.2-0.4,11.4c-1.7,2.6-6.1,4.4-9.2,5.8l-1.4,0.6C1006.4,78.4,1002,79.4,997.5,79.6z
		 M988.1,47.1c-0.6,0-1.3,0.2-1.8,0.4c-2.9,1.3-4.4,4.4-5,6.2c-2.1,5.8-1.3,12.2,2,17.4c2.9,4.4,7.7,7.2,12.9,7.5
		c4.1,0.3,8.6-0.7,13.8-3c0.4-0.2,0.9-0.4,1.4-0.6c3.1-1.3,7.3-3.1,8.8-5.4c1.9-2.9,1.2-7.4,0.2-10.6c-1.1-3.5-4.3-11.9-11.6-14.1
		c-2.4-0.6-4.9-0.8-7.3-0.5c-1.7,0-3.4,0.4-5,1.2c-1.5,0.7-2.5,2.2-2.6,3.8c0,0.2-0.1,0.4-0.4,0.4c-0.2,0.1-0.4-0.1-0.5-0.2
		C992.1,47.7,989.9,47,988.1,47.1L988.1,47.1z"/>
	<path class="st1" d="M1006,90.6l0.6,13.5c0,0-5.4,7.6-13.8,4.1c-8.3-3.5-8.7-10.4-8.7-10.4l2.7-25.8c0,0,7-2.4,7.4-16.7
		c6.6,4.2,14.2,6.6,22,6.9c0,0,1.5,15.8-0.7,22.4C1013.4,91.2,1006,90.6,1006,90.6z"/>
	<path class="st2" d="M997.1,109.6c-1.6,0-3.1-0.3-4.5-0.9c-8.5-3.6-9-10.5-9-10.8l2.7-25.8c0-0.2,0.1-0.3,0.3-0.4
		c0.1,0,6.7-2.5,7.1-16.3c0-0.2,0.1-0.3,0.3-0.4c0.1-0.1,0.3-0.1,0.5,0c6.5,4.2,14.1,6.5,21.8,6.8c0.2,0,0.4,0.2,0.4,0.4
		c0.1,0.7,1.4,16-0.7,22.6c-1.9,5.8-7.7,6.3-9.5,6.3l0.5,13c0,0.1,0,0.2-0.1,0.3C1006.9,104.4,1003.1,109.6,997.1,109.6z
		 M987.1,72.3l-2.6,25.5c0,0.2,0.5,6.6,8.4,9.9c7.4,3.1,12.4-2.8,13.2-3.8l-0.6-13.4c0-0.1,0-0.3,0.1-0.3c0.1-0.1,0.2-0.1,0.4-0.1
		c0.3,0,7,0.5,9-5.7c1.9-5.8,0.9-19.3,0.7-21.8c-7.5-0.4-14.8-2.6-21.2-6.5C994,68.5,988.5,71.7,987.1,72.3z"/>
	<path class="st1" d="M990.3,78.8c-1.8,0.5-3.7,0.2-5.3-0.8c-2.2-1.4-3.5-3.9-3.5-6.5c0-0.9,0.1-1.9,0.5-2.8s1.1-1.5,2-1.8
		c1.1-0.2,2.3,0,3.4,0.5c1.6,0.6,1.7,1.5,2.7,2.7c-0.1-0.1-0.2-0.4-0.3-0.5"/>
	<path class="st2" d="M988.6,79.5c-1.3,0-2.7-0.4-3.8-1c-2.3-1.5-3.7-4.1-3.7-6.9c-0.1-1,0.1-2.1,0.5-3c0.4-1,1.3-1.8,2.3-2.1
		c1.3-0.2,2.5,0,3.7,0.6c0.9,0.3,1.7,1,2.2,1.9l0.2,0.3c0.1,0,0.1,0.1,0.2,0.1c0.1,0.1,0.2,0.2,0.2,0.4c0,0.1,0,0.1,0.1,0.1l0,0
		c0.2,0.2,0.2,0.5,0,0.7s-0.5,0.2-0.7,0l-0.1-0.1c-0.3-0.3-0.5-0.7-0.7-0.9c-0.4-0.7-1-1.3-1.8-1.6c-0.9-0.5-2-0.7-3-0.5
		c-0.8,0.2-1.4,0.8-1.8,1.6c-0.3,0.8-0.5,1.7-0.4,2.6c-0.1,2.5,1.1,4.8,3.2,6.1c1.5,0.9,3.3,1.1,5,0.7c0.3-0.1,0.5,0.1,0.6,0.3
		c0.1,0.3-0.1,0.5-0.3,0.6C989.8,79.4,989.2,79.5,988.6,79.5z"/>
	<path class="st2" d="M1006.3,97.7c-3.1,0.1-6.1-1.4-8-3.9c-3.2-4.3-2.4-7.3-2.4-7.3s4.2,4.4,10.1,4.2L1006.3,97.7z"/>
	<path class="st2" d="M1005.9,98.2c-3.1,0-6.1-1.6-8-4.1c-3.3-4.5-2.5-7.6-2.5-7.8c0-0.2,0.2-0.3,0.3-0.3c0.2-0.1,0.3,0,0.5,0.1
		c0,0,4.1,4.2,9.7,4c0.2,0,0.4,0.1,0.5,0.4c0,0,0,0,0,0.1l0.3,7.1c0,0.2-0.2,0.5-0.4,0.5C1006.3,98.1,1006.1,98.2,1005.9,98.2z
		 M996.2,87.4c0.1,2.2,1,4.4,2.4,6.1c1.7,2.3,4.3,3.7,7.1,3.7l-0.3-6.2C1002.1,90.9,998.8,89.6,996.2,87.4z"/>
	<path class="st1" d="M1004.9,69.1c0,0,3.7,7.4,2.5,8.5c-1.2,1-4.2-0.1-4.2-0.1"/>
	<path class="st2" d="M1005.8,78.5c-1,0-1.9-0.2-2.8-0.6c-0.2-0.1-0.4-0.3-0.3-0.6c0.1-0.2,0.3-0.4,0.6-0.3h0.1
		c0.7,0.3,2.9,0.9,3.7,0.2c0.5-0.4-0.7-4.1-2.6-7.9c-0.1-0.2-0.1-0.5,0.2-0.6c0.2-0.1,0.5-0.1,0.6,0.2c0,0,0,0,0,0.1
		c1.2,2.3,3.7,7.9,2.3,9C1007.1,78.3,1006.5,78.5,1005.8,78.5z"/>
	<ellipse transform="matrix(0.2118 -0.9773 0.9773 0.2118 721.2958 1030.2733)" class="st2" cx="999.4" cy="68" rx="1.6" ry="1.1"/>
	
		<ellipse transform="matrix(0.9963 -8.559341e-02 8.559341e-02 0.9963 -2.2249 86.7094)" class="st2" cx="1010.1" cy="69.3" rx="1.1" ry="1.6"/>
	<path class="st2" d="M1005.3,87.8c-0.3,0-0.6,0-0.9-0.1c-2-0.4-3.6-1.7-4.5-3.4c-0.7-1.4-1.1-3-1.1-4.6l0,0c0-0.1,0.1-0.3,0.2-0.3
		c0.2-0.2,0.3-0.3,10.6,0.9c0.2,0,0.4,0.2,0.4,0.4c0,0.2,0.2,4.2-2.1,6.2C1007.2,87.5,1006.3,87.9,1005.3,87.8z M999.7,80.1
		c0.1,1.3,0.4,2.5,1,3.7c0.7,1.5,2.2,2.7,3.8,3c1,0.2,2,0,2.8-0.6c1.6-1.4,1.8-4.1,1.8-5.1C1005.8,80.8,1001.1,80.3,999.7,80.1z"/>
	<path class="st2" d="M1000.2,84.1c1.8,3.5,5.7,4,7.3,2.5c-0.5-1.3-1.4-2.7-2.8-3.1C1003.3,83.2,1001.6,83.4,1000.2,84.1z"/>
	<path class="st2" d="M1005.3,87.8c-0.3,0-0.6,0-0.9-0.1c-2-0.4-3.6-1.7-4.5-3.4c-0.1-0.1-0.1-0.2,0-0.4c0-0.1,0.1-0.2,0.2-0.3
		c1.5-0.8,3.2-1,4.8-0.6c1.3,0.4,2.4,1.5,3.1,3.4c0.1,0.2,0,0.4-0.1,0.5C1007.2,87.6,1006.3,87.9,1005.3,87.8z M1000.9,84.3
		c0.8,1.3,2.1,2.2,3.6,2.5c0.8,0.2,1.7,0.1,2.5-0.4c-0.4-1.2-1.2-2.1-2.4-2.5C1003.4,83.7,1002.1,83.8,1000.9,84.3z"/>
	<path class="st1" d="M934.8,145.9c0,0-10.2,4.5-19.3-2.1s-32.2-58.7-32.2-58.7l10-5.5l27.9,39.8L934.8,145.9z"/>
	<path class="st2" d="M926.8,147.9c-4.1,0-8.2-1.3-11.5-3.7c-9.1-6.5-31.4-56.8-32.3-59c-0.1-0.2,0-0.5,0.2-0.6l10-5.4
		c0.2-0.1,0.5-0.1,0.6,0.1l27.9,39.8l13.6,26.6c0.1,0.1,0.1,0.3,0,0.4c0,0.1-0.1,0.2-0.2,0.3C932.4,147.4,929.6,147.9,926.8,147.9z
		 M884,85.3c2.2,4.8,23.4,52.1,31.9,58.2c7.7,5.5,16.3,3,18.4,2.2l-13.4-26l-27.7-39.4L884,85.3z"/>
	<path class="st1" d="M896.2,84.9c1-6,1.4-12,1.2-18.1c0-1.2-0.6-2.9-1.8-2.7c-0.6,0.1-1,0.8-1.3,1.4c-1.2,2.8-1.9,5.9-1.8,8.9
		c-1.2-3-2.3-5.9-3.4-8.9c-0.3-0.9-2.5-7.9-3.5-4.8c-0.5,1.4,0.2,3.6,0.3,5.1c0.2,2,0.5,3.9,0.9,5.8c-0.2-1.4-2.3-11.5-4.2-10.1
		c-1.6,1.2-0.2,3.9,0.1,5.4c0.4,2.1,0.5,4.7,1.3,6.7c-1-2.5-2.2-4.9-3.4-7.3c-0.3-0.6-1.1-2.8-1.8-3s-1.5,0.9-1.6,1.5
		c-0.2,1.4,0.9,3.7,1.2,5.1c0.5,1.8,1.1,3.7,1.8,5.5c-0.5-1.5-1.8-2.8-2.6-4.2c-0.6-1.1-1.1-2.8-2.3-3.4c-0.7-0.4-1.6-0.2-2.1,0.5
		c0,0.1-0.1,0.1-0.1,0.2c-0.1,0.4,0,0.9,0.2,1.2c3.4,9,8.4,17.3,14.7,24.6"/>
	<path class="st2" d="M888,95.1c-0.1,0-0.3-0.1-0.4-0.2c-6.3-7.3-11.3-15.7-14.7-24.7c-0.2-0.5-0.3-1-0.2-1.5s0.5-0.9,0.9-1.1
		c0.6-0.3,1.3-0.2,1.9,0.1c1,0.7,1.7,1.6,2.1,2.8c0.1,0.3,0.3,0.6,0.4,0.9c0.2,0.3,0.2,0.4,0.4,0.6c-0.2-0.5-0.3-1.1-0.4-1.6
		c-0.1-0.4-0.2-0.8-0.4-1.3c-0.5-1.3-0.8-2.7-0.8-4.1c0.1-0.7,0.5-1.3,1.1-1.7c0.3-0.2,0.7-0.3,1.1-0.2c0.7,0.2,1.2,1.2,1.8,2.6
		c0.1,0.2,0.2,0.5,0.3,0.6c0.5,1,1,2,1.5,3.1v-0.1c-0.1-0.8-0.2-1.5-0.3-2.2c-0.1-0.4-0.2-0.7-0.3-1.1c-0.5-1.6-1.1-3.7,0.4-4.8
		c0.3-0.3,0.7-0.3,1.1-0.2c0.8,0.5,1.4,1.4,1.6,2.3c-0.2-0.9-0.1-1.9,0.1-2.8c0.2-0.7,0.6-1.1,1.1-1.1l0,0c0.9,0,1.8,1.4,3.1,5.3
		c0.1,0.2,0.1,0.4,0.2,0.5c0.9,2.2,1.7,4.5,2.5,6.7c0.3-2.3,0.9-4.6,1.8-6.8c0.2-0.8,0.8-1.4,1.6-1.6c0.5-0.1,0.9,0,1.3,0.3
		c0.7,0.8,1.1,1.7,1.1,2.8c0.2,6.1-0.2,12.2-1.2,18.2c0,0.3-0.3,0.4-0.5,0.4l0,0c-0.3,0-0.4-0.3-0.4-0.5l0,0c1-5.9,1.4-11.9,1.2-18
		c0-0.8-0.3-1.5-0.8-2.1c-0.1-0.1-0.3-0.2-0.5-0.1c-0.4,0.1-0.7,0.6-0.9,1.1c-1.2,2.8-1.8,5.7-1.8,8.7c0,0.2-0.2,0.4-0.4,0.5
		c-0.2,0-0.5-0.1-0.5-0.3c-1.1-2.9-2.2-5.9-3.3-8.8c0-0.1-0.1-0.3-0.2-0.6c-1.3-3.9-2-4.6-2.2-4.7c-0.1,0.1-0.1,0.3-0.2,0.4
		c-0.2,1.2-0.2,2.4,0.1,3.6c0.1,0.4,0.2,0.9,0.2,1.2c0.2,1.9,0.5,3.8,0.9,5.7v0.1l0,0c0,0.3-0.2,0.5-0.5,0.5c-0.2,0-0.3-0.1-0.4-0.3
		c0-0.2-0.1-0.4-0.1-0.7c-0.6-2.9-2.1-8.7-3.2-9.1h-0.1c-0.9,0.7-0.5,2.4-0.1,3.8c0.1,0.4,0.2,0.8,0.3,1.1c0.1,0.7,0.2,1.5,0.4,2.2
		c0.1,1.5,0.4,3,0.9,4.4c0.1,0.3,0,0.5-0.3,0.6s-0.5,0-0.6-0.3c-1-2.4-2.2-4.9-3.4-7.2c-0.1-0.1-0.2-0.4-0.3-0.7
		c-0.2-0.5-0.8-1.9-1.2-2.1c-0.1,0-0.2,0-0.3,0.1c-0.3,0.3-0.5,0.6-0.6,1c0.1,1.2,0.3,2.4,0.8,3.6c0.2,0.5,0.3,1,0.4,1.4
		c0.5,1.9,1.2,3.8,1.8,5.5l0,0c0.1,0.3,0,0.5-0.3,0.6s-0.5,0-0.6-0.3l0,0l0,0c-0.4-0.9-0.9-1.7-1.5-2.5c-0.4-0.5-0.7-1.1-1.1-1.6
		c-0.2-0.3-0.3-0.6-0.5-1c-0.3-0.9-0.9-1.7-1.6-2.3c-0.3-0.2-0.7-0.2-1.1,0c-0.2,0.1-0.3,0.2-0.4,0.4c0,0.3,0,0.7,0.2,1
		c3.4,8.9,8.4,17.2,14.7,24.4c0.2,0.2,0.2,0.5,0,0.7l0,0C888.2,95.1,888.1,95.1,888,95.1z"/>
	<path class="st2" d="M887.6,85.6c-0.2,0-0.4-0.1-0.4-0.3c-2-7.2,4.8-11.1,4.9-11.2c0.2-0.1,0.5,0,0.6,0.2s0,0.5-0.2,0.6
		c-0.3,0.1-6.3,3.6-4.4,10.1c0.1,0.3-0.1,0.5-0.3,0.6L887.6,85.6z"/>
	<polygon class="st1" points="946.6,174.5 942.7,185.9 1018.7,185.9 1018.7,175.5 	"/>
	<path class="st2" d="M1018.7,186.4h-76c-0.2,0-0.3-0.1-0.4-0.2c-0.1-0.1-0.1-0.3-0.1-0.4l3.9-11.5c0.1-0.2,0.2-0.3,0.5-0.3l72.1,1
		c0.3,0,0.5,0.2,0.5,0.5v10.4C1019.2,186.2,1019,186.4,1018.7,186.4z M943.4,185.5h74.9V176l-71.3-1L943.4,185.5z"/>
	<path class="st2" d="M1020.1,161.3L1020.1,161.3c-0.3,0-0.4-0.2-0.4-0.5l0,0l4.3-50.1c0-0.3,0.2-0.4,0.5-0.4l0,0
		c0.3,0,0.5,0.2,0.4,0.5l0,0l-4.3,50.1C1020.6,161.1,1020.3,161.3,1020.1,161.3z"/>
	<path class="st2" d="M940.3,141.9c-0.1,0-0.3-0.1-0.4-0.2c-0.2-0.2-0.1-0.5,0.1-0.7l0,0l21.8-17.7c0.2-0.1,0.5-0.1,0.7,0.2
		c0.1,0.2,0.1,0.4-0.1,0.6l-21.8,17.7C940.5,141.9,940.4,141.9,940.3,141.9z"/>
	<path class="st0" d="M870.6,150.1h1.6c0.1,0,0.1,0,0.2,0.1c2.4,0.1,4.8,0.9,6.8,2.3c4.5,2.9,7,8.1,6.4,13.4
		c-0.3,3.2-1.6,6.1-3.9,8.4c-3,3.2-7.4,4.8-11.8,4.3c-2.3-0.2-4.5-1-6.4-2.3c-3.4-2.2-5.7-5.8-6.2-9.8c-0.1-0.4-0.1-0.8-0.2-1.2
		v-1.6l0.1-0.3c0.1-0.6,0.1-1.2,0.3-1.8c1.2-5.9,6-10.3,11.9-11.2C869.8,150.2,870.2,150.1,870.6,150.1z M881.8,172.3
		c1.6-2.1,2.5-4.7,2.7-7.3h-5.6c-0.1,1-0.1,2-0.3,3c-0.1,1-0.3,2-0.5,2.9L881.8,172.3z M858.3,164.9c0.1,2.7,1,5.2,2.7,7.3l3.8-1.5
		c-0.5-1.9-0.8-3.9-0.8-5.9L858.3,164.9z M884.5,163.8c0.1-2.1-1.4-6.3-2.7-7.3L878,158c0.5,1.9,0.8,3.9,0.8,5.9L884.5,163.8
		L884.5,163.8z M864.8,157.9l-3.8-1.5c-1.4,1.5-2.9,5.6-2.6,7.3h5.7C864,161.8,864.3,159.8,864.8,157.9L864.8,157.9z M872,170
		c0.8,0.1,1.7,0.1,2.5,0.2s1.6,0.2,2.5,0.4c0-0.1,0-0.1,0.1-0.2c0.4-1.7,0.7-3.4,0.7-5.2c0-0.2-0.1-0.3-0.3-0.3h-5.1H872V170z
		 M865.1,164.9c0,1.9,0.2,3.8,0.7,5.6l4.9-0.6v-5.1L865.1,164.9z M877.7,163.8c0-1.9-0.3-3.8-0.8-5.6l-4.9,0.6v5H877.7z
		 M865.9,158.1c-0.5,1.8-0.7,3.7-0.7,5.6h5.7v-5L865.9,158.1z M876.5,157c-0.4-1.2-1-2.4-1.7-3.5c-0.5-0.8-1.1-1.4-1.9-1.8
		c-0.3-0.2-0.6-0.3-1-0.4v6.2C873.5,157.4,875,157.3,876.5,157L876.5,157z M871.9,171.2v6.2c0.7-0.1,1.3-0.4,1.8-0.9
		c1.1-1,1.9-2.3,2.4-3.7c0.1-0.3,0.2-0.7,0.4-1C875,171.4,873.5,171.2,871.9,171.2L871.9,171.2z M870.8,177.4v-6.2
		c-1.5,0-3.1,0.2-4.6,0.5c0.3,0.7,0.5,1.3,0.8,1.9c0.5,1.1,1.2,2.1,2.1,2.9C869.5,176.9,870.2,177.2,870.8,177.4L870.8,177.4z
		 M866.1,156.9c1.5,0.3,3.1,0.5,4.6,0.5v-6.2c-0.5,0.1-0.9,0.3-1.3,0.6c-0.9,0.7-1.7,1.6-2.2,2.6
		C866.9,155.2,866.6,156.1,866.1,156.9L866.1,156.9z M881,173.2c-1.1-0.5-2.2-1-3.3-1.3c-0.5,1.8-1.5,3.5-2.8,5
		C877.2,176.3,879.4,175,881,173.2L881,173.2z M867.9,151.7c-1.4,0.1-5.4,2.5-6.1,3.8l3.3,1.3c0.4-0.9,0.8-1.8,1.2-2.7
		C866.6,153.2,867.2,152.4,867.9,151.7z M861.8,173.2c1.7,1.8,3.8,3.1,6.2,3.8c-1.3-1.4-2.3-3.2-2.8-5
		C864,172.2,862.8,172.7,861.8,173.2z M875,151.8c0.6,0.7,1.2,1.5,1.6,2.3c0.4,0.9,0.8,1.7,1.2,2.6c1.1-0.3,2.2-0.7,3.3-1.3
		C879.4,153.7,877.3,152.4,875,151.8L875,151.8z"/>
	<path class="st0" d="M1089.3,180.8h-33.9c-0.3,0-0.5-0.2-0.5-0.5v-18.7c0-0.3,0.2-0.5,0.5-0.5h33.9c0.3,0,0.5,0.2,0.5,0.5v18.7
		C1089.7,180.6,1089.5,180.8,1089.3,180.8z M1055.9,179.9h32.9v-17.7h-32.9V179.9z"/>
	<path class="st0" d="M1072.3,173.8c-0.1,0-0.2,0-0.3-0.1l-16.9-11.6c-0.2-0.1-0.3-0.4-0.1-0.6c0.1-0.2,0.4-0.3,0.6-0.1l0,0
		l16.7,11.5l16.6-11.5c0.2-0.2,0.5-0.1,0.6,0.1c0.2,0.2,0.1,0.5-0.1,0.6l0,0l-16.9,11.6C1072.5,173.8,1072.4,173.8,1072.3,173.8z"/>
	<path class="st0" d="M1055.4,180.8c-0.3,0-0.5-0.2-0.5-0.5c0-0.1,0.1-0.3,0.2-0.4l13.6-9.3c0.2-0.2,0.5-0.1,0.6,0.1
		c0.2,0.2,0.1,0.5-0.1,0.6l0,0l-13.6,9.3C1055.6,180.8,1055.5,180.8,1055.4,180.8z"/>
	<path class="st0" d="M1089.3,180.8c-0.1,0-0.2,0-0.3-0.1l-13.6-9.3c-0.2-0.1-0.3-0.4-0.1-0.6s0.4-0.3,0.6-0.1l0,0l13.6,9.3
		c0.2,0.1,0.3,0.4,0.1,0.6C1089.6,180.8,1089.4,180.9,1089.3,180.8L1089.3,180.8z"/>
	<path class="st0" d="M1102.4,136.9c-8,0-14.5-6.5-14.5-14.5s6.5-14.5,14.5-14.5s14.5,6.5,14.5,14.5l0,0
		C1116.9,130.4,1110.4,136.9,1102.4,136.9z M1102.4,108.8c-7.5,0-13.6,6.1-13.6,13.6c0,7.5,6.1,13.6,13.6,13.6s13.6-6.1,13.6-13.6
		l0,0C1116,114.9,1109.9,108.9,1102.4,108.8z"/>
	<path class="st0" d="M1106.5,136.3c-0.2,0-0.4-0.1-0.4-0.3l-4.1-13.4c0-0.1,0-0.3,0.1-0.4l8.1-11.4c0.1-0.2,0.4-0.3,0.6-0.1l0,0
		c0.2,0.2,0.2,0.4,0.1,0.6l-8,11.2l4,13.2C1107,135.9,1106.8,136.2,1106.5,136.3L1106.5,136.3z"/>
	<path class="st0" d="M1102.4,122.9c-0.1,0-0.1,0-0.2-0.1l-12.4-6.6c-0.2-0.1-0.3-0.4-0.2-0.6c0.1-0.2,0.4-0.3,0.6-0.2l12.4,6.6
		c0.2,0.1,0.3,0.4,0.2,0.6C1102.8,122.8,1102.6,122.9,1102.4,122.9z"/>
	<path class="st0" d="M908.8,175.2H904c-0.3,0-0.5-0.2-0.5-0.5v-22c0-0.3,0.2-0.5,0.5-0.5h4.8c0.3,0,0.5,0.2,0.5,0.5v22
		C909.3,175,909.1,175.2,908.8,175.2z M904.5,174.3h3.9v-21.1h-3.9V174.3z"/>
	<path class="st0" d="M919.4,175.2h-4.8c-0.3,0-0.5-0.2-0.5-0.5v-15.3c0-0.3,0.2-0.5,0.5-0.5h4.8c0.3,0,0.5,0.2,0.5,0.5v15.3
		C919.8,175,919.6,175.2,919.4,175.2z M915,174.3h3.9V160H915V174.3z"/>
	<path class="st0" d="M929.9,175.2h-4.8c-0.3,0-0.5-0.2-0.5-0.5V165c0-0.3,0.2-0.5,0.5-0.5h4.8c0.3,0,0.5,0.2,0.5,0.5v9.8
		C930.3,175,930.1,175.2,929.9,175.2L929.9,175.2z M925.5,174.3h3.9v-8.9h-3.9V174.3z"/>
	<path class="st0" d="M933.8,175.2h-34.5c-0.3,0-0.5-0.2-0.5-0.5s0.2-0.5,0.5-0.5h34.5c0.3,0,0.5,0.2,0.5,0.5
		S934.1,175.2,933.8,175.2z"/>
	<path class="st0" d="M881.9,119.5h-20.3c-2.4,0-4.3-1.9-4.3-4.3v-11.6c0-2.4,1.9-4.3,4.3-4.3h20.3c2.4,0,4.3,1.9,4.3,4.3v11.6
		C886.2,117.6,884.3,119.5,881.9,119.5L881.9,119.5z M861.6,100.3c-1.9,0-3.4,1.5-3.4,3.4v11.6c0,1.9,1.5,3.4,3.4,3.4h20.3
		c1.9,0,3.4-1.5,3.4-3.4v-11.6c0-1.9-1.5-3.4-3.4-3.4H861.6z"/>
	<path class="st0" d="M867.1,115.8c-0.1,0-0.2,0-0.2-0.1c-0.1-0.1-0.2-0.2-0.2-0.4v-11.7c0-0.2,0.1-0.3,0.2-0.4
		c0.1-0.1,0.3-0.1,0.4,0l12.1,5.8c0.2,0.1,0.3,0.4,0.2,0.6c0,0.1-0.1,0.2-0.2,0.2l-12.1,5.9C867.2,115.8,867.2,115.8,867.1,115.8z
		 M867.6,104.3v10.3l10.6-5.1L867.6,104.3z"/>
	<path class="st0" d="M944.3,94.1h-29.1c-0.3,0-0.5-0.2-0.5-0.5V73.3c0-0.3,0.2-0.5,0.5-0.5h29.1c0.3,0,0.5,0.2,0.5,0.5v20.3
		C944.7,93.9,944.5,94.1,944.3,94.1z M915.6,93.2h28.2V73.8h-28.2V93.2z"/>
	<path class="st0" d="M915.1,94.1c-0.1,0-0.2,0-0.3-0.1c-0.2-0.2-0.2-0.4-0.1-0.6l11.5-15.5c0.2-0.2,0.4-0.2,0.6-0.1
		c0,0,0,0,0.1,0.1l9,10.7c0.2,0.2,0.1,0.5-0.1,0.7c-0.2,0.2-0.5,0.1-0.7-0.1L926.7,79l-11.1,15C915.4,94.1,915.3,94.1,915.1,94.1z"
		/>
	<path class="st0" d="M933.2,86.4c-0.1,0-0.2,0-0.3-0.1c-0.2-0.1-0.3-0.4-0.1-0.6l4.7-6.7c0.1-0.1,0.2-0.2,0.3-0.2s0.3,0,0.4,0.1
		l6.4,6.7c0.2,0.2,0.2,0.5,0,0.6l0,0c-0.2,0.2-0.5,0.2-0.6,0l0,0l-6.1-6.3l-4.3,6.3C933.5,86.3,933.3,86.4,933.2,86.4z"/>
	<path class="st0" d="M933.7,79.7c-1.2,0-2.3-1-2.3-2.3c0-1.2,1-2.3,2.3-2.3c1.2,0,2.3,1,2.3,2.3C935.9,78.7,934.9,79.7,933.7,79.7
		L933.7,79.7z M933.7,76.1c-0.7,0-1.3,0.6-1.3,1.3c0,0.7,0.6,1.3,1.3,1.3s1.3-0.6,1.3-1.3S934.4,76.1,933.7,76.1L933.7,76.1z"/>
	<path class="st0" d="M1092.3,143.6h-16.7c-0.3,0-0.5-0.2-0.5-0.5s0.2-0.5,0.5-0.5h16.7c0.3,0,0.5,0.2,0.5,0.5
		C1092.8,143.4,1092.6,143.6,1092.3,143.6z"/>
	<path class="st0" d="M1092.3,147.2h-16.7c-0.3,0-0.5-0.2-0.5-0.5s0.2-0.5,0.5-0.5h16.7c0.3,0,0.5,0.2,0.5,0.5
		S1092.6,147.2,1092.3,147.2z"/>
	<path class="st0" d="M1087.3,150.8h-11.6c-0.3,0-0.5-0.2-0.5-0.5s0.2-0.5,0.5-0.5h11.6c0.3,0,0.5,0.2,0.5,0.5
		S1087.5,150.8,1087.3,150.8L1087.3,150.8z"/>
	<path class="st0" d="M890,129.2h-28.3c-0.3,0-0.5-0.2-0.5-0.5s0.2-0.5,0.5-0.5H890c0.3,0,0.5,0.2,0.5,0.5S890.3,129.2,890,129.2z"
		/>
	<path class="st0" d="M890,132.8h-28.3c-0.3,0-0.5-0.2-0.5-0.5s0.2-0.5,0.5-0.5H890c0.3,0,0.5,0.2,0.5,0.5S890.3,132.8,890,132.8z"
		/>
	<path class="st0" d="M881.5,136.4h-19.7c-0.3,0-0.5-0.2-0.5-0.5s0.2-0.5,0.5-0.5h19.7c0.3,0,0.5,0.2,0.5,0.5
		C881.9,136.2,881.7,136.4,881.5,136.4z"/>
	<path class="st0" d="M1108.1,159.1h-2.2v-1.4h2.5l0.4-2h-2.2v-1.4h2.5l0.7-3.4h2.2l-0.7,3.4h2.6l0.7-3.4h2.1l-0.7,3.4h2.2v1.4h-2.5
		l-0.4,2h2.2v1.4h-2.5l-0.8,3.4h-2.2l0.7-3.4h-2.6l-0.7,3.4h-2.1L1108.1,159.1z M1111,155.8l-0.4,2h2.6l0.4-2H1111z"/>
	<path class="st0" d="M1075.3,168.1c-0.3,0.4-0.7,0.8-1.2,1s-1,0.4-1.5,0.3c-0.5,0-0.9-0.1-1.3-0.2c-0.4-0.2-0.8-0.4-1.1-0.7
		c-0.3-0.3-0.6-0.7-0.7-1c-0.2-0.4-0.3-0.9-0.3-1.3c0-0.5,0.1-0.9,0.3-1.3c0.2-0.4,0.4-0.7,0.7-1c0.3-0.3,0.7-0.5,1.1-0.7
		c0.8-0.3,1.7-0.3,2.5-0.1c0.4,0.1,0.7,0.3,1,0.6s0.5,0.6,0.7,0.9c0.2,0.4,0.3,0.8,0.3,1.2c0,0.3,0,0.6-0.1,0.8s-0.2,0.4-0.3,0.6
		c-0.1,0.2-0.2,0.3-0.4,0.4c-0.1,0.1-0.3,0.2-0.4,0.2c-0.1,0.1-0.3,0.1-0.4,0.1s-0.2,0-0.3,0c-0.2,0-0.4,0-0.5-0.2
		c-0.1-0.1-0.2-0.2-0.2-0.3l0,0c-0.1,0.1-0.3,0.2-0.4,0.3c-0.2,0.1-0.5,0.2-0.7,0.2s-0.4,0-0.5-0.1c-0.2-0.1-0.3-0.2-0.4-0.3
		s-0.2-0.3-0.3-0.5c-0.1-0.2-0.1-0.4-0.1-0.6c0-0.3,0-0.5,0.1-0.8c0.1-0.2,0.2-0.4,0.3-0.6c0.2-0.2,0.3-0.3,0.6-0.4
		c0.2-0.1,0.5-0.2,0.8-0.2c0.2,0,0.4,0,0.6,0.1s0.3,0.2,0.4,0.4l0,0l0.1-0.4h0.8l-0.3,1.8v0.2c0,0.1,0,0.2,0,0.3s0,0.2,0,0.2
		c0,0.1,0.1,0.1,0.2,0.1s0.2,0,0.3-0.1c0.1-0.1,0.2-0.1,0.2-0.2c0.1-0.1,0.1-0.3,0.2-0.4c0.1-0.5,0.1-1-0.1-1.5
		c-0.1-0.3-0.3-0.5-0.5-0.7s-0.5-0.3-0.7-0.4c-0.3-0.1-0.6-0.1-0.9-0.1s-0.7,0.1-1,0.2c-0.3,0.1-0.6,0.3-0.8,0.5
		c-0.2,0.2-0.4,0.5-0.5,0.8s-0.2,0.7-0.2,1c0,0.4,0.1,0.7,0.2,1s0.3,0.6,0.5,0.8s0.5,0.4,0.8,0.5s0.7,0.2,1,0.2s0.6,0,0.9-0.1
		s0.5-0.2,0.8-0.4L1075.3,168.1z M1072.3,165.3c-0.1,0-0.3,0-0.4,0.1s-0.2,0.1-0.3,0.2c-0.1,0.1-0.1,0.2-0.2,0.3
		c0,0.1-0.1,0.3-0.1,0.4c0,0.1,0,0.1,0,0.2c0,0.1,0,0.2,0.1,0.3s0.1,0.2,0.2,0.2c0.1,0.1,0.3,0.1,0.4,0.1s0.3,0,0.4-0.1
		s0.2-0.2,0.3-0.3c0.1-0.1,0.1-0.2,0.1-0.3s0-0.3,0-0.4c0-0.2,0-0.4-0.2-0.6C1072.7,165.3,1072.5,165.3,1072.3,165.3L1072.3,165.3z"
		/>
</g>
<g id="_223_social_media_flatline">
	<polygon class="st2" points="508.9,237.5 506.3,256.6 604,256.6 598.2,226.8 	"/>
	<path class="st2" d="M604,257.1h-97.6c-0.3,0-0.5-0.2-0.5-0.5c0,0,0,0,0-0.1l2.6-19.1c0-0.2,0.2-0.4,0.4-0.4l89.3-10.7
		c0.2,0,0.5,0.1,0.5,0.4l5.8,29.9c0,0.1,0,0.3-0.1,0.4C604.2,257,604.1,257.1,604,257.1z M506.8,256.2h96.6l-5.6-28.9L509.3,238
		L506.8,256.2z"/>
	<path class="st2" d="M553.4,64.2c0,0-6.7-7.2-14.2-8.6c-7.5-1.4-31.7,7.3-34,16.8c-2.4,9.5,1.6,23.2,1.6,23.2
		S542.1,62.5,553.4,64.2z"/>
	<path class="st2" d="M506.8,96h-0.1c-0.2,0-0.3-0.2-0.3-0.3c-0.2-0.6-4-13.9-1.6-23.4c2.4-9.8,26.8-18.6,34.6-17.2
		c7.5,1.4,14.2,8.5,14.5,8.8c0.1,0.1,0.2,0.4,0.1,0.5c-0.1,0.2-0.3,0.3-0.5,0.2c-10.9-1.6-45.9,30.9-46.2,31.3
		C507,96,506.9,96,506.8,96z M537.3,55.8c-8.8,0-29.6,8.1-31.7,16.7c-2,8.1,0.6,19.3,1.4,22.2c4.6-4.2,33.6-30.5,45.2-31
		c-2-1.9-7.3-6.6-13.1-7.7C538.5,55.9,537.9,55.8,537.3,55.8L537.3,55.8z"/>
	
		<ellipse transform="matrix(0.9003 -0.4352 0.4352 0.9003 16.947 241.2563)" class="st1" cx="535.2" cy="83.6" rx="38.2" ry="14.5"/>
	<path class="st2" d="M512.1,105.2c-6,0-10.1-1.7-11.6-4.8c-1.8-3.7,0.2-8.9,5.7-14.6s13.4-11.2,22.6-15.7s18.6-7.3,26.3-8
		c7.9-0.7,13.2,0.9,15,4.6s-0.2,8.9-5.7,14.6S551,92.6,541.7,97c-9.2,4.5-18.6,7.3-26.3,8C514.3,105.1,513.1,105.2,512.1,105.2z
		 M558.4,62.9c-1,0-2.2,0.1-3.3,0.2c-7.6,0.7-16.9,3.5-26,7.9s-17.1,9.9-22.3,15.4c-5.3,5.5-7.1,10.3-5.5,13.6
		c1.6,3.3,6.6,4.8,14.1,4.1c7.6-0.7,16.9-3.5,26-7.9s17.1-9.9,22.3-15.5c5.3-5.6,7.1-10.3,5.5-13.6l0,0
		C567.8,64.4,564.1,62.9,558.4,62.9L558.4,62.9z"/>
	<polygon class="st3" points="522.5,125.3 465.2,131.9 451.4,168.4 525.4,170.9 	"/>
	<polygon class="st3" points="581.3,124.5 638.7,150.4 643.4,190.1 575.6,168.4 	"/>
	<path class="st3" d="M539.9,126.4c-5.1,0.5-23.5,2.2-28.3,4.3c-16.1,7.2-3.4,110.5-5.5,110.8c0.5-0.1,96.1-9.2,96.1-9.2
		c-3.7-36.3,3.4-63-16.9-103.8C579.6,116.9,552.6,125.2,539.9,126.4z"/>
	<path class="st2" d="M537,132.6c0,0,3,25.3,16.7,22s7.1-26,7.1-26L537,132.6z"/>
	<path class="st2" d="M551.3,155.4c-1.9,0-3.8-0.6-5.3-1.7c-7.5-5.2-9.4-20.4-9.4-21c0-0.2,0.1-0.5,0.4-0.5l23.8-3.9
		c0.2-0.1,0.5,0.1,0.5,0.3c0.2,0.6,3.9,13.8-0.7,21.6c-1.5,2.6-3.9,4.4-6.8,5C553,155.3,552.1,155.4,551.3,155.4z M537.5,133
		c0.4,2.5,2.5,15.5,9,19.9c2,1.5,4.6,1.9,7,1.3c2.6-0.6,4.9-2.2,6.2-4.6c3.9-6.7,1.3-18.2,0.7-20.4L537.5,133z"/>
	<line class="st4" x1="581.6" y1="135.2" x2="591.4" y2="170.6"/>
	<path class="st2" d="M591.4,171.1c-0.2,0-0.4-0.1-0.4-0.3l-9.8-35.4c-0.1-0.3,0.1-0.5,0.3-0.6c0.3-0.1,0.5,0.1,0.6,0.3l9.8,35.4
		c0.1,0.2-0.1,0.5-0.3,0.6l0,0C591.5,171.1,591.4,171.1,591.4,171.1z"/>
	<line class="st4" x1="506.3" y1="145.7" x2="511.5" y2="179.2"/>
	<path class="st2" d="M511.5,179.7c-0.2,0-0.4-0.2-0.4-0.4l-5.2-33.5c0-0.2,0.1-0.5,0.4-0.5l0,0c0.2,0,0.5,0.1,0.5,0.4l5.2,33.5
		C512,179.4,511.8,179.6,511.5,179.7C511.6,179.7,511.5,179.7,511.5,179.7L511.5,179.7z"/>
	<path class="st1" d="M577.6,103.3c-1.3-3.5-4.4-5.9-7-8.5c-6-5.9-8.6-13.3-12.9-20.2c-1.4-2.2-3.1-4.2-5.1-5.9
		c-5.8,1.2-13,2.8-18.5,5.3c-17.5,7.7-22.5,17-22.6,17.2c0.7,9.4,3.4,24.7,6.4,33.7c1.4,4.3,3.1,10,7.9,11.5c1.4,0.4-0.6-1,0.8-1.4
		c4.8-1.3,9.9-2.6,14.3-4.8c4.2-2,7.3-5.4,11.4-7.6c2.7-1.4,5.5-1.6,8.4-1.8c0.6,0,1.2-0.1,1.8-0.2c4.4-0.5,8.9-2.1,12-5.2
		C577.7,112.4,579.2,107.5,577.6,103.3z"/>
	<path class="st2" d="M526.2,137c-0.2,0-0.4,0-0.5-0.1c-4.9-1.6-6.7-7-8.1-11.3l-0.2-0.5c-3.1-9.5-5.7-24.9-6.4-33.8
		c0-0.1,0-0.3,0.1-0.4l0,0c1.5-2.3,7.3-10.4,22.7-17.2c5.8-2.6,13.4-4.3,18.6-5.3c0.1,0,0.3,0,0.4,0.1c2,1.7,3.8,3.7,5.2,6
		s2.7,4.6,3.9,6.8c2.6,4.8,5,9.4,9,13.3c0.5,0.5,1,0.9,1.5,1.4c2.2,2.1,4.6,4.3,5.6,7.2l0,0c1.5,4.1,0.2,9.2-3.2,12.7
		c-3.7,3.7-8.7,5-12.3,5.4c-0.6,0.1-1.2,0.1-1.8,0.2h-0.4c-2.8,0.2-5.3,0.4-7.8,1.7c-1.8,1-3.6,2.2-5.3,3.6c-1.9,1.5-4,2.9-6.1,4
		c-3.9,1.8-8,3.2-12.1,4.2l-2.3,0.6c-0.1,0-0.1,0-0.2,0.1c0,0.1,0,0.3,0.1,0.4c0.2,0.3,0.2,0.6,0,0.8
		C526.6,136.9,526.4,137,526.2,137z M525.9,136.4L525.9,136.4z M512,91.3c0.7,8.9,3.3,24.1,6.3,33.4l0.2,0.5c1.3,4.1,3,9.1,7.2,10.6
		c-0.1-0.2,0-0.5,0.1-0.7c0.2-0.3,0.4-0.5,0.8-0.6l2.3-0.6c4.1-1,8.1-2.4,12-4.1c2.1-1.1,4.1-2.4,6-3.9c1.7-1.4,3.5-2.6,5.4-3.7
		c2.7-1.4,5.3-1.6,8.1-1.8h0.4c0.6,0,1.2-0.1,1.8-0.1c3.4-0.4,8.2-1.5,11.7-5.1c3.2-3.3,4.4-8,3-11.8l0,0c-1-2.8-3.3-4.8-5.4-6.9
		c-0.5-0.5-1-0.9-1.5-1.4c-4.1-4-6.7-8.9-9.2-13.5c-1.2-2.2-2.4-4.6-3.8-6.8c-1.3-2.1-3-4-4.8-5.6c-5.2,1.1-12.6,2.8-18.2,5.2
		C519.2,81.1,513.4,89,512,91.3L512,91.3z"/>
	<path class="st1" d="M554.7,80.1c0,0,7.7,10.4,8.3,19.8c0.5,5.4-2.2,10.5-6.9,13.1l4.7,15.7c0,0,2.5,8-7.7,9.7
		c-6,1-12.1-1.2-16.1-5.7l-9.8-28.5c0,0,9.2-9.7,5.1-19.8C532.4,84.3,547.5,86.8,554.7,80.1z"/>
	<path class="st2" d="M550.1,139c-5.2-0.1-10.1-2.3-13.5-6.2l-0.1-0.1l-9.7-28.5c-0.1-0.2,0-0.3,0.1-0.5c0.1-0.1,8.9-9.6,5-19.3
		c-0.1-0.2,0-0.3,0.1-0.5c0.1-0.1,0.3-0.2,0.4-0.2c0.1,0,15,2.3,22-4.2c0.1-0.1,0.2-0.1,0.4-0.1c0.1,0,0.2,0.1,0.3,0.2
		c0.3,0.4,7.7,10.6,8.4,20.1c0.5,5.4-2.2,10.6-6.8,13.3l4.6,15.3c0.6,2.1,0.3,4.3-0.8,6.2c-1.3,2.1-3.8,3.5-7.3,4.1
		C552.1,139,551.1,139,550.1,139z M537.4,132.3c3.9,4.4,9.8,6.5,15.6,5.5c3.2-0.5,5.5-1.8,6.6-3.7c0.9-1.6,1.2-3.6,0.7-5.4
		l-4.7-15.7c-0.1-0.2,0-0.4,0.2-0.5c4.6-2.5,7.2-7.5,6.7-12.6c-0.5-8.2-6.5-17.2-7.9-19.2c-6.5,5.6-18.4,4.6-21.6,4.2
		c3.1,9.1-4,17.9-5.3,19.3L537.4,132.3z"/>
	<path class="st1" d="M532,100.5c0,0-8.1-9.4-11.5-0.9s6.8,13.6,11.5,11.5"/>
	<path class="st2" d="M529.6,112c-2.8-0.1-5.4-1.2-7.4-3.1c-2.7-2.4-3.5-6.2-2-9.5c0.9-2.2,2.2-3.5,3.9-3.8c3.9-0.6,8.3,4.4,8.4,4.6
		c0.2,0.2,0.1,0.5-0.1,0.7c-0.2,0.2-0.5,0.2-0.6,0l0,0c0-0.1-4.2-4.8-7.6-4.3c-1.3,0.2-2.4,1.3-3.2,3.2c-1.3,2.9-0.6,6.4,1.8,8.5
		c2.5,2.4,6.6,3.5,9.1,2.4c0.2-0.1,0.5,0,0.6,0.2s0,0.5-0.2,0.6l0,0C531.4,111.9,530.5,112,529.6,112z"/>
	<path class="st2" d="M548.4,101.5c-0.2,0-0.4-0.2-0.5-0.4c0-0.3,0.2-0.5,0.4-0.5c0,0,3.4-0.1,4.7-1.4v-0.1
		c-0.1-1.3-4.3-4.8-6.9-6.8c-0.2-0.2-0.2-0.4-0.1-0.6c0.1-0.2,0.4-0.3,0.6-0.1l0,0c1.2,0.9,7.2,5.3,7.3,7.4c0,0.3-0.1,0.6-0.3,0.8
		C552.2,101.4,548.6,101.5,548.4,101.5L548.4,101.5z"/>
	<path class="st2" d="M556.1,113c0,0-8,3.6-13.2,3.8c0,0,8.9,10.8,16.9,8.3L556.1,113z"/>
	<path class="st2" d="M557.3,125.9c-7.3,0-14.4-8.4-14.8-8.8c-0.1-0.1-0.1-0.3-0.1-0.5c0.1-0.2,0.2-0.3,0.4-0.3c5-0.2,13-3.7,13-3.7
		c0.1-0.1,0.3-0.1,0.4,0c0.1,0.1,0.2,0.2,0.2,0.3l3.7,12.1c0.1,0.2-0.1,0.5-0.3,0.6C559,125.8,558.2,125.9,557.3,125.9z
		 M543.8,117.2c2.1,2.2,9,9.1,15.3,7.6l-3.4-11.1C554.1,114.3,548.3,116.7,543.8,117.2z"/>
	
		<ellipse transform="matrix(0.9408 -0.3391 0.3391 0.9408 7.701579e-02 188.7993)" class="st2" cx="540.3" cy="94.2" rx="1.3" ry="2.2"/>
	<path class="st1" d="M516.2,119.2c2.4,9.3,7.2,26.3,20.3,17.4c2.7-1.9,4.6-4.8,5.3-8c1.2-5.9-8.7-10.6-13.3-12.7"/>
	<path class="st2" d="M529.7,139.6c-0.9,0-1.9-0.2-2.8-0.5c-6.7-2.5-9.6-13.7-11.2-19.8c-0.1-0.3,0.1-0.5,0.3-0.6s0.5,0.1,0.6,0.3
		c1.4,5.5,4.4,16.8,10.6,19.1c2.6,1,5.6,0.3,9-2c2.6-1.8,4.5-4.6,5.1-7.7c1.1-5.8-9.5-10.6-13.1-12.1c-0.2-0.1-0.3-0.4-0.2-0.6
		s0.4-0.3,0.6-0.2l0,0c6.4,2.9,14.7,7.3,13.6,13.2c-0.7,3.4-2.7,6.4-5.5,8.3C534.7,138.6,532.3,139.5,529.7,139.6z"/>
	<path class="st2" d="M548.9,110.7c-0.7,0-1.4-0.1-2-0.2c-6.7-1.2-6.2-6.5-6.2-6.6c0-0.2,0.2-0.4,0.4-0.4l0,0h14.6
		c0.1,0,0.2,0,0.3,0.1s0.1,0.2,0.1,0.3c-0.1,2-1,3.8-2.5,5.1C552.3,110.1,550.6,110.7,548.9,110.7z M541.5,104.4
		c0.1,1.1,0.7,4.3,5.5,5.2c2.1,0.5,4.3,0.1,6-1.2c1.2-1,1.9-2.4,2.1-3.9L541.5,104.4z"/>
	<path class="st2" d="M550.3,91.9L550.3,91.9c-0.3-0.1-0.5-0.3-0.4-0.6c0.5-1.3,1.4-2.4,2.6-3c1.1-0.4,2.3-0.4,3.3,0.1
		c0.2,0.1,0.3,0.4,0.2,0.6s-0.3,0.3-0.5,0.2c-0.8-0.4-1.7-0.5-2.6-0.1c-1,0.5-1.7,1.4-2.1,2.5C550.7,91.8,550.5,91.9,550.3,91.9z"/>
	<path class="st1" d="M461.6,168c-10.4,6.6-23.5-6.1-17.8-22.6s45-56.3,45-56.3s-3.3-9.4-0.3-12.9s8.7-1.6,8.7-1.6s3.4-15.1,6.4-14
		s-2,15.6-2,15.6s8.1-16,10.1-12.9c2,3.1-6,14.9-6,14.9s4.8-0.6,1.9,6.3c-1.9,4.2-5.1,7.7-9,10.1C498.5,94.7,472,161.4,461.6,168z"
		/>
	<path class="st2" d="M455.6,170.3c-2.7,0-5.3-1-7.3-2.7c-4.9-3.9-8.4-12.3-5-22.4c5.4-16,41.5-52.8,44.9-56.2
		c-0.5-1.6-3-9.7-0.2-13.1c2.7-3.1,7.2-2.3,8.7-1.8c0.6-2.5,3-12.3,5.7-13.8c0.4-0.2,0.8-0.3,1.2-0.1c2.2,0.8,1,7-0.3,11.6
		c2.3-4,5.5-9.2,7.5-9.3c0.5,0,0.9,0.2,1.1,0.6c1.9,2.9-3.7,12-5.5,14.8c0.7,0.1,1.4,0.5,1.8,1c0.9,1.2,0.7,3.1-0.4,5.8
		c-1.9,4.3-5.1,7.9-9.2,10.3c-2.2,6.1-27,67-36.9,73.3l0,0C460,169.6,457.8,170.2,455.6,170.3z M493.6,74.6
		c-1.8-0.1-3.6,0.6-4.8,1.9c-2.8,3.3,0.4,12.3,0.4,12.4c0.1,0.2,0,0.4-0.1,0.5c-0.4,0.4-39.4,39.8-44.9,56.1
		c-3.3,9.6,0,17.7,4.7,21.4c3.5,3,8.6,3.3,12.5,0.7l0,0c10.1-6.4,36.5-72.4,36.7-73.1c0-0.1,0.1-0.2,0.2-0.3c3.9-2.3,7-5.8,8.8-9.9
		c1-2.4,1.2-4,0.5-4.9c-0.5-0.5-1.2-0.8-1.9-0.7c-0.2,0-0.4-0.1-0.4-0.2c-0.1-0.1-0.1-0.3,0-0.5c2.2-3.2,7.5-12.1,6-14.4
		c-0.1-0.2-0.2-0.2-0.3-0.2c-1.8,0.1-6.5,8.1-9,13.1c-0.1,0.2-0.4,0.3-0.6,0.2c-0.2-0.1-0.3-0.3-0.3-0.6l0,0
		c3.4-9.7,3.3-14.7,2.3-15c-0.2-0.1-0.3,0-0.5,0.1c-2.1,1.2-4.6,10.2-5.3,13.6c0,0.1-0.1,0.2-0.2,0.3c-0.1,0.1-0.3,0.1-0.4,0
		C495.9,74.7,494.7,74.6,493.6,74.6z"/>
	<path class="st1" d="M458,44.7l21.5,187.5l143.6-16.5L601.6,28.2L458,44.7z M604,154.4l-119.6,13.7L471.6,57l119.6-13.8L604,154.4z
		"/>
	<path class="st2" d="M479.6,232.6c-0.1,0-0.2,0-0.3-0.1c-0.1-0.1-0.2-0.2-0.2-0.3L457.6,44.7c0-0.2,0.1-0.5,0.4-0.5l0,0l143.6-16.5
		c0.1,0,0.2,0,0.3,0.1s0.2,0.2,0.2,0.3l21.5,187.5c0,0.3-0.2,0.5-0.4,0.5L479.6,232.6L479.6,232.6z M458.6,45.1L480,231.6
		l142.7-16.4L601.2,28.7L458.6,45.1z M484.3,168.6c-0.2,0-0.4-0.2-0.5-0.4L471.1,57.1c0-0.3,0.2-0.5,0.4-0.5l119.6-13.8
		c0.1,0,0.2,0,0.3,0.1s0.2,0.2,0.2,0.3l12.7,111.1c0,0.3-0.2,0.5-0.4,0.5L484.3,168.6L484.3,168.6z M472.1,57.5l12.6,110.2
		l118.7-13.6L590.8,43.8L472.1,57.5z"/>
	<path class="st3" d="M497,176.5c0.1-0.1,0.1-0.2,0.2-0.4c0.4-0.8,1-1.4,1.8-1.8c0.6-0.3,1.2-0.5,1.9-0.5c1.9-0.1,3.6,1.2,4,3
		c0.1,0.5,0.2,1.1,0.2,1.6s0,1.1-0.2,1.6c-0.2,0.8-0.6,1.6-1,2.3c-0.5,0.7-1,1.4-1.6,2l-3,3.3c-0.3,0.3-0.6,0.7-0.8,1l-0.1,0.1
		l-0.3-0.2c-1.2-0.9-2.4-1.7-3.7-2.6c-0.8-0.6-1.6-1.1-2.4-1.7c-0.6-0.4-1.1-0.9-1.5-1.5c-0.5-0.6-0.8-1.3-1-2
		c-0.1-0.5-0.2-1.1-0.3-1.6c-0.1-1.6,0.7-3.2,2.2-3.9s3.3-0.5,4.5,0.5c0.3,0.2,0.6,0.5,0.9,0.9C496.8,176.5,496.9,176.5,497,176.5z"
		/>
	<path class="st0" d="M525.9,185.8c-0.1,0-0.1,0-0.2,0l-2.8-1.3c-0.9,0.5-1.9,0.7-3,0.9c-2.1,0.3-4.2-0.2-5.9-1.4
		c-3-1.9-3.9-5.8-2-8.8c0.3-0.4,0.6-0.8,0.9-1.1c3-3.1,7.7-3.6,11.4-1.3c1.6,1,2.7,2.8,3,4.7c0.2,1.6-0.3,3.2-1.2,4.4l0.4,3.4
		c0,0.2,0,0.3-0.2,0.4C526.1,185.7,526,185.8,525.9,185.8z M522.8,183.5c0.1,0,0.1,0,0.2,0l2.3,1.1l-0.3-2.8c0-0.1,0-0.2,0.1-0.3
		c0.9-1.1,1.3-2.5,1.1-3.9c-0.2-1.7-1.2-3.1-2.6-4c-3.2-2.1-7.5-1.6-10.2,1.2c-2.1,2.1-2.2,5.6,0,7.7c0.3,0.3,0.7,0.6,1,0.8
		c1.6,1,3.4,1.4,5.3,1.2c1-0.1,2-0.4,2.9-0.9C522.7,183.5,522.8,183.5,522.8,183.5z"/>
	<path class="st0" d="M540.9,183.3L540.9,183.3c-0.2,0-0.4-0.1-0.4-0.3l-1.7-5.6l-6.8-2.6c-0.2-0.1-0.3-0.2-0.3-0.4s0.1-0.4,0.3-0.4
		l14.1-5.1c0.2-0.1,0.4,0,0.5,0.1s0.2,0.3,0.1,0.5l-5.4,13.5C541.2,183.2,541.1,183.3,540.9,183.3z M533.6,174.4l5.8,2.2
		c0.1,0.1,0.2,0.2,0.3,0.3l1.4,4.6l4.5-11.3L533.6,174.4z"/>
	<path class="st0" d="M539.2,177.5c-0.1,0-0.2,0-0.3-0.1c-0.2-0.2-0.2-0.5,0-0.6l0,0l7.2-7.7c0.2-0.2,0.5-0.2,0.7,0s0.2,0.5,0,0.7
		l-7.2,7.6C539.4,177.4,539.3,177.5,539.2,177.5z"/>
	<path class="st0" d="M491.6,199.6c-0.2,0-0.4-0.2-0.5-0.4c0-0.3,0.2-0.5,0.4-0.5l116-13.3c0.3,0,0.5,0.2,0.5,0.4s-0.2,0.5-0.4,0.5
		L491.6,199.6L491.6,199.6z"/>
	<path class="st0" d="M492.8,210.2c-0.2,0-0.4-0.2-0.4-0.4c0-0.3,0.1-0.5,0.4-0.5l0,0l98.6-11.3c0.3,0,0.5,0.2,0.5,0.4
		c0,0.3-0.2,0.5-0.4,0.5L492.8,210.2L492.8,210.2z"/>
	<path class="st1" d="M627.9,179.6c-9.6-23.2-13.8-55.4-13.8-55.4s-16.3-3.3-17.6-13.9s13.7-6.7,13.7-6.7c0-3.3-0.4-6.6-1.1-9.8
		c2.2,0.4,34.4,43.2,39.8,78C651.4,187.9,637.5,202.8,627.9,179.6z"/>
	<path class="st2" d="M639.3,192.1c-4.3,0-8.5-4.3-11.8-12.2l0,0c-9-21.8-13.3-51.8-13.8-55.2c-2.8-0.7-5.5-1.7-8.1-2.9
		c-5.7-2.9-9-6.8-9.5-11.3c-0.3-2.7,0.3-4.7,1.9-6c3.3-2.9,9.8-1.7,11.8-1.3c0-3.1-0.4-6.1-1.1-9.1c0-0.1,0-0.3,0.1-0.4
		s0.3-0.2,0.4-0.1c2.2,0.4,34.7,43.2,40.2,78.4c1.4,9.2-2.4,18.4-8.3,20C640.5,192,639.9,192.1,639.3,192.1z M628.4,179.5
		c3.5,8.5,8.1,12.7,12.5,11.5c5.4-1.5,8.9-10.4,7.6-19c-5-32.3-33-70.9-38.6-76.9c0.6,2.8,0.8,5.7,0.8,8.6c0,0.3-0.2,0.5-0.5,0.5
		h-0.1c-0.1,0-8-2.1-11.5,0.9c-1.3,1.1-1.8,2.9-1.6,5.2c1.2,10.2,17,13.5,17.2,13.5s0.3,0.2,0.4,0.4
		C614.6,124.5,618.9,156.6,628.4,179.5L628.4,179.5z"/>
	<path class="st2" d="M494.4,87.8L494.4,87.8c-0.3,0-0.5-0.3-0.4-0.5c0.2-1.4,0.9-2.7,2.1-3.5c0.8-0.5,1.8-0.8,2.8-0.9
		c-1.2-0.6-2.3-1.4-3.3-2.3c-0.6-0.6-0.9-1.1-0.6-1.6c0.8-1.8,8.5-1.3,10.8-1.1c0.3,0,0.4,0.2,0.4,0.5l0,0c0,0.2-0.2,0.4-0.5,0.4
		l0,0c-5-0.4-9.6-0.2-9.9,0.5c0,0,0,0.2,0.4,0.6c1.5,1.4,3.4,2.5,5.4,3c0.6,0.1,0.9,0.2,1,0.2c0.2,0.1,0.4,0.3,0.3,0.5
		c0,0.2-0.3,0.4-0.5,0.4c-0.4,0-0.7-0.1-1-0.2c-1.6-0.3-3.3-0.1-4.8,0.7c-1,0.7-1.6,1.7-1.7,2.9C494.8,87.6,494.6,87.8,494.4,87.8z"
		/>
	<path class="st0" d="M581.6,69c-0.1,0-0.2,0-0.3-0.1l-0.2-0.2c-0.9-0.9-1.8-1.7-2.7-2.6l-0.1-0.1c-0.6-0.5-1.1-1-1.6-1.6
		c-0.4-0.4-0.8-0.9-1.1-1.5s-0.5-1.3-0.6-1.9c-0.1-0.5-0.1-1,0-1.5c0.1-1.6,1.1-2.9,2.6-3.3c1.5-0.5,3.1,0,4.1,1.1
		c0.1,0.1,0.2,0.2,0.3,0.4c0.5-0.5,1-0.9,1.7-1.2c0.6-0.2,1.2-0.3,1.8-0.2c1.8,0.2,3.2,1.6,3.4,3.4c0.1,0.5,0.1,1,0,1.5
		s-0.2,0.9-0.3,1.4c-0.3,0.7-0.7,1.3-1.2,1.8s-1.1,1-1.6,1.5l-2.9,2.4l-0.6,0.5L582,69C581.9,69,581.8,69,581.6,69z M578.9,57
		c-0.3,0-0.7,0.1-1,0.1c-1.1,0.3-1.9,1.4-2,2.5c0,0.4,0,0.9,0,1.3c0.1,0.6,0.2,1.1,0.5,1.6s0.6,0.9,1,1.3c0.5,0.5,1.1,1.1,1.6,1.6
		l0.1,0.1c0.8,0.8,1.7,1.6,2.6,2.5l0.6-0.5l2.9-2.4c0.5-0.4,1.1-0.9,1.5-1.4c0.5-0.4,0.8-1,1-1.6c0.1-0.4,0.2-0.8,0.3-1.2
		s0.1-0.8,0-1.2c-0.1-0.6-0.3-1.2-0.7-1.6c-0.5-0.5-1.1-0.9-1.8-0.9c-0.5-0.1-1,0-1.4,0.2c-0.6,0.2-1.1,0.6-1.5,1.2l-0.1,0.2
		l-0.1,0.1c-0.1,0.1-0.2,0.2-0.4,0.2s-0.3-0.1-0.4-0.2l0.4-0.2l-0.4,0.2c-0.2-0.3-0.4-0.5-0.6-0.8C580.4,57.4,579.6,57,578.9,57
		L578.9,57z M581.6,58.3l0.4,0.3L581.6,58.3z"/>
	<path class="st0" d="M576.3,89.6L576.3,89.6c-0.6,0-1.1-0.3-1.3-0.7c-0.1-0.2-0.1-0.5,0.1-0.6c0.2-0.1,0.5-0.1,0.6,0.1
		s0.3,0.3,0.6,0.3l0,0c0.8-0.1,1.5-0.5,2-1.2c3.8-4.6,5.8-10.4,5.4-16.4c0-0.2,0.2-0.5,0.4-0.5l0,0c0.3,0,0.5,0.2,0.5,0.4
		c0.4,6.2-1.6,12.3-5.6,17C578.4,89,577.4,89.5,576.3,89.6z"/>
</g>
<g id="_232_designer_flatline">
	<path class="st2" d="M256,197.9c0,0,30.2-78.9,14.6-90.9s-81.4-7.2-85-2.9s-24.8,99.2-24.8,99.2L256,197.9z"/>
	<path class="st2" d="M160.8,203.8c-0.1,0-0.3-0.1-0.3-0.2c-0.1-0.1-0.1-0.3-0.1-0.4c0.9-3.9,21.3-95.1,24.9-99.4
		c2-2.4,19.5-4.6,38.3-4.8c11-0.1,37.7,0.3,47.3,7.6c6.7,5.1,6.2,22-1.2,50.4c-5.5,21-13.1,40.8-13.2,41s-0.2,0.3-0.4,0.3
		L160.8,203.8L160.8,203.8z M227,99.9h-3.5c-19.3,0.3-36,2.6-37.6,4.5c-2.8,3.3-17.2,65.5-24.6,98.5l94.3-5.4
		c1.9-5.1,29.4-78.8,14.6-90.1C264.1,102.6,248.4,99.9,227,99.9z M256,197.9L256,197.9z"/>
	<path class="st1" d="M133.2,129.7l-13.6,45.7c0,0,28.1,3.6,28.1,2.6s5.5-50.3,5.5-50.3L133.2,129.7z"/>
	<path class="st2" d="M146.3,178.6c-4.7,0-18.2-1.6-26.7-2.8c-0.3,0-0.4-0.3-0.4-0.5c0,0,0,0,0-0.1l13.6-45.7
		c0.1-0.2,0.2-0.3,0.4-0.3l20-2c0.1,0,0.3,0,0.4,0.1c0.1,0.1,0.1,0.2,0.1,0.4c-1.9,17-5.5,49.4-5.5,50.3c0,0.2-0.1,0.3-0.2,0.4
		C147.5,178.6,146.9,178.7,146.3,178.6z M147.2,178L147.2,178z M120.2,175.1c9.8,1.2,24.9,3,27.1,2.7c0.3-4,4.8-44,5.4-49.5
		l-19.1,1.9L120.2,175.1z"/>
	<path class="st1" d="M107.4,118.4c0.1,0.1,5-1.2,7.5,1.8s-0.7,5.7-8.6,4.1C98.3,122.8,107.4,118.4,107.4,118.4z"/>
	<path class="st2" d="M110.4,125.2c-1.4,0-2.9-0.2-4.3-0.4c-2.3-0.4-3.5-1.2-3.6-2.3c-0.3-2.1,3.8-4.2,4.7-4.6c0.1,0,0.2,0,0.3,0
		h0.3c1.3-0.2,5.2-0.7,7.4,2c1,1.2,1.2,2.4,0.6,3.4C115.1,124.5,113.1,125.2,110.4,125.2z M107.5,118.8c-1.8,0.9-4.2,2.5-4,3.6
		c0,0.3,0.5,1,2.8,1.5c5.3,1,8,0.1,8.7-1.1c0.3-0.8,0.1-1.7-0.5-2.3c-1.9-2.3-5.3-1.8-6.6-1.7C107.8,118.8,107.6,118.8,107.5,118.8z
		"/>
	<path class="st1" d="M95.3,108.8c0,0-1-1.1-0.4-1.9c0.5-0.6,1.3-0.6,1.9-0.1c0.1,0.1,0.2,0.2,0.3,0.3
		C97.1,107,95.5,107.6,95.3,108.8z"/>
	<path class="st2" d="M95.3,109.2c-0.1,0-0.3-0.1-0.4-0.2c-0.5-0.5-1.1-1.7-0.4-2.5c0.3-0.4,0.8-0.7,1.3-0.7c0.6,0,1.2,0.3,1.6,0.8
		c0.1,0.1,0.1,0.3,0.1,0.4s-0.1,0.3-0.3,0.3c-0.4,0.1-1.3,0.6-1.5,1.4C95.7,108.9,95.5,109,95.3,109.2L95.3,109.2z M95.9,106.8
		L95.9,106.8c-0.2,0-0.4,0.1-0.6,0.3c-0.1,0.2-0.1,0.4,0,0.7c0.3-0.3,0.6-0.6,1-0.8C96.2,106.9,96,106.9,95.9,106.8L95.9,106.8z"/>
	<path class="st1" d="M97.4,107c-1.1,0.1-2,0.9-2.2,2l19.7,25.6c0.3-2.5,2.2-4.6,4.7-4.9L97.4,107z"/>
	<path class="st2" d="M114.9,135.1c-0.1,0-0.3-0.1-0.4-0.2l-19.7-25.6c-0.1-0.1-0.1-0.3-0.1-0.4c0.3-1.3,1.4-2.3,2.7-2.4
		c0.1,0,0.3,0.1,0.3,0.1l22.2,22.8c0.1,0.1,0.2,0.3,0.1,0.5s-0.2,0.3-0.4,0.3c-2.3,0.3-4.1,2.2-4.3,4.5
		C115.3,134.9,115.1,135.1,114.9,135.1L114.9,135.1z M95.7,108.9l18.9,24.6c0.5-2,2.1-3.5,4-4.1l-21.4-22
		C96.5,107.6,95.9,108.2,95.7,108.9z"/>
	<path class="st1" d="M114.9,134.6l6.7,3.5l0.8-0.8l-2.8-7.6C119.6,129.7,114.4,129.2,114.9,134.6z"/>
	<path class="st2" d="M121.6,138.6c-0.1,0-0.2,0-0.2-0.1l-6.7-3.5c-0.1-0.1-0.2-0.2-0.3-0.4c-0.3-1.5,0.2-3,1.2-4.1
		c1.1-1,2.6-1.4,4-1.3c0.2,0,0.3,0.1,0.4,0.3l2.8,7.6c0.1,0.2,0,0.4-0.1,0.5l-0.8,0.8C121.9,138.6,121.7,138.6,121.6,138.6z
		 M115.4,134.3l6.2,3.2l0.4-0.3l-2.6-7c-1.1,0-2.2,0.3-3,1C115.5,132.1,115.2,133.2,115.4,134.3z"/>
	<polygon class="st1" points="121.6,138.1 122.9,139.5 123.5,138.8 122.5,137.4 	"/>
	<path class="st2" d="M122.9,140c-0.1,0-0.3-0.1-0.3-0.2l-1.3-1.4c-0.1-0.1-0.1-0.2-0.1-0.3s0.1-0.2,0.2-0.3l0.8-0.8
		c0.2-0.2,0.5-0.2,0.7,0l0,0l1.1,1.5c0.1,0.2,0.1,0.4,0,0.6l-0.6,0.7C123.2,139.9,123.1,140,122.9,140L122.9,140z M122.3,138.2
		l0.6,0.7l0,0L122.3,138.2L122.3,138.2z"/>
	<path class="st1" d="M108.7,136.7c1.1-2.2,3.8-6.9,4.4-8.9c1.7-5.5-8.4-10.7-11.7-10.7s-10.1,11.4-10.1,17.5s22.6,52.9,22.6,52.9
		l21.7-9.9L108.7,136.7z"/>
	<path class="st2" d="M114,188c-0.2,0-0.3-0.1-0.4-0.3c-0.9-1.9-22.7-46.9-22.7-53.1c0-6.1,6.9-18,10.6-18c2.5,0,8.4,2.7,11,6.2
		c1.2,1.4,1.6,3.3,1.1,5.1c-0.9,2.2-1.9,4.3-3.1,6.3c-0.5,0.9-0.9,1.7-1.3,2.4l26.9,40.7c0.1,0.1,0.1,0.3,0.1,0.4
		c0,0.1-0.1,0.2-0.3,0.3l-21.7,10C114.2,188,114.1,188,114,188z M101.4,117.6c-2.9,0-9.6,11-9.6,17.1c0,5.6,20.1,47.6,22.4,52.2
		l20.8-9.5L108.3,137c-0.1-0.1-0.1-0.3,0-0.5c0.3-0.7,0.9-1.6,1.4-2.7c1.1-2,2.1-4,3-6.1c0.4-1.5,0-3.1-1-4.2
		C109.1,120,103.5,117.6,101.4,117.6z"/>
	<path class="st3" d="M224.2,145.9l26.8-6.8c-0.9-1.3-11.7-35.6-23.1-41.2c-10-6.6-33.6-11-54.5-9.5c0,0-5.5-0.2-15.2,3.6
		c-23.5,9.3-28.1,41.9-28.1,41.9l18.4,6.3c0,0-3.5,42.1-6.8,64.1c0,0,40.6,7.9,99.7-1.8C241.5,202.5,224.3,152.1,224.2,145.9z"/>
	<path class="st3" d="M222,98.9c-3.5,3.7-6.3,8.1-10.2,11.5c-8.4,7.5-19.5,13.4-31,12.6c-13.6-0.8-25.4-10.2-28.4-23.7
		c-1.8-8.5,0.1-16.4,6.6-22.4c4.5-4.2,10.4-6.7,16.3-8.3c15.8-4.2,33.5-2,47,7.3c2.2,1.4,4.1,3.2,5.4,5.4c3.4,6.1-0.5,12.4-4.9,16.6
		C222.6,98.2,222.3,98.5,222,98.9z"/>
	<path class="st2" d="M175.5,108.5c-0.1,0-2.7,3.1-2.8,3.1c1.4,5.4,3,12.5,9.1,13.2c12.5,1.4,14.4-15.2,16.7-23.1
		C189.9,104.2,183.8,105.2,175.5,108.5z"/>
	<path class="st2" d="M183.3,125.4c-0.5,0-1,0-1.5-0.1c-6.1-0.7-7.9-7.3-9.3-12.7l-0.2-0.9c0-0.2,0-0.4,0.2-0.5
		c0.1-0.1,0.8-0.9,1.3-1.5c1.4-1.6,1.4-1.6,1.6-1.7l0,0c5.1-2,10.3-3.6,15.6-4.8c2.3-0.6,4.8-1.2,7.4-1.9c0.2,0,0.3,0,0.4,0.1
		c0.1,0.1,0.2,0.3,0.1,0.4c-0.3,1.2-0.7,2.5-1.1,4C196,113.7,193.1,125.4,183.3,125.4z M173.2,111.8l0.2,0.6
		c1.4,5.3,3,11.4,8.5,11.9c10.2,1.2,13.1-10.3,15.2-18.7c0.3-1.1,0.6-2.2,0.8-3.2c-2.4,0.7-4.6,1.2-6.7,1.7
		c-5.3,1.2-10.4,2.8-15.5,4.7c-0.2,0.2-0.8,0.9-1.3,1.5C173.8,111.1,173.4,111.5,173.2,111.8L173.2,111.8z M172.7,111.6L172.7,111.6
		z"/>
	<path class="st1" d="M187.6,44.4c-1.8-0.1-3,0.7-4.6,1.3c-3.1,1.1-4.5-1.5-7.2-2.9c-8.6-4.5-19.1-2.3-25.2,5.3
		c-1.8,2.2-3,4.8-3.4,7.6c-0.4,3.2,0.5,6.4,0,9.6c-0.7,3.7-3.2,6.7-6.7,8.1c2.9,0.2,5.9-0.1,8.7-0.8c-1.7,2-4.1,3.1-6.6,3.2
		c2.9,2.3,6.5,3.5,10.2,3.4l-6.5,1.5c5.5,3.5,12.2,4.6,18.7,4.3c12.9-0.7,34.6-6,34.2-22.7C199,55.9,195.5,44.8,187.6,44.4z"/>
	<path class="st2" d="M162.8,85.5c-4.9,0-11.3-0.9-16.8-4.4c-0.2-0.1-0.2-0.3-0.2-0.5s0.2-0.3,0.3-0.4l3.6-0.8
		c-2.7-0.5-5.3-1.6-7.5-3.3c-0.2-0.2-0.2-0.4-0.1-0.6c0.1-0.1,0.2-0.2,0.4-0.2c1.9,0,3.7-0.7,5.2-1.9c-2.4,0.5-4.9,0.7-7.3,0.5
		c-0.2,0-0.4-0.2-0.4-0.4c0-0.2,0.1-0.4,0.3-0.5c3.3-1.3,5.8-4.2,6.4-7.7c0.2-1.7,0.2-3.3,0.1-5c-0.1-1.5-0.1-3.1,0-4.6
		c0.4-2.9,1.6-5.6,3.5-7.9c6.2-7.7,17-10,25.8-5.4c0.8,0.4,1.5,0.9,2.2,1.5c1.5,1.1,2.7,2,4.6,1.3c0.4-0.1,0.8-0.3,1.2-0.5
		c1.1-0.6,2.4-0.9,3.6-0.9l0,0c8,0.3,11.9,11.1,12.1,18.3c0.2,7.6-4,13.6-12.4,17.8c-8.4,4.2-18.4,5.2-22.3,5.4
		C164.3,85.5,163.6,85.5,162.8,85.5z M147.5,80.9c5.9,3.4,12.7,3.9,17.5,3.7c3.8-0.2,13.6-1.1,21.9-5.3c8-4,12-9.7,11.9-17
		c-0.2-6.8-3.8-17.1-11.2-17.4c-1.1,0-2.2,0.3-3.2,0.8c-0.4,0.2-0.8,0.3-1.2,0.5c-2.4,0.8-3.9-0.3-5.4-1.5c-0.7-0.5-1.4-1-2.1-1.4
		c-8.4-4.4-18.7-2.2-24.6,5.2c-1.8,2.1-2.9,4.6-3.3,7.3c-0.1,1.5-0.1,2.9,0,4.4c0.2,1.7,0.2,3.5-0.1,5.2c-0.6,3.2-2.5,6-5.3,7.6
		c2.3,0,4.6-0.3,6.8-0.9c0.2-0.1,0.4,0,0.5,0.2s0.1,0.4,0,0.5c-1.5,1.7-3.5,2.9-5.7,3.2c2.7,1.7,5.8,2.6,8.9,2.6
		c0.2,0,0.4,0.2,0.5,0.4c0,0.2-0.1,0.5-0.3,0.5L147.5,80.9z"/>
	<path class="st1" d="M171.8,95.8l0.9,15.8c0,0,7.2,8.3,16.5,3.2c9.3-5.1,8.9-13.1,8.9-13.1l-6-29.7c0,0-8.4-1.9-10.6-18.6
		c-7.2,5.7-15.8,9.4-24.9,10.6c0,0,0.2,18.6,3.4,26C163.3,97.4,171.8,95.8,171.8,95.8z"/>
	<path class="st2" d="M183.1,116.9c-6.3,0-10.7-4.9-10.8-5s-0.1-0.2-0.1-0.3l-0.9-15.3c-1.9,0.2-8.8,0.4-11.8-6.2
		c-3.3-7.3-3.5-25.4-3.5-26.2c0-0.2,0.2-0.4,0.4-0.5c9-1.2,17.5-4.8,24.7-10.4c0.1-0.1,0.3-0.1,0.5-0.1c0.2,0.1,0.3,0.2,0.3,0.4
		c1.1,8.4,3.8,12.9,5.9,15.2c1.1,1.4,2.6,2.4,4.3,3c0.2,0,0.3,0.2,0.3,0.4l6.1,29.7c0,0.2,0.3,8.5-9.2,13.6
		C187.5,116.3,185.3,116.9,183.1,116.9z M173.1,111.4c0.9,1,7.5,7.6,15.9,3c8.9-4.9,8.7-12.6,8.7-12.7l-6.1-29.4
		c-1.5-0.5-8.4-3.6-10.5-18.1C174,59.5,165.8,63,157,64.3c0,2.8,0.5,18.8,3.4,25.4c3.1,7,10.9,5.6,11.3,5.6c0.1,0,0.3,0,0.4,0.1
		c0.1,0.1,0.2,0.2,0.2,0.3L173.1,111.4z"/>
	<path class="st1" d="M188.6,80.3c2.2,0.3,4.4-0.2,6.1-1.5c2.4-1.9,3.7-4.9,3.3-8c-0.1-1.1-0.4-2.2-0.9-3.2s-1.5-1.7-2.6-1.9
		c-1.4-0.1-2.7,0.3-3.8,1c-1.8,0.9-1.8,1.9-2.8,3.4c0.1-0.1,0.2-0.5,0.3-0.7"/>
	<path class="st2" d="M189.9,80.9c-0.4,0-0.9,0-1.3-0.1c-0.3,0-0.4-0.3-0.4-0.5s0.3-0.4,0.5-0.4l0,0c2,0.3,4.1-0.2,5.8-1.4
		c2.3-1.8,3.5-4.7,3.1-7.6c0-1.1-0.3-2.1-0.8-3s-1.3-1.5-2.3-1.7c-1.1-0.2-2.3,0.3-3.5,1c-0.9,0.4-1.6,1.2-1.9,2.1
		c-0.2,0.3-0.4,0.7-0.7,1.2c0,0,0,0.1-0.1,0.1c-0.2,0.2-0.4,0.2-0.6,0.1c-0.2-0.1-0.3-0.4-0.1-0.6l0,0c0,0,0-0.1,0.1-0.2
		c0.1-0.2,0.1-0.3,0.2-0.5c0-0.1,0.1-0.1,0.2-0.1l0.2-0.3c0.5-1.1,1.3-1.9,2.3-2.4c1.1-0.6,2.6-1.3,4.1-1.1c1.3,0.3,2.3,1,3,2.2
		c0.6,1.1,0.9,2.2,0.9,3.4c0.4,3.2-0.9,6.4-3.5,8.4C193.5,80.3,191.7,80.9,189.9,80.9z"/>
	<path class="st2" d="M172.3,104.1c3.7-0.3,7-2.3,8.8-5.5c3.2-5.4,1.9-8.9,1.9-8.9s-4.4,5.6-11.2,6L172.3,104.1z"/>
	<path class="st2" d="M172.3,104.6c-0.2,0-0.4-0.2-0.4-0.4l-0.5-8.3c0-0.3,0.2-0.5,0.4-0.5l0,0c6.6-0.4,10.9-5.8,10.9-5.8
		c0.1-0.1,0.3-0.2,0.4-0.2c0.2,0,0.3,0.1,0.4,0.3c0.1,0.1,1.3,3.7-2,9.3C179.6,102.2,176.1,104.4,172.3,104.6L172.3,104.6z
		 M172.3,96.2l0.4,7.4c3.3-0.4,6.3-2.3,8-5.2c2.2-3.7,2.2-6.4,2.1-7.6C180,93.8,176.3,95.7,172.3,96.2z"/>
	<path class="st1" d="M170.6,70.7c0,0-3.4,9.1-1.9,10.2c1.6,1.1,4.9-0.6,4.9-0.6"/>
	<path class="st2" d="M170.1,81.6c-0.6,0-1.1-0.1-1.6-0.4c-1.7-1.2,0.9-8.5,1.7-10.7c0.1-0.2,0.4-0.4,0.6-0.3
		c0.2,0.1,0.4,0.4,0.3,0.6l0,0c-1.6,4.2-2.8,9.1-2,9.6c1.1,0.8,3.5-0.2,4.4-0.7c0.2-0.1,0.5,0,0.6,0.2s0,0.5-0.2,0.6
		C172.6,81.2,171.3,81.6,170.1,81.6z"/>
	<ellipse transform="matrix(0.9515 -0.3075 0.3075 0.9515 -12.5279 57.685)" class="st2" cx="176.8" cy="68.6" rx="1.3" ry="1.9"/>
	
		<ellipse transform="matrix(0.9999 -1.361325e-02 1.361325e-02 0.9999 -0.9595 2.246)" class="st2" cx="164.5" cy="71.6" rx="1.3" ry="1.9"/>
	<path class="st2" d="M171.7,92.5c-0.9,0-1.7-0.2-2.5-0.7c-2.9-2.1-3.1-6.8-3.1-7s0.1-0.4,0.4-0.5c11.9-2.6,12-2.5,12.2-2.4
		c0.1,0.1,0.2,0.2,0.2,0.3l0,0c0.2,1.9-0.1,3.7-0.7,5.5c-0.8,2.2-2.6,3.8-4.8,4.5C172.8,92.4,172.2,92.5,171.7,92.5z M167,85.1
		c0.1,1.1,0.6,4.4,2.7,5.9c1,0.6,2.2,0.7,3.3,0.4c1.9-0.6,3.5-2.1,4.2-4c0.6-1.5,0.8-3,0.7-4.6C176.4,83.1,170.8,84.3,167,85.1
		L167,85.1z"/>
	<path class="st2" d="M177.7,87.6c-1.8,4.3-6.2,5.3-8.3,3.8c0.5-1.6,1.3-3.3,2.9-3.9C174.1,86.9,176,86.9,177.7,87.6z"/>
	<path class="st2" d="M171.7,92.5c-0.9,0-1.7-0.2-2.5-0.7c-0.2-0.1-0.2-0.3-0.2-0.5c0.6-2.2,1.7-3.7,3.2-4.2
		c1.8-0.6,3.8-0.6,5.6,0.1c0.1,0,0.2,0.1,0.3,0.2c0,0.1,0,0.2,0,0.4c-0.8,2.1-2.6,3.8-4.8,4.5C172.8,92.4,172.2,92.5,171.7,92.5z
		 M170,91.2c1,0.5,2,0.5,3,0.2c1.8-0.5,3.2-1.8,4-3.5c-1.5-0.5-3.1-0.5-4.5,0C171.4,88.3,170.6,89.4,170,91.2z"/>
	<path class="st2" d="M156.2,78c-1.3,0-2.4-0.9-2.7-2.2l-1-4.4c-0.3-1.5,0.6-3,2.1-3.3l10.2-2.2c1.5-0.3,3,0.6,3.3,2.1l0,0l0.9,4.4
		c0.3,1.5-0.6,2.9-2.1,3.3l0,0l-10.2,2.2C156.5,77.9,156.4,78,156.2,78z M165.4,66.8c-0.1,0-0.3,0-0.4,0L154.8,69
		c-1,0.2-1.6,1.2-1.4,2.2l1,4.4c0.2,1,1.2,1.6,2.1,1.4l10.2-2.3c1-0.2,1.6-1.2,1.4-2.1l-0.9-4.4C167,67.4,166.3,66.8,165.4,66.8
		L165.4,66.8z M166.9,75.2L166.9,75.2z"/>
	<path class="st2" d="M174.4,74c-0.5,0-1-0.2-1.5-0.4c-0.6-0.4-1-1-1.2-1.7l-0.9-4.4c-0.2-0.7,0-1.5,0.4-2.1s1-1.1,1.7-1.2l10.2-2.2
		c1.5-0.3,3,0.6,3.3,2.1l0,0l0.9,4.4c0.3,1.5-0.6,2.9-2.1,3.3L175,73.9C174.8,74,174.6,74,174.4,74z M183.7,62.8c-0.1,0-0.3,0-0.4,0
		L173.1,65c-0.5,0.1-0.9,0.4-1.1,0.8c-0.3,0.4-0.3,0.9-0.2,1.4l1,4.4c0.2,1,1.2,1.6,2.1,1.4l10.2-2.2l0,0c0.5-0.1,0.9-0.4,1.1-0.8
		c0.3-0.4,0.3-0.9,0.2-1.4l-0.9-4.4C185.3,63.4,184.5,62.8,183.7,62.8z"/>
	<path class="st2" d="M167.7,68.6c-0.1,0-0.2,0-0.2-0.1c-0.2-0.1-0.3-0.4-0.2-0.6c0.4-0.7,1.8-1.9,4.1-1c0.3,0.1,0.4,0.4,0.3,0.6
		c-0.1,0.3-0.4,0.4-0.6,0.3c-2.1-0.8-2.9,0.4-3,0.6C168,68.5,167.8,68.6,167.7,68.6z"/>
	<polygon class="st1" points="76.2,190.8 265,190.8 295.3,246.2 45.9,246.2 	"/>
	<path class="st0" d="M295.3,246.6H45.9c-0.2,0-0.3-0.1-0.4-0.2c-0.1-0.1-0.1-0.3,0-0.5l30.3-55.3c0.1-0.1,0.2-0.2,0.4-0.2H265
		c0.2,0,0.3,0.1,0.4,0.2l30.3,55.3c0.1,0.1,0.1,0.3,0,0.5C295.6,246.5,295.4,246.6,295.3,246.6z M46.7,245.7h247.8l-29.8-54.4H76.5
		L46.7,245.7z"/>
	<path class="st1" d="M79.1,155.1l0.4-1.7c0.9-1.7,1.9-2.9,4.3-2.9h89.9c2.2,0,4.2,1.5,4.8,3.6l14.6,50.2c0.8,2.2-0.3,4.7-2.5,5.6
		l-1.6,0.4L79.1,155.1z"/>
	<path class="st2" d="M189,210.7c-0.1,0-0.1,0-0.2,0L78.9,155.5c-0.2-0.1-0.3-0.3-0.2-0.5l0.4-1.7v-0.1c0.9-1.7,2-3.2,4.7-3.2h89.9
		c2.4,0,4.6,1.6,5.3,3.9l14.6,50.3c0.9,2.5-0.4,5.2-2.8,6.2L189,210.7L189,210.7z M79.7,154.9l109.5,54.9l1.4-0.3
		c2.2-0.9,2.7-3.2,2.1-5l-14.6-50.2c-0.6-1.9-2.4-3.3-4.4-3.3H83.8c-2,0-2.9,0.9-3.9,2.6L79.7,154.9z"/>
	<path class="st2" d="M189,210.3H97.3c-1.3,0-2.4-0.9-2.8-2.1l-15.4-53c-0.2-0.7,0.2-1.5,0.9-1.7c0.1,0,0.2-0.1,0.4-0.1h94.2
		l15.9,54.8c0.2,0.8-0.2,1.7-1.1,2C189.4,210.3,189.2,210.3,189,210.3z"/>
	<path class="st2" d="M189,210.7H97.3c-1.5,0-2.8-1-3.2-2.4l-15.4-53c-0.3-1,0.3-2,1.3-2.3c0.2,0,0.3-0.1,0.5-0.1h94.2
		c0.2,0,0.4,0.1,0.4,0.3l16,54.8c0.3,1.1-0.3,2.2-1.4,2.5C189.4,210.7,189.2,210.7,189,210.7L189,210.7z M80.4,153.9
		c-0.5,0-0.9,0.4-0.9,0.9c0,0.1,0,0.2,0,0.2l15.4,53c0.3,1,1.3,1.8,2.4,1.8H189c0.4,0,0.7-0.2,0.9-0.4c0.2-0.3,0.3-0.7,0.2-1
		l-15.9-54.5H80.4z"/>
	<path class="st1" d="M173.7,187.7l-5.6,23.7c-0.6,2.6-2.9,4.5-5.6,4.5h-58c-3.2,0-5.8-2.6-5.8-5.8c0-0.4,0.1-0.9,0.2-1.3l4.9-21.1
		H99l-4.7,20c-1.3,5.6,2.2,11.3,7.9,12.6c0.8,0.2,1.6,0.3,2.4,0.3h58c4.8,0,9-3.3,10.2-8l5.8-24.8L173.7,187.7L173.7,187.7z"/>
	<path class="st2" d="M162.5,221h-58c-6,0-11-4.9-11-11c0-0.8,0.1-1.7,0.3-2.5l4.7-20c0.1-0.2,0.2-0.4,0.4-0.3h4.8
		c0.1,0,0.3,0.1,0.4,0.2c0.1,0.1,0.1,0.3,0.1,0.4l-4.9,21.1c-0.7,2.9,1.1,5.7,4,6.4c0.4,0.1,0.8,0.1,1.2,0.1h58
		c2.5,0,4.6-1.7,5.2-4.1l5.6-23.7c0-0.2,0.2-0.4,0.4-0.3h4.8c0.3,0,0.5,0.2,0.5,0.5v0.1l-5.8,24.8C172,217.6,167.6,221.1,162.5,221z
		 M99.3,188.2l-4.6,19.6c-1.3,5.4,2.1,10.8,7.5,12.1c0.8,0.2,1.5,0.3,2.3,0.3h58c4.7,0,8.7-3.2,9.8-7.7l5.7-24.2h-3.9l-5.5,23.3
		c-0.6,2.8-3.2,4.8-6.1,4.8h-58c-3.4,0-6.2-2.8-6.2-6.2c0-0.5,0.1-1,0.2-1.4l4.8-20.5L99.3,188.2z"/>
	<path class="st1" d="M248.5,139.3c0,0,8.2,36.5,1.5,45.8s-53.7,7.8-53.7,7.8s-7.6,9.1-14.2,8.5c-6.6-0.6-2.8-13.1,5-18.3l-1.1-4.3
		l41.4-6.6l-5.5-26.2"/>
	<path class="st2" d="M182.7,202c-0.2,0-0.5,0-0.7,0c-1.8-0.1-3.2-1.4-3.6-3.1c-1-4.1,2.3-11.8,8.1-15.9l-1-4c0-0.1,0-0.3,0.1-0.4
		c0.1-0.1,0.2-0.2,0.3-0.2l40.9-6.6l-5.4-25.7c-0.1-0.2,0.1-0.5,0.4-0.5l0,0c0.2-0.1,0.5,0.1,0.5,0.3l0,0l5.5,26.2
		c0,0.1,0,0.3-0.1,0.4c-0.1,0.1-0.2,0.2-0.3,0.2l-40.9,6.6l0.9,3.9c0,0.2,0,0.4-0.2,0.5c-5.6,3.8-9,11.3-8,15.1
		c0.3,1.3,1.4,2.3,2.8,2.4c6.3,0.6,13.8-8.3,13.8-8.4c0.1-0.1,0.2-0.2,0.4-0.2c0.5,0,46.8,1.3,53.3-7.7s-1.5-45-1.6-45.4
		c-0.1-0.3,0.1-0.5,0.4-0.6c0.3-0.1,0.5,0.1,0.6,0.4c0.3,1.5,8.2,36.7,1.4,46.1c-6.6,9.2-49.9,8.2-53.9,8
		C195.4,194.7,188.8,202,182.7,202z"/>
	<path class="st2" d="M199.2,121.3c-0.1,0-0.1,0-0.2-0.1c-0.2-0.1-0.3-0.4-0.2-0.6l0,0c6.7-13.8,23.8-23,24-23.1s0.5,0,0.6,0.2l0,0
		c0.1,0.2,0,0.5-0.2,0.6l0,0c-0.2,0.1-17,9.2-23.5,22.7C199.6,121.2,199.4,121.3,199.2,121.3z"/>
	<path class="st2" d="M170.9,120.6c-0.1,0-0.1,0-0.2,0c-16-7.3-17.9-23.5-18-23.6c0-0.3,0.2-0.5,0.4-0.5c0.3,0,0.5,0.2,0.5,0.4l0,0
		c0,0.2,1.9,15.8,17.4,22.8c0.2,0.1,0.3,0.4,0.2,0.6C171.3,120.5,171.1,120.7,170.9,120.6z"/>
	<path class="st2" d="M98,141.5c-0.3-0.1-0.4-0.3-0.3-0.6c0-0.2,0.2-0.3,0.3-0.3c6.9-0.2,10.3-4.1,10.3-4.2c0.2-0.2,0.5-0.2,0.7-0.1
		l0,0c0.2,0.2,0.2,0.5,0.1,0.7C108.9,137.2,105.4,141.3,98,141.5L98,141.5z"/>
	<path class="st2" d="M221.8,146.5c-0.2,0-0.4-0.1-0.5-0.4c0-0.2-4.3-17.1-4.9-27.2c0-0.3,0.2-0.5,0.4-0.5l0,0
		c0.3,0,0.5,0.2,0.5,0.4c0.6,10.1,4.9,26.9,4.9,27.1C222.3,146.2,222.1,146.4,221.8,146.5L221.8,146.5z"/>
	<path class="st2" d="M147.8,149.5L147.8,149.5c-0.3,0-0.5-0.2-0.4-0.5l0,0l2.3-35.7c0-0.3,0.2-0.5,0.5-0.4l0,0
		c0.3,0,0.5,0.2,0.4,0.5l0,0l-2.3,35.7C148.3,149.3,148.1,149.5,147.8,149.5z"/>
	<path class="st2" d="M229.1,129.5c-0.2,0-0.3-0.1-0.4-0.2l-4.4-8.3c0-0.1,0-0.3,0-0.4s0.1-0.2,0.2-0.3l13.8-6.5
		c0.2-0.1,0.5,0,0.6,0.2l0,0c0.1,0.2,0,0.5-0.2,0.6l-13.4,6.3l4,7.5l13.5-4.1c0.3-0.1,0.5,0.1,0.6,0.3c0.1,0.3-0.1,0.5-0.3,0.6
		l-13.9,4.3H229.1z"/>
	<ellipse class="st1" cx="241.1" cy="227.5" rx="22.7" ry="6.8"/>
	<path class="st0" d="M241.1,234.8c-13,0-23.1-3.2-23.1-7.3s10.2-7.3,23.1-7.3s23.1,3.2,23.1,7.3S254,234.8,241.1,234.8z
		 M241.1,221.1c-13.3,0-22.2,3.3-22.2,6.4c0,3.1,8.9,6.4,22.2,6.4s22.2-3.3,22.2-6.4C263.3,224.4,254.3,221.1,241.1,221.1z"/>
	<path class="st1" d="M224,208l-0.5,0.1c-1.6,0.2-3.1,1.1-4.2,2.4c-1.2,1.8-1.3,4.2-0.1,6.1c2.4,4.3,8.3,5.5,12.8,6
		c0.6,0.1,1.3,0.1,1.9-0.1c0.6-0.2,1-0.8,1.1-1.5c-0.1-0.5-0.4-1-0.9-1.2s-1-0.4-1.5-0.4c-2.8-0.5-5.8-0.8-8.3-2.1
		c-1.5-0.8-3.6-2.5-2.5-4.4c0.4-0.6,0.9-1.1,1.6-1.3c2.6-1.2,5-0.3,7.6,0.5c0.2,0.1,0.4,0.1,0.6,0.1c0.5-0.1,0.8-0.6,0.7-1.1
		c-0.1-1.1-1.2-1.8-2.2-2.2C228,207.9,225.9,207.7,224,208z"/>
	<path class="st2" d="M232.6,223c-0.3,0-0.5,0-0.8,0c-6.9-0.7-11.2-2.7-13.1-6.2c-1.2-2.1-1.1-4.6,0.2-6.6c1.1-1.4,2.7-2.3,4.5-2.5
		l0.6-0.1l0,0c2.1-0.3,4.2-0.1,6.1,0.7c0.9,0.3,2.4,1.1,2.5,2.6c0.1,0.8-0.4,1.5-1.1,1.6c-0.3,0-0.5,0-0.8-0.1l-0.7-0.2
		c-2.3-0.7-4.4-1.3-6.6-0.3c-0.6,0.2-1.1,0.6-1.4,1.2c-0.2,0.4-0.3,0.9-0.2,1.3c0.5,1.1,1.4,1.9,2.5,2.4c2.3,1,4.7,1.6,7.2,1.9
		l1,0.2c0.6,0.1,1.1,0.2,1.6,0.5c0.9,0.4,1.4,1.4,1.1,2.4c-0.2,0.6-0.7,1-1.3,1.1C233.5,223,233.1,223.1,232.6,223z M224,208.5
		l-0.5,0.1c-1.5,0.2-2.9,1-3.9,2.2c-1.1,1.7-1.1,3.9-0.1,5.6c1.8,3.2,5.9,5.1,12.4,5.7c0.6,0.1,1.1,0.1,1.7-0.1
		c0.4-0.1,0.7-0.5,0.8-1c-0.1-0.4-0.3-0.7-0.6-0.8c-0.4-0.2-0.9-0.3-1.3-0.4l-1-0.2c-2.6-0.3-5.1-0.9-7.4-2c-1.3-0.6-2.4-1.7-2.9-3
		c-0.2-0.7-0.1-1.4,0.3-2c0.4-0.7,1-1.2,1.8-1.5c2.5-1.2,4.9-0.5,7.2,0.2l0.7,0.2c0.1,0,0.3,0.1,0.4,0.1c0.2,0,0.4-0.4,0.3-0.7
		c-0.1-1-1.4-1.6-1.9-1.8C227.9,208.4,225.9,208.2,224,208.5L224,208.5z"/>
	<path class="st1" d="M226.1,203.3c0,0,4.2,21.2,4.6,22.5c0.3,1.3,10.4,6.5,18.4,1.4l7-21.6L226.1,203.3z"/>
	<path class="st2" d="M241.2,229.9c-2.4,0-4.8-0.5-7-1.3c-1.8-0.7-3.8-1.8-4-2.6c-0.3-1.3-4.4-21.6-4.6-22.5
		c-0.1-0.2,0.1-0.5,0.3-0.5c0.1,0,0.1,0,0.2,0l29.9,2.2c0.2,0,0.4,0.2,0.4,0.5v0.1l-7,21.6c0,0.1-0.1,0.2-0.2,0.2
		C246.9,229.1,244.1,229.9,241.2,229.9z M226.7,203.9c0.7,3.4,4.2,20.7,4.5,21.8c0.1,0.3,1.8,1.5,4.7,2.4c2.8,0.8,8,1.8,12.9-1.2
		l6.8-20.9L226.7,203.9z"/>
	
		<ellipse transform="matrix(4.100203e-02 -0.9992 0.9992 4.100203e-02 27.4632 436.5326)" class="st2" cx="241.1" cy="204" rx="6.5" ry="15"/>
	<path class="st2" d="M242.3,211c-0.5,0-1,0-1.5,0c-8.7-0.3-15.3-3.7-15.2-7.6c0.2-3.9,7.1-6.7,15.7-6.3c8.7,0.4,15.3,3.7,15.2,7.6
		c-0.1,1.9-1.8,3.7-4.9,4.8C248.6,210.5,245.5,211,242.3,211z M240,197.9c-7.3,0-13.3,2.4-13.4,5.5c-0.1,3.3,6.4,6.3,14.3,6.6
		c3.6,0.2,7.2-0.3,10.5-1.5c2.7-1,4.2-2.5,4.3-4c0.1-3.3-6.4-6.3-14.3-6.6H240z"/>
	<rect x="45.9" y="246.2" class="st1" width="249.4" height="9.6"/>
	<path class="st0" d="M295.3,256.2H45.9c-0.3,0-0.5-0.2-0.5-0.5v-9.6c0-0.3,0.2-0.5,0.5-0.5h249.4c0.3,0,0.5,0.2,0.5,0.5v9.6
		C295.7,256,295.5,256.2,295.3,256.2z M46.4,255.3h248.5v-8.7H46.3L46.4,255.3z"/>
	<path class="st1" d="M256,156.4L256,156.4c-0.3,0-0.5-0.2-0.4-0.5c0-1.1,0.7-25.9,3.4-34.6c2.7-8.6,7.9-12.2,8.1-12.4
		c0.2-0.1,0.5-0.1,0.6,0.1s0.1,0.5-0.1,0.6c-0.1,0-5.1,3.5-7.7,11.9s-3.4,34.1-3.4,34.3C256.5,156.2,256.3,156.4,256,156.4
		L256,156.4z"/>
</g>
</svg>
