<?xml version="1.0" encoding="utf-8"?>
<!-- Generator: Adobe Illustrator 25.0.0, SVG Export Plug-In . SVG Version: 6.00 Build 0)  -->
<svg version="1.1" id="Layer_1" xmlns="http://www.w3.org/2000/svg" xmlns:xlink="http://www.w3.org/1999/xlink" x="0px" y="0px"
	 viewBox="0 0 350.8 438.9" style="enable-background:new 0 0 350.8 438.9;" xml:space="preserve">
<style type="text/css">
	.st0{fill:#E6E7E8;}
	.st1{fill:#FFFFFF;}
	.st2{fill:#231F20;}
	.st3{fill:#00ADEE;}
	.st4{fill:none;}
	.st5{fill:#D1D3D4;}
	.st6{stroke:#000000;stroke-width:0.4;stroke-miterlimit:10;}
</style>
<g id="_508_team_work_flatline">
	<ellipse class="st0" cx="99.5" cy="426.9" rx="43.9" ry="5.9"/>
	<ellipse class="st0" cx="290.1" cy="426.9" rx="43.9" ry="5.9"/>
	<path class="st1" d="M97,406.9c0,0,7.6,23.3,9,22.9s28.5-16.2,27.6-18.9c-0.9-2.7-19.8,2.9-19.8,2.9l-4.2-12.6"/>
	<path class="st2" d="M106,430.4c-0.1,0-0.2,0-0.4-0.1c-1.7-0.8-7-16.5-9.1-23.2c-0.1-0.3,0.1-0.7,0.4-0.8l0,0
		c0.3-0.1,0.7,0.1,0.8,0.4c3.3,9.9,7.2,20.9,8.5,22.4c3.7-1.6,26.8-15.7,27-18.1c-0.3-1-8.5,0.2-19,3.4c-0.3,0.1-0.6-0.1-0.7-0.4
		l-4.3-12.6c-0.1-0.3,0.1-0.7,0.4-0.8c0.3-0.1,0.7,0.1,0.8,0.4l4.1,12c17-5,19.6-3.3,19.9-2.4c0.2,0.7,0.7,2.2-13.2,11
		c-6.8,4.3-14,8.4-14.8,8.6C106.2,430.4,106.1,430.4,106,430.4z"/>
	<path class="st1" d="M64.7,367.9c0,0-15.7,0.2-16.2,1.6c-0.4,1.3-5.2,26.3-0.9,24.3c4.3-2.1,11.2-16.2,11.2-16.2l7.9-1.2
		L64.7,367.9z"/>
	<path class="st2" d="M47.2,394.4c-0.3,0-0.6-0.1-0.9-0.3c-2.9-2.6,1.4-23.9,1.7-24.8c0.1-0.4,0.6-1.7,16.7-2c0.3,0,0.5,0.2,0.6,0.5
		l2,8.4c0,0.2,0,0.3-0.1,0.5c-0.1,0.1-0.2,0.2-0.4,0.3l-7.6,1.2c-1,2.1-7.2,14.2-11.4,16.2C47.7,394.3,47.4,394.4,47.2,394.4z
		 M49.1,369.7c-0.6,2.2-4,21.6-2,23.4c0,0,0.1,0.1,0.3,0c3.3-1.6,9-12,10.9-15.9c0.1-0.2,0.2-0.3,0.4-0.3l7.2-1.2l-1.8-7.3
		C57.4,368.6,50.1,369.1,49.1,369.7z"/>
	<path class="st1" d="M154.1,184l6.7-3.9c0,0,1.9-6.1,3.8-7.5s4.5,0.5,4.5,0.5s6.9-5.8,8.6-5.6s-0.5,3.2-2.2,4.7l-3.6,3.1
		c0,0,3.1,6.4,1.3,8.9s-16.5,10.3-16.5,10.3L154.1,184z"/>
	<path class="st2" d="M156.8,195.2c-0.1,0-0.2,0-0.3,0c-0.2-0.1-0.3-0.2-0.3-0.4l-2.7-10.6c-0.1-0.3,0-0.5,0.3-0.7l6.5-3.7
		c0.4-1.2,2.1-6.2,3.9-7.6c1.8-1.4,4-0.3,4.9,0.3c2-1.6,7-5.6,8.7-5.5c0.5,0,0.9,0.3,1.1,0.8c0.5,1.4-2.1,4.1-3,4.9l-3.3,2.8
		c0.7,1.6,2.8,6.7,1.1,9.1c-1.8,2.4-15.2,9.7-16.7,10.5C156.9,195.2,156.8,195.2,156.8,195.2z M154.8,184.3l2.4,9.4
		c4.4-2.4,14.2-7.9,15.5-9.8s-0.6-6.6-1.4-8.4c-0.1-0.2-0.1-0.5,0.1-0.7l3.6-3.1c1.6-1.4,2.8-3.2,2.6-3.6c-0.9-0.1-5,2.8-8.2,5.5
		c-0.2,0.2-0.5,0.2-0.7,0c0,0-2.3-1.7-3.8-0.5s-3,5.6-3.6,7.2c0,0.1-0.1,0.3-0.3,0.3L154.8,184.3z"/>
	<path class="st3" d="M72.7,223.4c5.3,2.9,81.1-41.4,81.1-41.4l11.3,11.7l-76.8,55.7L72.7,223.4z"/>
	<path class="st3" d="M98.3,222.6c0,0-45.1,0-56.8,9.3c-8.6,6.9-10.2,54.7-10.2,54.7l86.2-6.7C117.4,279.9,122.4,229.4,98.3,222.6z"
		/>
	<path class="st2" d="M104.8,250.6c-0.3,0-0.6-0.2-0.6-0.6l0,0v-23.5c0-0.3,0.2-0.5,0.6-0.5c0.3,0,0.5,0.2,0.5,0.5V250
		C105.4,250.3,105.1,250.6,104.8,250.6z"/>
	<path class="st1" d="M202.5,349.1c-0.7-0.6-27.5-3.3-29.2-2.8s-8.4,22.6-8.2,24.5c0.2,3.8,15-11.4,15-11.4l22.4,4.5"/>
	<path class="st2" d="M165.6,372c-0.1,0-0.2,0-0.4,0c-0.4-0.2-0.7-0.6-0.7-1.1c-0.1-1.4,6.3-24.4,8.7-25.1
		c1.7-0.5,28.7,2.1,29.7,2.9c0.3,0.2,0.3,0.6,0.1,0.8c-0.2,0.2-0.5,0.3-0.8,0.1c-1.9-0.7-27.2-3.1-28.7-2.8
		c-1.4,1.1-7.9,22.1-7.8,23.9c1.2,0.4,8.2-5.8,14-11.7c0.1-0.1,0.4-0.2,0.6-0.2l22.4,4.5c0.3,0.1,0.5,0.4,0.5,0.7
		c-0.1,0.3-0.4,0.5-0.7,0.5l0,0l-22.1-4.4C176.6,363.9,168.4,372,165.6,372z"/>
	<path class="st1" d="M301.7,402.3c0,0.8,7.3,24.1,9.4,24.5s32.1-9.1,29.6-10.8c-2.5-1.7-16-0.4-16-0.4l-7.2-19.4"/>
	<path class="st2" d="M311.1,427.5H311c-2.8-0.5-9.9-24.8-9.9-25.1c0-0.3,0.2-0.6,0.6-0.6c0.3,0,0.6,0.2,0.6,0.6
		c0.3,2.1,7.2,23.1,9,24c0.8,0.1,7.1-1.6,14.8-4.1c8.4-2.8,13-4.8,14-5.7c-2.2-0.9-10.3-0.6-15.4-0.2c-0.3,0-0.5-0.1-0.6-0.4
		l-7.2-19.4c-0.2-0.3,0-0.7,0.3-0.8c0.3-0.2,0.7,0,0.8,0.3v0.1l7.1,19c2.7-0.2,13.6-1,16,0.6c0.4,0.2,0.5,0.7,0.3,1.1
		C340.2,419.6,313.7,427.5,311.1,427.5z"/>
	<path class="st2" d="M270.1,290.6c0,0-11.8,88.6-23.9,85.9s-60.5-13-60.5-13l4.4-19.1c0,0,34.5,3.7,39,4c4.6,0.3,1.4-61.8,1.4-61.8
		L270.1,290.6z"/>
	<path class="st2" d="M246.7,377.2c-0.2,0-0.5,0-0.7-0.1c-12-2.7-60-12.9-60.5-13c-0.2,0-0.3-0.1-0.4-0.3c-0.1-0.1-0.1-0.3-0.1-0.5
		l4.4-19.1c0.1-0.3,0.3-0.5,0.6-0.5s34.5,3.7,39,4c2.4-1.2,2.2-32,0.7-61.2c0-0.2,0.1-0.3,0.2-0.5c0.1-0.1,0.3-0.2,0.5-0.2l39.7,4
		c0.2,0,0.3,0.1,0.4,0.2s0.1,0.3,0.1,0.4c-0.4,3.2-10.5,77.8-21.8,85.8C248.3,376.9,247.5,377.2,246.7,377.2z M186.4,363.1
		c5.6,1.2,48.7,10.4,59.9,12.9c0.7,0.1,1.4-0.1,1.9-0.5c10.4-7.3,20.2-77,21.2-84.3l-38.4-3.9c0.4,8.5,2.7,57.6-1.1,61.4
		c-0.2,0.3-0.6,0.4-0.9,0.4c-4.2-0.3-34.2-3.5-38.5-3.9L186.4,363.1z"/>
	<polygon class="st2" points="259.4,297.6 300.9,415.2 324.3,402.6 288.5,290.6 	"/>
	<path class="st2" d="M300.9,415.8c-0.1,0-0.1,0-0.2,0c-0.2-0.1-0.3-0.2-0.4-0.4l-41.6-117.6c-0.1-0.2-0.1-0.3,0-0.5
		c0.1-0.1,0.2-0.3,0.4-0.3l29.1-6.9c0.3-0.1,0.6,0.1,0.7,0.4l35.9,112c0.1,0.3,0,0.6-0.3,0.7l-23.4,12.5
		C301.1,415.8,301,415.8,300.9,415.8z M260.1,298l41.1,116.3l22.3-12l-35.5-111L260.1,298z"/>
	<path class="st3" d="M293.5,243.9l14.6-4.8c-0.7-1-8-23.5-16.7-27.8c-7.6-5-21.7-4.1-37.6-3c-5.1,0.3-10.1,1.3-14.9,3.1
		c-17.9,7.2-20.5,30.8-20.5,30.8L235,248c0,0-2.7,32.1-5.2,48.9c0,0,20.2,7.7,65.3,0.2C294.9,297,293.6,248.6,293.5,243.9z"/>
	<polygon class="st2" points="274.6,217.3 258.5,254.2 254.5,218.6 	"/>
	<path class="st2" d="M258.5,254.8L258.5,254.8c-0.4,0-0.6-0.3-0.6-0.5l-4-35.6c0-0.2,0-0.3,0.1-0.4c0.1-0.1,0.3-0.2,0.4-0.2
		l20.1-1.3c0.2,0,0.4,0.1,0.5,0.3s0.1,0.4,0.1,0.6L259,254.6C259,254.7,258.7,254.8,258.5,254.8z M255.2,219.2l3.6,32.7l14.9-33.9
		L255.2,219.2z"/>
	<path class="st1" d="M283.1,171c-4.1-4.7-10.6-6.4-16.5-4.5c-5.1,1.7-9.8,4.5-14.9,6.1s-11.2,1.9-15.4-1.4c0.1,4.8,4.1,8.6,8.8,8.5
		c0.4,0,0.8,0,1.1-0.1c-0.2,1.2-1.8,1.4-3,1.1c-1.2-0.3-2.6-0.5-3.4,0.4c-0.4,0.6-0.4,1.4-0.2,2.1c0.9,2.9,3.5,4.8,6,6.5
		c3.6,2.5,7.2,3,10.8,4.7c3.9,1.8,6.8,4.4,11.2,5c4,0.5,8.1-0.5,11.5-2.8c2.1-1.5,6.3-3.5,5.5-6.7c-0.4-1.5,2.2-4.4,2.4-6.6
		C287.6,178.8,286.1,174.3,283.1,171z"/>
	<path class="st2" d="M269.8,200.1c-0.7,0-1.5,0-2.2-0.2c-2.9-0.5-5.6-1.6-8-3.2c-1.1-0.6-2.2-1.2-3.4-1.8c-1.3-0.6-2.7-1.1-4-1.6
		c-2.4-0.7-4.7-1.8-6.9-3.2c-2.8-1.9-5.3-3.9-6.2-6.8c-0.3-0.9-0.3-1.9,0.3-2.7c0.7-0.8,1.8-1.1,2.8-0.9c-1.2-0.4-2.3-1-3.2-1.8
		c-2.1-1.7-3.3-4.2-3.3-6.9c0-0.2,0.1-0.4,0.3-0.5s0.4-0.1,0.6,0.1c5,3.9,12.1,2.2,14.9,1.4c2.5-0.8,5-1.8,7.4-2.9
		c2.4-1.2,4.9-2.2,7.5-3.1c6.1-2,12.8-0.2,17.1,4.7l0,0c3.1,3.5,4.7,8.1,4.3,12.8c-0.2,1.3-0.7,2.5-1.4,3.6c-0.6,1-1.2,2.2-1,2.8
		c0.8,3.1-2.3,5.1-4.6,6.6c-0.4,0.3-0.8,0.5-1.1,0.8C276.7,199,273.3,200.1,269.8,200.1z M241.5,181c-0.4,0-0.8,0.1-1.1,0.4
		c-0.2,0.5-0.3,1.1-0.1,1.6c0.8,2.6,3.2,4.4,5.7,6.2c2,1.3,4.3,2.3,6.6,3c1.4,0.5,2.8,1,4.2,1.6c1.2,0.6,2.4,1.2,3.5,1.9
		c2.3,1.5,4.9,2.6,7.6,3.1c3.9,0.5,7.8-0.5,11-2.7c0.3-0.3,0.8-0.5,1.2-0.8c2.1-1.4,4.7-3,4.1-5.3c-0.3-1,0.4-2.2,1.2-3.6
		c0.6-1,1-2.1,1.2-3.2c0.4-4.3-1-8.6-3.9-11.8l0,0c-3.9-4.5-10.2-6.2-15.8-4.3c-2.5,0.9-5,1.9-7.4,3c-2.5,1.2-5,2.2-7.6,3.1
		c-5.8,1.8-11.1,1.5-14.9-0.8c0.3,1.9,1.3,3.6,2.8,4.8c1.7,1.5,4.1,2.2,6.4,1.8c0.2,0,0.4,0,0.5,0.2c0.2,0.1,0.2,0.3,0.2,0.5
		c-0.1,0.5-0.4,0.9-0.8,1.2c-0.9,0.5-1.9,0.6-2.9,0.4C242.6,181.1,242.1,181,241.5,181z"/>
	<path class="st1" d="M257.4,207.3l-2.9,11.4c0,0,3.2,7.4,10.9,6c7.7-1.4,9.2-7.2,9.2-7.2l1.3-12.2l0.8-7.5c0.2-0.8,0.3-1.6,0.3-2.4
		c-0.5-1.7-2.6-2.6-3.2-4.4c-1.2-3.5-1.1-7.4,0.5-10.9c-3.2,2.6-6.9,5.2-11,4.9c0.8-0.9,1.6-1.8,2.2-2.8l-8,2.9
		c-1,0.3-2.1,0.6-3.2,0.8c-1.2,0.2-0.7-0.5-1.6,0.9c-2.2,3.6-2.6,9.8-2.1,13.9C251.1,206.5,257.4,207.3,257.4,207.3z"/>
	<path class="st2" d="M263.4,225.4c-6.6,0-9.4-6.4-9.5-6.5c0-0.1,0-0.3,0-0.4l2.7-10.8c-1.7-0.4-6.2-2-6.8-7.2
		c-0.5-4.2-0.2-10.5,2.2-14.3l0.1-0.1c0.6-0.9,0.7-1.2,1.4-1.1c0.2,0,0.4,0,0.6,0c1.1-0.2,2.1-0.4,3.1-0.7l8-2.9
		c0.2-0.1,0.5,0,0.7,0.2c0.1,0.2,0.1,0.5,0,0.7c-0.4,0.7-0.9,1.3-1.4,1.9c3.4-0.3,6.6-2.6,9.3-4.8c0.2-0.2,0.5-0.2,0.7,0
		s0.3,0.5,0.2,0.7c-1.5,3.3-1.6,7-0.4,10.4c0.3,0.8,0.9,1.5,1.5,2c0.8,0.7,1.4,1.5,1.8,2.5c0.1,0.6,0,1.3-0.1,1.9
		c0,0.2-0.1,0.5-0.1,0.6l-2.1,19.8c0,0-1.6,6.2-9.7,7.8C264.9,225.3,264.1,225.4,263.4,225.4z M255.1,218.6
		c0.6,1.1,3.6,6.7,10.2,5.4c7.2-1.4,8.7-6.7,8.8-6.8l2.1-19.7c0-0.2,0.1-0.5,0.1-0.7c0.1-0.4,0.2-0.9,0.2-1.4
		c-0.3-0.8-0.8-1.4-1.5-2c-0.8-0.7-1.4-1.5-1.8-2.4c-1-3-1.1-6.3-0.3-9.3c-2.8,2.1-6.1,4-9.7,3.8c-0.2,0-0.4-0.2-0.5-0.4
		s0-0.5,0.1-0.6c0.4-0.4,0.7-0.8,1.1-1.2l-6.2,2.2c-1,0.4-2.1,0.6-3.2,0.8c-0.3,0-0.6,0-0.9,0l-0.3,0.5l-0.1,0.1
		c-2.1,3.3-2.5,9.2-2,13.5c0.6,5.4,6.2,6.2,6.4,6.2c0.2,0,0.3,0.1,0.4,0.3c0.1,0.1,0.1,0.3,0.1,0.5L255.1,218.6z"/>
	<path class="st2" d="M255.9,213.3c2.6,0.6,5.4-0.1,7.4-1.9c3.5-3.1,3.4-5.8,3.4-5.8c-2.8,1.7-6.1,2.3-9.2,1.7L255.9,213.3z"/>
	<path class="st2" d="M257.9,214.1c-0.7,0-1.4-0.1-2.1-0.3c-0.3-0.1-0.5-0.4-0.4-0.7l1.5-6c0.1-0.3,0.4-0.5,0.7-0.4l0,0
		c3,0.6,6.2,0,8.8-1.6c0.3-0.2,0.6-0.1,0.8,0.1c0.1,0.1,0.1,0.2,0.1,0.3s0.1,3-3.6,6.3C262.1,213.3,260,214.1,257.9,214.1z
		 M256.7,212.8c2.3,0.4,4.6-0.3,6.3-1.9c1.4-1.1,2.4-2.6,3-4.2c-2.5,1.3-5.3,1.7-8,1.3L256.7,212.8z"/>
	<path class="st1" d="M262.2,189.4c0,0-4.4,5.6-3.6,6.7s3.6,0.6,3.6,0.6"/>
	<path class="st2" d="M260.9,197.5c-1,0.1-2-0.2-2.8-0.9c-0.9-1.2,1.4-4.8,3.6-7.4c0.2-0.3,0.6-0.3,0.8-0.1l0,0
		c0.3,0.2,0.3,0.6,0.1,0.8c-2.1,2.6-3.7,5.4-3.6,6c0.5,0.6,2.2,0.5,3,0.4c0.3-0.1,0.6,0.2,0.7,0.5s-0.2,0.6-0.5,0.7l0,0
		C261.8,197.4,261.3,197.5,260.9,197.5z"/>
	<ellipse transform="matrix(1 -4.188741e-03 4.188741e-03 1 -0.791 1.1201)" class="st2" cx="267" cy="189.4" rx="1" ry="1.4"/>
	<ellipse transform="matrix(0.2905 -0.9569 0.9569 0.2905 2.2969 380.4587)" class="st2" cx="257.7" cy="188.7" rx="1.4" ry="1"/>
	<path class="st2" d="M261.3,201.9c-3-0.1-5.8-1.1-8.2-2.9c-0.3-0.2-0.3-0.6-0.2-0.8c0.2-0.3,0.6-0.3,0.8-0.2c0,0,0,0,0.1,0
		c0.3,0.2,6.8,5.2,12.4,1c0.2-0.2,0.6-0.2,0.8,0c0.2,0.2,0.2,0.6,0,0.8l-0.1,0.1C265.3,201.3,263.4,201.9,261.3,201.9z"/>
	<path class="st1" d="M273.7,194.3c0.9-0.9,2.2-1.4,3.4-1.4c1.3,0.1,2.5,0.9,2.9,2.1c0.3,1.4-0.1,2.9-1.1,4
		c-1.5,1.7-3.6,2.6-5.8,2.7"/>
	<path class="st2" d="M273.2,202.3c-0.3,0-0.6-0.3-0.6-0.6s0.3-0.6,0.6-0.6l0,0c2,0,4-0.9,5.3-2.5c0.9-0.9,1.3-2.2,1-3.4
		c-0.4-1-1.3-1.6-2.4-1.7c-1.1,0-2.2,0.4-3,1.2c-0.2,0.2-0.6,0.2-0.8,0c-0.2-0.2-0.2-0.6,0-0.8l0,0c1-1,2.4-1.5,3.9-1.5
		c1.5,0.1,2.9,1,3.5,2.5c0.4,1.6,0,3.4-1.2,4.6C277.9,201.2,275.6,202.3,273.2,202.3L273.2,202.3z"/>
	<path class="st2" d="M115.7,311.7c0,0,13.6,55.7,4.6,59.6s-59.9,11.3-59.9,11.3l-2.3-16.1c0,0,39.2-8.6,41.4-10.5
		S86.3,306.7,86,306.3C85.6,305.9,115.7,311.7,115.7,311.7z"/>
	<path class="st2" d="M60.4,383.2c-0.1,0-0.2,0-0.3-0.1s-0.2-0.2-0.2-0.4l-2.3-16.1c0-0.3,0.2-0.6,0.5-0.7
		c15.1-3.3,39.6-9.1,41.1-10.4c1.2-2.6-12.3-46.2-13.6-48.9c-0.1-0.2-0.1-0.4,0-0.6c0.3-0.5,0.3-0.7,30.4,5.1c0.2,0,0.4,0.2,0.5,0.4
		c1.4,5.8,13.4,56.3,4.3,60.3c-8.9,3.9-58,11.1-60.1,11.4L60.4,383.2z M58.8,367l2.2,14.9c5.7-0.8,50.9-7.6,59.2-11.2
		c1.9-0.8,4.6-5.9,0.7-30.6c-2-12.9-5-25.6-5.6-27.9c-10.1-1.9-24.6-4.6-28.4-5.2c2.6,6.8,13.5,42.4,13.4,48.2
		c0,0.5-0.1,0.9-0.4,1.3C97.7,358.4,64.7,365.7,58.8,367z"/>
	<polygon class="st2" points="53.1,309.7 95.6,410 113.8,406.5 86.1,300.6 	"/>
	<path class="st2" d="M95.6,410.6c-0.2,0-0.5-0.1-0.6-0.4L52.6,310c-0.1-0.3,0-0.7,0.3-0.8c0,0,0,0,0.1,0l32.9-9.1
		c0.1-0.1,0.3-0.1,0.5,0c0.1,0.1,0.2,0.2,0.3,0.4l27.7,105.9c0,0.2,0,0.3-0.1,0.5c-0.1,0.1-0.2,0.2-0.4,0.3L95.6,410.6L95.6,410.6
		L95.6,410.6z M53.9,310.1l42,99.2l17.2-3.3L85.6,301.4L53.9,310.1z"/>
	<path class="st1" d="M68.1,178.3c-6.3-4.4-14.7-4.2-20.8,0.5c-4.6,3.6-6.7,9.5-5.5,15.2c1.6,5.6,6.6,9.6,12.4,9.8
		c5.5,0.3,11.3-4.4,14.2-8.7C72,189.8,74.4,182.6,68.1,178.3z"/>
	<path class="st2" d="M54.7,204.4h-0.5c-6.1-0.2-11.3-4.4-13-10.2c-1.3-5.9,0.9-12,5.7-15.8c6.3-4.9,15-5.1,21.5-0.5l0,0
		c7.6,5.2,2.8,14,0.4,17.5C66,199.8,60.3,204.4,54.7,204.4z M57.9,175.7c-3.7,0-7.3,1.3-10.2,3.6c-4.4,3.4-6.4,9.1-5.3,14.5
		c1.5,5.4,6.3,9.2,11.9,9.4c5,0.2,10.7-4.1,13.7-8.5c2.2-3.2,6.6-11.3-0.2-15.9C64.9,176.8,61.5,175.7,57.9,175.7L57.9,175.7z"/>
	<path class="st2" d="M57.1,187.4c-4,3.5-5.9,8.9-5,14.2c0.2,1.4,0.8,2.8,1.9,3.8c2.1,1.7,5.3,0.7,7.6-0.8c3.7-2.6,6.7-6,8.8-9.9
		c1.6-2.8,4-9-0.3-10.6C65.8,182.6,60.2,184.7,57.1,187.4z"/>
	<path class="st2" d="M56.6,206.9c-1.1,0-2.2-0.3-3.1-1c-1.2-1.1-1.9-2.5-2.1-4.1c-1-5.5,1-11.1,5.2-14.7c3.3-2.8,9.2-5,13.6-3.4
		c1.2,0.4,2.1,1.3,2.5,2.4c1.2,3.4-1.6,8.4-1.9,9c-2.2,4-5.3,7.5-9,10.1C60.3,206.1,58.5,206.8,56.6,206.9z M67,184.2
		c-3.5,0.1-6.9,1.4-9.6,3.6c-3.9,3.4-5.7,8.6-4.8,13.6c0.1,1.3,0.7,2.5,1.7,3.4c1.9,1.5,4.8,0.6,6.9-0.8c3.6-2.5,6.6-5.8,8.6-9.7
		c1.1-1.9,2.7-5.6,1.8-8c-0.3-0.8-1-1.5-1.8-1.7C68.9,184.4,68,184.2,67,184.2z M57.1,187.4L57.1,187.4z"/>
	<path class="st1" d="M79.2,221.4c-0.9,0.9-1.9,1.8-3,2.6c-4.2,2.5-9.3,2.6-13.7,0.3c-10.1-5.2-9.9-17-7.8-26.6
		c0.8-3.9,3.7-12.1,9-8c-1.5-1.2,4.8-5.2,5.8-5.5c6.7-2.7,13.9,1.2,17.8,6.7c2.3,3.1,4.3,6.5,5.9,10.1c1.6,3.9-0.1,9.3-2.4,12.6
		c-1.7,2.6-4.1,4.7-7,6c-1.3,0.6-3,0.8-4.2,1.5L79.2,221.4z"/>
	<path class="st2" d="M69.2,226.4c-2.4,0-4.8-0.6-6.9-1.7c-8.4-4.3-11.1-13.5-8.1-27.3c0.4-1.9,2-8.1,5.5-9.4
		c1.1-0.4,2.4-0.3,3.4,0.3c1-2.1,5.8-4.8,6.2-4.9c7.3-3,14.7,1.5,18.5,6.9c2.4,3.2,4.4,6.6,6,10.2c1.6,4.1-0.1,9.7-2.4,13.2
		c-1.8,2.7-4.3,4.8-7.2,6.2c-0.6,0.3-1.3,0.5-1.9,0.7c-0.8,0.2-1.5,0.5-2.2,0.8c-0.2,0.1-0.3,0.2-0.5,0.3l0,0
		c-0.4,0.3-0.8,0.7-1.2,1c-0.6,0.6-1.2,1.1-1.9,1.6C74.3,225.7,71.8,226.4,69.2,226.4z M61,189.1c-0.3,0-0.6,0.1-0.9,0.2
		c-2.4,0.9-4,5.1-4.8,8.5c-2.9,13.2-0.4,21.9,7.5,26c4.1,2.1,9.1,2,13.1-0.3c0.6-0.4,1.2-0.9,1.7-1.4c0.4-0.4,0.8-0.8,1.2-1.1
		c0.2-0.1,0.4-0.3,0.6-0.4c0.8-0.4,1.6-0.8,2.5-1c0.6-0.2,1.2-0.4,1.8-0.6c2.7-1.3,5-3.3,6.7-5.8c2.1-3.2,3.8-8.4,2.3-12.1
		c-1.5-3.5-3.4-6.8-5.7-9.9c-3.6-5-10.4-9.2-17.1-6.4c-1.2,0.5-5.7,3.6-5.6,4.5l0,0c0.3,0.2,0.3,0.6,0.1,0.8
		c-0.2,0.3-0.6,0.3-0.8,0.1C62.8,189.5,61.9,189.2,61,189.1L61,189.1z M79.2,221.3L79.2,221.3z"/>
	<path class="st1" d="M86.7,198.7c0,0,4,8.6,3,15.5c-0.5,3.9-3.2,7.2-6.9,8.4l1,12c0,0,0.6,6.1-7,5.8c-4.5-0.2-8.6-2.7-10.8-6.6
		l-2.7-21.9c0,0,8.1-5.6,6.6-13.5C70,198.5,80.5,202.5,86.7,198.7z"/>
	<path class="st2" d="M77.3,241h-0.5c-4.7-0.2-8.9-2.8-11.2-6.9c0-0.1,0-0.1,0-0.2l-2.8-22c0-0.2,0.1-0.4,0.3-0.6
		c0.1,0,7.7-5.5,6.4-12.9c0-0.2,0-0.4,0.2-0.6c0.2-0.1,0.4-0.2,0.6-0.1c0.1,0,10.3,3.9,16.2,0.3c0.2-0.1,0.3-0.1,0.5,0
		c0.2,0,0.3,0.2,0.4,0.3c0.2,0.4,4,8.9,3.1,15.9c-0.5,4-3.2,7.3-6.9,8.7l1,11.5c0.1,1.7-0.5,3.3-1.6,4.5
		C81.4,240.5,79.4,241.2,77.3,241z M66.6,233.7c2.1,3.7,6,6,10.2,6.1c1.9,0.2,3.7-0.3,5.1-1.6c0.9-1,1.3-2.3,1.2-3.6l-1-12
		c0-0.3,0.2-0.6,0.5-0.6c3.6-1.1,6.1-4.2,6.5-7.9c0.8-5.6-1.8-12.6-2.7-14.6c-5.4,2.8-13.1,0.7-15.7-0.2c0.6,6.8-5.3,11.8-6.7,12.9
		L66.6,233.7z"/>
	<path class="st1" d="M67.3,210c0,0-4.4-8-8.1-2.4c-3.7,5.6,2.9,10.8,6.5,10"/>
	<path class="st2" d="M64.9,218.3c-2.5-0.2-4.8-1.5-6.2-3.6c-1.6-2.2-1.6-5.2,0-7.4c0.7-1.3,2.1-2.2,3.6-2.3c3,0.1,5.5,4.5,5.6,4.7
		c0.2,0.3,0.1,0.7-0.2,0.8c-0.3,0.2-0.7,0.1-0.8-0.2l0,0c-0.6-1.1-2.6-4-4.6-4.1c-1.1,0.1-2,0.7-2.5,1.7c-1.3,1.8-1.3,4.3,0,6.1
		c1.4,2.1,4.1,3.4,5.9,3c0.3-0.1,0.7,0.1,0.7,0.5c0.1,0.3-0.1,0.7-0.5,0.7C65.6,218.3,65.2,218.3,64.9,218.3z"/>
	<path class="st2" d="M82.8,215.3c-0.6,0-1.1,0-1.7-0.1c-0.3-0.1-0.6-0.4-0.5-0.7s0.4-0.6,0.7-0.5c1.1,0.2,2.3,0.1,3.3-0.2
		c0-0.7-1.8-3.3-3.9-5.6c-0.2-0.2-0.2-0.6,0-0.8l0,0c0.2-0.2,0.6-0.2,0.8,0l0,0c1,1.2,4.4,5.1,4.2,6.7c0,0.3-0.2,0.6-0.5,0.8
		C84.6,215.1,83.7,215.3,82.8,215.3z"/>
	<path class="st2" d="M80.3,219.2c-0.4,0-0.8,0-1.2-0.1c-2.1-0.3-4.1-1.4-5.5-3.1c-0.2-0.3-0.1-0.7,0.2-0.8c0.3-0.2,0.6-0.1,0.8,0.2
		c1.2,1.4,2.9,2.3,4.8,2.5c2.4,0.3,4.6-0.7,6.8-2.8c0.2-0.2,0.6-0.3,0.8-0.1c0.2,0.2,0.3,0.6,0.1,0.8c0,0,0,0-0.1,0.1
		C85.3,218,82.9,219.1,80.3,219.2z"/>
	<path class="st2" d="M82.8,222.6c0,0-6.3,1.4-10.1,0.7c0,0,4.8,9.1,10.9,8.5L82.8,222.6z"/>
	<path class="st2" d="M83,232.5c-6.1,0-10.7-8.5-10.9-8.8c-0.1-0.2-0.1-0.4,0-0.6c0.1-0.2,0.4-0.3,0.6-0.2c3.6,0.6,9.8-0.7,9.9-0.7
		c0.2,0,0.4,0,0.5,0.1s0.2,0.3,0.2,0.4l0.8,9.2c0,0.3-0.2,0.6-0.5,0.7l0,0L83,232.5z M73.8,224.1c1.4,2.2,5,7.2,9.1,7.2l-0.7-8
		C79.5,223.9,76.6,224.1,73.8,224.1L73.8,224.1z"/>
	<ellipse transform="matrix(0.99 -0.1411 0.1411 0.99 -28.4104 12.9202)" class="st2" cx="76.9" cy="206.8" rx="0.9" ry="1.7"/>
	<ellipse transform="matrix(0.99 -0.1411 0.1411 0.99 -28.1524 14.1364)" class="st2" cx="85.6" cy="205.6" rx="0.9" ry="1.7"/>
	<path class="st1" d="M287.1,243.5l-97.9-51.2c-2.7-1.4-6.1-0.4-7.6,2.4c-0.6,1.1-0.8,2.4-0.5,3.6l3.8,21.5l-164,29
		c-1.9,0.3-3.1,2.1-2.8,4l0,0l14.7,83.1c0.3,1.9,2.1,3.1,4,2.8l164-29.1l3.8,21.5c0.5,3,3.5,5.1,6.5,4.5c1.2-0.2,2.3-0.8,3.1-1.7
		l74.3-81.8c2.1-2.3,1.9-5.9-0.4-7.9C287.8,244,287.5,243.7,287.1,243.5z"/>
	<path class="st2" d="M36.3,339.4c-0.8,0-1.6-0.3-2.3-0.7c-0.9-0.6-1.5-1.6-1.7-2.6L17.5,253c-0.4-2.2,1.1-4.3,3.3-4.7l0,0l163.4-29
		l-3.7-20.9c-0.6-3.4,1.7-6.6,5.1-7.2c1.3-0.2,2.7,0,3.9,0.6l97.9,51.2l0,0c3,1.6,4.2,5.3,2.6,8.4c-0.2,0.5-0.6,0.9-0.9,1.3
		l-74.2,81.8c-2.3,2.5-6.2,2.7-8.8,0.4c-1-0.9-1.7-2.1-1.9-3.5l-3.7-20.9L37,339.3C36.8,339.4,36.5,339.4,36.3,339.4z M186.6,192.2
		c-1.1,0-2.1,0.4-2.9,1c-1.6,1.1-2.3,3-2,4.9l3.8,21.5c0.1,0.3-0.2,0.6-0.5,0.7L21.1,249.4c-0.8,0.1-1.4,0.6-1.9,1.2
		c-0.5,0.6-0.6,1.4-0.5,2.1l14.7,83.1c0.3,1.6,1.8,2.6,3.3,2.3l164-29.1c0.3-0.1,0.6,0.2,0.7,0.5l3.8,21.5c0.5,2.7,3.1,4.5,5.8,4.1
		c1.1-0.2,2.1-0.7,2.8-1.6l74.3-81.8c1.9-2.1,1.7-5.2-0.4-7.1c-0.3-0.3-0.7-0.5-1-0.7l-97.9-51.2
		C188.2,192.4,187.4,192.2,186.6,192.2z"/>
	<path class="st1" d="M184.6,212.7c-1.3-0.4-2.7-0.8-4-1.2c-0.8-0.3-1.7-0.3-2.6-0.1c-1.2,0.5-1.8,1.9-2.2,3.1c-0.6,1.9-1.3,4-0.7,6
		c0.8,2.8,3.8,4.4,6.7,5.2c1.4,0.4,2.9,0.6,4.3,0.4C194.5,224.6,190.2,214.6,184.6,212.7z"/>
	<path class="st2" d="M184.9,226.8c-1.1,0-2.2-0.2-3.3-0.5c-2.2-0.6-6.1-2.1-7.1-5.6c-0.6-2.2,0.1-4.5,0.8-6.3
		c0.5-1.4,1.1-3,2.6-3.5c1-0.3,2-0.3,2.9,0.1c1.4,0.3,2.7,0.7,4,1.2c3.7,1.2,6.9,5.8,6.6,9.5c-0.1,1.6-0.9,4.3-5.2,5
		C185.7,226.8,185.3,226.8,184.9,226.8z M178.9,211.9c-0.3,0-0.5,0-0.7,0.1c-1,0.4-1.5,1.6-1.9,2.8c-0.7,2-1.2,3.9-0.7,5.6
		c0.8,2.9,4.3,4.2,6.3,4.8c1.3,0.4,2.7,0.5,4.1,0.4c2.6-0.5,4.1-1.8,4.2-4c0.2-3.2-2.6-7.2-5.8-8.3l0,0c-1.3-0.4-2.6-0.8-3.9-1.2
		C179.9,211.9,179.4,211.9,178.9,211.9z"/>
	<path class="st1" d="M36.2,256.5c0.3,0,0.6-0.1,0.9-0.2c3-1.3,2.6-7,2.9-9.7c0.1-1.5,0.1-3.4-1.2-4.2c-2.9-1.8-7-1-9.7,1
		s-3.3,5.7-3,8.8c0.1,1.3,0.2,4.1,1.4,4.9c1.5,1.1,3.3-1.9,3.3-3.2v1.1c0,0.5,0.1,1,0.2,1.4c0.2,0.5,0.5,0.9,1,1
		c0.8,0.2,1.5-0.5,1.8-1.2c0.2-0.7,0.5-1.5,0.8-2.2c-0.5,0.7-0.4,1.6,0.3,2.1C35.2,256.4,35.7,256.5,36.2,256.5z"/>
	<path class="st2" d="M32.2,257.9c-0.1,0-0.2,0-0.4,0c-0.7-0.2-1.2-0.7-1.5-1.4v-0.1c-0.3,0.5-0.7,0.9-1.2,1.2
		c-0.7,0.4-1.5,0.4-2.1-0.1c-1.3-0.9-1.4-3.3-1.6-4.9v-0.4c-0.3-3,0-7.1,3.2-9.4c2.6-1.9,6.9-3,10.4-1c1.7,1,1.7,3.2,1.5,4.8
		c0,0.5-0.1,1.1-0.1,1.7c-0.1,3.1-0.3,7.2-3.1,8.5c-0.4,0.2-0.8,0.3-1.2,0.3l0,0c-0.6,0-1.2-0.2-1.7-0.6l-0.1-0.2
		C33.9,257.2,33.2,257.8,32.2,257.9z M31.3,253.8v1.1c0,0.4,0,0.9,0.2,1.3c0.1,0.3,0.3,0.5,0.6,0.6c0.4,0.1,0.9-0.4,1.1-0.9
		c0.1-0.3,0.2-0.6,0.3-0.9l0.2-0.6c0.1-0.3,0.2-0.6,0.4-0.9c0.2-0.2,0.6-0.3,0.8,0c0.2,0.2,0.2,0.5,0.1,0.7
		c-0.1,0.2-0.2,0.3-0.2,0.5c0,0.1,0,0.1,0,0.2c0,0.3,0.2,0.5,0.4,0.7c0.3,0.2,0.6,0.3,0.9,0.3l0,0c0.2,0,0.5-0.1,0.7-0.1
		c2.2-0.9,2.3-4.7,2.4-7.4c0-0.7,0-1.3,0.1-1.8c0.2-2-0.1-3.1-0.9-3.6c-2.8-1.7-6.7-0.8-9,0.9c-2.7,2-3,5.6-2.7,8.4v0.4
		c0.1,1.1,0.3,3.4,1.1,4c0.2,0.2,0.5,0.2,0.8,0c0.9-0.6,1.5-1.6,1.6-2.7l0,0c0-0.3,0.2-0.6,0.6-0.6C31,253.3,31.2,253.6,31.3,253.8
		L31.3,253.8z"/>
	<path class="st1" d="M305.7,239.5c0,0,7.3,35.3-1.4,37.6c-11.8,3.2-60.8-8.8-60.8-8.8s-12.8,3.1-15-0.2c-2.2-3.4,0-8.1,1.1-8.4
		s10.8-1,10.8-1s-7.8-5.8-5.4-6.2c2.5-0.4,11.2,2.5,11.2,2.5s48,3.6,47.6,1.1s-2.7-11.8-2.7-11.8"/>
	<path class="st2" d="M298.9,278.2c-16.6,0-52.3-8.6-55.3-9.4c-1.9,0.5-13.2,3-15.5-0.5c-1.2-2.1-1.4-4.7-0.4-7
		c0.2-0.5,0.9-2.1,1.9-2.3s6.5-0.6,9.3-0.8c-2.3-1.8-5.1-4.3-4.8-5.5c0.1-0.4,0.5-0.8,0.9-0.8c2.5-0.5,10.2,2.1,11.4,2.5
		c16.8,1.2,43.9,2.7,46.8,1.5c-0.5-2.8-2.6-11.5-2.6-11.6c-0.1-0.3,0.1-0.7,0.5-0.7s0.7,0.1,0.7,0.5c0.1,0.4,2.2,9.4,2.7,11.9
		c0,0.2,0,0.5-0.2,0.7c-1.9,2.2-37.2-0.3-48-1.1h-0.1c-2.4-0.8-8.9-2.8-10.9-2.5c0.3,0.8,2.8,3.1,5.6,5.2c0.2,0.1,0.3,0.4,0.2,0.6
		s-0.3,0.4-0.5,0.4c-2.7,0.2-9.8,0.8-10.7,0.9c-0.6,0.5-1,1.2-1.2,2c-0.7,1.8-0.5,3.7,0.5,5.4c1.5,2.2,9.6,1.2,14.3,0
		c0.1,0,0.2,0,0.3,0c0.5,0.1,48.9,12,60.5,8.9c6.7-1.8,2.9-27.2,0.9-36.9c-0.1-0.3,0.1-0.7,0.5-0.7s0.7,0.1,0.7,0.5
		c0.8,3.7,7.2,35.9-1.8,38.3C302.7,278.1,300.8,278.2,298.9,278.2z"/>
	<line class="st4" x1="291.2" y1="244.2" x2="285.8" y2="221.3"/>
	<path class="st2" d="M291.2,244.8c-0.3,0-0.5-0.2-0.6-0.5l-5.4-22.9c-0.1-0.3,0.1-0.6,0.4-0.7l0,0c0.3-0.1,0.6,0.1,0.7,0.4
		l5.4,22.9c0.1,0.3-0.1,0.6-0.4,0.7L291.2,244.8z"/>
	<path class="st2" d="M166.4,183.5c-0.2,0-0.4-0.1-0.5-0.2c-0.2-0.3-0.1-0.6,0.1-0.8l0,0c0.9-0.6,1.3-1.6,1.2-2.6
		c-0.4-0.8-0.6-1.6-0.8-2.4c0-0.3,0.2-0.6,0.5-0.6c0.2,0,0.4,0.1,0.5,0.2c0.4,0.7,0.7,1.5,0.8,2.4c0.1,0.3,0.4,0.6,0.7,0.7
		c0.2,0.1,0.4,0.1,0.6-0.1c1.1-0.6,0-4.5-1-6.9c-0.1-0.3,0-0.6,0.3-0.7l0,0c0.3-0.1,0.6,0,0.7,0.3c0.5,1.1,2.9,6.9,0.6,8.2
		c-0.5,0.3-1.1,0.4-1.6,0.1c-0.1,0-0.2-0.1-0.3-0.2c-0.2,0.9-0.8,1.8-1.6,2.3C166.6,183.5,166.5,183.5,166.4,183.5z"/>
	<path class="st1" d="M104.8,372.6c-0.2,0-0.5-0.2-0.5-0.4l-10.7-39.9c-0.1-0.3,0.1-0.6,0.3-0.7H94c0.3-0.1,0.6,0.1,0.7,0.4
		l10.7,39.9c0.1,0.3-0.1,0.6-0.4,0.7H104.8z"/>
</g>
<g>
	<path class="st5" d="M108.5,49.9l-2.8-11.3l0,0L101,20.2c-0.1-0.3-0.4-0.5-0.7-0.4L57.8,30.4c-0.3,0.1-0.5,0.4-0.4,0.7l7.5,29.7
		c0,0.2,0.2,0.3,0.3,0.4c0.1,0,0.1,0,0.2,0h0.1h0.1l42.5-10.7c0.2,0,0.3-0.1,0.4-0.3C108.5,50.2,108.5,50,108.5,49.9z M66.4,59.9
		l10.4-25.2l16.5,11.9c0.2,0.2,0.6,0.1,0.8-0.1c0.2-0.2,0.1-0.6-0.1-0.8l-4.4-3.1l4-10.5l11.1,7l2.6,10.5L66.4,59.9z M58.6,31.4
		L100.1,21l4.1,16.6l-10.7-6.7c-0.1-0.1-0.3-0.1-0.5-0.1s-0.3,0.2-0.3,0.3L88.6,42l-11.8-8.5c-0.1-0.1-0.3-0.1-0.5-0.1
		c-0.2,0.1-0.3,0.2-0.4,0.3L65.6,58.9L58.6,31.4z"/>
	<path class="st5" d="M86.5,33.4c0.3,0,0.5,0,0.8-0.1l0,0c1.5-0.4,2.5-1.7,2.5-3.2c0-0.3,0-0.5-0.1-0.8c-0.2-0.8-0.7-1.6-1.5-2
		c-0.7-0.4-1.6-0.6-2.5-0.4c-1.5,0.4-2.5,1.7-2.5,3.2C83.2,31.9,84.7,33.4,86.5,33.4z M84.7,29c0.3-0.5,0.8-0.8,1.3-1
		c0.2,0,0.3-0.1,0.5-0.1l0,0c0.4,0,0.8,0.1,1.1,0.3c0.5,0.3,0.8,0.8,1,1.3s0.1,1.1-0.2,1.6c-0.3,0.5-0.8,0.8-1.3,1
		c-1.1,0.3-2.3-0.4-2.6-1.6C84.3,30.1,84.4,29.5,84.7,29z"/>
</g>
<path class="st5" d="M240.3,14.1c-2.3-2.2-5.2-3.8-8.4-4.5c-0.1,0-0.1-0.1-0.2-0.1l-2.1-0.3c-0.6,0-1.1-0.1-1.7-0.1
	c-3.5-0.1-7,0.8-10,2.6c-3.6,2.1-6.5,5.4-8,9.4c-0.3,0.7-0.5,1.5-0.7,2.3c0,0.1-0.1,0.3-0.1,0.4l-0.3,2.1c-0.1,0.5-0.1,1.1-0.1,1.6
	c-0.1,5.4,2.1,10.5,6,14.2c2.2,2.1,4.9,3.6,7.8,4.4c5.6,1.6,11.7,0.5,16.3-3.1c3.4-2.4,5.9-6,6.9-10.1
	C247.7,26.2,245.6,18.9,240.3,14.1z M233.5,37l-0.2,0.3c-1-0.3-2.1-0.7-3.1-1s-2.1-0.5-3.2-0.8l1.1-6.6c0.1,0,0.2,0,0.3,0l6.7,1.1
	c0.3,0.1,0.3,0.2,0.3,0.5C235.1,32.7,234.4,34.9,233.5,37z M234,39.3c1.4,0.6,2.8,1.4,4.1,2.4l0,0c-2.6,2-5.6,3.2-8.8,3.5
	C231.3,43.6,232.9,41.6,234,39.3z M219,34.8c-0.2-2.5-0.1-5,0.3-7.5l7.4,1.2l-1.1,6.6L219,34.8z M225.3,36.8l-1.3,8.1
	c-0.8-0.3-1.5-0.9-2-1.5c-1-1.2-1.7-2.7-2.1-4.2c-0.2-0.8-0.4-1.7-0.6-2.6C221.2,36.4,223.3,36.5,225.3,36.8z M219.5,25.8
	c0.4-2.5,1.2-4.9,2.2-7.1l6.3,1.8l-1.1,6.6L219.5,25.8z M228.4,27.3l1.1-6.6l6.6,0.3c0.2,2.5,0.1,5-0.3,7.5L228.4,27.3z M229.7,19.2
	l1.4-8.1c0.4,0.2,0.8,0.5,1.2,0.8c0.9,0.8,1.6,1.7,2.1,2.8c0.7,1.6,1.2,3.2,1.4,4.9C233.8,19.6,231.8,19.5,229.7,19.2z M234.9,12.4
	L234.9,12.4c2.9,1.3,5.4,3.4,7.1,6.1c-1.5,0.5-3,0.8-4.6,0.9c-0.3-1.2-0.6-2.4-0.9-3.6C236.1,14.6,235.5,13.5,234.9,12.4z
	 M229.6,10.8l-1.4,8.1c-2-0.4-4-1-5.9-1.7c0.7-1,1.3-2.1,2-3c0.9-1.2,2.1-2.2,3.4-2.9C228.4,11,229,10.8,229.6,10.8z M223,13.5
	c-0.7,1-1.4,2.1-2.1,3.2l-4-2.3c1.3-1.5,6.9-3.8,8.8-3.6C224.6,11.5,223.7,12.5,223,13.5z M215.7,15.4l4.6,2.8
	c-1,2.4-1.8,4.9-2.3,7.5l-7.4-1.2C210.7,22.1,213.5,17,215.7,15.4z M210.3,25.9l7.4,1.2c-0.4,2.6-0.5,5.2-0.3,7.8l-5.3,1.1
	C210.5,32.9,209.9,29.4,210.3,25.9z M213,37.5c1.5-0.5,3.1-0.8,4.6-0.9c0.3,2.6,1.2,5,2.6,7.2C217.3,42.4,214.8,40.2,213,37.5
	L213,37.5z M226.8,37c2,0.4,4,0.9,5.9,1.7c-0.2,0.4-0.5,0.8-0.7,1.2c-1,1.7-2.3,3.2-3.9,4.3c-0.8,0.5-1.7,0.8-2.6,0.8L226.8,37z
	 M234.8,37.8c0.4-1.2,0.9-2.4,1.3-3.6c0.4-1.3,0.7-2.6,1-3.9l7.4,1.2c-0.7,3.5-2.5,6.6-5.1,9L234.8,37.8z M244.7,30.1l-7.4-1.2
	c0.4-2.6,0.5-5.2,0.3-7.8l5.3-1.1C244.2,21.6,245.3,27.4,244.7,30.1z"/>
<g>
	<path class="st5" d="M67,141.5l-2-11.2l0,0c-0.4-2.4-2.7-3.9-5-3.5l-19.8,3.6c-2.3,0.4-3.9,2.7-3.5,5.1l2,11.2
		c0.4,2.1,2.2,3.6,4.3,3.6c0.3,0,0.5,0,0.8-0.1l19.8-3.6C65.9,146.1,67.4,143.8,67,141.5z M63.3,145.4L43.5,149
		c-0.8,0.2-1.7,0-2.4-0.5s-1.2-1.2-1.3-2.1l-2-11.2c-0.3-1.8,0.8-3.4,2.6-3.8l19.8-3.6c0.2,0,0.4,0,0.6,0l0,0c0.7,0,1.3,0.2,1.8,0.6
		c0.7,0.5,1.2,1.2,1.3,2.1l2,11.2C66.2,143.4,65.1,145.1,63.3,145.4z"/>
	<path class="st5" d="M59.1,136.6L46.4,133c-0.2,0-0.4,0-0.5,0.1s-0.2,0.3-0.2,0.5l2,11.5c0,0.2,0.2,0.3,0.3,0.4c0.1,0,0.1,0,0.2,0
		c0.1,0,0.2-0.1,0.3-0.1l10.7-7.8c0.1-0.1,0.2-0.2,0.2-0.3C59.6,136.9,59.4,136.6,59.1,136.6z M48.7,144l-1.7-9.6l10.8,3L48.7,144z"
		/>
</g>
<path class="st5" d="M181.8,54.4c0-0.1,0-0.2-0.1-0.3c-0.2-0.2-0.5-0.3-0.7-0.2h-40.9H140h-0.1c-0.1,0-0.1,0-0.2,0.1
	c-0.1,0-0.1,0.1-0.2,0.1l0,0l-0.1,0.1c0,0,0,0.1,0,0.2v22.7l0,0v0.1c0,0,0,0.1,0.1,0.2s0.3,0.2,0.5,0.2h41.2c0.2,0,0.4-0.1,0.4-0.2
	l0,0l0,0v-0.1l0,0l0,0L181.8,54.4L181.8,54.4z M180.7,76.1l-15-10.3l15-10.3V76.1z M141.9,76.6l14.7-10.1l3.8,2.6
	c0.1,0.1,0.2,0.1,0.3,0.1s0.2-0.1,0.3-0.2l3.8-2.6l14.7,10.2H141.9z M140.6,55.5l15,10.3l-15,10.3V55.5z M179.3,55.1l-14.7,10.2
	l-0.2,0.2l-3.7,2.5l-3.7-2.6l-15-10.3C142,55.1,179.3,55.1,179.3,55.1z"/>
<g>
	<path class="st5" d="M311.7,92.5c-0.1-0.1-0.2-0.2-0.4-0.2l-28.7-3.5l0,0c-0.3,0-0.6,0.2-0.6,0.5l-4.4,35.5c0,0.3,0.2,0.6,0.5,0.6
		l22.7,2.8h0.1c0.1,0,0.3-0.1,0.4-0.2l6.9-6.3c0.1-0.1,0.2-0.2,0.2-0.3l3.5-28.5C311.9,92.8,311.8,92.6,311.7,92.5z M307.3,120.8
		l-5.4-0.7l0,0c-0.3,0-0.6,0.2-0.6,0.5l-0.8,6.5l-21.6-2.7L283,90l27.6,3.3L307.3,120.8z"/>
	<path class="st5" d="M286.8,96.1l19.3,2.4h0.1c0.3,0,0.6-0.2,0.6-0.5s-0.2-0.6-0.5-0.6L286.9,95l0,0c-0.3,0-0.5,0.2-0.6,0.5
		C286.3,95.8,286.5,96.1,286.8,96.1z"/>
	<path class="st5" d="M286.1,101.8l19.4,2.4l0,0c0.3,0,0.6-0.2,0.6-0.5s-0.2-0.6-0.5-0.6l-19.3-2.4c-0.3,0-0.6,0.2-0.6,0.5
		C285.5,101.5,285.8,101.8,286.1,101.8z"/>
	<path class="st5" d="M285.4,107.6l19.4,2.4h0.1c0.3,0,0.5-0.2,0.5-0.5s-0.2-0.6-0.5-0.6l-19.3-2.4c-0.3,0-0.6,0.2-0.6,0.5
		C284.8,107.2,285,107.5,285.4,107.6z"/>
	<path class="st5" d="M284.7,113.3l19.3,2.4h0.1l0,0c0.3,0,0.6-0.2,0.6-0.5s-0.2-0.6-0.5-0.6l-19.4-2.4l0,0c-0.3,0-0.6,0.2-0.6,0.5
		C284.1,113,284.4,113.2,284.7,113.3z"/>
	<path class="st5" d="M284,119l13.1,1.6h0.1l0,0c0.3,0,0.6-0.2,0.6-0.5s-0.2-0.6-0.5-0.6l-13.1-1.6l0,0c-0.3,0-0.6,0.2-0.6,0.5l0,0
		C283.4,118.7,283.7,119,284,119z"/>
</g>
<g>
	<path class="st1" d="M236.3,117.8c0,1.2-0.5,2.3-1.4,3.1c0.6,0.6,0.8,1.5,0.6,2.3c-0.2,0.9-0.6,1.7-1.2,2.4
		c0.8,0.6,1.1,1.6,0.8,2.5c-0.5,2.3-1.5,3.6-3.1,3.9c-1.2,0.3-11.3,2.1-16.1,2.9l-2.4,0.4c-0.2,0-0.4,0.1-0.7,0.1
		c-0.5,0-1-0.1-1.4-0.4c-0.2-0.1-0.4-0.2-0.6-0.3c-0.6,0-1.2,0-1.8,0.1l0.2,1.3c0,0.2-0.1,0.5-0.3,0.5l-11,2h-0.1
		c-0.2,0-0.4-0.1-0.4-0.3l-5-18c-0.1-0.1-0.1-0.2,0-0.3c0.1-0.1,0.2-0.2,0.3-0.2l12.7-2.3c0.2,0,0.5,0.1,0.5,0.4l0,0l0.1,0.5
		c0.4-0.4,1-1.1,2-2.5c1.9-2.8,4-9.5,4.1-10.4c-0.1-0.7-0.2-1.5-0.3-2.2c-0.4-2.2-0.7-3.8-0.3-4.5c0.6-0.9,1.5-1.5,2.6-1.6
		c0.9-0.2,1.9,0,2.7,0.7c1.7,1.7,2.9,3.8,3.6,6.1c0.2,1.3,0.3,5.8,0.3,7.3l12.2-2.2c0.7-0.2,1.5,0,2.1,0.4c0.7,0.6,1.1,1.5,1.1,2.4
		c0,1.2-0.4,2.3-1,3.3C235.9,115.7,236.4,116.7,236.3,117.8z"/>
	<path class="st1" d="M253.6,130.7L247,94.3c-1-5.3-6-8.8-11.2-7.8l0,0l-51.9,9.4c-5.3,1-8.8,6-7.8,11.3l0,0l6.6,36.4
		c1,5.3,6,8.8,11.3,7.8l44.4-8.1l8.6,7.4l-0.5-8.9C251.4,140.5,254.5,135.7,253.6,130.7z M246.4,141.4c-0.2,0.1-0.3,0.2-0.3,0.4
		l0.4,7.9l-7.8-6.7c-0.1-0.1-0.2-0.1-0.4-0.1l-44.4,8.1c-5,0.9-9.8-2.4-10.8-7.5l-6.6-36.4l0,0c-0.9-5,2.4-9.8,7.5-10.8l51.9-9.4
		l0,0c5-0.9,9.8,2.4,10.8,7.5l6.6,36.4C254,135.5,251.1,140.2,246.4,141.4z"/>
	<path class="st6" d="M254,130.6l-6.6-36.4c-1-5.5-6.3-9.1-11.8-8.1l-51.9,9.4l0,0c-5.5,1-9.1,6.3-8.1,11.7l6.6,36.4
		c0.9,4.8,5.1,8.3,9.9,8.3c0.6,0,1.2-0.1,1.8-0.2l44.2-8l8.4,7.2c0.1,0.1,0.2,0.1,0.3,0.1c0.2,0,0.4-0.2,0.4-0.4l-0.4-8.5
		C251.9,140.7,254.9,135.7,254,130.6z M183,143.5l-6.6-36.4l0,0c-0.9-5,2.4-9.8,7.5-10.8l51.9-9.4l0,0c5-0.9,9.8,2.4,10.8,7.5
		l6.6,36.4c0.9,4.8-2.1,9.4-6.8,10.6c-0.2,0.1-0.3,0.2-0.3,0.4l0.4,7.9l-7.8-6.7c-0.1-0.1-0.2-0.1-0.4-0.1l-44.4,8.1
		C188.8,151.9,184,148.6,183,143.5z"/>
	<polygon class="st3" points="192.9,120.4 205.6,118 208.9,136.4 198,138.4 	"/>
	<path class="st2" d="M209.1,135l-0.1-0.4l-0.1-0.5l-2.7-14.8l-0.1-0.4l-0.1-0.5l0-0.4l0,0c0-0.2-0.3-0.4-0.5-0.4l-12.7,2.3
		c-0.1,0-0.2,0.1-0.3,0.2s-0.1,0.2,0,0.3l5,18c0.1,0.2,0.2,0.3,0.4,0.3h0.1l11-2c0.2,0,0.4-0.3,0.3-0.5L209.1,135z M205.3,118.5
		l0.1,0.5l2.9,15.8l0.2,1.2l-10.2,1.8l-4.8-17.2L205.3,118.5z"/>
	<circle class="st2" cx="205" cy="133.8" r="1.5"/>
	<path class="st1" d="M205.8,119.2c0,0,0.8-0.3,2.6-3c1.9-2.8,4.1-9.5,4.1-10.7c0-1.1-1.2-5.5-0.7-6.5s3.1-2.2,4.6-0.8
		c1.6,1.7,2.8,3.7,3.4,5.9c0.3,1.5,0.4,7.7,0.4,7.7l12.7-2.3c1.9-0.3,2.5,0.9,2.7,2.4s-1.2,3.5-1.2,3.5s1.7,0.3,1.6,2.5
		c0,1.3-0.7,2.4-1.7,3.1c0.8,0.4,1.2,1.4,0.9,2.3c-0.1,1-0.7,1.9-1.5,2.5c1,0.3,1.5,1.4,1.2,2.4c-0.4,1.9-1.3,3.3-2.8,3.6
		c-1.6,0.3-17,3.1-18.5,3.4c-1.5,0.3-1.7-0.5-2.5-0.6c-0.8,0-1.6,0-2.3,0.2L205.8,119.2z"/>
	<path class="st2" d="M234.9,115.1c0.6-1,1-2.1,1-3.3c0-0.9-0.4-1.8-1.1-2.4c-0.6-0.4-1.4-0.6-2.1-0.4l-12.2,2.2
		c0-1.5-0.1-6-0.3-7.3c-0.7-2.3-1.9-4.4-3.6-6.1c-0.7-0.7-1.7-0.9-2.7-0.7c-1,0.2-2,0.8-2.6,1.6c-0.3,0.7-0.1,2.3,0.3,4.5
		c0.2,0.7,0.3,1.5,0.3,2.2c0,1-2.2,7.7-4.1,10.4c-0.9,1.4-1.6,2.1-2,2.5c-0.2,0.2-0.3,0.3-0.4,0.3h-0.1c-0.1,0.1-0.2,0.2-0.3,0.3
		c0,0.1,0,0.1,0,0.2l2.8,15.5c0,0.1,0,0.1,0.1,0.1c0,0.1,0.1,0.1,0.1,0.1c0.1,0.1,0.2,0.1,0.3,0.1l0,0c0.1,0,0.3-0.1,0.4-0.1
		c0.6-0.1,1.2-0.2,1.8-0.1c0.2,0,0.4,0.1,0.6,0.3c0.4,0.3,0.9,0.4,1.4,0.4c0.2,0,0.4,0,0.7-0.1l2.4-0.4c4.8-0.9,14.9-2.7,16.1-2.9
		c1.6-0.4,2.7-1.7,3.1-3.9c0.3-0.9-0.1-2-0.8-2.5c0.6-0.6,1-1.5,1.2-2.4c0.2-0.8,0-1.7-0.6-2.3c0.8-0.8,1.3-1.9,1.4-3.1
		C236.4,116.7,235.9,115.7,234.9,115.1z M234,120.6c-0.1,0.1-0.2,0.2-0.2,0.4c0,0.2,0.1,0.3,0.2,0.4c0.1,0,0.9,0.5,0.7,1.8
		c-0.1,0.9-0.6,1.7-1.3,2.2c-0.1,0.1-0.2,0.3-0.2,0.4c0,0.2,0.1,0.3,0.3,0.3c0.8,0.3,1.1,1.1,0.9,1.9c-0.4,1.9-1.2,3-2.5,3.3
		s-11.3,2.1-16.1,2.9l-2.4,0.4c-0.5,0.1-1,0.1-1.5-0.3c-0.3-0.2-0.5-0.3-0.9-0.4c-0.2,0-0.3,0-0.5,0c-0.5,0-1.1,0.1-1.6,0.2h-0.1
		l-2.7-14.8c0,0,0,0,0.1-0.1c1-0.8,1.8-1.8,2.4-2.9c1.9-2.8,4.2-9.7,4.2-10.9c-0.1-0.8-0.2-1.6-0.3-2.4c-0.3-1.4-0.6-3.4-0.4-3.9
		c0.5-0.6,1.2-1.1,2-1.2c0.7-0.2,1.4,0,1.9,0.5c1.5,1.6,2.7,3.5,3.3,5.6c0.3,1.4,0.4,7.6,0.4,7.6c0,0.1,0.1,0.2,0.2,0.3
		c0.1,0.1,0.2,0.1,0.4,0.1l12.7-2.3c0.5-0.1,1-0.1,1.4,0.2c0.5,0.5,0.8,1.1,0.7,1.8c0.1,1.1-0.8,2.7-1.2,3.2c-0.1,0.1-0.1,0.3,0,0.4
		s0.2,0.2,0.3,0.3c0.1,0,1.3,0.4,1.2,2C235.5,118.9,234.9,119.9,234,120.6z"/>
	<path class="st1" d="M140.8,134.1c-0.4,1.1-1.3,2-2.3,2.5c0.3,0.8,0.3,1.7-0.2,2.4c-0.4,0.8-1.1,1.4-1.9,1.8c0.5,0.8,0.5,1.9,0,2.7
		c-1.2,2-2.6,2.9-4.3,2.7c-1.3-0.2-11.3-1.8-16.2-2.6l-2.4-0.4c-0.2,0-0.4-0.1-0.6-0.2c-0.5-0.2-0.9-0.5-1.2-0.9
		c-0.1-0.2-0.3-0.3-0.5-0.4c-0.6-0.2-1.1-0.4-1.7-0.5l-0.2,1.3c0,0.2-0.3,0.4-0.5,0.4l-11-1.7h-0.1c-0.2-0.1-0.3-0.2-0.3-0.4
		l1.2-18.7c0-0.1,0-0.2,0.1-0.3c0.1-0.1,0.2-0.1,0.3-0.1l12.7,2c0.2,0,0.4,0.3,0.3,0.5l0,0l-0.1,0.5c0.5-0.2,1.3-0.7,2.7-1.7
		c2.7-2,6.9-7.6,7.3-8.5c0.2-0.7,0.3-1.5,0.4-2.2c0.3-2.2,0.6-3.8,1.2-4.3c0.8-0.6,1.9-0.9,3-0.7c1,0.1,1.8,0.7,2.3,1.5
		c1,2.2,1.5,4.5,1.3,6.9c-0.2,1.3-1.6,5.6-2.1,7l12.3,1.9c0.7,0.1,1.4,0.5,1.8,1c0.4,0.8,0.5,1.7,0.2,2.6c-0.4,1.1-1.1,2-2,2.8
		C141.1,131.9,141.3,133.1,140.8,134.1z"/>
	<polygon class="st3" points="99,122.2 111.7,124.2 108.8,142.6 97.8,140.9 	"/>
	<path class="st2" d="M109.4,141.3l0.1-0.4l0.1-0.5l2.4-14.9l0.1-0.4l0.1-0.5l0.1-0.5l0,0c0-0.2-0.1-0.4-0.3-0.5l-12.7-2
		c-0.1,0-0.2,0-0.3,0.1c-0.1,0.1-0.1,0.2-0.1,0.3l-1.2,18.7c0,0.2,0.1,0.4,0.3,0.4h0.1l11,1.7c0.2,0,0.4-0.1,0.5-0.4L109.4,141.3z
		 M111.3,124.5l-0.1,0.5l-2.5,15.9l-0.2,1.2l-10.2-1.6l1.1-17.8L111.3,124.5z"/>
	<circle class="st2" cx="105.9" cy="138.9" r="1.5"/>
	<path class="st1" d="M111.5,125.3c0,0,0.8,0,3.5-2s7-7.7,7.4-8.7s0.7-5.6,1.5-6.4s3.6-1.1,4.6,0.7c1,2.1,1.4,4.4,1.3,6.7
		c-0.2,1.5-2.2,7.4-2.2,7.4l12.8,2c1.9,0.3,2.1,1.7,1.7,3.1s-2.3,2.9-2.3,2.9s1.5,0.8,0.7,2.9c-0.5,1.2-1.4,2.1-2.6,2.4
		c0.6,0.7,0.6,1.7,0.1,2.4c-0.5,0.9-1.3,1.6-2.3,1.9c0.8,0.6,1,1.8,0.3,2.6c-1,1.7-2.3,2.7-3.8,2.5c-1.6-0.2-17.1-2.7-18.6-2.9
		s-1.4-1-2.2-1.4c-0.7-0.3-1.5-0.5-2.3-0.6L111.5,125.3z"/>
	<path class="st2" d="M140.4,131.1c0.9-0.7,1.6-1.7,2-2.8c0.3-0.9,0.2-1.8-0.2-2.6c-0.4-0.6-1.1-1-1.8-1l-12.3-1.9
		c0.5-1.4,1.9-5.7,2.1-7c0.1-2.4-0.3-4.8-1.3-6.9c-0.5-0.9-1.3-1.4-2.3-1.5c-1-0.2-2.1,0.1-3,0.7c-0.5,0.6-0.8,2.1-1.2,4.3
		c-0.1,0.7-0.2,1.5-0.4,2.2c-0.3,0.9-4.6,6.5-7.3,8.5c-1.4,1-2.2,1.5-2.7,1.7c-0.2,0.1-0.4,0.1-0.5,0.2c-0.1,0-0.1,0-0.1,0
		c-0.1,0-0.3,0.1-0.3,0.2s-0.1,0.1-0.1,0.2l-2.5,15.6c0,0.1,0,0.1,0,0.2c0,0.1,0,0.1,0.1,0.2c0.1,0.1,0.2,0.1,0.3,0.1l0,0
		c0.1,0,0.3,0,0.4,0c0.6,0.1,1.2,0.2,1.7,0.5c0.2,0.1,0.3,0.3,0.5,0.4c0.3,0.4,0.7,0.7,1.2,0.9c0.2,0.1,0.4,0.1,0.6,0.2l2.4,0.4
		c4.9,0.8,14.9,2.4,16.2,2.6c1.6,0.2,3.1-0.7,4.3-2.7c0.6-0.8,0.6-1.9,0-2.7c0.8-0.4,1.5-1,1.9-1.8c0.5-0.7,0.5-1.6,0.2-2.4
		c1.1-0.5,1.9-1.4,2.3-2.5C141.3,133.1,141.1,131.9,140.4,131.1z M137.7,136c-0.2,0-0.3,0.1-0.3,0.3s0,0.3,0.1,0.4
		c0.1,0.1,0.7,0.7,0,1.9c-0.4,0.8-1.1,1.4-2,1.7c-0.2,0-0.3,0.2-0.3,0.3c0,0.2,0,0.3,0.2,0.4c0.6,0.5,0.7,1.4,0.2,2.1
		c-1,1.7-2.2,2.4-3.4,2.3c-1.3-0.2-11.4-1.8-16.2-2.6l-2.4-0.4c-0.5,0-1-0.3-1.3-0.7c-0.2-0.3-0.4-0.5-0.7-0.6
		c-0.1-0.1-0.3-0.1-0.5-0.2c-0.5-0.2-1-0.3-1.5-0.4c0,0,0,0-0.1,0l2.3-14.8h0.1c1.2-0.5,2.3-1.1,3.2-2c2.7-2,7.2-7.7,7.6-8.9
		c0.2-0.8,0.4-1.6,0.5-2.4c0.2-1.4,0.5-3.4,0.9-3.8c0.7-0.4,1.5-0.6,2.2-0.5s1.3,0.5,1.7,1.1c0.9,2,1.4,4.2,1.2,6.4
		c-0.2,1.4-2.2,7.3-2.2,7.3c0,0.1,0,0.2,0,0.4c0.1,0.1,0.2,0.2,0.3,0.2l12.8,2c0.5,0,1,0.3,1.3,0.7c0.3,0.6,0.3,1.3,0.1,1.9
		c-0.2,1-1.6,2.2-2.1,2.6c-0.1,0.1-0.2,0.2-0.1,0.4c0,0.1,0.1,0.3,0.2,0.3c0.1,0.1,1.1,0.8,0.5,2.3
		C139.7,134.8,138.8,135.6,137.7,136z"/>
	<path class="st6" d="M89.2,151.4l-0.4,8.5c0,0.2,0.2,0.4,0.4,0.4c0.1,0,0.2,0,0.3-0.1l8.4-7.2l44.2,8c0.6,0.1,1.2,0.2,1.8,0.2
		c4.9,0,9.1-3.5,9.9-8.3l6.6-36.4c1-5.5-2.6-10.7-8.1-11.7l0,0l-51.9-9.4c-5.5-1-10.7,2.6-11.8,8.1L82,139.9
		C81.2,145,84.2,149.9,89.2,151.4z M142.3,160.3l-44.4-8.1c-0.1,0-0.3,0-0.4,0.1l-7.8,6.7l0.4-7.9c0-0.2-0.1-0.4-0.3-0.4
		c-4.7-1.2-7.6-5.8-6.8-10.6l6.6-36.4c0.9-5,5.7-8.4,10.8-7.5l0,0l51.9,9.4c5,0.9,8.4,5.7,7.5,10.8l0,0l-6.6,36.4
		C152.1,157.8,147.3,161.2,142.3,160.3z"/>
</g>
</svg>
