<?xml version="1.0" encoding="utf-8"?>
<!-- Generator: Adobe Illustrator 25.0.0, SVG Export Plug-In . SVG Version: 6.00 Build 0)  -->
<svg version="1.1" id="Layer_1" xmlns="http://www.w3.org/2000/svg" xmlns:xlink="http://www.w3.org/1999/xlink" x="0px" y="0px"
	 viewBox="0 0 1171.9 239.7" style="enable-background:new 0 0 1171.9 239.7;" xml:space="preserve">
<style type="text/css">
	.st0{fill:#FFFFFF;}
	.st1{fill:#D1D3D4;}
	.st2{fill:#231F20;}
	.st3{fill:#00ADEE;}
	.st4{fill:#E6E7E8;}
</style>
<g>
	<path class="st0" d="M168.5,116.3c0,0-17.4-2.4-22-12.6l-11.8,15.5c0,0,8.6,16,23.8,13.9L168.5,116.3z"/>
	<path class="st1" d="M155.8,133.8c-13.7,0-21.5-14.2-21.6-14.3c-0.1-0.2-0.1-0.4,0-0.5l11.9-15.5c0.1-0.1,0.3-0.2,0.5-0.2
		s0.3,0.1,0.4,0.3c4.5,9.8,21.5,12.3,21.6,12.3c0.2,0,0.3,0.1,0.4,0.3c0.1,0.1,0.1,0.3,0,0.5l-10.1,16.8c-0.1,0.1-0.2,0.2-0.4,0.2
		C157.6,133.8,156.7,133.8,155.8,133.8z M135.2,119.3c1.2,2.1,9.5,15.1,22.9,13.4l9.5-16c-3.3-0.6-16.7-3.4-21.3-12L135.2,119.3z"/>
</g>
<g>
	<path class="st0" d="M345.2,46.6c0,0-16.5-9.1-32.3,1.5l6.4,21.6c0,0,14.6-10.9,25.9-8V46.6z"/>
	<path class="st1" d="M319.4,70.2c-0.1,0-0.1,0-0.2,0c-0.2-0.1-0.3-0.2-0.3-0.3l-6.4-21.6c-0.1-0.2,0-0.4,0.2-0.6
		c15.9-10.6,32.6-1.6,32.8-1.5c0.2,0.1,0.3,0.2,0.3,0.4v15c0,0.2-0.1,0.3-0.2,0.4c-0.1,0.1-0.3,0.1-0.4,0.1
		c-10.9-2.8-25.3,7.8-25.5,7.9C319.6,70.2,319.5,70.2,319.4,70.2z M313.5,48.3l6.1,20.6c2.8-2,15-10,25.1-7.8V46.9
		C342.6,45.9,327.7,39.1,313.5,48.3z"/>
</g>
<g>
	<path class="st0" d="M147.8,45.6c0,0-0.1-1.8,5-2.1c3-0.2,6,0.7,8.4,2.6l-13.3,17.2C147.8,63.3,144.9,49.5,147.8,45.6z"/>
	<path class="st1" d="M147.8,63.8h-0.1c-0.2,0-0.3-0.2-0.4-0.4c-0.1-0.6-2.8-13.9,0-18c0.1-0.6,0.8-2.1,5.4-2.5
		c3.2-0.2,6.3,0.7,8.7,2.7c0.2,0.2,0.2,0.5,0.1,0.7l-13.3,17.2C148,63.8,147.9,63.8,147.8,63.8z M153.5,44c-0.3,0-0.5,0-0.8,0
		c-3.6,0.3-4.4,1.3-4.5,1.6c0,0.1,0,0.2-0.1,0.3c-2.3,3-0.7,12.9-0.1,16.2l12.3-16C158.4,44.8,156,44,153.5,44L153.5,44z"/>
	<path class="st0" d="M147.8,45.6l-8.1,16.6c2.4,3.9,5.8,7.1,9.8,9.2l7.9-14.9C157.4,56.6,148.9,52.9,147.8,45.6z"/>
	<path class="st1" d="M149.4,71.9c-0.1,0-0.2,0-0.2-0.1c-4.1-2.2-7.6-5.4-10-9.4c-0.1-0.1-0.1-0.3,0-0.5l8.1-16.6
		c0.1-0.2,0.3-0.3,0.5-0.3s0.4,0.2,0.4,0.4c1.1,6.9,9.3,10.5,9.3,10.6c0.1,0.1,0.2,0.2,0.3,0.3c0,0.1,0,0.3,0,0.4l-7.9,14.9
		C149.8,71.9,149.6,72,149.4,71.9z M140.2,62.2c2.2,3.6,5.3,6.5,9,8.6l7.5-14c-1.7-0.9-7.5-4.1-9.1-9.7L140.2,62.2z"/>
</g>
<path class="st0" d="M221.1,43.2c-2.9-2-6.3-2.9-9.8-2.7c-5.6,0.5-7.4-2.5-7.4-2.5l-2.6,10.5c0,0,3,3.7,5.6,3.8s4.7-1.6,9,0
	L221.1,43.2z"/>
<path class="st1" d="M207.2,52.8H207c-2.8-0.1-5.9-3.8-6-4c-0.1-0.1-0.1-0.3-0.1-0.4l2.6-10.5c0-0.2,0.2-0.3,0.4-0.4
	c0.2,0,0.4,0.1,0.5,0.2c0.1,0.1,1.7,2.7,6.9,2.3c3.6-0.2,7.2,0.7,10.1,2.8c0.2,0.2,0.3,0.4,0.1,0.6l-5.1,9c-0.1,0.2-0.4,0.3-0.6,0.2
	c-2-0.8-4.2-0.9-6.2-0.3C208.9,52.6,208,52.7,207.2,52.8z M201.9,48.4c0.6,0.7,3.1,3.3,5.1,3.4c0.8,0,1.6-0.1,2.5-0.3
	c2.1-0.6,4.3-0.5,6.3,0.2l4.7-8.3c-2.7-1.7-5.9-2.6-9.1-2.4c-4,0.3-6.2-1-7.2-2L201.9,48.4z"/>
<g>
	<path class="st0" d="M350.4,113.7c0,0-1.2,3-5.6,5.5s-10.8,0-10.8,0l1.6,14.2c0,0,5.7,2.6,13.6-1s8.3-7.3,8.3-7.3L350.4,113.7z"/>
	<path class="st1" d="M340.9,134.7c-1.9,0-3.7-0.3-5.5-1c-0.2-0.1-0.3-0.2-0.3-0.4l-1.6-14.2c0-0.2,0.1-0.3,0.2-0.4s0.3-0.1,0.5-0.1
		c0.1,0,6.3,2.4,10.4,0s5.3-5.2,5.3-5.2c0.1-0.2,0.2-0.3,0.4-0.3c0.2,0,0.4,0.1,0.5,0.2l7.1,11.4c0.1,0.1,0.1,0.2,0.1,0.3
		c0,0.2-0.4,4.1-8.6,7.7C346.8,134,343.9,134.7,340.9,134.7z M336.1,133c1.2,0.4,6.3,1.9,12.9-1.1s7.8-6.1,7.9-6.7l-6.5-10.5
		c-1.3,2.1-3.2,3.7-5.3,4.9c-3.7,2.1-8.6,0.9-10.5,0.3L336.1,133z"/>
</g>
<g>
	<path class="st0" d="M388.3,68.2c-3.6,2.7-6.2,6.6-7.3,10.9l21,0.2C402,79.3,391.3,68.2,388.3,68.2z"/>
	<path class="st1" d="M402,79.8L402,79.8l-21-0.2c-0.2,0-0.3-0.1-0.4-0.2s-0.1-0.3-0.1-0.4c1.1-4.5,3.7-8.4,7.5-11.2
		c0.1-0.1,0.2-0.1,0.3-0.1c3.1,0.1,13,10.1,14.1,11.3c0.2,0.2,0.2,0.5,0,0.7C402.3,79.7,402.2,79.8,402,79.8L402,79.8z M381.6,78.6
		l19.2,0.2c-4.2-4.2-10.3-9.8-12.4-10.1C385.2,71.2,382.8,74.7,381.6,78.6z"/>
	<path class="st0" d="M414,82c0,0,4.9-9.3-8.1-16.9l-17.6,3.1c0,0,16.5,4.8,6.6,20.5L414,82z"/>
	<path class="st1" d="M394.8,89.2c-0.2,0-0.3-0.1-0.4-0.2c-0.1-0.2-0.1-0.4,0-0.6c3-4.7,3.8-8.8,2.5-12.3c-2-5.4-8.7-7.4-8.8-7.5
		c-0.3,0-0.5-0.2-0.5-0.5s0.2-0.5,0.5-0.5l17.6-3.1c0.1,0,0.2,0,0.3,0.1c6.9,4,8.8,8.5,9.2,11.6c0.3,2,0,4-0.9,5.9
		c-0.1,0.1-0.1,0.2-0.3,0.2l-19,6.8C395,89.2,394.9,89.2,394.8,89.2z M390.1,68.3c2.3,1,6.2,3.3,7.7,7.4c1.3,3.5,0.7,7.5-1.9,12
		l17.6-6.2c0.6-1.3,3.6-9.2-7.8-16L390.1,68.3z M413.9,82L413.9,82z"/>
</g>
<g>
	
		<ellipse transform="matrix(0.7071 -0.7071 0.7071 0.7071 214.2873 776.6497)" class="st0" cx="1044.6" cy="129.7" rx="63.3" ry="63.3"/>
	<path class="st2" d="M1044.7,193.4c-35.3,0-63.9-28.6-63.9-63.9s28.6-63.9,63.9-63.9s63.9,28.6,63.9,63.9
		C1108.5,164.8,1079.9,193.4,1044.7,193.4z M1044.7,66.8c-34.7,0-62.7,28.1-62.7,62.7s28.1,62.7,62.7,62.7
		c34.7,0,62.7-28.1,62.7-62.7C1107.4,94.9,1079.3,66.9,1044.7,66.8z"/>
	<circle class="st3" cx="1044.6" cy="129.6" r="48.6"/>
	
		<ellipse transform="matrix(0.4473 -0.8944 0.8944 0.4473 461.4453 1005.9965)" class="st0" cx="1044.6" cy="129.7" rx="34.3" ry="34.3"/>
	<circle class="st3" cx="1044.6" cy="129.6" r="22.6"/>
</g>
<g>
	<path class="st1" d="M1045.9,127.2l-2,7.5L997.3,169l-7.7-17L99.9,232l1.3-11.6L921.3,138c0,0,58.6-8.7,56.8-9.2
		s-14.6-18.5-14.6-18.5l3.4-6.5l54.4,23.3L1045.9,127.2z"/>
	<path class="st2" d="M99.8,232.6c-0.1,0-0.2-0.1-0.2-0.1c-0.1-0.1-0.2-0.3-0.1-0.4l1.3-11.6c0-0.2,0.2-0.4,0.4-0.4l820.1-82.4
		c20.3-3,50.4-7.6,55.8-8.8c-3.1-2.9-11.3-14.3-14-18.1c-0.1-0.2-0.1-0.4,0-0.5l3.4-6.5c0.1-0.2,0.4-0.3,0.6-0.2l54.3,23.3h24.4
		c0.3,0,0.5,0.2,0.5,0.5v0.1l-2,7.5c0,0.1-0.1,0.2-0.2,0.3l-46.7,34.3c-0.1,0.1-0.3,0.1-0.4,0.1c-0.2,0-0.3-0.1-0.3-0.3l-7.5-16.6
		L100,232.6C99.9,232.6,99.8,232.6,99.8,232.6z M101.7,221l-1.2,10.6l889.1-79.9c0.2,0,0.4,0.1,0.5,0.3l7.4,16.4l46-33.8l1.7-6.7
		h-23.8c-0.1,0-0.1,0-0.2-0.1l-54-23.1l-3.1,5.8c6,8.5,13,17.7,14.1,18.1c0.2,0.1,0.4,0.3,0.4,0.5c0,0.6-0.1,0.8-28.9,5.3
		c-14,2.2-28.3,4.3-28.4,4.3L101.7,221z"/>
	<polygon class="st0" points="166.6,161.4 164.5,161.5 163.1,161.5 108.8,164.4 105.8,186.5 103.1,207.3 101.4,220.1 101.3,220.4 
		101.3,220.5 139.8,217.2 991.7,143.6 999.5,157.9 1044.8,127.9 1045.9,127.2 1044.9,126.9 969.6,104.7 967.4,104 967,103.9 
		967.7,104.9 977.5,118.6 970.2,119 969.8,119 969.1,119 260.3,156.4 259.7,156.4 259.2,156.5 246.3,157.1 245.5,157.2 245,157.2 
		243.7,157.3 242.7,157.3 241.4,157.4 204.8,159.3 203.8,159.4 203.5,159.4 203.1,159.4 202.7,159.4 201.7,159.5 	"/>
	<g>
		<path class="st4" d="M200.3,198.5c-3.3,0.3-81.2,4.2-98.7,9.2l3-21.1c11.3-1.3,45.7-4.2,51.7-3c8.6,1.8,33.6,4.6,43.5,3
			c10-1.5,43.9-11.8,48.6-7.4C253.1,183.5,204.7,198.1,200.3,198.5z"/>
	</g>
	<path class="st2" d="M101.1,221c-0.1,0-0.2-0.1-0.2-0.1c-0.1-0.1-0.2-0.3-0.1-0.4l7.6-56.1c0-0.3,0.3-0.5,0.5-0.4l867.6-45.9
		l-9.9-13.8c-0.1-0.2-0.1-0.4,0-0.6s0.4-0.3,0.6-0.2l78.9,23.3c0.2,0.1,0.3,0.2,0.4,0.4c0,0.2-0.1,0.4-0.2,0.5l-46.4,30.7
		c-0.1,0.1-0.3,0.1-0.4,0.1c-0.1,0-0.3-0.1-0.3-0.3l-7.6-14.1L101.3,221C101.2,221,101.2,221,101.1,221z M109.3,165l-7.4,55
		l889.7-77c0.2,0,0.4,0.1,0.5,0.3l7.5,13.9l45-29.8l-76.5-22.6l9.7,13.5c0.1,0.2,0.1,0.4,0,0.5c-0.1,0.2-0.3,0.3-0.5,0.3L109.3,165z
		"/>
</g>
<g id="_504_innovation_flatline">
	<polygon class="st0" points="414.5,124.7 405.5,122 402.1,128.2 410.5,131.2 	"/>
	<path class="st2" d="M410.5,131.6h-0.1l-8.4-3c-0.1,0-0.2-0.1-0.2-0.2c0-0.1,0-0.2,0-0.3l3.4-6.2c0.1-0.2,0.3-0.2,0.5-0.2l9,2.7
		c0.1,0,0.2,0.1,0.3,0.2c0.1,0.1,0.1,0.2,0,0.3l-3.9,6.5C410.8,131.6,410.7,131.6,410.5,131.6z M402.7,128l7.7,2.8l3.5-5.8l-8.2-2.5
		L402.7,128z"/>
	
		<ellipse transform="matrix(0.9991 -4.248044e-02 4.248044e-02 0.9991 -6.973 18.2573)" class="st4" cx="426.1" cy="173.2" rx="50.6" ry="6.6"/>
	<polygon class="st0" points="466.1,151.7 461.6,158.7 470.3,161.2 476.4,153.9 	"/>
	<path class="st2" d="M470.3,161.6h-0.1l-8.7-2.5c-0.2-0.1-0.3-0.3-0.3-0.5v-0.1l4.5-7.1c0.1-0.1,0.3-0.2,0.4-0.2l10.3,2.2
		c0.1,0,0.2,0.1,0.3,0.3c0,0.1,0,0.3-0.1,0.4l-6.1,7.3C470.5,161.6,470.4,161.6,470.3,161.6z M462.2,158.5l8,2.3l5.5-6.6l-9.4-2
		L462.2,158.5z"/>
	<path class="st2" d="M461.6,158.7c0,0-4.2,4.9-4,5.5s18.1,7.3,18.9,6s-6.1-9-6.1-9L461.6,158.7z"/>
	<path class="st2" d="M475.8,170.8c-0.2,0-0.4,0-0.5,0c-3.4-0.4-17.8-5.5-18.1-6.4c-0.1-0.2-0.3-0.8,4.1-5.9
		c0.1-0.1,0.3-0.2,0.4-0.1l8.7,2.5c0.1,0,0.1,0.1,0.2,0.1c2.1,2.4,7,8.1,6.2,9.5C476.6,170.7,476.3,170.8,475.8,170.8z M458,164.1
		c1.9,1.2,17,6.5,18.2,5.9c0.2-0.6-2.5-4.5-6.1-8.4l-8.4-2.4C460.3,160.7,459.1,162.4,458,164.1z"/>
	<path class="st2" d="M469.8,107.4c0,0,19.7,18.9,20.3,23.3c0.5,4.5-15.2,27-15.2,27l-11.8-5c0,0,13.2-16.8,10.5-21.7
		c-2.7-5-17.4-14-17.4-14s-9.5,20.9-15.7,24.2c-6.2,3.2-32.3-8.6-32.3-8.6l5.3-10.8c0,0,17.2,6.3,20.5,3.6c3.2-2.7,8.4-28,8.4-28
		L469.8,107.4z"/>
	<path class="st2" d="M474.9,158.1h-0.1l-11.8-5c-0.1-0.1-0.2-0.1-0.2-0.3c0-0.1,0-0.2,0.1-0.3c3.6-4.6,12.6-17.4,10.5-21.3
		c-2.4-4.4-14.6-12.1-16.9-13.6c-1.4,3-9.8,20.9-15.7,24c-6.3,3.3-31.5-8.2-32.6-8.6c-0.1,0-0.2-0.1-0.2-0.2c0-0.1,0-0.2,0-0.3
		l5.3-10.8c0.1-0.2,0.3-0.3,0.5-0.2c4.7,1.7,17.6,5.8,20.1,3.7c2.5-2.1,6.9-20.8,8.3-27.8c0-0.2,0.3-0.3,0.5-0.3c0,0,0,0,0.1,0
		l27.3,10l0.1,0.1c0.8,0.8,19.8,19,20.4,23.6c0.6,4.6-14.5,26.3-15.2,27.2C475.2,158,475.1,158.1,474.9,158.1z M463.8,152.5l11,4.7
		c4.5-6.4,15.4-23,14.9-26.5c-0.4-3.5-13.3-16.5-20.1-23l-26.8-9.9c-0.7,3.5-5.4,25.1-8.5,27.8s-17.7-2.4-20.5-3.4l-5,10.1
		c3.2,1.4,25.9,11.4,31.6,8.5c6-3.1,15.4-23.8,15.5-24c0-0.1,0.1-0.2,0.2-0.2s0.2,0,0.3,0c0.6,0.4,14.8,9.1,17.6,14.1
		C476.6,135.5,465.8,149.9,463.8,152.5z"/>
	<path class="st0" d="M513.4,59.5c1.4-1,2.9-1.8,4.5-2.5c1.8-0.6,4.1-1,3.6-1.8s-4.8,0.3-4.8,0.3s2.5-3.8,3.9-4.6s3.4-0.7,2.4-1.4
		s-4-0.8-5.1-0.3s-7.1,7.1-7.4,7.5C510.2,57.2,513.4,59.5,513.4,59.5z"/>
	<path class="st2" d="M513.4,59.9c-0.1,0-0.2,0-0.2-0.1c-2-1.5-3-2.5-3.1-2.9c0-0.1,0-0.3,0.1-0.4c0.1-0.1,6.3-7,7.5-7.6
		s4.3-0.5,5.5,0.3c0.1,0.1,0.5,0.4,0.4,0.8c-0.1,0.4-0.6,0.6-1.3,0.8c-0.5,0.1-1.1,0.3-1.6,0.6c-0.9,0.5-2.3,2.4-3.2,3.6
		c1.7-0.4,3.8-0.7,4.2,0.1c0.1,0.2,0.2,0.4,0.1,0.7c-0.2,0.6-1.1,0.9-2.7,1.3c-0.4,0.1-0.8,0.2-1.2,0.4
		C516.4,58.1,514.9,58.9,513.4,59.9C513.5,59.9,513.4,59.9,513.4,59.9z M510.9,56.9c0.7,0.8,1.6,1.5,2.4,2.1
		c1.4-0.9,2.8-1.7,4.3-2.4c0.4-0.1,0.8-0.3,1.2-0.4c0.8-0.2,2-0.6,2.2-0.8c-0.3-0.2-2.4,0-4.4,0.5c-0.2,0.1-0.4-0.1-0.5-0.3
		c0-0.1,0-0.2,0.1-0.3c0.1-0.2,2.6-3.9,4.1-4.7c0.6-0.3,1.2-0.5,1.8-0.6l0.6-0.2c-1.5-0.6-3.1-0.7-4.6-0.2
		C517.2,50.1,511.9,55.8,510.9,56.9z"/>
	<path class="st3" d="M473.7,62.1c0,0,24.6,5.2,27,4.6l9.3-10.4l5.5,3.6c0,0-2.8,8.6-6.8,13.5s-29.6,6-29.6,6L473.7,62.1z"/>
	<path class="st0" d="M474,56.5c-1.5-0.1-2.9-0.6-4.2-1.3c-2.2-1.4-3.8-3.7-4.2-6.3c-3.2-0.4-5.5-3.3-5.1-6.5v-0.1
		c1.9,0.5,3.9,0,5.4-1.2c-1.9,0.1-3.6-1.2-3.8-3.1c0-0.2,0-0.4,0.1-0.6c0.3-0.5,1.1-0.4,1.7-0.3c3,0.7,6,0.1,9-0.5s6-1.3,9-0.9
		c4.3,0.6,7.7,3.7,7,8.2c-0.2,1.6-0.6,3.1-1.1,4.6c-0.3,0.5-0.7,0.9-1.1,1.2c-2.4,2-4.1,4.9-7.1,6.3C477.8,56.5,475.9,56.7,474,56.5
		z"/>
	<path class="st2" d="M475.3,56.9c-0.4,0-0.9,0-1.3-0.1l0,0c-1.5-0.1-3-0.6-4.4-1.4c-2.3-1.4-3.8-3.7-4.4-6.3
		c-3.3-0.6-5.6-3.7-5.1-7.1c0-0.1,0.1-0.2,0.2-0.3s0.2-0.1,0.3,0c1.4,0.4,2.9,0.2,4.2-0.5c-0.6-0.1-1.2-0.4-1.7-0.8
		c-0.8-0.6-1.3-1.6-1.4-2.6c0-0.3,0-0.5,0.1-0.8c0.5-0.9,1.7-0.6,2.1-0.5c2.8,0.6,5.8,0.1,8.8-0.5l0.4-0.1c2.9-0.6,5.8-1.2,8.8-0.8
		c2.4,0.3,4.6,1.5,6.1,3.3c1.1,1.5,1.6,3.5,1.3,5.4c-0.2,1.6-0.6,3.2-1.2,4.7c-0.3,0.5-0.7,1-1.2,1.3l-0.1,0.1
		c-0.8,0.7-1.6,1.5-2.4,2.4c-1.4,1.5-2.8,3.1-4.7,3.9C478.4,56.7,476.9,57,475.3,56.9z M474.1,56.1c1.8,0.2,3.6,0,5.3-0.7
		c1.8-0.8,3.1-2.2,4.5-3.7c0.8-0.9,1.6-1.7,2.5-2.5l0.1-0.1c0.4-0.3,0.7-0.6,1-1c0.5-1.4,0.9-2.9,1.1-4.4c0.3-1.7-0.1-3.4-1.1-4.8
		c-1.4-1.7-3.4-2.8-5.5-3c-2.8-0.4-5.7,0.2-8.5,0.8l-0.4,0.1c-3.1,0.7-6.2,1.2-9.2,0.5c-0.7-0.2-1.1-0.1-1.2,0.1c0,0.1,0,0.3,0,0.4
		c0.2,1.7,1.7,2.9,3.3,2.8c0.2,0,0.3,0.1,0.4,0.2c0.1,0.2,0,0.3-0.1,0.5c-1.5,1.3-3.4,1.8-5.3,1.4c-0.1,1.3,0.3,2.7,1.1,3.7
		c0.9,1.2,2.2,2,3.6,2.1c0.2,0,0.3,0.1,0.4,0.3c0.4,2.5,1.9,4.7,4,6C471.2,55.5,472.6,56,474.1,56.1L474.1,56.1z"/>
	<path class="st0" d="M488.3,49.9c0,0,2.3,4.3,1.7,5.1s-2.4,0.1-2.4,0.1"/>
	<path class="st2" d="M489,55.7c-0.5,0-1.1-0.1-1.6-0.3c-0.2-0.1-0.3-0.3-0.2-0.5l0,0c0.1-0.2,0.3-0.3,0.5-0.2l0,0
		c0.5,0.2,1.6,0.5,2,0s-0.6-2.5-1.7-4.6c-0.1-0.2-0.1-0.4,0.1-0.5l0,0c0.2-0.1,0.4,0,0.5,0.2c0.7,1.4,2.4,4.6,1.7,5.5
		C489.9,55.5,489.5,55.7,489,55.7z"/>
	<path class="st0" d="M488.2,44.5c1.6,1.6,0.8,4.4,0.7,6.3c-0.3,2.7-0.6,5.4-0.9,8c-0.2,1.7-4.6,1.3-5.4,0.8l-0.1,5.7
		c0,0-1.3,3-4.7,1.1s-4-4.3-4-4.3l1-7.7c0,0,2.9,0.3,4.9-3s2.4-8.6,2.4-8.6S486.6,43,488.2,44.5z"/>
	<path class="st2" d="M479.9,67.4c-0.8,0-1.6-0.3-2.4-0.7c-3.5-2-4.2-4.4-4.2-4.5s0-0.1,0-0.2l1-7.7c0-0.2,0.2-0.4,0.4-0.3l0,0
		c0.1,0,2.7,0.2,4.5-2.9c1.9-3.2,2.4-8.4,2.4-8.5c0-0.2,0.2-0.4,0.4-0.4c0.2,0,4.8,0.4,6.4,2l0,0c1.5,1.4,1.1,3.7,0.9,5.6
		c0,0.4-0.1,0.7-0.1,1c-0.3,2.7-0.6,5.4-0.9,8c-0.1,0.6-0.5,1.1-1.1,1.2c-1.4,0.4-2.9,0.4-4.3,0.1l-0.1,5.1v0.1
		c-0.4,0.8-1.1,1.5-2,1.8C480.5,67.3,480.2,67.4,479.9,67.4z M474.1,62c0.1,0.4,0.9,2.4,3.8,4c0.8,0.5,1.7,0.7,2.7,0.5
		c0.6-0.2,1.2-0.7,1.5-1.3l0.1-5.6c0-0.2,0.1-0.3,0.2-0.4c0.1-0.1,0.3,0,0.4,0c1.3,0.5,2.8,0.5,4.1,0.1c0.4-0.2,0.6-0.4,0.7-0.6
		c0.4-2.7,0.7-5.4,0.9-8c0-0.3,0.1-0.7,0.1-1.1c0.2-1.7,0.5-3.8-0.7-5l0,0c-1.2-1.1-4.4-1.6-5.6-1.7c-0.1,1.3-0.7,5.6-2.4,8.4
		c-1,1.9-2.8,3.1-4.9,3.2L474.1,62z"/>
	<path class="st0" d="M488,56.8c0,0-2.2,1.1-3.1-1.1"/>
	<path class="st2" d="M486.8,57.5c-0.3,0-0.6,0-0.9-0.1c-0.7-0.3-1.2-0.8-1.4-1.5c-0.1-0.2,0-0.4,0.2-0.5l0,0c0.2-0.1,0.4,0,0.5,0.2
		l0,0c0.2,0.5,0.5,0.9,1,1s1.1,0.1,1.6-0.1c0.2-0.1,0.4,0,0.5,0.2s0,0.4-0.2,0.5C487.7,57.4,487.3,57.5,486.8,57.5z"/>
	<path class="st0" d="M483,51.2c0-0.7-0.2-1.3-0.6-1.9c-0.2-0.5-0.5-0.9-0.9-1.3c-0.4-0.4-0.9-0.6-1.4-0.6c-0.5,0.1-0.9,0.4-1.1,0.8
		c-0.2,0.4-0.4,0.8-0.4,1.3c-0.3,2,0.6,4.1,2.2,5.3l-0.1-0.2"/>
	<path class="st2" d="M480.8,55.1c-0.1,0-0.2,0-0.2-0.1c-1.7-1.4-2.6-3.5-2.4-5.7c0.1-0.5,0.2-1,0.5-1.5s0.8-0.8,1.4-0.9
		c0.7,0,1.3,0.2,1.7,0.7c0.4,0.4,0.7,0.9,0.9,1.4c0.4,0.6,0.6,1.4,0.6,2.1c0,0.2-0.2,0.4-0.4,0.4c-0.2,0-0.4-0.2-0.4-0.4l0,0
		c0-0.6-0.2-1.2-0.5-1.7c-0.2-0.4-0.5-0.8-0.8-1.2c-0.3-0.3-0.7-0.5-1.1-0.5c-0.3,0.1-0.7,0.3-0.8,0.6c-0.2,0.3-0.4,0.7-0.4,1.1
		c-0.2,1.8,0.4,3.5,1.8,4.7c0.1,0,0.2,0.1,0.2,0.1l0.1,0.2c0.1,0.1,0.1,0.4,0,0.5C481,55.1,480.9,55.2,480.8,55.1z"/>
	<path class="st2" d="M482.5,59.6c-1.3-0.5-2.4-1.4-3.1-2.6c0,0-0.2,4.1,3.2,5.6L482.5,59.6z"/>
	<path class="st2" d="M482.6,63c-0.1,0-0.1,0-0.2,0c-3.6-1.6-3.4-5.8-3.4-6s0.1-0.3,0.3-0.4c0.2,0,0.3,0,0.4,0.2
		c0.7,1,1.8,1.9,3,2.4c0.1,0.1,0.2,0.2,0.2,0.4v3C482.9,62.7,482.8,62.9,482.6,63C482.7,63,482.6,63,482.6,63z M479.9,58.3
		c0.2,1.5,1,2.8,2.3,3.7v-2.1C481.3,59.5,480.5,59,479.9,58.3L479.9,58.3z"/>
	<ellipse transform="matrix(0.2509 -0.968 0.968 0.2509 318.2986 507.2497)" class="st2" cx="486.9" cy="48" rx="1" ry="0.4"/>
	<path class="st3" d="M475.6,62.7c0,0,7.5,6.3,7.4,12.9s-12,31.2-12.3,31.5c-0.3,0.3-28.2-9.7-28.2-9.7s4.2-10.6,9.4-17.4
		C457.3,72.7,468.7,58.2,475.6,62.7z"/>
	<path class="st0" d="M517,89.5c-3.5-0.5-5.6-2.4-5.9-5.8c-0.5-6.2-3-11.5-5.7-17c-9.9-20.3,1.8-44.9,27.2-42.9
		c17.2,1.4,28.7,13.7,27.3,30.4c-0.7,8.1-4.5,15.6-10.7,20.9c-4.2,3.7-7.9,7.7-10.3,12.9c-1.5,3.4-4.2,4.8-8,3.9
		c-2.3-0.5-4.6-0.8-6.9-1.2C521.8,90.4,519.4,89.9,517,89.5z"/>
	<path class="st2" d="M533.2,92.6c-0.7,0-1.5-0.1-2.2-0.3c-1.6-0.4-3.1-0.6-4.7-0.9c-0.7-0.1-1.4-0.2-2.1-0.4l-2.3-0.4
		c-1.6-0.3-3.3-0.6-4.9-0.8l0,0c-3.8-0.5-6-2.7-6.2-6.2c-0.5-6.2-3.1-11.6-5.6-16.8c-5.2-10.7-4.7-22.9,1.5-31.9
		c5.7-8.3,14.9-12.4,26.1-11.5c8.8,0.7,16.4,4.3,21.4,10.2c4.7,5.6,6.9,12.7,6.2,20.6c-0.7,8.2-4.6,15.8-10.8,21.1
		c-3.7,3.2-7.7,7.3-10.2,12.8C538.1,91.2,536,92.6,533.2,92.6z M517.1,89.1c1.7,0.2,3.3,0.5,5,0.8l2.3,0.4c0.7,0.1,1.4,0.2,2.1,0.4
		c1.6,0.3,3.2,0.5,4.8,0.9c3.6,0.8,6.1-0.4,7.5-3.7c2.5-5.6,6.6-9.8,10.4-13.1c6.1-5.2,9.9-12.6,10.5-20.6c0.6-7.7-1.4-14.7-6-20.1
		c-4.9-5.7-12.3-9.2-20.9-9.9c-10.9-0.9-19.9,3.1-25.4,11.2c-6,8.8-6.5,20.7-1.4,31.1c2.6,5.3,5.2,10.7,5.7,17.1
		C511.8,86.8,513.7,88.6,517.1,89.1L517.1,89.1z"/>
	<path class="st0" d="M532.3,99.4l-18.5-3.3c-1.7-0.3-2.8-1.9-2.5-3.5l0.2-1c0.3-1.7,1.9-2.8,3.5-2.5l18.5,3.3
		c1.7,0.3,2.8,1.9,2.5,3.5l-0.2,1C535.5,98.6,533.9,99.7,532.3,99.4z"/>
	<path class="st2" d="M532.8,99.8c-0.2,0-0.4,0-0.6,0l-18.5-3.3c-0.9-0.2-1.7-0.7-2.2-1.4c-0.5-0.7-0.7-1.7-0.6-2.6l0.2-1
		c0.3-1.9,2.1-3.1,4-2.8l18.5,3.3c1.9,0.3,3.1,2.1,2.8,4l-0.2,1C535.9,98.6,534.5,99.8,532.8,99.8z M514.5,89.5
		c-1.3,0-2.4,0.9-2.6,2.2l-0.2,1c-0.3,1.4,0.7,2.8,2.1,3.1l0,0l0,0l18.4,3.3c1.4,0.3,2.8-0.7,3.1-2.1l0,0l0.2-1
		c0.3-1.4-0.7-2.8-2.1-3.1L515,89.6C514.8,89.5,514.7,89.5,514.5,89.5L514.5,89.5z"/>
	<path class="st0" d="M531.1,106.3l-18.5-3.3c-1.7-0.3-2.8-1.9-2.5-3.5l0.2-1c0.3-1.7,1.9-2.8,3.5-2.5l18.5,3.3
		c1.7,0.3,2.8,1.9,2.5,3.5l-0.2,1C534.3,105.5,532.7,106.6,531.1,106.3z"/>
	<path class="st2" d="M531.6,106.8c-0.2,0-0.4,0-0.6-0.1l-18.5-3.3c-0.9-0.2-1.7-0.7-2.2-1.4c-0.5-0.7-0.7-1.7-0.6-2.6l0.2-1
		c0.3-1.9,2.1-3.1,4-2.8l0,0l18.5,3.3c1.9,0.3,3.1,2.1,2.8,4l-0.2,1C534.7,105.6,533.2,106.8,531.6,106.8z M513.3,96.5
		c-1.3,0-2.4,0.9-2.6,2.2l-0.2,1c-0.2,1.4,0.7,2.8,2.1,3.1l0,0l18.5,3.3c1.4,0.2,2.8-0.7,3.1-2.1l0.2-1c0.3-1.4-0.7-2.8-2.1-3.1l0,0
		l-18.5-3.3C513.6,96.5,513.4,96.5,513.3,96.5z"/>
	<path class="st0" d="M512.3,103c-0.5,2.6,3.4,5.5,8.6,6.4c5.2,0.9,9.9-0.4,10.3-3.1L512.3,103z"/>
	<path class="st2" d="M524.2,110.1c-1.1,0-2.2-0.1-3.3-0.3c-2.4-0.4-4.6-1.3-6.6-2.6c-1.8-1.3-2.6-2.8-2.4-4.2
		c0-0.2,0.2-0.4,0.5-0.3l19,3.4c0.1,0,0.2,0.1,0.3,0.2s0.1,0.2,0.1,0.3C531.3,108.7,528.2,110.1,524.2,110.1z M512.7,103.5
		c0,1,0.7,2.1,2.1,3.1c1.9,1.3,4,2.2,6.3,2.5c4.7,0.8,8.9-0.3,9.8-2.4L512.7,103.5z"/>
	<path class="st0" d="M529.1,88c0.7-7.5,1.3-15.2,4.5-22.1c1.4-3,3.5-6.9,6.1-9c2.3-1.8,6.5-0.9,7.8,1.8c0.8,1.9,0.6,4-0.6,5.6
		c-1.2,1.6-2.7,2.9-4.5,3.7c-7.7,3.7-17,2.6-23.5-3c-2.1-1.7-3.7-4.1-4.5-6.7c-0.8-2.6-0.3-5.5,1.4-7.7c1.9-2.4,4.3-0.2,5.5,1.7
		c2.6,4.1,2.1,10,1.8,14.6c-0.5,6.5-1.8,13-3.9,19.1"/>
	<path class="st1" d="M529.1,88.4L529.1,88.4c-0.2,0-0.4-0.2-0.4-0.4l0.1-0.7c0.5-5.6,1-11.3,2.6-16.7c-2.8-0.2-5.6-0.9-8.1-2.1
		c-0.6,6-1.8,12-3.8,17.7c-0.1,0.2-0.3,0.3-0.5,0.2c-0.2-0.1-0.3-0.3-0.3-0.5c2-5.8,3.3-11.8,3.8-17.9c-1.4-0.8-2.7-1.7-3.9-2.7
		c-2.2-1.8-3.8-4.2-4.7-6.9c-0.9-2.8-0.3-5.8,1.4-8.1c0.5-0.8,1.4-1.2,2.4-1.2c1.9,0.1,3.4,2.3,3.8,2.9c2.5,4,2.2,9.7,1.9,14.2V67
		c0,0.2,0,0.4,0,0.7c2.6,1.3,5.4,2,8.3,2.2c0.4-1.4,1-2.7,1.6-4.1c2-4.4,4.1-7.5,6.2-9.1c1.3-1,3-1.3,4.6-0.9
		c1.5,0.4,2.8,1.4,3.6,2.8c0.9,2,0.6,4.3-0.6,6c-1.2,1.7-2.8,3-4.7,3.9c-3.2,1.6-6.7,2.4-10.3,2.2c-1.6,5.4-2.2,11.1-2.7,16.7
		l-0.1,0.7C529.4,88.2,529.3,88.4,529.1,88.4z M532.5,69.8c3.4,0.1,6.7-0.6,9.7-2.1c1.8-0.8,3.3-2,4.4-3.6c1.1-1.5,1.3-3.5,0.5-5.3
		c-1.4-2.4-4.6-3.2-7-1.8c-0.1,0-0.1,0.1-0.2,0.1c-2,1.6-4,4.6-6,8.9C533.4,67.3,532.9,68.6,532.5,69.8z M517.6,50
		c-0.6,0-1.2,0.4-1.6,0.9c-1.6,2.1-2.1,4.9-1.3,7.4s2.4,4.8,4.4,6.5c1.1,0.9,2.3,1.8,3.5,2.4c0-0.1,0-0.2,0-0.3v-0.6
		c0.3-4.4,0.6-9.9-1.8-13.7c-0.7-1.2-2-2.5-3.2-2.5L517.6,50z"/>
	<path class="st0" d="M511.5,78.6l4.2-3.5c1.3-1.1,2.6-4.1,3.8-4.1s-0.9,3.6-0.9,3.6s4.4-3.4,5.8-3.5c1.4-0.1,2.1,2.2,1.8,3
		c-0.3,0.7-4.1,2.5-5.5,3.9c-1.9,1.6-3.9,3.1-6,4.5"/>
	<path class="st2" d="M514.7,82.8c-0.1,0-0.2-0.1-0.3-0.2c-0.1-0.2-0.1-0.4,0.1-0.5c2-1.4,4-2.9,5.9-4.5c1-0.9,2.1-1.6,3.3-2.3
		c0.8-0.4,1.5-0.9,2.2-1.5c0.1-0.6-0.1-1.3-0.4-1.8c-0.2-0.4-0.6-0.6-1-0.6c-0.9,0.1-3.9,2.1-5.6,3.4c-0.1,0.1-0.4,0.1-0.5,0
		s-0.2-0.3-0.1-0.5c0.8-1.3,1.4-2.7,1.2-3c-0.5,0-1.2,1.1-1.9,2c-0.5,0.7-1,1.4-1.6,2l-4.2,3.5l-0.5-0.6l4.2-3.5
		c0.6-0.6,1.1-1.2,1.5-1.8c0.8-1.2,1.6-2.3,2.5-2.3l0,0c0.3,0,0.5,0.1,0.6,0.4c0.3,0.5,0,1.4-0.4,2.2c1.5-1,3.6-2.5,4.6-2.6
		c0.7,0,1.3,0.3,1.7,1c0.5,0.7,0.7,1.7,0.5,2.6c-0.2,0.4-1,1-2.5,1.8c-1.1,0.6-2.2,1.3-3.1,2.2c-1.9,1.6-3.9,3.2-6,4.6
		C514.9,82.8,514.8,82.8,514.7,82.8z"/>
	<path class="st3" d="M478.8,68.2c0.2,0.3,11.3,18,11.3,18l22.1-10.6l5.4,6.2c0,0-18.6,14-25.8,16.4c-7.2,2.4-24-23.5-23.7-26.4
		C468.2,69,475.6,64.3,478.8,68.2z"/>
	<path class="st2" d="M490.1,86.6c-0.1,0-0.3-0.1-0.3-0.2l-10-16c-0.1-0.2,0-0.4,0.1-0.5c0.2-0.1,0.4-0.1,0.5,0.1s8.5,13.5,9.9,15.7
		l11.6-6.1c0.2-0.1,0.4,0,0.5,0.2s0,0.4-0.2,0.5l0,0l-12,6.3C490.2,86.6,490.2,86.6,490.1,86.6z"/>
	<path class="st2" d="M491.2,98.3c-4.7,0-9.7-3.9-14.9-11.7c-0.1-0.2-0.1-0.4,0.1-0.5s0.4-0.1,0.5,0.1c5.7,8.5,11.1,12.2,15.8,11.2
		c4.8-1,14.4-8.6,14.5-8.6c0.2-0.1,0.4-0.1,0.6,0.1c0.1,0.2,0.1,0.4-0.1,0.6c-0.4,0.3-9.8,7.8-14.9,8.8
		C492.4,98.3,491.8,98.3,491.2,98.3z"/>
	<path class="st2" d="M482.8,64.4l-0.5,1.6l1.3,1.7c0,0-2.5,13.1-22.2,2.7l-6.3,2.3l3.7,5.1c0,0,23.6,9.1,25.4-9.9l0.3-2.1
		L482.8,64.4z"/>
	<path class="st2" d="M470.4,80.3c-4-0.1-8-0.8-11.7-2.2c-0.1,0-0.1-0.1-0.2-0.1l-3.7-5.1c-0.1-0.1-0.1-0.2-0.1-0.3
		c0-0.1,0.1-0.2,0.2-0.3l6.3-2.3c0.1,0,0.2,0,0.3,0c7.4,3.9,13.1,5,17.1,3.1c2.2-1.1,3.8-3,4.4-5.3l-1.2-1.6
		c-0.1-0.1-0.1-0.2-0.1-0.4l0.5-1.6c0-0.1,0.1-0.2,0.3-0.3c0.1,0,0.3,0,0.4,0.1l1.8,1.3c0.1,0.1,0.2,0.2,0.1,0.4l-0.3,2.1
		c-0.5,4.8-2.4,8.2-5.6,10.3C476.3,79.7,473.4,80.4,470.4,80.3z M459.1,77.4c1.2,0.4,12.6,4.4,19.5,0.1c2.9-1.8,4.7-4.9,5.2-9.2
		c-0.7,2.4-2.4,4.4-4.7,5.5c-4.2,2-10.1,1-17.7-3l-5.6,2L459.1,77.4z M482.6,65.9l1.2,1.5l0,0l0.2-1.6l-1.1-0.9L482.6,65.9z"/>
	<path class="st2" d="M405.5,122c0,0-7.2-2.8-7.6-2.5s-8.7,12.9-7.2,13.1c1.6,0.2,11.4-4.3,11.4-4.3L405.5,122z"/>
	<path class="st2" d="M390.7,132.9h-0.1c-0.3,0-0.5-0.2-0.5-0.5c-0.5-2,7.4-13.2,7.5-13.3c0.1-0.1,0.6-0.4,8,2.5
		c0.1,0,0.2,0.1,0.2,0.2s0,0.2,0,0.3l-3.4,6.2c0,0.1-0.1,0.1-0.2,0.2C401.3,129,392.7,132.9,390.7,132.9z M398,119.8
		c-0.4,0.4-2.2,3.1-3.9,5.9c-2.9,4.7-3.2,6-3.3,6.4c1.4-0.1,7.3-2.6,11-4.2l3.1-5.7C402.6,121.2,400.3,120.5,398,119.8z"/>
</g>
<path class="st0" d="M261.1,54.9c0,0,2.7,5.1,2,6s-2.9,0.1-2.9,0.1L261.1,54.9z"/>
<path class="st2" d="M260.3,61.6l-0.4-0.1c-0.3-0.1-0.4-0.5-0.3-0.8s0.5-0.4,0.8-0.3c0.7,0.2,1.9,0.5,2.2,0.1c0.3-0.4-0.8-3-2.1-5.3
	c-0.1-0.3,0-0.6,0.2-0.8l0,0c0.3-0.1,0.6,0,0.8,0.2l0,0c1.1,2,2.8,5.6,2,6.6C262.7,62.3,261.1,61.8,260.3,61.6z"/>
<path class="st0" d="M260.9,48.5c1.9,1.8,1,5.2,0.8,7.5c-0.3,3.2-0.7,6.3-1.1,9.5c-0.3,2-5.5,1.6-6.4,0.9l0.1,8l-10.5-5.1l1-6.6
	c0,0,0-6.9,2.4-10.8c1.6-2.5,3.8-4.4,6.4-5.7C253.6,46.3,259.1,46.7,260.9,48.5z"/>
<path class="st2" d="M254.2,75L254.2,75l-10.6-5.2c-0.2-0.1-0.4-0.4-0.3-0.6l1-6.5c0-0.2,0-7,2.4-11c1.6-2.6,4-4.6,6.7-5.9
	c0.1,0,0.2-0.1,0.3,0c0.2,0.1,5.8,0.5,7.7,2.4l0,0c1.7,1.8,1.4,4.5,1.1,6.8c0,0.4-0.1,0.8-0.1,1.2c-0.3,3.2-0.7,6.4-1.1,9.5
	c-0.1,0.8-0.7,1.4-1.4,1.6c-1.6,0.5-3.3,0.5-4.9,0.1l0.2,7.2c0,0.3-0.2,0.6-0.6,0.6c-0.1,0-0.1,0-0.2,0L254.2,75z M244.4,68.9
	l9.4,4.5l-0.1-7.1c0-0.2,0.1-0.4,0.3-0.5s0.4-0.1,0.6,0.1c1.5,0.5,3.2,0.6,4.7,0.1c0.4-0.2,0.7-0.4,0.7-0.7c0.4-3.1,0.8-6.3,1.1-9.5
	c0-0.4,0.1-0.8,0.2-1.3c0.3-2,0.6-4.5-0.8-5.8s-5.2-1.9-6.8-2c-2.5,1.2-4.5,3.1-6,5.4c-2.3,3.7-2.3,10.4-2.3,10.5L244.4,68.9z"/>
<path class="st0" d="M260.7,63.1c-1.2,0.7-2.8,0.2-3.5-1c-0.1-0.1-0.1-0.2-0.2-0.4L260.7,63.1z"/>
<path class="st2" d="M258.4,63.9h-0.1c-0.8-0.3-1.5-1-1.8-1.8c-0.2-0.3-0.1-0.6,0.2-0.8c0.3-0.2,0.6-0.1,0.8,0.2c0,0,0,0.1,0.1,0.1
	c0.2,0.5,0.6,1,1.1,1.2c0.6,0.2,1.2,0.1,1.8-0.2c0.3-0.1,0.6,0,0.8,0.2l0,0c0.1,0.3,0,0.6-0.2,0.8l0,0
	C260.2,64,259.3,64.1,258.4,63.9z"/>
<ellipse transform="matrix(3.150550e-02 -0.9995 0.9995 3.150550e-02 197.7331 310.8934)" class="st2" cx="259.3" cy="53.4" rx="1.1" ry="0.5"/>
<path class="st0" d="M241.4,71.1l1.2-3.4l13.7,3.5l1,6.5C251.7,76.2,246.3,74,241.4,71.1z"/>
<path class="st2" d="M253.9,77.3c-4.5-1.4-8.8-3.4-12.8-5.7c-0.2-0.1-0.4-0.4-0.3-0.7l1.3-3.4c0.1-0.3,0.4-0.4,0.7-0.4l13.7,3.5
	c0.2,0.1,0.4,0.2,0.4,0.5l1,6.5c0,0.2,0,0.4-0.2,0.5c-0.1,0.1-0.3,0.2-0.5,0.1C257.2,78.2,255.9,77.9,253.9,77.3z M242.1,70.8
	c4.5,2.7,9.4,4.7,14.5,6.1l-0.8-5.3L243,68.3L242.1,70.8z"/>
<path class="st0" d="M283.4,97.6c1.5-1.2,3-2.5,4.4-3.9c0.4-1.2,1-2.3,1.8-3.4c0.9-0.9,2.8-1.6,3.1,0.2c0,0,1.1-2.5,2.5-0.6
	c1.3,1.6,1.4,3.8,0.3,5.6c-1,1.9-10.9,10-10.9,10L283.4,97.6z"/>
<path class="st2" d="M284.2,106c-0.1,0-0.2-0.1-0.3-0.2c-0.2-0.2-0.2-0.6,0.1-0.8c4-3.2,10.1-8.5,10.8-9.8c1-1.5,0.9-3.5-0.3-4.9
	c-0.2-0.3-0.4-0.5-0.6-0.5s-0.7,0.6-0.8,0.9c-0.1,0.3-0.5,0.4-0.8,0.3c-0.2-0.1-0.3-0.2-0.3-0.4c-0.1-0.5-0.3-0.6-0.4-0.6
	c-0.6,0-1.2,0.2-1.6,0.7c-0.5,0.7-0.9,1.4-1.2,2.2c-0.1,0.4-0.3,0.7-0.5,1.1c-1.4,1.5-2.9,2.8-4.5,4.1c-0.3,0.2-0.6,0.1-0.8-0.2
	c-0.2-0.2-0.1-0.5,0.1-0.7c1.5-1.1,2.9-2.4,4.2-3.8c0.2-0.3,0.3-0.6,0.4-0.9c0.3-0.9,0.8-1.8,1.4-2.5c0.7-0.8,1.8-1.2,2.8-1.1
	c0.3,0.1,0.5,0.2,0.7,0.5c0.3-0.4,0.7-0.6,1.2-0.7c0.7,0,1.3,0.3,1.7,1c1.4,1.8,1.5,4.3,0.3,6.2c-1,1.9-10,9.3-11.1,10.2
	C284.6,106,284.4,106.1,284.2,106z"/>
<path class="st0" d="M194.6,92.5c0,0-2.3,2-3.7,3.6c-1.2,1.6-2.3,3.3-3.1,5.1c-0.2-0.8-0.9-1.2-1.2-1.9c-0.4,0.8-0.9,1.5-1.5,2.1
	s-1.5,0.8-2.4,0.6c-0.4-0.2-0.8-0.4-1.1-0.7c-1.2-1.1-3.3-2.9-2.8-4.8c0.2-0.7,0.6-1.3,1.2-1.8c2.2-2.1,9.8-6.7,11.1-7.4L194.6,92.5
	z"/>
<path class="st2" d="M182.6,102.4c-0.5-0.2-1-0.5-1.3-0.8c-1.1-0.9-3.5-3-3-5.3c0.2-0.8,0.7-1.5,1.4-2.1c2.4-2.3,11.1-7.4,11.2-7.5
	c0.3-0.2,0.6-0.1,0.8,0.2c0.2,0.3,0.1,0.6-0.2,0.8l0,0c-2.2,1.3-9,5.5-11,7.3c-0.5,0.4-0.8,0.9-1,1.5c-0.3,1.4,1.2,3,2.7,4.2
	c0.3,0.3,0.6,0.5,0.9,0.6c0.7,0.1,1.3,0,1.8-0.5c0.6-0.5,1-1.2,1.4-1.9c0.1-0.2,0.3-0.3,0.5-0.3s0.4,0.1,0.5,0.4s0.3,0.5,0.5,0.7
	l0.1,0.2c0.8-1.5,1.7-2.9,2.7-4.2c1.4-1.6,3.7-3.6,3.8-3.7c0.2-0.2,0.6-0.2,0.8,0l0,0c0.2,0.2,0.2,0.6,0,0.8l0,0c0,0-2.3,2-3.6,3.6
	c-1.2,1.5-2.2,3.2-3,4.9c-0.1,0.3-0.5,0.4-0.8,0.3c-0.1-0.1-0.2-0.2-0.3-0.3c-0.1-0.3-0.3-0.6-0.5-0.8l-0.1-0.1
	c-0.3,0.5-0.7,1-1.1,1.4C184.7,102.4,183.6,102.6,182.6,102.4L182.6,102.4z"/>
<path class="st2" d="M239.9,173.5c0,0-3.5,7.3-0.7,9.4s23.1-5.6,22.9-8.9c-0.2-3.2-5.4-6-11.6-3.7
	C247,171.7,243.5,172.7,239.9,173.5z"/>
<path class="st2" d="M239.4,183.7c-0.2-0.1-0.4-0.2-0.6-0.3c-3.1-2.3,0.2-9.3,0.5-10.1c0.1-0.2,0.2-0.3,0.4-0.3
	c3.6-0.8,7.1-1.8,10.5-3.1c3.2-1.4,6.9-1.2,10,0.6c1.3,0.8,2.2,2.1,2.4,3.6c0,0.4,0.1,1.7-4.5,4.2
	C253.2,180.9,242.8,184.8,239.4,183.7z M240.3,174.1c-1,2.1-2.7,7-0.8,8.4c1.5,1.2,11.5-1.7,18-5.2c3.2-1.7,4-2.8,3.9-3.1
	c-0.2-1.2-0.9-2.2-1.9-2.7c-2.8-1.5-6.1-1.7-9-0.4C247.3,172.2,243.8,173.3,240.3,174.1z"/>
<path class="st0" d="M218.2,128.6c0,0,17.7,11.3,32.9,13.3l-11.5,31.6c0,0,4.8,3.7,13.2-2.1c0,0,18.2-37.4,15.1-40.5
	c-3.1-3.1-38-11.7-38-11.7L218.2,128.6z"/>
<path class="st2" d="M241.2,174.8c-0.7-0.2-1.3-0.5-1.8-0.9c-0.2-0.2-0.3-0.4-0.2-0.7l11.2-30.9c-15.1-2.2-32.3-13.2-32.5-13.3
	s-0.3-0.3-0.3-0.5s0-0.4,0.2-0.5l11.9-9.5c0.1-0.1,0.3-0.2,0.5-0.1c3.6,0.9,35.1,8.7,38.2,11.8c3.1,3.1-11.9,34.9-15,41.2
	c0,0.1-0.1,0.2-0.2,0.2C247.6,175.8,243.4,175.5,241.2,174.8z M240.5,173.2c1.2,0.7,5.4,2.3,12-2.3c8.8-18.2,16.9-38,15.2-39.7
	c-2.4-2.4-27.6-9-37.4-11.5l-11,8.7c3.5,2.1,18.7,11.1,32,12.7c0.2,0,0.3,0.1,0.4,0.3c0.1,0.2,0.1,0.3,0.1,0.5L240.5,173.2z"/>
<path class="st0" d="M209.3,119.7c0,0-15,29.7-16.2,29.8c-1.2,0.2-36.6,15.4-36.6,15.4l5.9,9.8c0,0,36.9-8.9,40.4-13.9
	s28-34.3,28-34.3L209.3,119.7z"/>
<path class="st2" d="M162.3,175.3c-0.1,0-0.3-0.1-0.3-0.3l-5.9-9.8c-0.2-0.3-0.1-0.6,0.2-0.8h0.1c5.8-2.5,33.9-14.6,36.5-15.4
	c1.3-1.3,10.4-18.8,15.9-29.6c0.1-0.3,0.4-0.4,0.7-0.3l21.6,6.9c0.2,0.1,0.3,0.2,0.4,0.4c0.1,0.2,0,0.4-0.1,0.5
	c-0.2,0.3-24.6,29.4-28,34.3c-3.6,5.1-39.2,13.7-40.8,14.1C162.6,175.4,162.4,175.4,162.3,175.3z M162.7,174.1
	c10.5-2.5,36.9-9.6,39.6-13.5c3.2-4.6,23.7-29.2,27.5-33.7l-20.3-6.4c-14.9,29.5-16,29.6-16.4,29.7c-1,0.2-21.6,9-35.7,15.1
	L162.7,174.1z M193.1,149.5L193.1,149.5z"/>
<path class="st2" d="M188.5,145.5c0,0,13.8,17.6,24.7,18.8c31.5,3.4,59.7-32.7,59.7-32.7s-19.1-9-28.8-15l-33.8,0.1L188.5,145.5z"/>
<path class="st2" d="M210.4,164.3c-10.4-3.3-21.8-17.7-22.3-18.4c-0.2-0.2-0.2-0.5,0-0.7l21.8-28.9c0.1-0.1,0.3-0.2,0.5-0.2
	l33.9-0.1c0.1,0,0.2,0,0.3,0.1C254,122,273,131,273.2,131c0.2,0.1,0.3,0.2,0.3,0.4s0,0.3-0.2,0.5c-0.3,0.4-28.7,36.3-60.2,32.9
	C212.2,164.7,211.3,164.5,210.4,164.3z M189.2,145.6c2,2.4,14.3,17.1,24.1,18.2c28.7,3.1,55-27.4,58.7-31.9
	c-3.4-1.6-19.4-9.3-28-14.6l-33.4,0.1L189.2,145.6z"/>
<path class="st3" d="M262.8,85.4c0,0,0.4-7-18.1-15.1c-4.5-2-9.4-2.9-14.3-2.6c-1.4,2.8-17.8,38.5-23,48.1c0,0,24.1,13.9,39.3,2.5
	C246.7,118.2,260.3,88.1,262.8,85.4z"/>
<path class="st3" d="M241,76.8c0,0-20.3-4-26-3.2s-28.3,14.1-28.3,14.1l5.3,9.7c0,0,16.9-8.4,21-8.9s17.9,7.4,17.9,7.4L241,76.8z"/>
<path class="st3" d="M262.8,85.4l5.1,21.4l16.4-11.2l4,8.7c0,0-16.7,17-21.7,15.3C255.8,116,246,97,246,97L262.8,85.4z"/>
<path class="st2" d="M162.5,174.8c1.8-7.6-0.9-10.8-3.6-10.8c-2.7,0-4.4-0.3-6,7.1c-1.6,7.4-1,19,3.2,19.3
	C160.3,190.7,160.7,182.3,162.5,174.8z"/>
<path class="st2" d="M155.5,190.8c-0.7-0.2-1.3-0.7-1.7-1.3c-2.5-3.3-2.7-12.3-1.4-18.5c1.6-7.2,3.3-7.6,6.2-7.6h0.3
	c1.3,0,2.5,0.6,3.2,1.6c1.6,2,2,5.5,1,9.9c-0.4,1.6-0.7,3.2-1,4.8c-1.2,6.2-2.2,11.5-6,11.2C155.9,190.9,155.7,190.9,155.5,190.8z
	 M159.8,164.7c-0.3-0.1-0.6-0.1-0.8-0.1h-0.3c-2.3,0-3.7,0.1-5.1,6.7c-1.3,5.9-1.1,14.5,1.1,17.6c0.3,0.5,0.9,0.9,1.6,1
	c2.8,0.2,3.7-4.6,4.8-10.3c0.3-1.6,0.6-3.3,1-4.9c1.2-5.4,0.1-7.9-0.7-8.9C160.9,165.2,160.3,164.8,159.8,164.7L159.8,164.7z"/>
<path class="st0" d="M259.9,42.2c-5-2.7-10.8-3.3-16.2-1.7c-1.7,0.5-3.4,1.4-4.7,2.6c-3.9,3.6-3.9,9.6-7,13.8s-9.5,6.1-14,8.3
	c-5.2,2.5-10.3,5.3-14.3,9.5c-6.6,7-6.8,15.2-3.2,23.7c0.5,1.2,1.1,2.3,1.8,3.3c1.6,1.8,3.6,3.2,5.9,4.1c4.1,1.9,10.1,4.3,14.7,2.9
	c3.3-1,6.7-4.7,7.9-7.8c1.2-3.1,0.9-7,2.9-9.9c2.8-4.3,9.3-4.9,12.1-9.1c2-3.1,1.6-7.2,0.5-10.7c-0.8-2.7-1.9-5.9-0.2-8.2
	c1-1.4,2.6-2,4-3c1.7-1.2,3.1-2.9,3.8-4.9c0.7-1.8,0.3-3.7,0.9-5.4c1.3,1.2,3.3,1.1,4.9,1.4c2,0.4,4,0.8,6,1.1
	c0.2-2.1-0.3-4.3-1.5-6.1C262.9,44.6,261.5,43.2,259.9,42.2z"/>
<path class="st2" d="M213.5,108.7c-1.9-0.6-3.8-1.4-5.7-2.3c-2.3-1-4.4-2.4-6.1-4.3c-0.8-1.1-1.4-2.2-1.9-3.5
	c-4-9.6-2.9-17.7,3.3-24.3c4-4.3,9.3-7.1,14.5-9.6c1-0.5,2.2-1,3.4-1.5c3.8-1.6,8.2-3.5,10.4-6.6c1.2-1.9,2.1-3.9,2.7-6
	c1-2.8,2-5.7,4.3-7.9c1.4-1.3,3.1-2.2,5-2.7c5.6-1.7,11.6-1.1,16.7,1.6c1.7,1,3.2,2.5,4.3,4.1c1.3,1.9,1.8,4.3,1.6,6.6
	c0,0.2-0.1,0.3-0.2,0.4c-0.1,0.1-0.3,0.1-0.4,0.1c-2-0.3-4-0.7-6-1.1c-0.4-0.1-0.8-0.1-1.3-0.2c-1.1-0.1-2.2-0.3-3.1-0.8
	c-0.1,0.6-0.2,1.1-0.2,1.7c0,1-0.2,2-0.5,2.9c-0.8,2.1-2.1,3.9-4,5.2c-0.4,0.3-0.9,0.5-1.3,0.8c-1,0.5-1.9,1.2-2.6,2
	c-1.4,2-0.6,4.8,0.2,7.4l0.1,0.4c1.4,4.7,1.2,8.4-0.6,11.2c-1.5,2.2-3.9,3.5-6.3,4.8c-2.3,1.2-4.5,2.4-5.9,4.4
	c-1,1.7-1.6,3.7-1.8,5.6c-0.2,1.4-0.5,2.8-1,4.1c-1.1,3.1-4.6,7.1-8.3,8.2C220,110.3,216.6,109.7,213.5,108.7z M256.3,41.3
	c-4-1.3-8.3-1.3-12.4-0.1c-1.7,0.5-3.2,1.3-4.5,2.4c-2.1,2-3,4.6-4,7.4c-0.7,2.3-1.6,4.4-2.9,6.4c-2.5,3.4-7,5.3-10.9,7
	c-1.2,0.5-2.3,1-3.3,1.5c-5,2.4-10.2,5.3-14.1,9.4c-5.9,6.2-6.9,14-3.1,23.1c0.4,1.1,1,2.2,1.8,3.2c1.6,1.7,3.5,3.1,5.6,4
	c2.3,1.1,9.3,4.4,14.2,2.8c3.2-1,6.5-4.7,7.5-7.5c0.4-1.3,0.7-2.6,0.9-3.9c0.2-2.1,0.9-4.2,1.9-6.1c1.5-2.2,3.9-3.5,6.3-4.8
	c2.3-1.2,4.5-2.4,5.9-4.4c1.6-2.4,1.8-5.8,0.5-10.2l-0.1-0.4c-0.8-2.7-1.8-5.9,0-8.3c0.8-1,1.8-1.8,2.9-2.3c0.4-0.2,0.8-0.5,1.2-0.8
	c1.6-1.1,2.9-2.7,3.5-4.6c0.3-0.8,0.4-1.7,0.4-2.6c0-0.9,0.2-1.9,0.5-2.8c0.1-0.3,0.4-0.5,0.7-0.4c0.1,0,0.2,0.1,0.2,0.1
	c1,0.7,2.1,1,3.3,1c0.5,0.1,0.9,0.1,1.3,0.2c1.8,0.3,3.6,0.7,5.4,1c0.1-1.8-0.4-3.6-1.4-5.1s-2.3-2.8-3.9-3.8l0,0
	C258.5,42.1,257.4,41.6,256.3,41.3z"/>
<path class="st0" d="M255.6,56.9c0.1-0.8,0-1.6-0.3-2.3c-0.1-0.6-0.4-1.2-0.7-1.7s-0.9-0.9-1.5-1c-0.6,0-1.1,0.2-1.5,0.6
	c-0.4,0.4-0.7,0.9-0.8,1.4c-0.8,2.3-0.3,4.9,1.4,6.7l-0.1-0.2L255.6,56.9z"/>
<path class="st2" d="M252,61.1c-0.1,0-0.2-0.1-0.3-0.2c-1.8-2-2.3-4.8-1.5-7.3c0.2-0.6,0.5-1.2,1-1.6c0.5-0.5,1.2-0.8,1.9-0.8
	c0.8,0.1,1.5,0.5,1.9,1.2c0.4,0.6,0.6,1.2,0.8,1.9c0.3,0.8,0.4,1.8,0.3,2.7c-0.1,0.3-0.4,0.5-0.7,0.4l0,0c-0.3-0.1-0.5-0.4-0.4-0.7
	c0.1-0.7,0-1.4-0.3-2c-0.1-0.5-0.4-1.1-0.6-1.5c-0.2-0.4-0.6-0.7-1.1-0.7c-0.4,0-0.8,0.2-1,0.4c-0.3,0.3-0.5,0.8-0.7,1.2
	c-0.6,2-0.3,4.1,1,5.7c0.1,0.1,0.2,0.2,0.3,0.3l0.1,0.2c0.1,0.3,0,0.6-0.2,0.7C252.3,61.1,252.1,61.2,252,61.1z"/>
<path class="st2" d="M264.3,119.5L264.3,119.5c-10.4-5.6-17.9-23.3-18.2-24c-0.2-0.3-0.1-0.6,0.2-0.8c0.3-0.2,0.6-0.1,0.8,0.2
	c0,0,0,0.1,0.1,0.1c0.1,0.2,7.6,18.1,17.6,23.4c0.3,0.1,0.4,0.5,0.3,0.8C264.9,119.5,264.6,119.6,264.3,119.5L264.3,119.5z"/>
<path class="st2" d="M254.2,66.4l-4.8-3c0.2,1.5,0.9,2.9,2.1,3.9c1.7,1.7,2.8,1.6,2.8,1.6L254.2,66.4z"/>
<path class="st2" d="M253.7,69.4c-2.5-1-4.3-3.3-4.8-5.9c0-0.2,0.1-0.4,0.3-0.5s0.4-0.1,0.6,0l4.8,3c0.2,0.1,0.3,0.3,0.3,0.5V69
	c0,0.3-0.2,0.6-0.6,0.6C254.1,69.5,253.9,69.5,253.7,69.4z M250.3,64.7c0.4,0.8,0.9,1.6,1.6,2.2c0.5,0.5,1.1,1,1.8,1.3v-1.5
	L250.3,64.7z"/>
</svg>
