<?xml version="1.0" encoding="utf-8"?>
<!-- Generator: Adobe Illustrator 25.0.0, SVG Export Plug-In . SVG Version: 6.00 Build 0)  -->
<svg version="1.1" id="Layer_1" xmlns="http://www.w3.org/2000/svg" xmlns:xlink="http://www.w3.org/1999/xlink" x="0px" y="0px"
	 viewBox="0 0 406 306" style="enable-background:new 0 0 406 306;" xml:space="preserve">
<style type="text/css">
	.st0{fill:#00ADEE;}
	.st1{fill:#231F20;}
	.st2{fill:#FFFFFF;}
	.st3{fill:none;}
	.st4{fill:#D1D3D4;}
</style>
<g id="_66_calling">
	<path class="st0" d="M293,142.1l30.7-10.9c-1.3-1.8-10.2-33.4-26.4-41.4c-14.2-9.4-52.8-6.3-82.5-4.2c-9.5,0.5-18.9,2.4-27.8,5.8
		c-33.5,13.3-34.2,47.6-34.2,47.6l30.8,10.6c0,0-5,59.9-9.7,91.2c0,0,38.6,22.7,122.7,8.8C296.6,249.7,293.2,150.9,293,142.1z"/>
	<polygon class="st1" points="217.2,100.9 231.2,168.8 254.7,90.4 	"/>
	<path class="st1" d="M231.2,169.5L231.2,169.5c-0.3,0-0.6-0.2-0.6-0.5l-14-67.9c-0.1-0.3,0.1-0.7,0.5-0.8l37.5-10.5
		c0.2-0.1,0.5,0,0.6,0.2c0.2,0.2,0.2,0.4,0.2,0.6L231.8,169C231.7,169.3,231.5,169.5,231.2,169.5z M217.9,101.4l13.4,64.8l22.4-74.8
		L217.9,101.4z"/>
	<path class="st2" d="M247.7,8c-2.6-0.4-4.4,0.6-6.7,1.2c-3.1,0.8-2.2,0.8-5-1c-6.5-4.2-15-2.3-22.3,0.3s-15,5.7-22.4,3.6
		c2.6,2.8,6.1,4.5,9.9,4.7c-6.1,3.6-14.9,0.8-20,5.7c4.8,6.1,10.2,11.7,16.1,16.9c-4.4-0.7-8.6-2-12.6-3.9
		c7.4,8.1,16.5,14.5,26.6,18.7c7.4,3.2,15.4,5.6,23.4,5c12.9-0.9,26.1-11,27.2-24.4C262.4,25.7,258.9,9.5,247.7,8z"/>
	<path class="st1" d="M232.2,60c-6.4,0-13.4-1.7-21.3-5.2c-10.2-4.3-19.3-10.7-26.8-18.9c-0.2-0.3-0.2-0.7,0-0.9s0.5-0.2,0.7-0.1
		c3.3,1.5,6.7,2.7,10.2,3.4c-5.2-4.7-10.1-9.9-14.5-15.4c-0.2-0.2-0.2-0.6,0-0.9c3-2.9,7.1-3.3,11.1-3.7c2.4-0.2,4.8-0.6,7-1.3
		c-3.1-0.7-5.9-2.3-8-4.6c-0.2-0.2-0.2-0.5,0-0.8c0.1-0.3,0.5-0.4,0.7-0.3c6.7,1.9,13.7-0.6,20.4-3l1.6-0.6
		c6.4-2.3,15.8-4.7,22.9-0.2l1,0.7c1.1,0.8,1.1,0.8,2.6,0.4l0.9-0.2c0.6-0.1,1.2-0.3,1.8-0.5c1.7-0.6,3.5-0.9,5.2-0.7l0,0
		c11.2,1.7,15.2,17.5,14.4,27.7c-1.1,14.4-15.3,24.1-27.8,25C233.8,59.9,233,60,232.2,60z M187.2,37.3c7,6.9,15.2,12.5,24.2,16.3
		c8.7,3.8,16.2,5.4,23.1,5c15.4-1,25.7-13.1,26.6-23.8c0.7-9.7-3-24.7-13.4-26.2l0,0c-1.6-0.2-3.2,0.1-4.7,0.7
		c-0.6,0.2-1.2,0.4-1.8,0.5l-0.9,0.2c-1.9,0.5-2.1,0.5-3.6-0.6l-1-0.7C229.2,4.5,220.2,6.9,214,9l-1.6,0.6
		c-6.2,2.2-12.6,4.5-18.9,3.5c2.2,1.8,4.9,2.8,7.7,2.9c0.3,0,0.5,0.2,0.6,0.5s-0.1,0.6-0.3,0.7c-2.9,1.7-6.3,2-9.6,2.3
		c-3.7,0.4-7.3,0.7-9.9,2.9c4.7,5.9,10,11.3,15.7,16.3c0.2,0.2,0.3,0.5,0.2,0.8s-0.4,0.4-0.7,0.4C193.7,39.4,190.4,38.5,187.2,37.3z
		"/>
	<path class="st2" d="M218.1,78.4l-0.9,22.5c0,0,9.1,12.7,23,6.8s14.5-17.3,14.5-17.3l-4.5-42.9c0,0-11.7-3.9-12.4-27.8
		c-11,7-23.7,11-36.7,11.4c0,0-2.4,26.4,1.2,37.3S218.1,78.4,218.1,78.4z"/>
	<path class="st1" d="M232.9,110c-10,0-16.2-8.6-16.3-8.7s-0.1-0.3-0.1-0.4l0.9-21.8c-2.8,0-12.6-0.7-15.8-10.5
		c-3.6-10.9-1.3-36.5-1.2-37.5c0-0.3,0.3-0.6,0.6-0.6c12.9-0.5,25.5-4.4,36.4-11.3c0.3-0.2,0.7-0.2,0.9,0.1c0.1,0.1,0.1,0.3,0.1,0.4
		c0.4,12.1,3.6,18.8,6.2,22.4c1.4,2.1,3.4,3.8,5.7,4.8c0.2,0.1,0.4,0.3,0.4,0.5l4.4,43c0,0.2-0.8,12-14.9,18
		C238,109.4,235.5,109.9,232.9,110z M217.9,100.7c1.2,1.5,9.5,11.8,22.1,6.4c13.4-5.7,14.1-16.7,14.1-16.8L249.6,48
		c-2.1-0.9-11.4-6.2-12.4-27c-10.7,6.5-23,10.3-35.5,10.9c-0.3,3.9-2,26.7,1.2,36.5c3.4,10.3,14.7,9.5,15.2,9.5
		c0.2,0,0.4,0.1,0.5,0.2s0.2,0.3,0.2,0.5L217.9,100.7z"/>
	<path class="st2" d="M244.2,58.8c3,0.8,6.2,0.3,8.9-1.3c3.7-2.4,5.9-6.5,5.8-10.9c0.1-1.6-0.2-3.2-0.8-4.7
		c-0.6-1.5-1.9-2.6-3.4-3.1c-1.9-0.3-3.9,0-5.6,0.9c-2.6,1-2.8,2.5-4.5,4.5c0.2-0.2,0.4-0.7,0.5-0.9"/>
	<path class="st1" d="M247,59.8c-1,0-2.1-0.1-3-0.4c-0.4-0.1-0.6-0.5-0.5-0.8c0.1-0.4,0.5-0.6,0.8-0.5c2.8,0.7,5.8,0.3,8.4-1.2
		c3.5-2.2,5.6-6.2,5.5-10.3c0.1-1.5-0.2-3-0.7-4.4c-0.6-1.3-1.6-2.3-3-2.8c-1.6-0.4-3.3,0.1-5.1,0.9c-1.3,0.5-2.4,1.4-3,2.6
		c-0.4,0.5-0.7,1.1-1.1,1.6l-0.1,0.1c-0.3,0.2-0.7,0.2-0.9,0s-0.2-0.6,0-0.9l0,0c0,0,0.1-0.2,0.1-0.3c0.1-0.2,0.2-0.4,0.4-0.6
		c0.1-0.1,0.2-0.1,0.2-0.2l0.3-0.4c0.8-1.4,2.1-2.6,3.6-3.1c1.8-0.9,3.9-1.3,6-0.9c1.7,0.6,3.1,1.8,3.8,3.5c0.7,1.6,0.9,3.3,0.8,5
		c0.1,4.6-2.2,8.9-6.1,11.4C251.4,59.2,249.3,59.8,247,59.8z"/>
	<path class="st2" d="M220,42.6c0,0-6.2,12.4-4.1,14.1c2.1,1.8,7-0.2,7-0.2"/>
	<path class="st1" d="M218.4,58.1c-1.1,0.1-2.1-0.2-2.9-0.9c-2.3-1.9,2.4-11.9,3.9-14.9c0.2-0.3,0.6-0.4,0.9-0.3
		c0.3,0.2,0.5,0.5,0.3,0.9l0,0c-2.9,5.7-5.2,12.5-4.3,13.3c1.5,1.2,5,0.2,6.3-0.3c0.3-0.1,0.7,0,0.8,0.4c0.1,0.3,0,0.7-0.4,0.8l0,0
		C221.6,57.7,220,58.1,218.4,58.1z"/>
	<ellipse transform="matrix(0.9773 -0.2118 0.2118 0.9773 -3.4061 49.4229)" class="st1" cx="229" cy="40.6" rx="1.9" ry="2.7"/>
	
		<ellipse transform="matrix(8.963542e-02 -0.996 0.996 8.963542e-02 151.3431 250.4536)" class="st1" cx="212.7" cy="42.4" rx="2.7" ry="1.9"/>
	<path class="st1" d="M219.2,73.7c-1.5,0.1-3-0.4-4.2-1.4c-3.8-3.4-3.4-10-3.4-10.3s0.3-0.6,0.6-0.6c17.2-2,17.4-1.9,17.6-1.6
		c0.1,0.1,0.2,0.3,0.2,0.5l0,0c0,2.6-0.6,5.3-1.8,7.6c-1.5,2.9-4.2,5-7.4,5.7C220.3,73.6,219.7,73.7,219.2,73.7z M212.9,62.6
		c0,1.6,0.2,6.3,3,8.7c1.3,1,3.1,1.4,4.7,1c2.8-0.6,5.2-2.4,6.5-5c1-2,1.6-4.1,1.6-6.4C226.4,61.1,218.4,62,212.9,62.6z M229.4,60.2
		L229.4,60.2z M229.4,60.2L229.4,60.2z"/>
	<path class="st1" d="M227.6,67.6c-3.1,5.8-9.5,6.5-12.2,4.2c0.9-2.2,2.3-4.5,4.7-5.2C222.7,66.1,225.3,66.4,227.6,67.6z"/>
	<path class="st1" d="M219.2,73.7c-1.5,0-3-0.5-4.2-1.4c-0.2-0.2-0.3-0.5-0.2-0.7c1.2-3.1,2.9-5,5.1-5.6c2.7-0.6,5.5-0.3,8,1
		c0.2,0.1,0.3,0.2,0.3,0.4c0.1,0.2,0.1,0.3,0,0.5c-1.5,2.9-4.2,5-7.4,5.7C220.3,73.7,219.7,73.7,219.2,73.7z M216.2,71.6
		c1.3,0.8,2.8,1,4.3,0.7c2.6-0.5,4.8-2.1,6.2-4.4c-2-0.9-4.3-1.1-6.4-0.6C218.7,67.7,217.3,69.2,216.2,71.6z"/>
	<path class="st1" d="M183.6,149.6"/>
	<path class="st1" d="M183.6,150.3h-0.2c-0.3-0.1-0.6-0.4-0.5-0.7l0,0c3.9-19.4,7.3-34.2,7.3-35.7c0-0.3,0.2-0.7,0.5-0.7
		c0,0,0.1,0,0.2,0c0.4,0,0.6,0.2,0.6,0.6c0.1,1.4-5.7,27.9-7.3,36.1C184.1,150,183.9,150.2,183.6,150.3z"/>
	<path class="st1" d="M248.5,35.5l22,2.2c2.4,0.2,4.1,2.4,3.9,4.8l-4.9,49c-0.2,2.4-2.4,4.1-4.8,3.9l-22-2.2
		c-2.4-0.2-4.1-2.4-3.9-4.8l4.9-49C244,37,246.1,35.3,248.5,35.5z"/>
	<path class="st1" d="M265.1,96.1h-0.5l-22-2.2c-2.7-0.3-4.8-2.7-4.5-5.5l4.9-49.1c0.3-2.7,2.7-4.7,5.5-4.5l22,2.2
		c2.8,0.3,4.8,2.7,4.5,5.5l0,0l-4.9,49.1C269.8,94.2,267.7,96.1,265.1,96.1z M248.1,36.2c-0.9,0-1.7,0.3-2.3,0.8
		c-0.7,0.6-1.2,1.5-1.3,2.5l-4.9,49c-0.2,2,1.3,3.8,3.3,4.1l22,2.2l0,0c2,0.2,3.8-1.3,4-3.3l0,0l4.9-49c0.2-2-1.3-3.9-3.3-4.1
		l-22-2.2L248.1,36.2z"/>
	<path class="st2" d="M323.7,131.1c0,0,9,18.9,10.8,26.3c5.4,23-15.2,53.4-40.3,38.1c-8.2-5-13.7-13.5-17.4-22.4
		c-7.8-18.9-11.7-39.9-13.1-60.3c-0.6-9.1,1.1-24.7-10.2-28.5c-3.6-1.3-7.8,2.7-8.7,1.1c-1.4-2.8,3.6-9.5,11.5-5.9
		c0,0-5.5-5.7-11.2-4.1s-3.2-4.1,0.4-5.3c3.3-1.1,10.8-0.2,13.5,5.1c0,0-2.5-8.3-6.9-9.2c-4.4-0.9-5.9-2.1-5.6-3.4
		c0.4-2.3,4.5-1.8,6.9-1.3s8.8,4,10.5,8.6c0,0-2.1-7.3-7.5-10.7c-3.4-2.1-6.1-1.8-5.4-2.9s4.6-3.9,9.6-0.3
		c5,3.6,11.5,15.2,11.5,15.2s0-8,0.7-7.8c3.8,1,5.8,10.3,6.3,13.3c1.2,7.1,3.5,12.1,6.8,18.7c6.2,12.4,13.5,29.8,19,42.4"/>
	<path class="st1" d="M307.8,200.4c-4.9-0.1-9.7-1.6-13.9-4.2c-7.3-4.5-13.3-12.1-17.6-22.7c-7.1-17.3-11.6-37.7-13.1-60.5
		c-0.1-1.5-0.1-3.1-0.2-4.8c-0.2-8.9-0.5-20-9.6-23.1c-1.7-0.6-3.7,0.2-5.3,0.8c-1.6,0.6-3.1,1.2-3.7-0.1c-0.6-1.3-0.1-3.6,1.5-5.4
		c2-2,4.8-2.9,7.5-2.4c-2-1.3-5-2.6-7.9-1.8c-3,0.8-3.9-0.3-4.1-1c-0.6-1.8,1.5-4.7,4.1-5.6c4-1,8.2-0.2,11.5,2.2
		c-1.1-2.2-2.8-4.6-4.9-5c-2.8-0.6-6.5-1.7-6.1-4.2c0.6-3.2,5.9-2.2,7.7-1.8c2.6,0.8,4.9,2,6.9,3.8c-1.2-1.9-2.7-3.5-4.5-4.7
		c-1.2-0.7-2.5-1.3-3.9-1.7c-1-0.3-1.7-0.5-1.9-1.1c-0.1-0.3,0-0.7,0.2-1c1-1.2,2.4-2,3.9-2.3c2.3-0.3,4.7,0.3,6.5,1.8
		c3.8,2.8,8.4,9.9,10.5,13.4c0.1-5.4,0.6-5.8,0.8-6c0.2-0.1,0.4-0.2,0.7-0.1c4.2,1.1,6.3,10.8,6.8,13.8c1.2,7,3.5,11.9,6.8,18.6
		c5,10,10.6,23.1,15.6,34.6l3.4,7.8c0.1,0.3,0,0.7-0.3,0.9l0,0c-0.3,0.1-0.7,0-0.9-0.3l-3.4-7.8c-5-11.5-10.6-24.6-15.6-34.5
		c-3.3-6.7-5.6-11.7-6.9-18.9c-0.9-5.1-2.8-11.3-5.4-12.6c-0.3,2.3-0.4,4.7-0.4,7c0,0.4-0.3,0.6-0.7,0.6c-0.2,0-0.4-0.1-0.5-0.3
		c-0.1-0.1-6.5-11.5-11.4-15c-1.5-1.3-3.5-1.8-5.4-1.6c-1.1,0.2-2.2,0.7-3,1.6l0.9,0.3c1.5,0.4,2.9,1.1,4.2,1.9
		c5.5,3.5,7.7,10.8,7.8,11.1c0.1,0.4-0.1,0.7-0.5,0.9c-0.4,0.1-0.7-0.1-0.9-0.5l0,0c-1.5-4.4-7.7-7.8-9.9-8.2
		c-3.7-0.7-5.9-0.4-6.2,0.8c-0.2,1,1.6,1.9,5.1,2.6c4.7,1,7.3,9.3,7.4,9.7c0.1,0.4-0.1,0.7-0.5,0.8c-0.3,0.1-0.6-0.1-0.7-0.3
		c-2.5-4.9-9.6-5.9-12.7-4.8c-2.1,0.7-3.6,3-3.3,3.9c0.2,0.5,1.1,0.5,2.5,0.2c6-1.7,11.6,4,11.8,4.2c0.2,0.2,0.2,0.6,0,0.8
		c-0.2,0.3-0.5,0.4-0.8,0.2c-5.3-2.5-8.5,0.2-9.4,1.1c-1.2,1.3-1.8,2.9-1.3,3.9c0.2,0.2,1.4-0.3,2.1-0.6c1.7-0.7,4-1.6,6.2-0.8
		c9.9,3.4,10.2,15,10.5,24.3c0,1.7,0.1,3.3,0.2,4.8c1.6,22.6,6,42.8,13.1,60.1c4.2,10.3,10,17.8,17.1,22.1c9,5.5,18.2,5.3,26-0.3
		c10.5-7.6,16.3-23.9,13.2-37.1c-1.7-7.3-10.6-26-10.7-26.1c-0.2-0.3,0-0.7,0.3-0.9s0.7,0,0.9,0.3c0.4,0.8,9.1,19.1,10.8,26.5
		c3.3,13.9-2.6,30.4-13.7,38.4C317.4,198.7,312.7,200.3,307.8,200.4z"/>
	<circle class="st2" cx="258.8" cy="45.1" r="2.4"/>
	<path class="st1" d="M258.8,48.2c-1.7,0-3.1-1.4-3.1-3.1c0-1.7,1.4-3.1,3.1-3.1s3.1,1.4,3.1,3.1l0,0
		C261.9,46.8,260.5,48.2,258.8,48.2z M258.8,43.3c-1,0-1.8,0.8-1.8,1.8s0.8,1.8,1.8,1.8s1.8-0.8,1.8-1.8l0,0
		C260.6,44.1,259.8,43.3,258.8,43.3L258.8,43.3L258.8,43.3z"/>
	<path class="st1" d="M315.9,164.5c-0.3,0-0.5-0.2-0.6-0.4l-12-28.4c-0.2-0.3,0-0.7,0.3-0.9s0.7,0,0.9,0.3l0,0l12,28.4
		c0.1,0.3,0,0.7-0.3,0.8C316.1,164.4,316,164.5,315.9,164.5z"/>
	<path class="st2" d="M152.8,139l-6.4,31.7l-22-25.9c0,0-3.8-6.3-6.2-7.2c-2.9-1.1-14.8-1.8-18.7-5c-4-3.2-6.1-3.9-6.5-1.4
		s10.5,9,10.5,9s-8.7,2.5-10.5,1.8s-6.2-10-8-10c-0.9,0-2.9,2-1.1,6.1c-1.6-3.9-3.8-8.3-5.7-8.3s-1.8,3.3-0.6,7.7c0,0-4.7-7.7-6.5-3
		c-1.7,4.4,10.8,19.8,13.7,20.5c2.9,0.7,22-5,22-5s23.2,66.1,56.8,74.7c8.4,2.1,20.1-74.9,20.1-74.9L152.8,139z"/>
	<path class="st1" d="M163.8,225.2c-0.2,0-0.4,0-0.5-0.1c-14.1-3.6-28-17.4-41.4-40.9c-6.1-10.8-11.3-22-15.6-33.6
		c-3.6,1.1-18.9,5.5-21.7,4.9c-2.5-0.6-9.6-9-12.7-15.1c-1.5-2.9-2-5-1.5-6.3c0.2-1,1.1-1.8,2.1-2c1.3-0.1,2.7,1.1,3.8,2.3
		c-0.4-2.3-0.2-3.9,0.4-4.8c0.4-0.5,0.9-0.7,1.5-0.7l0,0c1.3,0,2.8,1.6,4.4,4.6c0.1-0.4,0.3-0.8,0.5-1.1c0.4-0.7,1-1.1,1.8-1.2
		c1.3,0,2.7,2.1,4.9,5.6c1.1,1.8,2.7,4.2,3.3,4.5c1,0.4,5.2-0.5,8.6-1.4c-3.4-2.1-9.8-6.5-9.5-8.9c0-0.8,0.5-1.6,1.3-1.9
		c1.3-0.5,3.1,0.4,6.3,3c2.5,2.1,8.8,3.1,13.3,3.9c1.8,0.2,3.5,0.6,5.2,1.1c2.5,1,6.1,6.8,6.5,7.5l21.1,24.8L152,139
		c0-0.2,0.2-0.3,0.3-0.4c0.2-0.1,0.4-0.1,0.5,0l30.8,10.6c0.3,0.1,0.5,0.4,0.4,0.7c-0.4,2.8-10.7,69.6-19.1,75.1
		C164.8,225.2,164.3,225.3,163.8,225.2z M106.7,149.2c0.3,0,0.5,0.2,0.6,0.4c0.2,0.7,23.4,65.8,56.3,74.3c0.3,0.1,0.6,0,0.8-0.2
		c6.3-4.1,14.8-49.7,18.4-73.7l-29.6-10.2l-6.2,31c0,0.2-0.2,0.4-0.5,0.5c-0.2,0.1-0.5,0-0.7-0.2l-22-25.9c-1.1-1.8-4.1-6.3-5.9-7
		c-1.6-0.4-3.3-0.8-5-1c-5-0.8-11.1-1.8-13.9-4.1c-3.4-2.8-4.6-2.9-5-2.8c-0.4,0.2-0.4,0.5-0.4,0.9c-0.2,1.2,5.1,5.3,10.1,8.3
		c0.3,0.2,0.4,0.6,0.2,0.9c-0.1,0.1-0.2,0.2-0.4,0.3c-1.5,0.4-9,2.6-10.9,1.8c-1-0.4-2.1-2.2-3.9-5c-1.2-1.8-3.1-4.9-3.8-5
		c-0.3,0.1-0.5,0.3-0.7,0.6c-0.6,1.2-0.6,2.7,0,3.9c0.1,0.2,0.2,0.5,0.3,0.7c0.1,0.3,0,0.7-0.4,0.8c-0.3,0.1-0.7,0-0.8-0.3
		c-0.1-0.3-0.2-0.5-0.3-0.7c-2.2-5.3-3.9-7.2-4.8-7.2l0,0c-0.2,0-0.4,0.1-0.5,0.2c-0.2,0.3-0.8,1.6,0.5,6.7c0.1,0.3-0.1,0.6-0.4,0.8
		c-0.3,0.1-0.6,0-0.8-0.3c-1.1-1.8-3.2-4.3-4.4-4.2c-0.4,0-0.7,0.4-1,1.1c-0.3,0.7-0.3,1.9,1.4,5.2c3.2,6.2,10.1,14,11.8,14.4
		c2,0.5,14-2.7,21.6-5C106.6,149.2,106.6,149.2,106.7,149.2L106.7,149.2z"/>
	<line class="st3" x1="83.9" y1="138" x2="88.1" y2="143.9"/>
	<path class="st1" d="M88,144.5c-0.2,0-0.4-0.1-0.5-0.3l-4.1-5.9c-0.2-0.3-0.1-0.7,0.1-0.9l0,0c0.3-0.2,0.7-0.2,0.9,0.1l0,0l4.1,5.9
		c0.2,0.3,0.1,0.7-0.2,0.9l0,0C88.3,144.5,88.1,144.5,88,144.5z"/>
	<path class="st2" d="M77.6,137.3c1.4,2.3,3,4.4,4.7,6.5"/>
	<path class="st1" d="M82.4,144.5c-0.2,0-0.4-0.1-0.5-0.2c-1.7-2.1-3.3-4.3-4.8-6.6c-0.2-0.3-0.1-0.7,0.2-0.9
		c0.3-0.2,0.7-0.1,0.9,0.2c1.4,2.2,3,4.4,4.7,6.4c0.3,0.2,0.3,0.7,0,0.9C82.7,144.4,82.5,144.5,82.4,144.5L82.4,144.5z"/>
	<polygon class="st2" points="77.7,221.6 328.3,221.6 368.6,300.3 37.4,300.3 	"/>
	<path class="st4" d="M368.6,301H37.4c-0.2,0-0.4-0.1-0.6-0.3c-0.1-0.2-0.1-0.4,0-0.6L77,221.4c0.1-0.2,0.3-0.4,0.6-0.4h250.6
		c0.2,0,0.5,0.1,0.6,0.4l40.2,78.7c0.1,0.2,0.1,0.4,0,0.6C369,300.9,368.8,301,368.6,301z M38.5,299.7h329l-39.6-77.4H78.1
		L38.5,299.7z"/>
	<ellipse class="st2" cx="270.3" cy="255.3" rx="35.1" ry="10.6"/>
	<path class="st4" d="M270.3,266.5c-17.6,0-35.8-4.2-35.8-11.2s18.2-11.2,35.8-11.2s35.8,4.2,35.8,11.2
		C306.1,262.3,287.9,266.5,270.3,266.5z M270.3,245.4c-20.6,0-34.5,5.1-34.5,9.9s13.9,9.9,34.5,9.9s34.5-5.1,34.5-9.9
		S291,245.4,270.3,245.4z"/>
	<polygon class="st2" points="100.8,256.8 101.2,260.8 191.5,274 190.6,269.8 	"/>
	<path class="st1" d="M191.5,274.6h-0.1l-90.3-13.2c-0.3,0-0.5-0.3-0.5-0.6l-0.4-4c0-0.2,0.1-0.4,0.2-0.5c0.2-0.1,0.4-0.2,0.5-0.2
		l89.7,13c0.3,0,0.5,0.2,0.5,0.5l0.9,4.2c0.1,0.2,0,0.4-0.2,0.6C191.8,274.6,191.6,274.6,191.5,274.6z M101.8,260.3l88.9,13
		l-0.6-2.8l-88.5-12.9L101.8,260.3z"/>
	<path class="st2" d="M100.8,256.8c0,0,20.5-17.6,21.2-17.5c0.7,0.2,93,11.2,93,11.2l-24.5,19.2L100.8,256.8z"/>
	<path class="st1" d="M190.6,270.4L190.6,270.4l-89.8-13c-0.3,0-0.5-0.2-0.5-0.5c-0.1-0.2,0-0.5,0.2-0.7
		c20.8-17.8,21.4-17.7,21.8-17.6c1.4,0.2,92,11.1,92.9,11.2c0.3,0,0.5,0.2,0.6,0.5s0,0.5-0.2,0.7L191,270.3
		C190.8,270.4,190.7,270.4,190.6,270.4z M102.4,256.3l88,12.7l23-18.1c-17.9-2.1-86.8-10.5-91.3-11
		C120.7,240.9,109.7,250,102.4,256.3z"/>
	<polygon class="st2" points="191.5,274 215.4,254.6 215.1,250.5 190.6,269.8 	"/>
	<path class="st1" d="M191.5,274.6c-0.1,0-0.1,0-0.2,0c-0.2-0.1-0.4-0.3-0.4-0.5l-0.9-4.2c-0.1-0.2,0-0.5,0.2-0.7l24.5-19.2
		c0.3-0.2,0.7-0.2,0.9,0.1c0.1,0.1,0.1,0.2,0.1,0.4l0.4,4c0,0.2-0.1,0.4-0.2,0.6l-24,19.4C191.8,274.6,191.6,274.6,191.5,274.6z
		 M191.3,270l0.6,2.8l22.9-18.5l-0.2-2.5L191.3,270z"/>
	<polygon class="st2" points="100.8,256.8 83.5,198.7 178.6,214.9 190.6,269.8 	"/>
	<path class="st1" d="M190.6,270.4L190.6,270.4l-89.8-13c-0.3,0-0.5-0.2-0.5-0.5L83,198.8c-0.1-0.2,0-0.5,0.1-0.6
		c0.2-0.2,0.4-0.2,0.6-0.2l95.2,16.2c0.3,0,0.5,0.2,0.5,0.5l11.9,54.9c0.1,0.4-0.1,0.7-0.5,0.8C190.7,270.4,190.6,270.4,190.6,270.4
		L190.6,270.4z M101.4,256.2l88.4,12.8l-11.6-53.6l-93.7-16L101.4,256.2z"/>
	<path class="st2" d="M243.8,225.1l-0.8,0.1c-2.6,0.4-4.9,1.7-6.5,3.7c-1.9,2.9-2,6.5-0.2,9.5c3.7,6.7,12.8,8.6,19.8,9.2
		c1,0.2,2,0.1,2.9-0.2c1.2-0.3,1.9-1.5,1.6-2.6c-0.2-0.7-0.7-1.2-1.3-1.5c-0.7-0.3-1.5-0.6-2.3-0.7c-4.3-0.7-8.9-1.3-12.9-3.3
		c-2.3-1.2-5.6-3.9-3.9-6.8c0.6-0.9,1.4-1.7,2.5-2.1c4-1.9,7.8-0.5,11.8,0.7c0.3,0.1,0.6,0.1,0.9,0.1c0.8-0.2,1.3-1,1.1-1.8
		c-0.1-1.7-1.9-2.9-3.5-3.5C250,225,246.9,224.7,243.8,225.1z"/>
	<path class="st1" d="M257.3,248.4c-0.4,0-0.8,0-1.2,0c-10.7-1-17.3-4.1-20.3-9.6c-1.9-3.2-1.8-7.1,0.3-10.2
		c1.7-2.1,4.2-3.5,6.9-3.9l0.9-0.1c3.2-0.5,6.5-0.1,9.5,1c1.4,0.5,3.7,1.8,3.9,4c0.2,1.1-0.6,2.2-1.7,2.5c-0.4,0-0.8,0-1.2-0.2
		l-1-0.3c-3.5-1.1-6.8-2.1-10.2-0.4c-0.9,0.4-1.6,1-2.2,1.8c-0.4,0.6-0.5,1.4-0.3,2.1c0.8,1.7,2.2,3.1,3.9,3.8
		c3.5,1.5,7.3,2.5,11.1,2.9l1.6,0.3c0.9,0.1,1.7,0.3,2.5,0.7c0.9,0.5,1.6,1.4,1.7,2.4c0,1.3-0.8,2.5-2.1,2.9
		C258.7,248.3,258,248.4,257.3,248.4z M243.9,225.8l-0.8,0.1c-2.4,0.4-4.5,1.6-6.1,3.4c-1.7,2.7-1.8,6.1-0.2,8.8
		c2.8,5,9.1,7.9,19.3,8.9c0.9,0.1,1.8,0.1,2.6-0.2c0.7-0.2,1.2-0.9,1.2-1.6c-0.1-0.6-0.5-1.1-1-1.3c-0.7-0.3-1.4-0.5-2.1-0.6
		l-1.6-0.2c-4-0.4-7.9-1.5-11.5-3.1c-1.8-0.9-3.9-2.6-4.5-4.6c-0.3-1-0.2-2.2,0.4-3.1c0.7-1,1.6-1.9,2.7-2.4
		c3.9-1.8,7.6-0.7,11.2,0.4l1,0.3c0.2,0.1,0.4,0.1,0.6,0.1c0.4,0,0.6-0.6,0.6-1.1c-0.1-1.6-2.2-2.6-3-2.9
		C249.9,225.7,246.9,225.4,243.9,225.8L243.9,225.8z"/>
	<path class="st2" d="M247.1,217.9c0,0,6.5,32.8,7.1,34.8s16.1,10.1,28.5,2.1l10.8-33.6L247.1,217.9z"/>
	<path class="st1" d="M270.6,258.9c-3.7,0-7.4-0.7-10.8-2.1c-2.7-1-5.8-2.7-6.1-3.9c-0.5-2-6.9-33.5-7.1-34.8c0-0.2,0-0.4,0.2-0.6
		c0.1-0.2,0.3-0.2,0.5-0.2l46.4,3.4c0.4,0,0.6,0.3,0.6,0.7c0,0.1,0,0.1,0,0.1l-10.8,33.6c-0.1,0.1-0.1,0.3-0.3,0.4
		C279.3,257.8,275,259,270.6,258.9z M247.9,218.6c1,5.2,6.5,32.2,6.9,34c0.2,0.4,2.6,2.3,6.9,3.7c4.3,1.4,12.7,3,20.4-1.8l10.5-32.5
		L247.9,218.6z"/>
	
		<ellipse transform="matrix(3.996834e-02 -0.9992 0.9992 3.996834e-02 41.2958 479.6187)" class="st1" cx="270.2" cy="218.3" rx="10.1" ry="23.3"/>
	<path class="st1" d="M272.2,229.6H270c-13.4-0.5-23.7-5.7-23.5-11.7c0.1-3,2.8-5.6,7.5-7.4c5.4-1.9,11.1-2.7,16.8-2.3
		c13.4,0.5,23.7,5.7,23.5,11.8c-0.1,3-2.8,5.6-7.5,7.4C282.1,229,277.2,229.7,272.2,229.6z M268.6,209.4c-4.8-0.1-9.6,0.7-14.1,2.3
		c-4.2,1.6-6.5,3.9-6.7,6.3c-0.2,5.1,10,9.8,22.2,10.3c5.5,0.3,11.1-0.4,16.3-2.2c4.2-1.6,6.5-3.9,6.7-6.3c0.2-5.1-10-9.8-22.2-10.3
		L268.6,209.4z"/>
	<path class="st2" d="M179.7,73.3c0,0-8.4-0.6-13.4-5.8c2.9-3.8,4.5-8.4,4.5-13.2c0-17.2-21.5-31.1-48-31.1s-48,13.9-48,31.1
		s21.5,31.1,48,31.1c14.8,0,28-4.3,36.8-11.1C166.3,75,173.1,74.7,179.7,73.3z"/>
	<path class="st4" d="M122.8,86.1c-26.9,0-48.7-14.3-48.7-31.8S96,22.5,122.8,22.5s48.7,14.2,48.7,31.8c-0.1,4.7-1.6,9.3-4.3,13.1
		c4.8,4.6,12.5,5.2,12.6,5.2c0.3,0,0.6,0.3,0.6,0.6c0,0.3-0.2,0.6-0.5,0.7c-6.6,1.4-13.4,1.7-20.1,1.1C150.5,82,137,86.1,122.8,86.1
		z M122.8,23.8c-26.1,0-47.4,13.7-47.4,30.5s21.2,30.5,47.4,30.5c14.1,0,27.3-4,36.4-11c0.1-0.1,0.3-0.1,0.5-0.1
		c5.5,0.5,11,0.4,16.4-0.3c-3.8-0.8-7.4-2.7-10.2-5.4c-0.2-0.2-0.2-0.6,0-0.8c2.8-3.7,4.3-8.2,4.4-12.8
		C170.2,37.5,148.9,23.8,122.8,23.8z"/>
</g>
</svg>
