<?xml version="1.0" encoding="utf-8"?>
<!-- Generator: Adobe Illustrator 25.0.0, SVG Export Plug-In . SVG Version: 6.00 Build 0)  -->
<svg version="1.1" id="Capa_6" xmlns="http://www.w3.org/2000/svg" xmlns:xlink="http://www.w3.org/1999/xlink" x="0px" y="0px"
	 viewBox="0 0 286.5 354.3" style="enable-background:new 0 0 286.5 354.3;" xml:space="preserve">
<style type="text/css">
	.st0{fill:#FFFFFF;}
	.st1{fill:#00AEEF;}
</style>
<path class="st0" d="M271.1,256.4H97.5c-8.5,0-15.4,6.9-15.4,15.4v67.1c0,8.5,6.9,15.4,15.4,15.4h173.6c8.5,0,15.4-6.9,15.4-15.4
	v-67.1C286.5,263.3,279.6,256.4,271.1,256.4z M265.3,351H103.2v-91.3h162.1V351z"/>
<path class="st0" d="M82.5,146.6H15.4C6.9,146.6,0,153.5,0,162c0,0,0,0,0,0v173.6c0,8.5,6.9,15.4,15.4,15.4c0,0,0,0,0,0h59.1v-21.2
	H3.3V167.8h91.3v81h3.3V162C97.9,153.5,91,146.6,82.5,146.6z"/>
<path class="st1" d="M173,226.9l-7.6,15.5l-7.7-15.5h5.2c-0.9-17-4.9-28.7-12.2-35.9c-9.4-9.2-22.6-9-34.2-8.8c-1.6,0-3,0-4.5,0v-5
	c1.4,0,2.9,0,4.4,0c12-0.2,26.9-0.4,37.8,10.3c8.2,8.1,12.7,21,13.7,39.4H173z"/>
<g>
	<path class="st0" d="M11.3,19.4c-0.9,0.9-2.4,1.3-4.2,1.3H3.7v7.2H2V11.1H7c1.9,0,3.3,0.4,4.2,1.3c1,0.9,1.4,2,1.4,3.5
		C12.7,17.4,12.2,18.5,11.3,19.4z M11,15.9c0-1.1-0.3-2-0.9-2.5s-1.6-0.9-3-0.9H3.7v6.8H7C9.7,19.3,11,18.2,11,15.9z"/>
	<path class="st0" d="M17.9,27.3c-1-0.6-1.8-1.3-2.3-2.4c-0.6-1-0.9-2.2-0.9-3.6s0.3-2.5,0.9-3.6c0.6-1,1.4-1.8,2.4-2.4
		c1-0.6,2.1-0.8,3.3-0.8c1.2,0,2.3,0.3,3.3,0.8s1.8,1.3,2.4,2.4c0.6,1,0.9,2.2,0.9,3.6c0,1.3-0.3,2.5-0.9,3.6
		c-0.6,1-1.4,1.8-2.4,2.4c-1,0.6-2.1,0.8-3.4,0.8S18.9,27.8,17.9,27.3z M23.7,26c0.7-0.4,1.3-1,1.8-1.8c0.5-0.8,0.7-1.8,0.7-2.9
		c0-1.2-0.2-2.1-0.7-2.9c-0.4-0.8-1-1.4-1.8-1.8c-0.7-0.4-1.5-0.6-2.4-0.6c-0.9,0-1.7,0.2-2.4,0.6c-0.7,0.4-1.3,1-1.8,1.8
		c-0.4,0.8-0.7,1.8-0.7,2.9c0,1.2,0.2,2.1,0.7,2.9c0.4,0.8,1,1.4,1.8,1.8c0.7,0.4,1.5,0.6,2.4,0.6C22.1,26.6,22.9,26.4,23.7,26z"/>
	<path class="st0" d="M34.3,15.2c0.8-0.4,1.7-0.7,2.8-0.7v1.8h-0.5c-1.2,0-2.2,0.3-2.9,1c-0.7,0.7-1.1,1.8-1.1,3.3v7.3h-1.7V14.8
		h1.7v2.3C33,16.3,33.5,15.7,34.3,15.2z"/>
	<path class="st0" d="M44.8,16.2h-3v11.7H40V16.2h-1.8v-1.4H40v-0.9c0-1.4,0.4-2.5,1.1-3.1s1.9-1,3.5-1v1.4c-1.1,0-1.9,0.2-2.3,0.6
		s-0.7,1.1-0.7,2.1v0.9h3V16.2z"/>
	<path class="st0" d="M47.4,17.8c0.5-1,1.3-1.8,2.2-2.4c1-0.6,2-0.8,3.2-0.8c1.2,0,2.3,0.3,3.2,0.9c0.9,0.6,1.6,1.3,2,2.2v-2.9h1.7
		v13.1h-1.7V25c-0.4,0.9-1.1,1.6-2,2.2c-0.9,0.6-2,0.9-3.2,0.9c-1.2,0-2.3-0.3-3.2-0.8c-1-0.6-1.7-1.4-2.2-2.4
		c-0.5-1-0.8-2.2-0.8-3.6S46.9,18.8,47.4,17.8z M57.4,18.6c-0.4-0.8-1-1.4-1.8-1.8c-0.7-0.4-1.6-0.6-2.5-0.6c-0.9,0-1.8,0.2-2.5,0.6
		s-1.3,1-1.7,1.8c-0.4,0.8-0.6,1.7-0.6,2.8c0,1.1,0.2,2,0.6,2.8c0.4,0.8,1,1.4,1.7,1.8c0.7,0.4,1.6,0.6,2.5,0.6
		c0.9,0,1.7-0.2,2.5-0.6s1.3-1,1.8-1.8c0.4-0.8,0.6-1.7,0.6-2.8C58.1,20.3,57.9,19.4,57.4,18.6z"/>
	<path class="st0" d="M68.3,26.3l4.4-11.5h1.8l-5.3,13.1h-1.9l-5.3-13.1h1.8L68.3,26.3z"/>
	<path class="st0" d="M79.2,27.3c-1-0.6-1.8-1.3-2.3-2.4c-0.6-1-0.9-2.2-0.9-3.6s0.3-2.5,0.9-3.6c0.6-1,1.4-1.8,2.4-2.4
		c1-0.6,2.1-0.8,3.3-0.8c1.2,0,2.3,0.3,3.3,0.8s1.8,1.3,2.4,2.4c0.6,1,0.9,2.2,0.9,3.6c0,1.3-0.3,2.5-0.9,3.6
		c-0.6,1-1.4,1.8-2.4,2.4c-1,0.6-2.1,0.8-3.4,0.8S80.1,27.8,79.2,27.3z M84.9,26c0.7-0.4,1.3-1,1.8-1.8c0.5-0.8,0.7-1.8,0.7-2.9
		c0-1.2-0.2-2.1-0.7-2.9c-0.4-0.8-1-1.4-1.8-1.8c-0.7-0.4-1.5-0.6-2.4-0.6c-0.9,0-1.7,0.2-2.4,0.6c-0.7,0.4-1.3,1-1.8,1.8
		c-0.4,0.8-0.7,1.8-0.7,2.9c0,1.2,0.2,2.1,0.7,2.9c0.4,0.8,1,1.4,1.8,1.8c0.7,0.4,1.5,0.6,2.4,0.6C83.3,26.6,84.1,26.4,84.9,26z"/>
	<path class="st0" d="M95.5,15.2c0.8-0.4,1.7-0.7,2.8-0.7v1.8h-0.5c-1.2,0-2.2,0.3-2.9,1c-0.7,0.7-1.1,1.8-1.1,3.3v7.3h-1.7V14.8
		h1.7v2.3C94.2,16.3,94.8,15.7,95.5,15.2z"/>
	<path class="st0" d="M116.1,15.5c0.9,0.6,1.6,1.3,2,2.2v-2.9h1.7v13.4c0,1.2-0.3,2.3-0.8,3.2c-0.5,0.9-1.2,1.6-2.2,2.1
		c-0.9,0.5-2,0.8-3.2,0.8c-1.7,0-3.1-0.4-4.2-1.2c-1.1-0.8-1.8-1.9-2.1-3.3h1.7c0.3,0.9,0.8,1.6,1.6,2.2c0.8,0.5,1.8,0.8,3,0.8
		c0.8,0,1.6-0.2,2.3-0.5c0.7-0.4,1.2-0.9,1.6-1.6c0.4-0.7,0.6-1.5,0.6-2.5V25c-0.4,0.9-1.1,1.6-2,2.2c-0.9,0.6-2,0.9-3.2,0.9
		c-1.2,0-2.3-0.3-3.2-0.8c-1-0.6-1.7-1.4-2.2-2.4c-0.5-1-0.8-2.2-0.8-3.6s0.3-2.5,0.8-3.5c0.5-1,1.3-1.8,2.2-2.4
		c1-0.6,2-0.8,3.2-0.8C114.1,14.6,115.2,14.9,116.1,15.5z M117.4,18.6c-0.4-0.8-1-1.4-1.8-1.8c-0.7-0.4-1.6-0.6-2.5-0.6
		c-0.9,0-1.8,0.2-2.5,0.6s-1.3,1-1.7,1.8c-0.4,0.8-0.6,1.7-0.6,2.8c0,1.1,0.2,2,0.6,2.8c0.4,0.8,1,1.4,1.7,1.8
		c0.7,0.4,1.6,0.6,2.5,0.6c0.9,0,1.7-0.2,2.5-0.6s1.3-1,1.8-1.8c0.4-0.8,0.6-1.7,0.6-2.8C118.1,20.3,117.9,19.4,117.4,18.6z"/>
	<path class="st0" d="M123.6,12c-0.2-0.2-0.4-0.5-0.4-0.9c0-0.4,0.1-0.6,0.4-0.9c0.2-0.2,0.5-0.3,0.9-0.3c0.3,0,0.6,0.1,0.9,0.3
		c0.2,0.2,0.4,0.5,0.4,0.9c0,0.4-0.1,0.6-0.4,0.9c-0.2,0.2-0.5,0.4-0.9,0.4C124.1,12.3,123.8,12.2,123.6,12z M125.3,14.8v13.1h-1.7
		V14.8H125.3z"/>
	<path class="st0" d="M132.5,15.2c0.8-0.4,1.7-0.7,2.8-0.7v1.8h-0.5c-1.2,0-2.2,0.3-2.9,1c-0.7,0.7-1.1,1.8-1.1,3.3v7.3h-1.7V14.8
		h1.7v2.3C131.2,16.3,131.7,15.7,132.5,15.2z"/>
	<path class="st0" d="M137.8,17.8c0.5-1,1.3-1.8,2.2-2.4c1-0.6,2-0.8,3.2-0.8c1.2,0,2.3,0.3,3.2,0.9c0.9,0.6,1.6,1.3,2,2.2v-2.9h1.7
		v13.1h-1.7V25c-0.4,0.9-1.1,1.6-2,2.2s-2,0.9-3.2,0.9c-1.2,0-2.3-0.3-3.2-0.8c-1-0.6-1.7-1.4-2.2-2.4c-0.5-1-0.8-2.2-0.8-3.6
		S137.3,18.8,137.8,17.8z M147.8,18.6c-0.4-0.8-1-1.4-1.8-1.8c-0.7-0.4-1.6-0.6-2.5-0.6c-0.9,0-1.8,0.2-2.5,0.6s-1.3,1-1.7,1.8
		c-0.4,0.8-0.6,1.7-0.6,2.8c0,1.1,0.2,2,0.6,2.8c0.4,0.8,1,1.4,1.7,1.8c0.7,0.4,1.6,0.6,2.5,0.6c0.9,0,1.7-0.2,2.5-0.6
		s1.3-1,1.8-1.8c0.4-0.8,0.6-1.7,0.6-2.8C148.5,20.3,148.3,19.4,147.8,18.6z"/>
	<path class="st0" d="M162.3,10.1v17.8h-1.7V10.1H162.3z"/>
	<path class="st0" d="M166.1,17.8c0.5-1,1.3-1.8,2.2-2.4s2-0.8,3.2-0.8c1.2,0,2.3,0.3,3.2,0.9c0.9,0.6,1.6,1.3,2,2.2v-2.9h1.7v13.1
		h-1.7V25c-0.4,0.9-1.1,1.6-2,2.2c-0.9,0.6-2,0.9-3.2,0.9c-1.2,0-2.3-0.3-3.2-0.8c-1-0.6-1.7-1.4-2.2-2.4c-0.5-1-0.8-2.2-0.8-3.6
		S165.6,18.8,166.1,17.8z M176.1,18.6c-0.4-0.8-1-1.4-1.8-1.8c-0.7-0.4-1.6-0.6-2.5-0.6c-0.9,0-1.8,0.2-2.5,0.6
		c-0.7,0.4-1.3,1-1.7,1.8c-0.4,0.8-0.6,1.7-0.6,2.8c0,1.1,0.2,2,0.6,2.8c0.4,0.8,1,1.4,1.7,1.8c0.7,0.4,1.6,0.6,2.5,0.6
		c0.9,0,1.7-0.2,2.5-0.6s1.3-1,1.8-1.8c0.4-0.8,0.6-1.7,0.6-2.8C176.7,20.3,176.5,19.4,176.1,18.6z"/>
	<path class="st0" d="M192.5,15.5c0.9-0.6,2-0.9,3.2-0.9c1.2,0,2.3,0.3,3.2,0.8s1.7,1.3,2.2,2.4c0.5,1,0.8,2.2,0.8,3.5
		s-0.3,2.5-0.8,3.6c-0.5,1-1.3,1.8-2.2,2.4c-1,0.6-2,0.8-3.2,0.8c-1.2,0-2.3-0.3-3.2-0.9s-1.6-1.3-2-2.2v9.1h-1.7V14.8h1.7v2.9
		C190.9,16.8,191.6,16.1,192.5,15.5z M199.6,18.5c-0.4-0.8-1-1.4-1.7-1.8c-0.7-0.4-1.6-0.6-2.5-0.6c-0.9,0-1.7,0.2-2.5,0.6
		c-0.7,0.4-1.3,1-1.8,1.8s-0.6,1.7-0.6,2.8c0,1.1,0.2,2,0.6,2.8c0.4,0.8,1,1.4,1.8,1.8c0.7,0.4,1.6,0.6,2.5,0.6
		c0.9,0,1.8-0.2,2.5-0.6c0.7-0.4,1.3-1,1.7-1.8s0.6-1.7,0.6-2.8C200.2,20.2,200,19.3,199.6,18.5z"/>
	<path class="st0" d="M205.1,17.8c0.5-1,1.3-1.8,2.2-2.4c1-0.6,2-0.8,3.2-0.8c1.2,0,2.3,0.3,3.2,0.9c0.9,0.6,1.6,1.3,2,2.2v-2.9h1.7
		v13.1h-1.7V25c-0.4,0.9-1.1,1.6-2,2.2s-2,0.9-3.2,0.9c-1.2,0-2.3-0.3-3.2-0.8c-1-0.6-1.7-1.4-2.2-2.4c-0.5-1-0.8-2.2-0.8-3.6
		S204.5,18.8,205.1,17.8z M215.1,18.6c-0.4-0.8-1-1.4-1.8-1.8c-0.7-0.4-1.6-0.6-2.5-0.6c-0.9,0-1.8,0.2-2.5,0.6
		c-0.7,0.4-1.3,1-1.7,1.8c-0.4,0.8-0.6,1.7-0.6,2.8c0,1.1,0.2,2,0.6,2.8s1,1.4,1.7,1.8c0.7,0.4,1.6,0.6,2.5,0.6
		c0.9,0,1.7-0.2,2.5-0.6s1.3-1,1.8-1.8c0.4-0.8,0.6-1.7,0.6-2.8C215.7,20.3,215.5,19.4,215.1,18.6z"/>
	<path class="st0" d="M231.2,16c1,1,1.5,2.4,1.5,4.2v7.7h-1.7v-7.5c0-1.4-0.4-2.5-1.1-3.3s-1.7-1.1-2.9-1.1c-1.3,0-2.3,0.4-3,1.2
		s-1.1,2-1.1,3.5v7.2h-1.7V14.8h1.7V17c0.4-0.8,1-1.4,1.8-1.8s1.7-0.6,2.7-0.6C229,14.6,230.2,15,231.2,16z"/>
	<path class="st0" d="M238.6,16.2v8.1c0,0.8,0.2,1.4,0.5,1.7c0.3,0.3,0.8,0.5,1.6,0.5h1.5v1.4h-1.8c-1.2,0-2.1-0.3-2.6-0.8
		c-0.6-0.6-0.9-1.5-0.9-2.7v-8.1h-1.8v-1.4h1.8v-3.3h1.7v3.3h3.6v1.4H238.6z"/>
	<path class="st0" d="M245,17.8c0.5-1,1.3-1.8,2.2-2.4c1-0.6,2-0.8,3.2-0.8c1.2,0,2.3,0.3,3.2,0.9c0.9,0.6,1.6,1.3,2,2.2v-2.9h1.7
		v13.1h-1.7V25c-0.4,0.9-1.1,1.6-2,2.2c-0.9,0.6-2,0.9-3.2,0.9c-1.2,0-2.3-0.3-3.2-0.8c-1-0.6-1.7-1.4-2.2-2.4
		c-0.5-1-0.8-2.2-0.8-3.6S244.5,18.8,245,17.8z M255,18.6c-0.4-0.8-1-1.4-1.8-1.8c-0.7-0.4-1.6-0.6-2.5-0.6c-0.9,0-1.8,0.2-2.5,0.6
		c-0.7,0.4-1.3,1-1.7,1.8c-0.4,0.8-0.6,1.7-0.6,2.8c0,1.1,0.2,2,0.6,2.8s1,1.4,1.7,1.8c0.7,0.4,1.6,0.6,2.5,0.6
		c0.9,0,1.7-0.2,2.5-0.6c0.7-0.4,1.3-1,1.8-1.8c0.4-0.8,0.6-1.7,0.6-2.8C255.7,20.3,255.4,19.4,255,18.6z"/>
	<path class="st0" d="M262.9,10.1v17.8h-1.7V10.1H262.9z"/>
	<path class="st0" d="M268.4,10.1v17.8h-1.7V10.1H268.4z"/>
	<path class="st0" d="M272.2,17.8c0.5-1,1.3-1.8,2.2-2.4c1-0.6,2-0.8,3.2-0.8c1.2,0,2.3,0.3,3.2,0.9c0.9,0.6,1.6,1.3,2,2.2v-2.9h1.7
		v13.1h-1.7V25c-0.4,0.9-1.1,1.6-2,2.2c-0.9,0.6-2,0.9-3.2,0.9c-1.2,0-2.3-0.3-3.2-0.8c-1-0.6-1.7-1.4-2.2-2.4
		c-0.5-1-0.8-2.2-0.8-3.6S271.7,18.8,272.2,17.8z M282.2,18.6c-0.4-0.8-1-1.4-1.8-1.8c-0.7-0.4-1.6-0.6-2.5-0.6
		c-0.9,0-1.8,0.2-2.5,0.6c-0.7,0.4-1.3,1-1.7,1.8c-0.4,0.8-0.6,1.7-0.6,2.8c0,1.1,0.2,2,0.6,2.8s1,1.4,1.7,1.8
		c0.7,0.4,1.6,0.6,2.5,0.6c0.9,0,1.7-0.2,2.5-0.6c0.7-0.4,1.3-1,1.8-1.8c0.4-0.8,0.6-1.7,0.6-2.8C282.9,20.3,282.6,19.4,282.2,18.6z
		"/>
	<path class="st0" d="M16.4,46.6c0.5-1,1.3-1.8,2.2-2.4c1-0.6,2-0.8,3.2-0.8c1.2,0,2.2,0.3,3.1,0.8c0.9,0.6,1.6,1.3,2,2.2v-7.5h1.7
		v17.8H27v-2.9c-0.4,0.9-1.1,1.7-2,2.2c-0.9,0.6-2,0.9-3.2,0.9c-1.2,0-2.3-0.3-3.2-0.8c-1-0.6-1.7-1.4-2.2-2.4
		c-0.5-1-0.8-2.2-0.8-3.6S15.8,47.6,16.4,46.6z M26.3,47.4c-0.4-0.8-1-1.4-1.8-1.8c-0.7-0.4-1.6-0.6-2.5-0.6c-0.9,0-1.8,0.2-2.5,0.6
		s-1.3,1-1.7,1.8c-0.4,0.8-0.6,1.7-0.6,2.8c0,1.1,0.2,2,0.6,2.8c0.4,0.8,1,1.4,1.7,1.8c0.7,0.4,1.6,0.6,2.5,0.6
		c0.9,0,1.7-0.2,2.5-0.6s1.3-1,1.8-1.8c0.4-0.8,0.6-1.7,0.6-2.8C27,49.1,26.8,48.2,26.3,47.4z"/>
	<path class="st0" d="M44.3,50.8H33.4c0,1,0.3,1.8,0.7,2.5c0.4,0.7,1,1.2,1.7,1.6c0.7,0.4,1.5,0.5,2.3,0.5c1.1,0,2-0.3,2.7-0.8
		c0.7-0.5,1.2-1.2,1.5-2.1h1.8c-0.3,1.3-1,2.3-2.1,3.1c-1,0.8-2.4,1.2-3.9,1.2c-1.2,0-2.3-0.3-3.3-0.8c-1-0.6-1.7-1.3-2.3-2.4
		c-0.6-1-0.8-2.2-0.8-3.6s0.3-2.6,0.8-3.6c0.5-1,1.3-1.8,2.3-2.4c1-0.5,2.1-0.8,3.3-0.8s2.3,0.3,3.3,0.8c0.9,0.5,1.7,1.3,2.2,2.2
		c0.5,0.9,0.8,1.9,0.8,3.1C44.4,50,44.3,50.5,44.3,50.8z M42.1,46.9c-0.4-0.7-1-1.2-1.7-1.6c-0.7-0.4-1.5-0.5-2.3-0.5
		c-1.2,0-2.3,0.4-3.2,1.2c-0.9,0.8-1.4,1.9-1.5,3.4h9.2C42.7,48.4,42.5,47.6,42.1,46.9z"/>
	<path class="st0" d="M56.2,45v8.1c0,0.8,0.2,1.4,0.5,1.7c0.3,0.3,0.8,0.5,1.6,0.5h1.5v1.4H58c-1.2,0-2.1-0.3-2.6-0.8
		c-0.6-0.6-0.9-1.5-0.9-2.7V45h-1.8v-1.4h1.8v-3.3h1.7v3.3h3.6V45H56.2z"/>
	<path class="st0" d="M73.9,43.6v13.1h-1.7v-2.3c-0.4,0.8-1,1.4-1.8,1.9c-0.8,0.4-1.7,0.6-2.7,0.6c-1.6,0-2.8-0.5-3.8-1.5
		c-1-1-1.5-2.4-1.5-4.2v-7.7h1.7v7.5c0,1.4,0.4,2.5,1.1,3.3s1.7,1.1,2.9,1.1c1.3,0,2.3-0.4,3-1.2c0.8-0.8,1.1-2,1.1-3.5v-7.1H73.9z"
		/>
	<path class="st0" d="M84.4,46.6c0.5-1,1.3-1.8,2.2-2.4c1-0.6,2-0.8,3.2-0.8c1.2,0,2.2,0.3,3.1,0.8c0.9,0.6,1.6,1.3,2,2.2v-7.5h1.7
		v17.8H95v-2.9c-0.4,0.9-1.1,1.7-2,2.2c-0.9,0.6-2,0.9-3.2,0.9c-1.2,0-2.3-0.3-3.2-0.8c-1-0.6-1.7-1.4-2.2-2.4
		c-0.5-1-0.8-2.2-0.8-3.6S83.8,47.6,84.4,46.6z M94.4,47.4c-0.4-0.8-1-1.4-1.8-1.8c-0.7-0.4-1.6-0.6-2.5-0.6c-0.9,0-1.8,0.2-2.5,0.6
		s-1.3,1-1.7,1.8c-0.4,0.8-0.6,1.7-0.6,2.8c0,1.1,0.2,2,0.6,2.8c0.4,0.8,1,1.4,1.7,1.8c0.7,0.4,1.6,0.6,2.5,0.6
		c0.9,0,1.7-0.2,2.5-0.6s1.3-1,1.8-1.8c0.4-0.8,0.6-1.7,0.6-2.8C95,49.1,94.8,48.2,94.4,47.4z"/>
	<path class="st0" d="M100.5,40.8c-0.2-0.2-0.4-0.5-0.4-0.9c0-0.4,0.1-0.6,0.4-0.9c0.2-0.2,0.5-0.3,0.9-0.3c0.3,0,0.6,0.1,0.9,0.3
		c0.2,0.2,0.4,0.5,0.4,0.9c0,0.4-0.1,0.6-0.4,0.9c-0.2,0.2-0.5,0.4-0.9,0.4C101,41.1,100.7,41,100.5,40.8z M102.2,43.6v13.1h-1.7
		V43.6H102.2z"/>
	<path class="st0" d="M106.8,55.8c-1-0.7-1.5-1.6-1.6-2.8h1.7c0.1,0.7,0.4,1.3,1,1.8s1.4,0.7,2.5,0.7c0.9,0,1.6-0.2,2.1-0.6
		c0.5-0.4,0.8-1,0.8-1.6c0-0.4-0.1-0.8-0.4-1.1c-0.3-0.3-0.7-0.5-1.1-0.7c-0.4-0.2-1-0.3-1.8-0.5c-1-0.3-1.8-0.5-2.4-0.8
		c-0.6-0.3-1.1-0.6-1.5-1.1c-0.4-0.5-0.6-1.2-0.6-2c0-0.6,0.2-1.2,0.6-1.8c0.4-0.5,0.9-1,1.6-1.3c0.7-0.3,1.5-0.5,2.4-0.5
		c1.4,0,2.5,0.4,3.4,1.1c0.9,0.7,1.3,1.7,1.4,2.9h-1.7c0-0.8-0.3-1.4-0.9-1.9c-0.6-0.5-1.3-0.7-2.3-0.7c-0.8,0-1.5,0.2-2.1,0.6
		c-0.5,0.4-0.8,0.9-0.8,1.5c0,0.5,0.2,0.9,0.5,1.3s0.7,0.6,1.2,0.8c0.5,0.2,1.1,0.4,1.9,0.6c0.9,0.3,1.7,0.5,2.3,0.7
		c0.6,0.2,1,0.6,1.4,1.1c0.4,0.5,0.6,1.1,0.6,1.8c0,0.7-0.2,1.3-0.6,1.9c-0.4,0.6-0.9,1-1.6,1.3c-0.7,0.3-1.5,0.5-2.4,0.5
		C109,56.9,107.8,56.5,106.8,55.8z"/>
	<path class="st0" d="M121.9,44.3c0.9-0.6,2-0.9,3.2-0.9c1.2,0,2.3,0.3,3.2,0.8s1.7,1.3,2.2,2.4c0.5,1,0.8,2.2,0.8,3.5
		s-0.3,2.5-0.8,3.6c-0.5,1-1.3,1.8-2.2,2.4c-1,0.6-2,0.8-3.2,0.8c-1.2,0-2.3-0.3-3.2-0.9s-1.6-1.3-2-2.2v9.1h-1.7V43.6h1.7v2.9
		C120.3,45.6,121,44.9,121.9,44.3z M129,47.3c-0.4-0.8-1-1.4-1.7-1.8s-1.6-0.6-2.5-0.6c-0.9,0-1.7,0.2-2.5,0.6
		c-0.7,0.4-1.3,1-1.8,1.8c-0.4,0.8-0.6,1.7-0.6,2.8c0,1.1,0.2,2,0.6,2.8c0.4,0.8,1,1.4,1.8,1.8c0.7,0.4,1.6,0.6,2.5,0.6
		c0.9,0,1.8-0.2,2.5-0.6c0.7-0.4,1.3-1,1.7-1.8c0.4-0.8,0.6-1.7,0.6-2.8C129.7,49,129.4,48.1,129,47.3z"/>
	<path class="st0" d="M136.9,56.1c-1-0.6-1.8-1.3-2.3-2.4c-0.6-1-0.9-2.2-0.9-3.6s0.3-2.5,0.9-3.6c0.6-1,1.4-1.8,2.4-2.4
		c1-0.6,2.1-0.8,3.3-0.8c1.2,0,2.3,0.3,3.3,0.8c1,0.6,1.8,1.3,2.4,2.4c0.6,1,0.9,2.2,0.9,3.6c0,1.3-0.3,2.5-0.9,3.6
		c-0.6,1-1.4,1.8-2.4,2.4c-1,0.6-2.1,0.8-3.4,0.8S137.9,56.6,136.9,56.1z M142.6,54.8c0.7-0.4,1.3-1,1.8-1.8s0.7-1.8,0.7-2.9
		c0-1.2-0.2-2.1-0.7-2.9s-1-1.4-1.8-1.8c-0.7-0.4-1.5-0.6-2.4-0.6c-0.9,0-1.7,0.2-2.4,0.6c-0.7,0.4-1.3,1-1.8,1.8
		c-0.4,0.8-0.7,1.8-0.7,2.9c0,1.2,0.2,2.1,0.7,2.9c0.4,0.8,1,1.4,1.8,1.8c0.7,0.4,1.5,0.6,2.4,0.6C141.1,55.4,141.9,55.2,142.6,54.8
		z"/>
	<path class="st0" d="M150.7,55.8c-1-0.7-1.5-1.6-1.6-2.8h1.7c0.1,0.7,0.4,1.3,1,1.8c0.6,0.5,1.4,0.7,2.5,0.7c0.9,0,1.6-0.2,2.1-0.6
		c0.5-0.4,0.8-1,0.8-1.6c0-0.4-0.1-0.8-0.4-1.1c-0.3-0.3-0.7-0.5-1.1-0.7s-1-0.3-1.8-0.5c-1-0.3-1.8-0.5-2.4-0.8s-1.1-0.6-1.5-1.1
		s-0.6-1.2-0.6-2c0-0.6,0.2-1.2,0.6-1.8c0.4-0.5,0.9-1,1.6-1.3c0.7-0.3,1.5-0.5,2.4-0.5c1.4,0,2.5,0.4,3.4,1.1
		c0.9,0.7,1.3,1.7,1.4,2.9h-1.7c0-0.8-0.3-1.4-0.9-1.9c-0.6-0.5-1.3-0.7-2.3-0.7c-0.8,0-1.5,0.2-2.1,0.6c-0.5,0.4-0.8,0.9-0.8,1.5
		c0,0.5,0.2,0.9,0.5,1.3c0.3,0.3,0.7,0.6,1.2,0.8c0.5,0.2,1.1,0.4,1.9,0.6c0.9,0.3,1.7,0.5,2.3,0.7c0.6,0.2,1,0.6,1.4,1.1
		c0.4,0.5,0.6,1.1,0.6,1.8c0,0.7-0.2,1.3-0.6,1.9c-0.4,0.6-0.9,1-1.6,1.3c-0.7,0.3-1.5,0.5-2.4,0.5
		C152.9,56.9,151.6,56.5,150.7,55.8z"/>
	<path class="st0" d="M162.1,40.8c-0.2-0.2-0.4-0.5-0.4-0.9c0-0.4,0.1-0.6,0.4-0.9c0.2-0.2,0.5-0.3,0.9-0.3c0.3,0,0.6,0.1,0.9,0.3
		c0.2,0.2,0.4,0.5,0.4,0.9c0,0.4-0.1,0.6-0.4,0.9c-0.2,0.2-0.5,0.4-0.9,0.4C162.6,41.1,162.3,41,162.1,40.8z M163.8,43.6v13.1h-1.7
		V43.6H163.8z"/>
	<path class="st0" d="M169.8,45v8.1c0,0.8,0.2,1.4,0.5,1.7c0.3,0.3,0.8,0.5,1.6,0.5h1.5v1.4h-1.8c-1.2,0-2.1-0.3-2.6-0.8
		s-0.9-1.5-0.9-2.7V45h-1.8v-1.4h1.8v-3.3h1.7v3.3h3.6V45H169.8z"/>
	<path class="st0" d="M176.1,40.8c-0.2-0.2-0.4-0.5-0.4-0.9c0-0.4,0.1-0.6,0.4-0.9c0.2-0.2,0.5-0.3,0.9-0.3s0.6,0.1,0.9,0.3
		c0.2,0.2,0.4,0.5,0.4,0.9c0,0.4-0.1,0.6-0.4,0.9c-0.2,0.2-0.5,0.4-0.9,0.4S176.4,41,176.1,40.8z M177.8,43.6v13.1h-1.7V43.6H177.8z
		"/>
	<path class="st0" d="M186.3,55.1l4.4-11.5h1.8l-5.3,13.1h-1.9l-5.3-13.1h1.8L186.3,55.1z"/>
	<path class="st0" d="M197.2,56.1c-1-0.6-1.8-1.3-2.3-2.4c-0.6-1-0.9-2.2-0.9-3.6s0.3-2.5,0.9-3.6c0.6-1,1.4-1.8,2.4-2.4
		s2.1-0.8,3.3-0.8s2.3,0.3,3.3,0.8s1.8,1.3,2.4,2.4c0.6,1,0.9,2.2,0.9,3.6c0,1.3-0.3,2.5-0.9,3.6c-0.6,1-1.4,1.8-2.4,2.4
		c-1,0.6-2.1,0.8-3.4,0.8C199.3,56.9,198.2,56.6,197.2,56.1z M202.9,54.8c0.7-0.4,1.3-1,1.8-1.8c0.5-0.8,0.7-1.8,0.7-2.9
		c0-1.2-0.2-2.1-0.7-2.9c-0.4-0.8-1-1.4-1.8-1.8c-0.7-0.4-1.5-0.6-2.4-0.6c-0.9,0-1.7,0.2-2.4,0.6c-0.7,0.4-1.3,1-1.8,1.8
		c-0.4,0.8-0.7,1.8-0.7,2.9c0,1.2,0.2,2.1,0.7,2.9c0.4,0.8,1,1.4,1.8,1.8c0.7,0.4,1.5,0.6,2.4,0.6S202.2,55.2,202.9,54.8z"/>
	<path class="st0" d="M220.4,44.3c0.9-0.6,2-0.9,3.2-0.9c1.2,0,2.3,0.3,3.2,0.8s1.7,1.3,2.2,2.4c0.5,1,0.8,2.2,0.8,3.5
		s-0.3,2.5-0.8,3.6c-0.5,1-1.3,1.8-2.2,2.4c-1,0.6-2,0.8-3.2,0.8c-1.2,0-2.3-0.3-3.2-0.9s-1.6-1.3-2-2.2v9.1h-1.7V43.6h1.7v2.9
		C218.8,45.6,219.5,44.9,220.4,44.3z M227.5,47.3c-0.4-0.8-1-1.4-1.7-1.8c-0.7-0.4-1.6-0.6-2.5-0.6c-0.9,0-1.7,0.2-2.5,0.6
		c-0.7,0.4-1.3,1-1.8,1.8c-0.4,0.8-0.6,1.7-0.6,2.8c0,1.1,0.2,2,0.6,2.8c0.4,0.8,1,1.4,1.8,1.8s1.6,0.6,2.5,0.6
		c0.9,0,1.8-0.2,2.5-0.6c0.7-0.4,1.3-1,1.7-1.8c0.4-0.8,0.6-1.7,0.6-2.8C228.2,49,227.9,48.1,227.5,47.3z"/>
	<path class="st0" d="M233,46.6c0.5-1,1.3-1.8,2.2-2.4c1-0.6,2-0.8,3.2-0.8c1.2,0,2.3,0.3,3.2,0.9c0.9,0.6,1.6,1.3,2,2.2v-2.9h1.7
		v13.1h-1.7v-2.9c-0.4,0.9-1.1,1.6-2,2.2c-0.9,0.6-2,0.9-3.2,0.9c-1.2,0-2.3-0.3-3.2-0.8c-1-0.6-1.7-1.4-2.2-2.4
		c-0.5-1-0.8-2.2-0.8-3.6S232.5,47.6,233,46.6z M243,47.4c-0.4-0.8-1-1.4-1.8-1.8c-0.7-0.4-1.6-0.6-2.5-0.6c-0.9,0-1.8,0.2-2.5,0.6
		c-0.7,0.4-1.3,1-1.7,1.8c-0.4,0.8-0.6,1.7-0.6,2.8c0,1.1,0.2,2,0.6,2.8s1,1.4,1.7,1.8c0.7,0.4,1.6,0.6,2.5,0.6
		c0.9,0,1.7-0.2,2.5-0.6c0.7-0.4,1.3-1,1.8-1.8c0.4-0.8,0.6-1.7,0.6-2.8C243.6,49.1,243.4,48.2,243,47.4z"/>
	<path class="st0" d="M252.5,44c0.8-0.4,1.7-0.7,2.8-0.7v1.8h-0.5c-1.2,0-2.2,0.3-2.9,1c-0.7,0.7-1.1,1.8-1.1,3.3v7.3h-1.7V43.6h1.7
		v2.3C251.2,45.1,251.8,44.5,252.5,44z"/>
	<path class="st0" d="M257.9,46.6c0.5-1,1.3-1.8,2.2-2.4c1-0.6,2-0.8,3.2-0.8c1.2,0,2.3,0.3,3.2,0.9c0.9,0.6,1.6,1.3,2,2.2v-2.9h1.7
		v13.1h-1.7v-2.9c-0.4,0.9-1.1,1.6-2,2.2c-0.9,0.6-2,0.9-3.2,0.9c-1.2,0-2.3-0.3-3.2-0.8c-1-0.6-1.7-1.4-2.2-2.4
		c-0.5-1-0.8-2.2-0.8-3.6S257.3,47.6,257.9,46.6z M267.9,47.4c-0.4-0.8-1-1.4-1.8-1.8c-0.7-0.4-1.6-0.6-2.5-0.6
		c-0.9,0-1.8,0.2-2.5,0.6c-0.7,0.4-1.3,1-1.7,1.8c-0.4,0.8-0.6,1.7-0.6,2.8c0,1.1,0.2,2,0.6,2.8s1,1.4,1.7,1.8
		c0.7,0.4,1.6,0.6,2.5,0.6c0.9,0,1.7-0.2,2.5-0.6c0.7-0.4,1.3-1,1.8-1.8c0.4-0.8,0.6-1.7,0.6-2.8C268.5,49.1,268.3,48.2,267.9,47.4z
		"/>
	<path class="st0" d="M57.3,83.9l4.4-11.5h1.8l-5.3,13.1h-1.9l-5.3-13.1h1.8L57.3,83.9z"/>
	<path class="st0" d="M77.6,79.6H66.8c0,1,0.3,1.8,0.7,2.5c0.4,0.7,1,1.2,1.7,1.6c0.7,0.4,1.5,0.5,2.3,0.5c1.1,0,2-0.3,2.7-0.8
		c0.7-0.5,1.2-1.2,1.5-2.1h1.8c-0.3,1.3-1,2.3-2.1,3.1c-1,0.8-2.4,1.2-3.9,1.2c-1.2,0-2.3-0.3-3.3-0.8c-1-0.6-1.7-1.3-2.3-2.4
		c-0.6-1-0.8-2.2-0.8-3.6s0.3-2.6,0.8-3.6c0.5-1,1.3-1.8,2.3-2.4c1-0.5,2.1-0.8,3.3-0.8s2.3,0.3,3.3,0.8c0.9,0.5,1.7,1.3,2.2,2.2
		c0.5,0.9,0.8,1.9,0.8,3.1C77.7,78.8,77.7,79.3,77.6,79.6z M75.4,75.7c-0.4-0.7-1-1.2-1.7-1.6c-0.7-0.4-1.5-0.5-2.3-0.5
		c-1.2,0-2.3,0.4-3.2,1.2c-0.9,0.8-1.4,1.9-1.5,3.4H76C76,77.2,75.8,76.4,75.4,75.7z"/>
	<path class="st0" d="M84.1,72.8c0.8-0.4,1.7-0.7,2.8-0.7v1.8h-0.5c-1.2,0-2.2,0.3-2.9,1c-0.7,0.7-1.1,1.8-1.1,3.3v7.3h-1.7V72.4
		h1.7v2.3C82.8,73.9,83.4,73.3,84.1,72.8z"/>
	<path class="st0" d="M107.8,79.6H96.9c0,1,0.3,1.8,0.7,2.5c0.4,0.7,1,1.2,1.7,1.6c0.7,0.4,1.5,0.5,2.3,0.5c1.1,0,2-0.3,2.7-0.8
		c0.7-0.5,1.2-1.2,1.5-2.1h1.8c-0.3,1.3-1,2.3-2.1,3.1c-1,0.8-2.4,1.2-3.9,1.2c-1.2,0-2.3-0.3-3.3-0.8c-1-0.6-1.7-1.3-2.3-2.4
		c-0.6-1-0.8-2.2-0.8-3.6s0.3-2.6,0.8-3.6c0.5-1,1.3-1.8,2.3-2.4c1-0.5,2.1-0.8,3.3-0.8s2.3,0.3,3.3,0.8c0.9,0.5,1.7,1.3,2.2,2.2
		c0.5,0.9,0.8,1.9,0.8,3.1C107.9,78.8,107.9,79.3,107.8,79.6z M105.6,75.7c-0.4-0.7-1-1.2-1.7-1.6c-0.7-0.4-1.5-0.5-2.3-0.5
		c-1.2,0-2.3,0.4-3.2,1.2c-0.9,0.8-1.4,1.9-1.5,3.4h9.2C106.2,77.2,106,76.4,105.6,75.7z"/>
	<path class="st0" d="M112.6,67.7v17.8h-1.7V67.7H112.6z"/>
	<path class="st0" d="M126.6,73.1c0.9-0.6,2-0.9,3.2-0.9c1.2,0,2.3,0.3,3.2,0.8s1.7,1.3,2.2,2.4c0.5,1,0.8,2.2,0.8,3.5
		s-0.3,2.5-0.8,3.6c-0.5,1-1.3,1.8-2.2,2.4c-1,0.6-2,0.8-3.2,0.8c-1.2,0-2.3-0.3-3.2-0.9s-1.6-1.3-2-2.2v9.1H123V72.4h1.7v2.9
		C125.1,74.4,125.7,73.7,126.6,73.1z M133.8,76.1c-0.4-0.8-1-1.4-1.7-1.8s-1.6-0.6-2.5-0.6c-0.9,0-1.7,0.2-2.5,0.6
		c-0.7,0.4-1.3,1-1.8,1.8c-0.4,0.8-0.6,1.7-0.6,2.8c0,1.1,0.2,2,0.6,2.8c0.4,0.8,1,1.4,1.8,1.8c0.7,0.4,1.6,0.6,2.5,0.6
		c0.9,0,1.8-0.2,2.5-0.6c0.7-0.4,1.3-1,1.7-1.8c0.4-0.8,0.6-1.7,0.6-2.8C134.4,77.8,134.2,76.9,133.8,76.1z"/>
	<path class="st0" d="M141.6,84.9c-1-0.6-1.8-1.3-2.3-2.4c-0.6-1-0.9-2.2-0.9-3.6s0.3-2.5,0.9-3.6c0.6-1,1.4-1.8,2.4-2.4
		c1-0.6,2.1-0.8,3.3-0.8s2.3,0.3,3.3,0.8s1.8,1.3,2.4,2.4c0.6,1,0.9,2.2,0.9,3.6c0,1.3-0.3,2.5-0.9,3.6c-0.6,1-1.4,1.8-2.4,2.4
		c-1,0.6-2.1,0.8-3.4,0.8C143.7,85.7,142.6,85.4,141.6,84.9z M147.3,83.6c0.7-0.4,1.3-1,1.8-1.8c0.5-0.8,0.7-1.8,0.7-2.9
		c0-1.2-0.2-2.1-0.7-2.9c-0.4-0.8-1-1.4-1.8-1.8c-0.7-0.4-1.5-0.6-2.4-0.6c-0.9,0-1.7,0.2-2.4,0.6c-0.7,0.4-1.3,1-1.8,1.8
		c-0.4,0.8-0.7,1.8-0.7,2.9c0,1.2,0.2,2.1,0.7,2.9c0.4,0.8,1,1.4,1.8,1.8c0.7,0.4,1.5,0.6,2.4,0.6S146.6,84,147.3,83.6z"/>
	<path class="st0" d="M158,72.8c0.8-0.4,1.7-0.7,2.8-0.7v1.8h-0.5c-1.2,0-2.2,0.3-2.9,1c-0.7,0.7-1.1,1.8-1.1,3.3v7.3h-1.7V72.4h1.7
		v2.3C156.7,73.9,157.2,73.3,158,72.8z"/>
	<path class="st0" d="M165.5,73.8v8.1c0,0.8,0.2,1.4,0.5,1.7c0.3,0.3,0.8,0.5,1.6,0.5h1.5v1.4h-1.8c-1.2,0-2.1-0.3-2.6-0.8
		c-0.6-0.6-0.9-1.5-0.9-2.7v-8.1H162v-1.4h1.8v-3.3h1.7v3.3h3.6v1.4H165.5z"/>
	<path class="st0" d="M171.9,75.4c0.5-1,1.3-1.8,2.2-2.4s2-0.8,3.2-0.8c1.2,0,2.3,0.3,3.2,0.9c0.9,0.6,1.6,1.3,2,2.2v-2.9h1.7v13.1
		h-1.7v-2.9c-0.4,0.9-1.1,1.6-2,2.2c-0.9,0.6-2,0.9-3.2,0.9c-1.2,0-2.3-0.3-3.2-0.8c-1-0.6-1.7-1.4-2.2-2.4c-0.5-1-0.8-2.2-0.8-3.6
		S171.3,76.4,171.9,75.4z M181.9,76.2c-0.4-0.8-1-1.4-1.8-1.8c-0.7-0.4-1.6-0.6-2.5-0.6c-0.9,0-1.8,0.2-2.5,0.6
		c-0.7,0.4-1.3,1-1.7,1.8c-0.4,0.8-0.6,1.7-0.6,2.8c0,1.1,0.2,2,0.6,2.8c0.4,0.8,1,1.4,1.7,1.8c0.7,0.4,1.6,0.6,2.5,0.6
		c0.9,0,1.7-0.2,2.5-0.6s1.3-1,1.8-1.8c0.4-0.8,0.6-1.7,0.6-2.8C182.5,77.9,182.3,77,181.9,76.2z"/>
	<path class="st0" d="M193.2,73.8h-3v11.7h-1.7V73.8h-1.8v-1.4h1.8v-0.9c0-1.4,0.4-2.5,1.1-3.1c0.7-0.7,1.9-1,3.5-1v1.4
		c-1.1,0-1.9,0.2-2.3,0.6c-0.4,0.4-0.7,1.1-0.7,2.1v0.9h3V73.8z"/>
	<path class="st0" d="M198.3,84.9c-1-0.6-1.8-1.3-2.3-2.4c-0.6-1-0.9-2.2-0.9-3.6s0.3-2.5,0.9-3.6c0.6-1,1.4-1.8,2.4-2.4
		s2.1-0.8,3.3-0.8s2.3,0.3,3.3,0.8s1.8,1.3,2.4,2.4c0.6,1,0.9,2.2,0.9,3.6c0,1.3-0.3,2.5-0.9,3.6c-0.6,1-1.4,1.8-2.4,2.4
		c-1,0.6-2.1,0.8-3.4,0.8C200.4,85.7,199.2,85.4,198.3,84.9z M204,83.6c0.7-0.4,1.3-1,1.8-1.8c0.5-0.8,0.7-1.8,0.7-2.9
		c0-1.2-0.2-2.1-0.7-2.9c-0.4-0.8-1-1.4-1.8-1.8c-0.7-0.4-1.5-0.6-2.4-0.6c-0.9,0-1.7,0.2-2.4,0.6c-0.7,0.4-1.3,1-1.8,1.8
		c-0.4,0.8-0.7,1.8-0.7,2.9c0,1.2,0.2,2.1,0.7,2.9c0.4,0.8,1,1.4,1.8,1.8c0.7,0.4,1.5,0.6,2.4,0.6S203.2,84,204,83.6z"/>
	<path class="st0" d="M212.9,67.7v17.8h-1.7V67.7H212.9z"/>
	<path class="st0" d="M216.7,69.6c-0.2-0.2-0.4-0.5-0.4-0.9c0-0.4,0.1-0.6,0.4-0.9c0.2-0.2,0.5-0.3,0.9-0.3c0.3,0,0.6,0.1,0.9,0.3
		c0.2,0.2,0.4,0.5,0.4,0.9c0,0.4-0.1,0.6-0.4,0.9c-0.2,0.2-0.5,0.4-0.9,0.4C217.3,69.9,217,69.8,216.7,69.6z M218.4,72.4v13.1h-1.7
		V72.4H218.4z"/>
	<path class="st0" d="M224.7,84.9c-1-0.6-1.8-1.3-2.3-2.4c-0.6-1-0.9-2.2-0.9-3.6s0.3-2.5,0.9-3.6c0.6-1,1.4-1.8,2.4-2.4
		c1-0.6,2.1-0.8,3.3-0.8c1.2,0,2.3,0.3,3.3,0.8s1.8,1.3,2.4,2.4c0.6,1,0.9,2.2,0.9,3.6c0,1.3-0.3,2.5-0.9,3.6
		c-0.6,1-1.4,1.8-2.4,2.4c-1,0.6-2.1,0.8-3.4,0.8C226.8,85.7,225.6,85.4,224.7,84.9z M230.4,83.6c0.7-0.4,1.3-1,1.8-1.8
		s0.7-1.8,0.7-2.9c0-1.2-0.2-2.1-0.7-2.9s-1-1.4-1.8-1.8c-0.7-0.4-1.5-0.6-2.4-0.6s-1.7,0.2-2.4,0.6c-0.7,0.4-1.3,1-1.8,1.8
		s-0.7,1.8-0.7,2.9c0,1.2,0.2,2.1,0.7,2.9s1,1.4,1.8,1.8c0.7,0.4,1.5,0.6,2.4,0.6C228.8,84.2,229.6,84,230.4,83.6z"/>
</g>
</svg>
