<?xml version="1.0" encoding="utf-8"?>
<!-- Generator: Adobe Illustrator 25.0.0, SVG Export Plug-In . SVG Version: 6.00 Build 0)  -->
<svg version="1.1" xmlns="http://www.w3.org/2000/svg" xmlns:xlink="http://www.w3.org/1999/xlink" x="0px" y="0px"
	 viewBox="0 0 500 500" style="enable-background:new 0 0 500 500;" xml:space="preserve">
<style type="text/css">
	.st0{fill:#FFFFFF;}
</style>
<g id="Layer_1">
	<g>
		<g>
			<path class="st0" d="M250,0C112.2,0,0,112.1,0,250s112.2,250,250,250s250-112.2,250-250S387.9,0,250,0z M415.7,212.3
				c-1.6,4.2-5.6,7-10.1,7h-8.5v181.3c0,6-4.8,10.8-10.8,10.8H113.6c-6,0-10.8-4.8-10.8-10.8V219.3h-8.4c-4.5,0-8.6-2.8-10.1-7
				c-1.6-4.2-0.3-9,3.1-11.9L243,65.9c4-3.5,10.1-3.5,14.1,0l39.3,33.9v-6.4c0-5.9,4.8-10.8,10.8-10.8h43.3
				c5.9,0,10.8,4.8,10.8,10.8v62.4l51.6,44.5C416.1,203.3,417.3,208.1,415.7,212.3z"/>
		</g>
		<g>
			<path class="st0" d="M124.4,389.8h71V284.5c0-5.9,4.8-10.8,10.8-10.8h87.7c5.9,0,10.8,4.8,10.8,10.8v105.4h71V219.3H124.4V389.8z
				"/>
			<polygon class="st0" points="250,88.3 124.4,196.8 375.6,196.8 			"/>
			<polygon class="st0" points="339.6,104.2 317.9,104.2 317.9,118.5 339.6,137.2 			"/>
			<rect x="216.9" y="295.2" class="st0" width="66.2" height="94.6"/>
		</g>
	</g>
</g>
<g id="Layer_3">
</g>
</svg>
